<svg width="24" height="24" viewBox="0 0 24 24" fill="none" xmlns="http://www.w3.org/2000/svg">
<g id="Property 1=Behind">
<g id="switch_camera">
<path id="Icon color" fill-rule="evenodd" clip-rule="evenodd" d="M20 7H18.83C18.297 7.00042 17.7858 6.78804 17.41 6.41L15.88 4.88C15.3179 4.31723 14.5554 4.0007 13.76 4H10.24C9.44462 4.0007 8.68207 4.31723 8.12 4.88L6.59 6.41C6.2142 6.78804 5.70304 7.00042 5.17 7H4C2.89543 7 2 7.89543 2 9V18C2 19.1046 2.89543 20 4 20H20C21.1046 20 22 19.1046 22 18V9C22 7.89543 21.1046 7 20 7ZM11.5902 10.4999C10.5247 10.6973 9.75132 11.6262 9.75019 12.7099H10.5602C10.6532 12.7088 10.7391 12.7594 10.7832 12.8413C10.8273 12.9232 10.8223 13.0228 10.7702 13.0999L9.23019 15.3999C9.18664 15.4714 9.10895 15.5151 9.02519 15.5151C8.94144 15.5151 8.86375 15.4714 8.82019 15.3999L7.28019 13.0999C7.2281 13.0228 7.22309 12.9232 7.26719 12.8413C7.31128 12.7594 7.39719 12.7088 7.49019 12.7099H8.25019C8.24689 10.864 9.58734 9.29029 11.4102 8.99988C11.5575 8.9729 11.7092 9.0134 11.8235 9.11026C11.9378 9.20711 12.0026 9.3501 12.0002 9.49988V9.99988C12.0042 10.2444 11.8307 10.4559 11.5902 10.4999ZM15.75 13.29H16.51C16.5997 13.2887 16.6819 13.2395 16.7253 13.1609C16.7687 13.0824 16.7667 12.9866 16.72 12.91L15.18 10.61C15.1364 10.5385 15.0588 10.4948 14.975 10.4948C14.8912 10.4948 14.8136 10.5385 14.77 10.61L13.23 12.91C13.1779 12.9871 13.1729 13.0867 13.217 13.1685C13.2611 13.2504 13.347 13.3011 13.44 13.3H14.25C14.2489 14.3836 13.4755 15.3125 12.41 15.51C12.1732 15.5533 12.0009 15.7593 12 16V16.5C11.9976 16.6498 12.0624 16.7928 12.1767 16.8896C12.291 16.9865 12.4426 17.027 12.59 17C14.4129 16.7096 15.7533 15.1358 15.75 13.29Z" fill="#626262"/>
</g>
</g>
</svg>
