<svg width="24.000000" height="24.000000" viewBox="0 0 24 24" fill="none" xmlns="http://www.w3.org/2000/svg" xmlns:xlink="http://www.w3.org/1999/xlink">
	<desc>
			Created with Pixso.
	</desc>
	<defs/>
	<path id="Vector" d="M9.25 9.04C11.03 9.69 12.97 9.69 14.75 9.04" stroke="#717171" stroke-opacity="1.000000" stroke-width="1.500000" stroke-linejoin="round" stroke-linecap="round"/>
	<path id="Vector" d="M7.18 2C5.05 2 3.32 3.74 3.32 5.85L3.32 19.95C3.32 21.75 4.61 22.5 6.19 21.64L11.07 18.93C11.59 18.64 12.43 18.64 12.94 18.93L17.82 21.64C19.4 22.52 20.69 21.75 20.69 19.95L20.69 5.85C20.68 3.74 18.95 2 16.82 2L7.18 2Z" stroke="#717171" stroke-opacity="1.000000" stroke-width="1.500000" stroke-linejoin="round"/>
	<path id="Vector" d="M7.18 2C5.05 2 3.32 3.74 3.32 5.85L3.32 19.95C3.32 21.75 4.61 22.5 6.19 21.64L11.07 18.93C11.59 18.64 12.43 18.64 12.94 18.93L17.82 21.64C19.4 22.52 20.69 21.75 20.69 19.95L20.69 5.85C20.68 3.74 18.95 2 16.82 2L7.18 2Z" stroke="#717171" stroke-opacity="1.000000" stroke-width="1.500000" stroke-linejoin="round"/>
	<g opacity="0.000000"/>
</svg>
