<svg width="16" height="16" viewBox="0 0 16 16" fill="none" xmlns="http://www.w3.org/2000/svg">
<g id="CaretLeft">
<path id="Vector" d="M10.5307 12.4694C10.6715 12.6103 10.7507 12.8014 10.7507 13.0006C10.7507 13.1999 10.6715 13.391 10.5307 13.5319C10.3898 13.6728 10.1987 13.7519 9.9994 13.7519C9.80014 13.7519 9.60905 13.6728 9.46815 13.5319L4.46815 8.53188C4.39823 8.4622 4.34275 8.37941 4.3049 8.28824C4.26704 8.19708 4.24756 8.09934 4.24756 8.00063C4.24756 7.90192 4.26704 7.80418 4.3049 7.71302C4.34275 7.62185 4.39823 7.53906 4.46815 7.46938L9.46815 2.46938C9.60905 2.32848 9.80014 2.24933 9.9994 2.24933C10.1987 2.24933 10.3898 2.32848 10.5307 2.46938C10.6715 2.61028 10.7507 2.80137 10.7507 3.00063C10.7507 3.19989 10.6715 3.39098 10.5307 3.53188L6.06252 8L10.5307 12.4694Z" fill="black" fill-opacity="0.46"/>
</g>
</svg>
