<svg width="16" height="16" viewBox="0 0 16 16" fill="none" xmlns="http://www.w3.org/2000/svg">
<g id="chat info / 24 / Outline">
<path id="Vector" d="M7.99796 7.3335C7.82115 7.3335 7.65158 7.40373 7.52655 7.52876C7.40153 7.65378 7.33129 7.82335 7.33129 8.00016V10.0002C7.33129 10.177 7.40153 10.3465 7.52655 10.4716C7.65158 10.5966 7.82115 10.6668 7.99796 10.6668C8.17477 10.6668 8.34434 10.5966 8.46936 10.4716C8.59439 10.3465 8.66462 10.177 8.66462 10.0002V8.00016C8.66462 7.82335 8.59439 7.65378 8.46936 7.52876C8.34434 7.40373 8.17477 7.3335 7.99796 7.3335ZM7.99796 5.3335C7.8661 5.3335 7.73721 5.3726 7.62758 5.44585C7.51794 5.5191 7.4325 5.62322 7.38204 5.74504C7.33158 5.86686 7.31838 6.0009 7.3441 6.13022C7.36982 6.25954 7.43332 6.37833 7.52655 6.47157C7.61979 6.5648 7.73858 6.6283 7.8679 6.65402C7.99722 6.67974 8.13126 6.66654 8.25308 6.61608C8.3749 6.56562 8.47902 6.48018 8.55227 6.37054C8.62552 6.26091 8.66462 6.13202 8.66462 6.00016C8.66462 5.82335 8.59439 5.65378 8.46936 5.52876C8.34434 5.40373 8.17477 5.3335 7.99796 5.3335ZM7.99796 1.3335C7.12248 1.3335 6.25557 1.50593 5.44673 1.84097C4.6379 2.176 3.90297 2.66706 3.28391 3.28612C2.03367 4.53636 1.33129 6.23205 1.33129 8.00016C1.32546 9.53959 1.85849 11.0325 2.83796 12.2202L1.50462 13.5535C1.41212 13.6472 1.34945 13.7663 1.32454 13.8956C1.29962 14.0249 1.31357 14.1588 1.36462 14.2802C1.42 14.4001 1.50976 14.5009 1.62252 14.5698C1.73528 14.6386 1.86596 14.6724 1.99796 14.6668H7.99796C9.76607 14.6668 11.4618 13.9645 12.712 12.7142C13.9622 11.464 14.6646 9.76827 14.6646 8.00016C14.6646 6.23205 13.9622 4.53636 12.712 3.28612C11.4618 2.03588 9.76607 1.3335 7.99796 1.3335ZM7.99796 13.3335H3.60462L4.22462 12.7135C4.28762 12.6518 4.33773 12.5781 4.37206 12.4969C4.40639 12.4156 4.42426 12.3284 4.42462 12.2402C4.42212 12.0643 4.35023 11.8966 4.22462 11.7735C3.35168 10.9015 2.80807 9.75386 2.68642 8.52603C2.56476 7.2982 2.87259 6.06617 3.55744 5.03984C4.2423 4.01352 5.26182 3.2564 6.4423 2.89748C7.62278 2.53855 8.8912 2.60003 10.0314 3.07144C11.1717 3.54284 12.1132 4.39501 12.6956 5.48276C13.278 6.5705 13.4652 7.82653 13.2254 9.03683C12.9855 10.2471 12.3335 11.3369 11.3803 12.1203C10.4271 12.9038 9.2318 13.3325 7.99796 13.3335Z" fill="#D02D2D"/>
</g>
</svg>
