<svg width="10" height="10" viewBox="0 0 10 10" fill="none" xmlns="http://www.w3.org/2000/svg">
<path id="Vector" fill-rule="evenodd" clip-rule="evenodd" d="M1.20372 0.720152C1.34434 0.579702 1.53497 0.500812 1.73372 0.500812C1.93247 0.500812 2.12309 0.579702 2.26372 0.720152L5.48372 3.94015L8.70372 0.720152C8.77242 0.646462 8.85522 0.587362 8.94722 0.546372C9.03922 0.505382 9.13851 0.483342 9.23921 0.481562C9.33992 0.479782 9.43991 0.498312 9.53331 0.536032C9.62671 0.573752 9.71151 0.629892 9.78271 0.701112C9.85401 0.772332 9.91012 0.857172 9.94781 0.950552C9.98551 1.04394 10.0041 1.14397 10.0023 1.24467C10.0005 1.34538 9.97852 1.44469 9.93752 1.53669C9.89651 1.62869 9.83741 1.71149 9.76371 1.78015L6.54372 5.00015L9.76371 8.22015C9.83741 8.28885 9.89651 8.37165 9.93752 8.46365C9.97852 8.55565 10.0005 8.65495 10.0023 8.75565C10.0041 8.85635 9.98551 8.95635 9.94781 9.04975C9.91012 9.14315 9.85401 9.22795 9.78271 9.29915C9.71151 9.37045 9.62671 9.42655 9.53331 9.46425C9.43991 9.50195 9.33992 9.52055 9.23921 9.51875C9.13851 9.51695 9.03922 9.49495 8.94722 9.45395C8.85522 9.41295 8.77242 9.35385 8.70372 9.28015L5.48372 6.06015L2.26372 9.28015C2.12154 9.41265 1.93348 9.48475 1.73918 9.48135C1.54488 9.47785 1.3595 9.39915 1.22208 9.26175C1.08467 9.12435 1.00597 8.93895 1.00254 8.74465C0.999105 8.55035 1.07124 8.36235 1.20372 8.22015L4.42372 5.00015L1.20372 1.78015C1.06327 1.63953 0.984375 1.4489 0.984375 1.25015C0.984375 1.0514 1.06327 0.860782 1.20372 0.720152Z" fill="#24292E"/>
</svg>
