<svg width="90" height="25" viewBox="0 0 90 25" fill="none" xmlns="http://www.w3.org/2000/svg">
<path d="M9.78725 24.384C8.05925 24.384 6.50192 23.9893 5.11525 23.2C3.74991 22.3893 2.67258 21.3013 1.88325 19.936C1.09391 18.5493 0.699248 16.992 0.699248 15.264C0.699248 13.536 1.09391 11.9893 1.88325 10.624C2.67258 9.25867 3.74991 8.18133 5.11525 7.392C6.50192 6.60266 8.05925 6.208 9.78725 6.208C11.0246 6.208 12.1766 6.432 13.2432 6.88C14.3099 7.30667 15.2272 7.904 15.9952 8.672C16.7846 9.41867 17.3499 10.3147 17.6912 11.36L14.0112 12.96C13.6912 12.0853 13.1472 11.3813 12.3792 10.848C11.6326 10.3147 10.7686 10.048 9.78725 10.048C8.86992 10.048 8.04858 10.272 7.32325 10.72C6.61925 11.168 6.06458 11.7867 5.65925 12.576C5.25392 13.3653 5.05125 14.272 5.05125 15.296C5.05125 16.32 5.25392 17.2267 5.65925 18.016C6.06458 18.8053 6.61925 19.424 7.32325 19.872C8.04858 20.32 8.86992 20.544 9.78725 20.544C10.7899 20.544 11.6646 20.2773 12.4112 19.744C13.1579 19.2107 13.6912 18.496 14.0112 17.6L17.6912 19.264C17.3499 20.2453 16.7952 21.1307 16.0272 21.92C15.2592 22.688 14.3419 23.296 13.2752 23.744C12.2086 24.1707 11.0459 24.384 9.78725 24.384Z" fill="#131313"/>
<path d="M20.264 24V0.159998H24.424L33.352 12.288H31.368L40.104 0.159998H44.264V24H39.88V5.12L41.576 5.536L32.52 17.6H32.008L23.176 5.536L24.616 5.12V24H20.264ZM53.7225 24.384C52.3785 24.384 51.2052 24.0853 50.2025 23.488C49.2212 22.8907 48.4638 22.0587 47.9305 20.992C47.4185 19.9253 47.1625 18.6773 47.1625 17.248V6.592H51.3545V16.896C51.3545 17.6213 51.4932 18.2613 51.7705 18.816C52.0692 19.3493 52.4852 19.776 53.0185 20.096C53.5732 20.3947 54.1918 20.544 54.8745 20.544C55.5572 20.544 56.1652 20.3947 56.6985 20.096C57.2318 19.776 57.6478 19.3387 57.9465 18.784C58.2452 18.2293 58.3945 17.568 58.3945 16.8V6.592H62.5865V24H58.6185V20.576L58.9705 21.184C58.5652 22.2507 57.8932 23.0507 56.9545 23.584C56.0372 24.1173 54.9598 24.384 53.7225 24.384ZM74.0353 24.384C72.3286 24.384 70.7713 23.9893 69.3633 23.2C67.9766 22.4107 66.8673 21.3333 66.0353 19.968C65.2246 18.6027 64.8193 17.0453 64.8193 15.296C64.8193 13.5467 65.2246 11.9893 66.0353 10.624C66.8673 9.25867 67.9766 8.18133 69.3633 7.392C70.7499 6.60266 72.3073 6.208 74.0353 6.208C75.7419 6.208 77.2886 6.60266 78.6753 7.392C80.0619 8.18133 81.1606 9.25867 81.9713 10.624C82.8033 11.968 83.2193 13.5253 83.2193 15.296C83.2193 17.0453 82.8033 18.6027 81.9713 19.968C81.1393 21.3333 80.0299 22.4107 78.6433 23.2C77.2566 23.9893 75.7206 24.384 74.0353 24.384ZM74.0353 20.544C74.9739 20.544 75.7953 20.32 76.4993 19.872C77.2246 19.424 77.7899 18.8053 78.1953 18.016C78.6219 17.2053 78.8353 16.2987 78.8353 15.296C78.8353 14.272 78.6219 13.376 78.1953 12.608C77.7899 11.8187 77.2246 11.2 76.4993 10.752C75.7953 10.2827 74.9739 10.048 74.0353 10.048C73.0753 10.048 72.2326 10.2827 71.5073 10.752C70.7819 11.2 70.2059 11.8187 69.7793 12.608C69.3739 13.376 69.1713 14.272 69.1713 15.296C69.1713 16.2987 69.3739 17.2053 69.7793 18.016C70.2059 18.8053 70.7819 19.424 71.5073 19.872C72.2326 20.32 73.0753 20.544 74.0353 20.544ZM85.4383 24V6.592H89.6303V24H85.4383ZM85.4383 4.64V0.159998H89.6303V4.64H85.4383Z" fill="#0F9565"/>
</svg>
