<svg width="24.000000" height="24.000000" viewBox="0 0 24 24" fill="none" xmlns="http://www.w3.org/2000/svg" xmlns:xlink="http://www.w3.org/1999/xlink">
	<desc>
			Created with Pixso.
	</desc>
	<defs/>
	<rect id="vuesax/linear/coffee" width="24.000000" height="24.000000" fill="#FFFFFF" fill-opacity="0"/>
	<path id="Vector" d="M17.79 17.78C17.79 20.11 15.9 22 13.58 22L6.2 22C3.89 22 2 20.1 2 17.78L2 10.46C2 8.13 3.89 6.25 6.2 6.25L13.58 6.25C15.9 6.25 17.79 8.14 17.79 10.46L17.79 17.78Z" stroke="#B8B8B8" stroke-opacity="1.000000" stroke-width="1.500000" stroke-linejoin="round"/>
	<path id="Vector" d="M5.5 4L5.5 2.25" stroke="#B8B8B8" stroke-opacity="1.000000" stroke-width="1.500000" stroke-linejoin="round" stroke-linecap="round"/>
	<path id="Vector" d="M9.5 4L9.5 2.25" stroke="#B8B8B8" stroke-opacity="1.000000" stroke-width="1.500000" stroke-linejoin="round" stroke-linecap="round"/>
	<path id="Vector" d="M13.5 4L13.5 2.25" stroke="#B8B8B8" stroke-opacity="1.000000" stroke-width="1.500000" stroke-linejoin="round" stroke-linecap="round"/>
	<path id="Vector" d="M17.79 17.37L17.79 8.95C20.11 8.95 22 10.83 22 13.16C22 15.48 20.11 17.37 17.79 17.37Z" stroke="#B8B8B8" stroke-opacity="1.000000" stroke-width="1.500000" stroke-linejoin="round"/>
	<path id="Vector" d="M2 12L17.51 12" stroke="#B8B8B8" stroke-opacity="1.000000" stroke-width="1.500000" stroke-linejoin="round" stroke-linecap="round"/>
	<g opacity="0.000000"/>
</svg>
