<svg width="24.000000" height="24.000000" viewBox="0 0 24 24" fill="none" xmlns="http://www.w3.org/2000/svg" xmlns:xlink="http://www.w3.org/1999/xlink">
	<desc>
			Created with Pixso.
	</desc>
	<defs/>
	<path id="Vector" d="M6 5.12C5.59 5.12 5.25 4.78 5.25 4.37L5.25 2.62C5.25 2.2 5.59 1.87 6 1.87C6.41 1.87 6.75 2.2 6.75 2.62L6.75 4.37C6.75 4.79 6.41 5.12 6 5.12Z" fill="#0F9565" fill-opacity="1.000000" fill-rule="nonzero"/>
	<path id="Vector" d="M10 5.12C9.59 5.12 9.25 4.78 9.25 4.37L9.25 2.62C9.25 2.2 9.59 1.87 10 1.87C10.41 1.87 10.75 2.2 10.75 2.62L10.75 4.37C10.75 4.79 10.41 5.12 10 5.12Z" fill="#0F9565" fill-opacity="1.000000" fill-rule="nonzero"/>
	<path id="Vector" d="M14 5.12C13.59 5.12 13.25 4.78 13.25 4.37L13.25 2.62C13.25 2.2 13.59 1.87 14 1.87C14.41 1.87 14.75 2.2 14.75 2.62L14.75 4.37C14.75 4.79 14.41 5.12 14 5.12Z" fill="#0F9565" fill-opacity="1.000000" fill-rule="nonzero"/>
	<path id="Vector" d="M22.25 13.25C22.25 10.62 20.21 8.5 17.66 8.28C16.92 7.07 15.6 6.25 14.08 6.25L6.71 6.25C4.39 6.25 2.5 8.14 2.5 10.46L2.5 11L18.29 11L18.29 10.46C18.29 10.27 18.26 10.08 18.23 9.9C19.68 10.33 20.75 11.65 20.75 13.25C20.75 14.81 19.7 16.12 18.29 16.56L18.29 12L2.5 12L2.5 17.78C2.5 20.1 4.39 22 6.71 22L14.08 22C16.28 22 18.07 20.29 18.25 18.13C20.53 17.67 22.25 15.65 22.25 13.25Z" fill="#0F9565" fill-opacity="1.000000" fill-rule="nonzero"/>
	<g opacity="0.000000"/>
</svg>
