<svg width="24" height="24" viewBox="0 0 24 24" fill="none" xmlns="http://www.w3.org/2000/svg">
<g id="Property 1=copy">
<g id="Component 11">
<g id="files_outlined">
<path id="Icon color" fill-rule="evenodd" clip-rule="evenodd" d="M17 17V3C17 1.89543 16.1046 1 15 1H9.24C8.44462 1.0007 7.68207 1.31723 7.12 1.88L2.88 6.12C2.31723 6.68207 2.0007 7.44462 2 8.24V17C2 18.1046 2.89543 19 4 19H15C16.1046 19 17 18.1046 17 17ZM4 9H9C9.55228 9 10 8.55228 10 8V3H15V17H4V9ZM19 19V5C20.1046 5 21 5.89543 21 7V19C21 21.2091 19.2091 23 17 23H8C6.89543 23 6 22.1046 6 21H17C18.1046 21 19 20.1046 19 19Z" fill="#626262"/>
</g>
</g>
</g>
</svg>
