<svg width="24" height="24" viewBox="0 0 24 24" fill="none" xmlns="http://www.w3.org/2000/svg">
<g id="Property 1=copy bold">
<g id="files">
<path id="Icon color" fill-rule="evenodd" clip-rule="evenodd" d="M17 17V3C17 1.89543 16.1046 1 15 1H8.83C8.29696 0.999579 7.7858 1.21196 7.41 1.59L2.59 6.41C2.21196 6.7858 1.99958 7.29696 2 7.83V17C2 18.1046 2.89543 19 4 19H15C16.1046 19 17 18.1046 17 17ZM9.00031 7.00001C9.00031 7.55229 8.5526 8.00001 8.00031 8.00001H3.82031L9.00031 2.82001V7.00001ZM19 19V5C20.1046 5 21 5.89543 21 7V19C21 21.2091 19.2091 23 17 23H8C6.89543 23 6 22.1046 6 21H17C18.1046 21 19 20.1046 19 19Z" fill="#626262"/>
</g>
</g>
</svg>
