<svg width="24" height="24" viewBox="0 0 24 24" fill="none" xmlns="http://www.w3.org/2000/svg">
<g id="Property 1=save">
<path id="Icon color" fill-rule="evenodd" clip-rule="evenodd" d="M8.53665 13.305C8.45793 13.4909 8.4987 13.7058 8.64 13.85L11.64 16.85C11.8378 17.0418 12.1522 17.0418 12.35 16.85L15.35 13.85C15.4901 13.7072 15.5315 13.4946 15.4553 13.3096C15.3791 13.1246 15.2 13.0028 15 13H13V3.5C13 3.22386 12.7761 3 12.5 3H11.5C11.2239 3 11 3.22386 11 3.5V13H9C8.79815 12.9988 8.61538 13.1191 8.53665 13.305ZM20.5 21H3.5C3.22386 21 3 20.7761 3 20.5V19.5C3 19.2239 3.22386 19 3.5 19H20.5C20.7761 19 21 19.2239 21 19.5V20.5C21 20.7761 20.7761 21 20.5 21Z" fill="#626262"/>
</g>
</svg>
