<svg width="16.000000" height="16.000000" viewBox="0 0 16 16" fill="none" xmlns="http://www.w3.org/2000/svg" xmlns:xlink="http://www.w3.org/1999/xlink">
	<desc>
			Created with Pixso.
	</desc>
	<defs/>
	<rect id="vuesax/linear/eye-slash" width="16.000000" height="16.000000" fill="#FFFFFF" fill-opacity="0"/>
	<path id="Vector" d="M6.31 9.68C5.88 9.25 5.61 8.65 5.61 8C5.61 6.67 6.67 5.61 8 5.61C8.65 5.61 9.25 5.88 9.68 6.31L6.31 9.68Z" stroke="#131313" stroke-opacity="1.000000" stroke-width="1.500000" stroke-linejoin="round"/>
	<path id="Vector" d="M11.88 3.84C10.71 2.96 9.38 2.48 8 2.48C5.64 2.48 3.45 3.87 1.92 6.27C1.32 7.21 1.32 8.79 1.92 9.73C2.45 10.56 3.06 11.27 3.73 11.84" stroke="#131313" stroke-opacity="1.000000" stroke-width="1.500000" stroke-linejoin="round" stroke-linecap="round"/>
	<path id="Vector" d="M5.61 13.01C6.37 13.34 7.17 13.51 8 13.51C10.35 13.51 12.54 12.12 14.07 9.72C14.67 8.78 14.67 7.2 14.07 6.26C13.85 5.91 13.61 5.59 13.36 5.28" stroke="#131313" stroke-opacity="1.000000" stroke-width="1.500000" stroke-linejoin="round" stroke-linecap="round"/>
	<path id="Vector" d="M10.34 8.46C10.16 9.4 9.39 10.17 8.45 10.34" stroke="#131313" stroke-opacity="1.000000" stroke-width="1.500000" stroke-linejoin="round" stroke-linecap="round"/>
	<path id="Vector" d="M6.31 9.68L1.33 14.66" stroke="#131313" stroke-opacity="1.000000" stroke-width="1.500000" stroke-linejoin="round" stroke-linecap="round"/>
	<path id="Vector" d="M14.66 1.33L9.68 6.31" stroke="#131313" stroke-opacity="1.000000" stroke-width="1.500000" stroke-linejoin="round" stroke-linecap="round"/>
	<g opacity="0.000000"/>
</svg>
