<svg width="24" height="24" viewBox="0 0 24 24" fill="none" xmlns="http://www.w3.org/2000/svg">
<path fill-rule="evenodd" clip-rule="evenodd" d="M5.99952 4.58L8.99952 9.75C9.09304 9.88398 9.24613 9.96382 9.40952 9.96382C9.57292 9.96382 9.726 9.88398 9.81952 9.75L13.8195 2.85C13.9001 2.70835 13.9066 2.53632 13.8369 2.38901C13.7672 2.24169 13.6301 2.13758 13.4695 2.11C12.9828 2.03782 12.4915 2.00106 11.9995 2C9.88929 2.00461 7.8346 2.67667 6.12952 3.92C5.93057 4.07857 5.87556 4.35782 5.99952 4.58ZM20.8699 8.99989H12.8699C12.6954 8.99195 12.5376 8.89352 12.4539 8.74024C12.3701 8.58696 12.3723 8.40107 12.4599 8.24989L15.4599 3.07989C15.5832 2.85656 15.8572 2.76521 16.0899 2.86989C18.4881 3.93106 20.3735 5.89188 21.3399 8.32989C21.3953 8.48309 21.3725 8.65367 21.279 8.78703C21.1854 8.92039 21.0328 8.99982 20.8699 8.99989ZM5 5.86C4.92094 5.71738 4.7761 5.62343 4.61363 5.60939C4.45117 5.59535 4.29236 5.66305 4.19 5.79C2.77351 7.54987 2.00084 9.74089 2 12C2.00307 12.3544 2.02645 12.7083 2.07 13.06C2.09605 13.3148 2.31395 13.5066 2.57 13.5H8.57C8.74809 13.4989 8.91217 13.4032 9.00076 13.2487C9.08934 13.0942 9.08905 12.9042 9 12.75L5 5.86ZM3.12967 15H11.1297C11.32 14.9732 11.5089 15.0578 11.6156 15.2178C11.7222 15.3777 11.7277 15.5847 11.6297 15.75L8.62967 20.92C8.50636 21.1434 8.23232 21.2347 7.99967 21.13C5.56742 20.0882 3.64721 18.1248 2.65967 15.67C2.60429 15.5168 2.627 15.3463 2.72056 15.2129C2.81411 15.0795 2.96677 15.0001 3.12967 15ZM18.9996 18.1399C19.0787 18.2825 19.2235 18.3765 19.386 18.3905C19.5484 18.4046 19.7073 18.3369 19.8096 18.2099C21.2261 16.45 21.9988 14.259 21.9996 11.9999C21.9965 11.6455 21.9732 11.2916 21.9296 10.9399C21.9036 10.6851 21.6857 10.4934 21.4296 10.4999H15.4296C15.2515 10.501 15.0874 10.5967 14.9989 10.7512C14.9103 10.9057 14.9106 11.0957 14.9996 11.2499L18.9996 18.1399ZM10.1601 21.15L14.1601 14.25H14.1701C14.2613 14.1029 14.422 14.0134 14.5951 14.0134C14.7682 14.0134 14.9289 14.1029 15.0201 14.25L18.0201 19.42C18.1441 19.6422 18.0891 19.9215 17.8901 20.08C16.1795 21.3274 14.1172 21.9996 12.0001 22C11.5014 22 11.0034 21.9632 10.5101 21.89C10.3495 21.8625 10.2124 21.7583 10.1427 21.611C10.0731 21.4637 10.0795 21.2917 10.1601 21.15Z" fill="#626262"/>
</svg>
