<svg width="24" height="24" viewBox="0 0 24 24" fill="none" xmlns="http://www.w3.org/2000/svg">
<g id="Property 1=flash">
<g id="flash">
<path id="Icon color" d="M18.0897 10.2201L11.0897 21.6401C10.9523 21.8621 10.7107 21.998 10.4497 22.0001H10.2497C10.1096 21.9999 9.97583 21.942 9.87971 21.8401C9.78407 21.7379 9.73675 21.5995 9.74971 21.4601L10.3097 15.0001H6.73971C6.47111 14.9972 6.224 14.8528 6.08971 14.6201L5.89971 14.2901C5.80426 14.1335 5.80426 13.9367 5.89971 13.7801L12.8997 2.36012C13.0408 2.13209 13.2916 1.99529 13.5597 2.00012H13.7597C13.8998 2.00038 14.0336 2.05824 14.1297 2.16012C14.2253 2.2624 14.2727 2.4007 14.2597 2.54012L13.6897 9.00012H17.2597C17.5283 9.00302 17.7754 9.14749 17.9097 9.38012L18.0997 9.71012C18.1921 9.86859 18.1882 10.0654 18.0897 10.2201Z" fill="#626262"/>
</g>
</g>
</svg>
