<svg width="24" height="24" viewBox="0 0 24 24" fill="none" xmlns="http://www.w3.org/2000/svg">
<path fill-rule="evenodd" clip-rule="evenodd" d="M19 16C19 17.1046 18.1046 18 17 18H3C1.89543 18 1 17.1046 1 16V5C1 3.89543 1.89543 3 3 3H9.59C9.85234 3.0011 10.1037 3.10526 10.29 3.29L11.71 4.71C11.8963 4.89474 12.1477 4.9989 12.41 5H17C18.1046 5 19 5.89543 19 7V16ZM9 7.5C9 6.67157 8.32843 6 7.5 6C6.67157 6 6 6.67157 6 7.5C6 8.32843 6.67157 9 7.5 9C8.32843 9 9 8.32843 9 7.5ZM17 15.5C17 15.7761 16.7761 16 16.5 16H3.5C3.22386 16 3 15.7761 3 15.5V15.16C2.99964 15.0501 3.03866 14.9436 3.11 14.86L6 11.19C6.08683 11.0827 6.21274 11.0144 6.35 11C6.50046 10.9983 6.64371 11.0644 6.74 11.18L8.19 12.93C8.28318 13.0441 8.42272 13.1102 8.57 13.11C8.72701 13.1085 8.87456 13.0347 8.97 12.91L11.85 9.19C11.9467 9.06771 12.0941 8.99639 12.25 8.99639C12.4059 8.99639 12.5533 9.06771 12.65 9.19L16.9 14.86C16.9643 14.9469 16.9993 15.0519 17 15.16V15.5ZM21 18V9C22.1046 9 23 9.89543 23 11V18C23 20.2091 21.2091 22 19 22H7C5.89543 22 5 21.1046 5 20H19C20.1046 20 21 19.1046 21 18Z" fill="#626262"/>
</svg>
