<svg width="24.000000" height="24.000000" viewBox="0 0 24 24" fill="none" xmlns="http://www.w3.org/2000/svg" xmlns:xlink="http://www.w3.org/1999/xlink">
	<desc>
			Created with Pixso.
	</desc>
	<defs/>
	<path id="Vector" d="M20.83 8.01L14.28 2.77C13 1.75 11 1.73 9.72 2.76L3.18 8.01C2.24 8.76 1.67 10.26 1.87 11.43L3.13 18.98C3.42 20.66 4.98 22 6.7 22L17.29 22C18.99 22 20.59 20.64 20.88 18.96L22.14 11.42C22.32 10.26 21.75 8.76 20.83 8.01ZM12.75 18C12.75 18.4 12.41 18.75 12 18.75C11.59 18.75 11.25 18.4 11.25 18L11.25 15C11.25 14.59 11.59 14.25 12 14.25C12.41 14.25 12.75 14.59 12.75 15L12.75 18Z" fill="#0F9565" fill-opacity="1.000000" fill-rule="nonzero"/>
	<g opacity="0.000000"/>
</svg>
