<svg width="24.000000" height="24.000000" viewBox="0 0 24 24" fill="none" xmlns="http://www.w3.org/2000/svg" xmlns:xlink="http://www.w3.org/1999/xlink">
	<desc>
			Created with Pixso.
	</desc>
	<defs/>
	<path d="M13.21 3.94L13.2 3.97C12.8 4.08 12.39 3.86 12.27 3.45C12.16 3.05 12.39 2.64 12.79 2.53L12.81 2.54L13.21 3.94ZM21.45 11.18L21.46 11.2C21.35 11.6 20.94 11.83 20.54 11.72C20.13 11.6 19.91 11.19 20.02 10.79L20.05 10.78L21.45 11.18ZM15.09 6.67L15.08 6.69C14.67 6.78 14.28 6.52 14.2 6.11C14.11 5.69 14.37 5.31 14.79 5.22L14.81 5.24L15.09 6.67ZM18.75 9.18L18.77 9.2C18.68 9.62 18.3 9.88 17.88 9.79C17.47 9.71 17.21 9.32 17.3 8.91L17.32 8.9L18.75 9.18Z" fill="#E9E1D8" fill-opacity="1.000000" fill-rule="nonzero"/>
	<path d="M13 3.25C15.16 2.63 17.54 3.14 19.19 4.8C20.85 6.45 21.36 8.83 20.74 11M14.93 5.96C15.7 5.81 16.59 6.07 17.26 6.73C17.92 7.4 18.18 8.29 18.03 " stroke="#7F7667" stroke-opacity="1.000000" stroke-width="1.500000" stroke-linejoin="round"/>
	<path d="M6.69 3C7.96 3 9 4.13 9 5.54L9 9.45C9 10.86 7.96 12 6.69 12C6.4 12 6.12 11.95 5.84 11.86L5.57 11.78C4.31 11.39 3.36 10.25 3.11 8.83C2.96 7.95 2.96 7.04 3.11 6.16C3.36 4.74 4.31 3.6 5.57 3.21L5.84 3.13C6.12 3.04 6.4 3 6.69 3ZM12 17.3C12 16.03 13.13 15 14.54 15L18.45 15C19.86 15 21 16.03 21 17.3C21 17.59 20.95 17.87 20.86 18.15L20.78 18.42C20.39 19.68 19.25 20.63 17.83 20.88C16.95 21.03 16.04 21.03 15.16 20.88C13.74 20.63 12.6 19.68 12.21 18.42L12.13 18.15C12.04 17.87 12 17.59 12 17.3Z" fill="#E9E1D8" fill-opacity="1.000000" fill-rule="evenodd"/>
	<path d="M12.21 18.42C12.6 19.68 13.74 20.63 15.16 20.88C16.04 21.03 16.95 21.03 17.83 20.88C19.25 20.63 20.39 19.68 20.78 18.42L20.86 18.15C20.95 17.87 21 17.59 21 17.3C21 16.03 19.86 15 18.45 15L14.54 15C13.13 15 12 16.03 12 17.3C12 17.59 12.04 17.87 12.13 18.15L12.21 18.42ZM5.57 3.21C4.31 3.6 3.36 4.74 3.11 6.16C2.96 7.04 2.96 7.95 3.11 8.83C3.36 10.25 4.31 11.39 5.57 11.78L5.84 11.86C6.12 11.95 6.4 12 6.69 12C7.96 12 9 10.86 9 9.45L9 5.54C9 4.13 7.96 3 6.69 3C6.4 3 6.12 3.04 5.84 3.13L5.57 3.21ZM3.11 8.83C4.25 14.95 9.04 19.74 15.16 " stroke="#7F7667" stroke-opacity="1.000000" stroke-width="1.500000"/>
</svg>
