<svg width="24.000000" height="24.000000" viewBox="0 0 24 24" fill="none" xmlns="http://www.w3.org/2000/svg" xmlns:xlink="http://www.w3.org/1999/xlink">
	<desc>
			Created with Pixso.
	</desc>
	<defs>
		<clipPath id="clip6_2713">
			<rect width="24.000000" height="24.000000" fill="white" fill-opacity="0"/>
		</clipPath>
	</defs>
	<g clip-path="url(#clip6_2713)">
		<path d="M12 4C15.54 4 18.46 6.52 18.8 9.76C20.68 10.57 22 12.46 22 14.66C22 17.61 19.64 20 16.73 20L6.73 20C4.12 20 2 17.85 2 15.2C2 13.1 3.32 11.32 5.16 10.67C5.16 10.58 5.15 10.49 5.15 10.4C5.15 6.86 8.22 4 12 4Z" fill="#E9E1D8" fill-opacity="1.000000" fill-rule="evenodd"/>
		<path d="M12 4C8.22 4 5.15 6.86 5.15 10.4C5.15 10.49 5.16 10.58 5.16 10.67C3.32 11.32 2 13.1 2 15.2C2 17.85 4.12 20 6.73 20L16.73 20C19.64 20 22 17.61 22 14.66C22 12.46 20.68 10.57 18.8 9.76C18.46 6.52 15.54 4 12 4Z" stroke="#7F7667" stroke-opacity="1.000000" stroke-width="1.500000"/>
	</g>
</svg>
