<svg width="24.000000" height="24.000000" viewBox="0 0 24 24" fill="none" xmlns="http://www.w3.org/2000/svg" xmlns:xlink="http://www.w3.org/1999/xlink">
	<desc>
			Created with Pixso.
	</desc>
	<defs>
		<clipPath id="clip6_2925">
			<rect width="24.000000" height="24.000000" fill="white" fill-opacity="0"/>
		</clipPath>
	</defs>
	<g clip-path="url(#clip6_2925)">
		<path d="M22 18.43C22 19.85 20.87 21 19.49 21C19.17 21 18.86 20.95 18.56 20.86L18.27 20.78C16.89 20.38 15.86 19.23 15.58 17.8C15.42 16.91 15.42 15.99 15.58 15.1C15.86 13.67 16.89 12.51 18.27 12.12L18.56 12.03C18.86 11.94 19.17 11.9 19.49 11.9C20.87 11.9 22 13.05 22 14.47L22 18.43ZM22.73 17L22.75 17.02C22.75 17.44 22.42 17.77 22 17.77C21.58 17.77 21.25 17.44 21.25 17.02L21.27 17L22.73 17ZM19.88 8.34L19.85 8.33C19.64 7.97 19.75 7.52 20.11 7.3C20.47 7.09 20.92 7.2 21.14 7.56L21.13 7.59L19.88 8.34Z" fill="#E9E1D8" fill-opacity="1.000000" fill-rule="nonzero"/>
		<path d="M20.5 7.95C21.33 9.34 21.86 10.95 21.97 12.67L22 13.04L22 17.02M18.27 20.78C16.89 20.38 15.86 19.23 15.58 17.8C15.42 16.91 15.42 15.99 15.58 15.1C15.86 13.67 16.89 12.51 18.27 12.12L18.56 12.03C18.86 11.94 19.17 11.9 19.49 11.9C20.87 11.9 22 13.05 22 14.47L22 18.43C22 19.85 20.87 21 19.49 21C19.17 21 18.86 20.95 18.56 20.86L18.27 20.78Z" stroke="#7F7667" stroke-opacity="1.000000" stroke-width="1.500000" stroke-linecap="round"/>
		<path d="M5.43 12.03L5.73 12.12C6.94 12.47 7.9 13.42 8.29 14.63C8.38 14.94 8.41 15.26 8.41 15.58L3.5 20.5L3.02 20.5C2.4 20.03 2 19.28 2 18.43L2 14.47C2 13.05 3.12 11.9 4.5 11.9C4.82 11.9 5.13 11.94 5.43 12.03ZM2.72 17L2.75 17.02C2.75 17.44 2.41 17.77 2 17.77C1.58 17.77 1.25 17.44 1.25 17.02L1.27 17L2.72 17ZM21.46 1.49L21.46 1.46C21.76 1.17 22.23 1.17 22.53 1.46C22.82 1.76 22.82 2.23 22.53 2.53L22.5 2.53L21.46 1.49ZM2.53 22.5L2.53 22.53C2.23 22.82 1.76 22.82 1.46 22.53C1.17 22.23 1.17 21.76 1.46 21.46L1.49 21.46L2.53 22.5Z" fill="#E9E1D8" fill-opacity="1.000000" fill-rule="nonzero"/>
		<path d="M2 17.02L2 14.47L2 13.04L2.02 12.67C2.33 7.99 5.67 4.11 10.16 3.18C11.37 2.93 12.62 2.93 13.83 3.18C15.5 3.53 17.01 4.28 18.27 5.33L18.46 5.53M8.41 15.58C8.41 15.26 8.38 14.94 8.29 14.63C7.9 13.42 6.94 12.47 5.73 12.12L5.43 12.03C5.13 11.94 4.82 11.9 4.5 11.9C3.12 11.9 2 13.05 2 14.47L2 17.02L2 18.43C2 19.28 2.4 20.03 3.02 20.5L3.5 20.5M22 2L18.46 5.53L8.41 15.58L3.5 20.5L2 " stroke="#7F7667" stroke-opacity="1.000000" stroke-width="1.500000"/>
	</g>
</svg>
