<svg width="24.000000" height="24.000000" viewBox="0 0 24 24" fill="none" xmlns="http://www.w3.org/2000/svg" xmlns:xlink="http://www.w3.org/1999/xlink">
	<desc>
			Created with Pixso.
	</desc>
	<defs>
		<clipPath id="clip6_2808">
			<rect width="24.000000" height="24.000000" fill="white" fill-opacity="0"/>
		</clipPath>
	</defs>
	<g clip-path="url(#clip6_2808)">
		<path d="M12 10.87C14.25 10.87 16.08 9.11 16.08 6.93C16.08 4.76 14.25 3 12 3C9.74 3 7.91 4.76 7.91 6.93C7.91 9.11 9.74 10.87 12 10.87ZM9 14.26C6.69 14.64 5 16.69 5 19.11C5 20.15 5.81 21 6.82 21L17.17 21C18.18 21 19 20.15 19 19.11C19 16.69 17.3 14.64 14.99 14.26L14.78 14.22C12.94 13.92 11.05 13.92 9.21 14.22L9 14.26Z" fill="#E9E1D8" fill-opacity="1.000000" fill-rule="evenodd"/>
		<path d="M9.21 14.22C11.05 13.92 12.94 13.92 14.78 14.22L14.99 14.26C17.3 14.64 19 16.69 19 19.11C19 20.15 18.18 21 17.17 21L6.82 21C5.81 21 5 20.15 5 19.11C5 16.69 6.69 14.64 9 14.26L9.21 14.22ZM12 10.87C9.74 10.87 7.91 9.11 7.91 6.93C7.91 4.76 9.74 3 12 3C14.25 3 16.08 4.76 16.08 6.93C16.08 9.11 14.25 10.87 12 10.87Z" stroke="#7F7667" stroke-opacity="1.000000" stroke-width="1.500000"/>
	</g>
</svg>
