<svg width="24.000000" height="24.000000" viewBox="0 0 24 24" fill="none" xmlns="http://www.w3.org/2000/svg" xmlns:xlink="http://www.w3.org/1999/xlink">
	<desc>
			Created with Pixso.
	</desc>
	<defs>
		<clipPath id="clip6_3045">
			<rect width="24.000000" height="24.000000" fill="white" fill-opacity="0"/>
		</clipPath>
	</defs>
	<g clip-path="url(#clip6_3045)">
		<path d="M12 11.11C13.12 11.11 14.04 10.19 14.04 9.05C14.04 7.92 13.12 7 12 7C10.87 7 9.95 7.92 9.95 9.05C9.95 10.19 10.87 11.11 12 11.11ZM10.17 13.76C9.2 13.91 8.5 14.75 8.5 15.74L8.5 15.95C8.5 16.53 8.96 17 9.53 17L14.46 17C15.03 17 15.5 16.53 15.5 15.95L15.5 15.74C15.5 14.75 14.79 13.91 13.82 13.76C12.61 13.56 11.38 13.56 10.17 13.76Z" fill="#E9E1D8" fill-opacity="1.000000" fill-rule="evenodd"/>
		<path d="M15.5 15.95C15.5 16.53 15.03 17 14.46 17L9.53 17C8.96 17 8.5 16.53 8.5 15.95L8.5 15.74C8.5 14.75 9.2 13.91 10.17 13.76C11.38 13.56 12.61 13.56 13.82 13.76C14.79 13.91 15.5 14.75 15.5 15.74L15.5 15.95ZM12 11.11C10.87 11.11 9.95 10.19 9.95 9.05C9.95 7.92 10.87 7 12 7C13.12 7 14.04 7.92 14.04 9.05C14.04 10.19 13.12 11.11 12 11.11Z" stroke="#7F7667" stroke-opacity="1.000000" stroke-width="1.500000"/>
		<path d="M21.73 6.97L21.75 7C21.75 7.41 21.41 7.75 21 7.75C20.58 7.75 20.25 7.41 20.25 7L20.27 6.97L21.73 6.97ZM16.02 3.72L16 3.75C15.58 3.75 15.25 3.41 15.25 3C15.25 2.58 15.58 2.25 16 2.25L16.02 2.27L16.02 3.72ZM2.27 16.02L2.25 16C2.25 15.58 2.58 15.25 3 15.25C3.41 15.25 3.75 15.58 3.75 16L3.72 16.02L2.27 16.02ZM6.97 20.27L7 20.25C7.41 20.25 7.75 20.58 7.75 21C7.75 21.41 7.41 21.75 7 21.75L6.97 21.73L6.97 20.27ZM6.97 2.27L7 2.25C7.41 2.25 7.75 2.58 7.75 3C7.75 3.41 7.41 3.75 7 3.75L6.97 3.72L6.97 2.27ZM3.72 6.97L3.75 7C3.75 7.41 3.41 7.75 3 7.75C2.58 7.75 2.25 7.41 2.25 7L2.27 6.97L3.72 6.97ZM16.02 21.73L16 21.75C15.58 21.75 15.25 21.41 15.25 21C15.25 20.58 15.58 20.25 16 20.25L16.02 20.27L16.02 21.73ZM20.27 16.02L20.25 16C20.25 15.58 20.58 15.25 21 15.25C21.41 15.25 21.75 15.58 21.75 16L21.73 16.02L20.27 16.02Z" fill="#E9E1D8" fill-opacity="1.000000" fill-rule="nonzero"/>
		<path d="M20.25 7Q20.25 6.37 19.94 5.79Q19.63 5.21 19.06 4.75Q18.47 4.28 17.7 4.02Q16.89 3.75 16 3.75L16 2.25Q17.14 2.25 18.18 2.6Q19.2 2.94 20 3.58Q20.81 4.23 21.27 5.09Q21.75 6 21.75 7L20.25 7ZM3.75 16Q3.75 16.89 4.02 17.7Q4.28 18.47 4.75 19.06Q5.21 19.63 5.79 19.94Q6.37 20.25 7 20.25L7 21.75Q6 21.75 5.09 21.27Q4.23 20.81 3.58 20Q2.94 19.2 2.6 18.18Q2.25 17.14 2.25 16L3.75 16ZM7 3.75Q6.33 3.75 5.73 4Q5.15 4.25 4.7 4.7Q4.25 5.15 4 5.73Q3.75 6.33 3.75 7L2.25 7Q2.25 6.03 2.62 5.15Q2.98 4.29 3.64 3.64Q4.29 2.98 5.15 2.62Q6.03 2.25 7 2.25L7 3.75ZM16 20.25Q16.86 20.25 17.65 19.91Q18.41 19.59 19 19Q19.59 18.41 19.91 17.65Q20.25 16.86 20.25 16L21.75 16Q21.75 17.16 21.29 18.23Q20.86 19.27 20.06 20.06Q19.27 20.86 18.23 21.29Q17.16 21.75 16 21.75L16 20.25ZM21.73 6.97L21.75 7C21.75 7.41 21.41 7.75 21 7.75C20.58 7.75 20.25 7.41 20.25 7L20.27 6.97L21.73 6.97ZM16.02 3.72L16 3.75C15.58 3.75 15.25 3.41 15.25 3C15.25 2.58 15.58 2.25 16 2.25L16.02 2.27L16.02 3.72ZM2.27 16.02L2.25 16C2.25 15.58 2.58 15.25 3 15.25C3.41 15.25 3.75 15.58 3.75 16L3.72 16.02L2.27 16.02ZM6.97 20.27L7 20.25C7.41 20.25 7.75 20.58 7.75 21C7.75 21.41 7.41 21.75 7 21.75L6.97 21.73L6.97 20.27ZM6.97 2.27L7 2.25C7.41 2.25 7.75 2.58 7.75 3C7.75 3.41 7.41 3.75 7 3.75L6.97 3.72L6.97 2.27ZM3.72 6.97L3.75 7C3.75 7.41 3.41 7.75 3 7.75C2.58 7.75 2.25 7.41 2.25 7L2.27 6.97L3.72 6.97ZM16.02 21.73L16 21.75C15.58 21.75 15.25 21.41 15.25 21C15.25 20.58 15.58 20.25 16 20.25L16.02 20.27L16.02 21.73ZM20.27 16.02L20.25 16C20.25 15.58 20.58 15.25 21 15.25C21.41 15.25 21.75 15.58 21.75 16L21.73 16.02L20.27 16.02Z" fill="#7F7667" fill-opacity="1.000000" fill-rule="evenodd"/>
	</g>
</svg>
