<svg width="24.000000" height="24.000000" viewBox="0 0 24 24" fill="none" xmlns="http://www.w3.org/2000/svg" xmlns:xlink="http://www.w3.org/1999/xlink">
	<desc>
			Created with Pixso.
	</desc>
	<defs>
		<clipPath id="clip6_3026">
			<rect width="24.000000" height="24.000000" fill="white" fill-opacity="0"/>
		</clipPath>
	</defs>
	<g clip-path="url(#clip6_3026)">
		<path d="M3.35 8.95C4 6.17 6.17 4 8.95 3.35C10.95 2.88 13.04 2.88 15.04 3.35C17.82 4 19.99 6.17 20.64 8.95C21.11 10.95 21.11 13.04 20.64 15.04C19.99 17.82 17.82 19.99 15.04 20.64C13.04 21.11 10.95 21.11 8.95 20.64C6.17 19.99 4 17.82 3.35 15.04C2.88 13.04 2.88 10.95 3.35 8.95Z" fill="#E9E1D8" fill-opacity="1.000000" fill-rule="nonzero"/>
		<path d="M3.35 8.95C4 6.17 6.17 4 8.95 3.35C10.95 2.88 13.04 2.88 15.04 3.35C17.82 4 19.99 6.17 20.64 8.95C21.11 10.95 21.11 13.04 20.64 15.04C19.99 17.82 17.82 19.99 15.04 20.64C13.04 21.11 10.95 21.11 8.95 20.64C6.17 19.99 4 17.82 3.35 15.04C2.88 13.04 2.88 10.95 3.35 8.95Z" stroke="#7F7667" stroke-opacity="1.000000" stroke-width="1.500000"/>
		<path d="M13.23 9.73L13.23 9.7C13.53 9.4 14 9.4 14.29 9.7C14.59 9.99 14.59 10.46 14.29 10.76L14.27 10.76L13.23 9.73ZM10.76 14.26L10.76 14.29C10.46 14.59 9.99 14.59 9.7 14.29C9.4 14 9.4 13.53 9.7 13.23L9.73 13.23L10.76 14.26ZM14.27 13.23L14.29 13.23C14.59 13.53 14.59 14 14.29 14.29C14 14.59 13.53 14.59 13.23 14.29L13.23 14.26L14.27 13.23ZM9.73 10.76L9.7 10.76C9.4 10.46 9.4 9.99 9.7 9.7C9.99 9.4 10.46 9.4 10.76 9.7L10.76 9.73L9.73 10.76Z" fill="#E9E1D8" fill-opacity="1.000000" fill-rule="nonzero"/>
		<path d="M13.76 10.23L10.23 13.76M13.76 13.76L10.23 " stroke="#7F7667" stroke-opacity="1.000000" stroke-width="1.500000"/>
	</g>
</svg>
