<svg width="24.000000" height="24.000000" viewBox="0 0 24 24" fill="none" xmlns="http://www.w3.org/2000/svg" xmlns:xlink="http://www.w3.org/1999/xlink">
	<desc>
			Created with Pixso.
	</desc>
	<defs>
		<clipPath id="clip6_2764">
			<rect width="24.000000" height="24.000000" fill="white" fill-opacity="0"/>
		</clipPath>
	</defs>
	<g clip-path="url(#clip6_2764)">
		<path d="M2.39 8.61C3.11 5.52 5.52 3.72 8.61 3C10.84 2.47 13.15 2.47 15.38 3C18.47 3.72 20.88 5.52 21.6 8.61C22.13 10.84 22.13 13.15 21.6 15.38C20.88 18.47 18.47 20.27 15.38 21C13.15 21.52 10.84 21.52 8.61 21C5.52 20.27 3.11 18.47 2.39 15.38C1.86 13.15 1.86 10.84 2.39 8.61Z" fill="#E9E1D8" fill-opacity="1.000000" fill-rule="evenodd"/>
		<path d="M2.27 14.16L2.25 14.14C2.25 13.72 2.58 13.39 3 13.39C3.41 13.39 3.75 13.72 3.75 14.14L3.72 14.16L2.27 14.16ZM20.27 14.16L20.25 14.14C20.25 13.72 20.58 13.39 21 13.39C21.41 13.39 21.75 13.72 21.75 14.14L21.73 14.16L20.27 14.16ZM21.73 9.83L21.75 9.85C21.75 10.27 21.41 10.6 21 10.6C20.58 10.6 20.25 10.27 20.25 9.85L20.27 9.83L21.73 9.83ZM3.72 9.83L3.75 9.85C3.75 10.27 3.41 10.6 3 10.6C2.58 10.6 2.25 10.27 2.25 9.85L2.27 9.83L3.72 9.83ZM7.25 13.39L7.24 13.41C6.85 13.58 6.42 13.42 6.25 13.03C6.08 12.65 6.24 12.21 6.63 12.04L6.65 12.05L7.25 13.39ZM17.34 12.05L17.36 12.04C17.75 12.21 17.91 12.65 17.74 13.03C17.57 13.42 17.14 13.58 16.75 13.41L16.74 13.39L17.34 12.05Z" fill="#E9E1D8" fill-opacity="1.000000" fill-rule="nonzero"/>
		<path d="M21 14.14C21 17.26 18.73 19.96 15.57 20.59L15.01 20.7C13.08 21.09 11.08 21.09 9.14 20.71L8.42 20.57C5.26 19.95 3 17.26 3 14.14M3 9.85C3 6.73 5.26 4.03 8.42 3.4L8.98 3.29C10.91 2.9 12.91 2.9 14.85 3.28L15.57 3.42C18.73 4.04 21 6.73 21 9.85M6.93 12.73L7.88 12.31C10.5 11.14 13.49 11.14 16.11 12.31L17.06 " stroke="#7F7667" stroke-opacity="1.000000" stroke-width="1.500000"/>
	</g>
</svg>
