<svg width="24.000000" height="24.000000" viewBox="0 0 24 24" fill="none" xmlns="http://www.w3.org/2000/svg" xmlns:xlink="http://www.w3.org/1999/xlink">
	<desc>
			Created with Pixso.
	</desc>
	<defs/>
	<path d="M9 5.54C9 4.13 7.96 3 6.69 3C6.4 3 6.12 3.04 5.84 3.13L5.57 3.21C4.31 3.6 3.36 4.74 3.11 6.16C2.96 7.04 2.96 7.95 3.11 8.83C3.36 10.25 4.31 11.39 5.57 11.78L5.84 11.86C6.12 11.95 6.4 12 6.69 12C7.96 12 9 10.86 9 9.45L9 5.54ZM17.46 4.46L17.46 4.49L18.5 5.53L18.53 5.53C18.82 5.23 18.82 4.76 18.53 4.46C18.23 4.17 17.76 4.17 17.46 4.46ZM14.54 15C13.13 15 12 16.03 12 17.3C12 17.59 12.04 17.87 12.13 18.15L12.21 18.42C12.6 19.68 13.74 20.63 15.16 20.88C16.04 21.03 16.95 21.03 17.83 20.88C19.25 20.63 20.39 19.68 20.78 18.42L20.86 18.15C20.95 17.87 21 17.59 21 17.3C21 16.03 19.86 15 18.45 15L14.54 15ZM8.47 18.75L8.5 18.75L9.37 17.58L9.36 17.55C9.03 17.3 8.56 17.37 8.31 17.7C8.06 18.04 8.13 18.5 8.47 18.75ZM3.53 20.5L3.53 20.53C3.23 20.82 2.76 20.82 2.46 20.53C2.17 20.23 2.17 19.76 2.46 19.46L2.49 19.46L3.53 20.5Z" fill="#E9E1D8" fill-opacity="1.000000" fill-rule="evenodd"/>
	<path d="M5.57 3.21C4.31 3.6 3.36 4.74 3.11 6.16C2.96 7.04 2.96 7.95 3.11 8.83C3.36 10.25 4.31 11.39 5.57 11.78L5.84 11.86C6.12 11.95 6.4 12 6.69 12C7.96 12 9 10.86 9 9.45L9 5.54C9 4.13 7.96 3 6.69 3C6.4 3 6.12 3.04 5.84 3.13L5.57 3.21ZM3.11 8.83C3.67 11.53 4.92 13.98 6.69 15.97L6.85 16.14M18 5L6.85 16.14L3 20M12.21 18.42C12.6 19.68 13.74 20.63 15.16 20.88C16.04 21.03 16.95 21.03 17.83 20.88C19.25 20.63 20.39 19.68 20.78 18.42L20.86 18.15C20.95 17.87 21 17.59 21 17.3C21 16.03 19.86 15 18.45 15L14.54 15C13.13 15 12 16.03 12 17.3C12 17.59 12.04 17.87 12.13 18.15L12.21 18.42ZM8.91 18.15C10.72 19.5 12.85 20.45 15.16 " stroke="#7F7667" stroke-opacity="1.000000" stroke-width="1.500000"/>
</svg>
