<svg width="24.000000" height="24.000000" viewBox="0 0 24 24" fill="none" xmlns="http://www.w3.org/2000/svg" xmlns:xlink="http://www.w3.org/1999/xlink">
	<desc>
			Created with Pixso.
	</desc>
	<defs>
		<clipPath id="clip6_3033">
			<rect width="24.000000" height="24.000000" fill="white" fill-opacity="0"/>
		</clipPath>
	</defs>
	<g clip-path="url(#clip6_3033)">
		<path d="M8.95 20.64C6.17 19.99 4 17.82 3.35 15.04C2.88 13.04 2.88 10.95 3.35 8.95C4 6.17 6.17 4 8.95 3.35C10.95 2.88 13.04 2.88 15.04 3.35C17.82 4 19.99 6.17 20.64 8.95C21.11 10.95 21.11 13.04 20.64 15.04C19.99 17.82 17.82 19.99 15.04 20.64C13.04 21.11 10.95 21.11 8.95 20.64Z" fill="#E9E1D8" fill-opacity="1.000000" fill-rule="nonzero"/>
		<path d="M8.95 20.64C6.17 19.99 4 17.82 3.35 15.04C2.88 13.04 2.88 10.95 3.35 8.95C4 6.17 6.17 4 8.95 3.35C10.95 2.88 13.04 2.88 15.04 3.35C17.82 4 19.99 6.17 20.64 8.95C21.11 10.95 21.11 13.04 20.64 15.04C19.99 17.82 17.82 19.99 15.04 20.64C13.04 21.11 10.95 21.11 8.95 20.64Z" stroke="#7F7667" stroke-opacity="1.000000" stroke-width="1.500000"/>
		<circle cx="12.000000" cy="15.500000" r="1.000000" fill="#7F7667" fill-opacity="1.000000"/>
		<path d="M10.73 9.97L10.75 10C10.75 10.41 10.41 10.75 10 10.75C9.58 10.75 9.25 10.41 9.25 10L9.27 9.97L10.73 9.97ZM12.53 13L12.53 13.03C12.23 13.32 11.76 13.32 11.46 13.03C11.17 12.73 11.17 12.26 11.46 11.96L11.49 11.96L12.53 13Z" fill="#E9E1D8" fill-opacity="1.000000" fill-rule="nonzero"/>
		<path d="M10 10L10 9.5C10 8.39 10.89 7.5 12 7.5C13.1 7.5 14 8.39 14 9.5C14 10.14 13.74 10.75 13.29 11.2L12 " stroke="#7F7667" stroke-opacity="1.000000" stroke-width="1.500000" stroke-linejoin="round" stroke-linecap="round"/>
	</g>
</svg>
