<svg width="24.000000" height="24.000000" viewBox="0 0 24 24" fill="none" xmlns="http://www.w3.org/2000/svg" xmlns:xlink="http://www.w3.org/1999/xlink">
	<desc>
			Created with Pixso.
	</desc>
	<defs>
		<clipPath id="clip6_3005">
			<rect width="24.000000" height="24.000000" fill="white" fill-opacity="0"/>
		</clipPath>
	</defs>
	<g clip-path="url(#clip6_3005)">
		<path d="M3.35 8.95C4 6.17 6.17 4 8.95 3.35C10.95 2.88 13.04 2.88 15.04 3.35C17.82 4 19.99 6.17 20.64 8.95C21.11 10.95 21.11 13.04 20.64 15.04C19.99 17.82 17.82 19.99 15.04 20.64C13.04 21.11 10.95 21.11 8.95 20.64C6.17 19.99 4 17.82 3.35 15.04C2.88 13.04 2.88 10.95 3.35 8.95Z" fill="#E9E1D8" fill-opacity="1.000000" fill-rule="nonzero"/>
		<path d="M3.35 8.95C4 6.17 6.17 4 8.95 3.35C10.95 2.88 13.04 2.88 15.04 3.35C17.82 4 19.99 6.17 20.64 8.95C21.11 10.95 21.11 13.04 20.64 15.04C19.99 17.82 17.82 19.99 15.04 20.64C13.04 21.11 10.95 21.11 8.95 20.64C6.17 19.99 4 17.82 3.35 15.04C2.88 13.04 2.88 10.95 3.35 8.95Z" stroke="#7F7667" stroke-opacity="1.000000" stroke-width="1.500000"/>
		<path d="M10.03 13.5L10.03 13.53C9.73 13.82 9.26 13.82 8.96 13.53C8.67 13.23 8.67 12.76 8.96 12.46L8.99 12.46L10.03 13.5ZM15 12.46L15.03 12.46C15.32 12.76 15.32 13.23 15.03 13.53C14.73 13.82 14.26 13.82 13.96 13.53L13.96 13.5L15 12.46Z" fill="#E9E1D8" fill-opacity="1.000000" fill-rule="nonzero"/>
		<path d="M13.96 13.53L11.46 11.03L12 10.5L12.53 11.03L10.03 13.53L8.96 12.46L11.46 9.96Q11.52 9.91 11.58 9.87Q11.64 9.83 11.71 9.8Q11.78 9.77 11.85 9.76Q11.92 9.75 12 9.75Q12.07 9.75 12.14 9.76Q12.21 9.77 12.28 9.8Q12.35 9.83 12.41 9.87Q12.47 9.91 12.53 9.96L15.03 12.46L13.96 13.53ZM10.03 13.5L10.03 13.53C9.73 13.82 9.26 13.82 8.96 13.53C8.67 13.23 8.67 12.76 8.96 12.46L8.99 12.46L10.03 13.5ZM15 12.46L15.03 12.46C15.32 12.76 15.32 13.23 15.03 13.53C14.73 13.82 14.26 13.82 13.96 13.53L13.96 13.5L15 12.46Z" fill="#7F7667" fill-opacity="1.000000" fill-rule="evenodd"/>
	</g>
</svg>
