<svg width="24.000000" height="24.000000" viewBox="0 0 24 24" fill="none" xmlns="http://www.w3.org/2000/svg" xmlns:xlink="http://www.w3.org/1999/xlink">
	<desc>
			Created with Pixso.
	</desc>
	<defs>
		<clipPath id="clip6_2819">
			<rect width="24.000000" height="24.000000" fill="white" fill-opacity="0"/>
		</clipPath>
	</defs>
	<g clip-path="url(#clip6_2819)">
		<path d="M3.52 6.73C4 5.05 5.42 3.78 7.18 3.45C10.36 2.84 13.63 2.84 16.81 3.45C18.57 3.78 19.99 5.05 20.48 6.73L20.52 6.9C21.15 9.08 21.15 11.38 20.52 13.55L20.48 13.72C19.99 15.4 18.57 16.67 16.81 17C13.63 17.61 10.36 17.61 7.18 17C5.42 16.67 4 15.4 3.52 13.72L3.47 13.55C2.84 11.38 2.84 9.08 3.47 6.9L3.52 6.73ZM11.27 17.94L11.25 17.92C11.25 17.5 11.58 17.17 12 17.17C12.41 17.17 12.75 17.5 12.75 17.92L12.73 17.94L11.27 17.94ZM12.73 20.98L12.75 21C12.75 21.42 12.41 21.75 12 21.75C11.58 21.75 11.25 21.42 11.25 21L11.27 20.98L12.73 20.98ZM9.38 21.73L9.36 21.75C8.94 21.75 8.61 21.42 8.61 21C8.61 20.58 8.94 20.25 9.36 20.25L9.38 20.27L9.38 21.73ZM14.61 20.27L14.63 20.25C15.05 20.25 15.38 20.58 15.38 21C15.38 21.42 15.05 21.75 14.63 21.75L14.61 21.73L14.61 20.27Z" fill="#E9E1D8" fill-opacity="1.000000" fill-rule="nonzero"/>
		<path d="M20.52 6.9C21.15 9.08 21.15 11.38 20.52 13.55L20.48 13.72C19.99 15.4 18.57 16.67 16.81 17C13.63 17.61 10.36 17.61 7.18 17C5.42 16.67 4 15.4 3.52 13.72L3.47 13.55C2.84 11.38 2.84 9.08 3.47 6.9L3.52 6.73C4 5.05 5.42 3.78 7.18 3.45C10.36 2.84 13.63 2.84 16.81 3.45C18.57 3.78 19.99 5.05 20.48 6.73L20.52 6.9ZM12 17.92L12 21M9.36 21L14.63 " stroke="#7F7667" stroke-opacity="1.000000" stroke-width="1.500000"/>
	</g>
</svg>
