<svg width="24.000000" height="24.000000" viewBox="0 0 24 24" fill="none" xmlns="http://www.w3.org/2000/svg" xmlns:xlink="http://www.w3.org/1999/xlink">
	<desc>
			Created with Pixso.
	</desc>
	<defs>
		<clipPath id="clip6_2962">
			<rect width="24.000000" height="24.000000" fill="white" fill-opacity="0"/>
		</clipPath>
	</defs>
	<g clip-path="url(#clip6_2962)">
		<path d="M5.28 7.09C5.77 5.2 7.32 3.74 9.27 3.33L9.73 3.23C11.22 2.92 12.77 2.92 14.26 3.23L14.72 3.33C16.67 3.74 18.22 5.2 18.71 7.09C19.09 8.57 19.09 10.11 18.71 11.59C18.22 13.48 16.67 14.94 14.72 15.35L14.26 15.45C12.77 15.76 11.22 15.76 9.73 15.45L9.27 15.35C7.32 14.94 5.77 13.48 5.28 11.59C4.9 10.11 4.9 8.57 5.28 7.09ZM12.89 16.45L12.87 16.43C12.87 16.01 13.2 15.68 13.62 15.68C14.04 15.68 14.37 16.01 14.37 16.43L14.35 16.45L12.89 16.45ZM9.78 16.45L9.76 16.43C9.76 16.01 10.09 15.68 10.51 15.68C10.93 15.68 11.26 16.01 11.26 16.43L11.24 16.45L9.78 16.45ZM12.79 20.98L12.81 21C12.81 21.41 12.48 21.75 12.06 21.75C11.64 21.75 11.31 21.41 11.31 21L11.33 20.98L12.79 20.98ZM11.9 6.36L11.9 6.33C12.16 6.01 12.63 5.96 12.95 6.23C13.28 6.49 13.32 6.96 13.06 7.28L13.03 7.28L11.9 6.36ZM12.02 12.32L12.02 12.35C11.75 12.67 11.29 12.72 10.96 12.45C10.64 12.19 10.59 11.72 10.86 11.4L10.89 11.4L12.02 12.32Z" fill="#E9E1D8" fill-opacity="1.000000" fill-rule="nonzero"/>
		<path d="M13.62 16.43L13.62 17.29C13.62 18.12 12.92 18.81 12.06 18.81C11.2 18.81 10.51 18.12 10.51 17.29L10.51 16.43M12.06 18.81L12.06 21M9.73 3.23C11.22 2.92 12.77 2.92 14.26 3.23L14.72 3.33C16.67 3.74 18.22 5.2 18.71 7.09C19.09 8.57 19.09 10.11 18.71 11.59C18.22 13.48 16.67 14.94 14.72 15.35L14.26 15.45C12.77 15.76 11.22 15.76 9.73 15.45L9.27 15.35C7.32 14.94 5.77 13.48 5.28 11.59C4.9 10.11 4.9 8.57 5.28 7.09C5.77 5.2 7.32 3.74 9.27 3.33L9.73 3.23ZM12.48 6.81L10.4 9.34L13.51 9.34L11.44 " stroke="#7F7667" stroke-opacity="1.000000" stroke-width="1.500000" stroke-linejoin="round"/>
	</g>
</svg>
