<svg width="24.000000" height="24.000000" viewBox="0 0 24 24" fill="none" xmlns="http://www.w3.org/2000/svg" xmlns:xlink="http://www.w3.org/1999/xlink">
	<desc>
			Created with Pixso.
	</desc>
	<defs>
		<clipPath id="clip6_2882">
			<rect width="24.000000" height="24.000000" fill="white" fill-opacity="0"/>
		</clipPath>
	</defs>
	<g clip-path="url(#clip6_2882)">
		<path d="M8.44 5.76C8.81 4.17 10.26 3 12 3C13.73 3 15.18 4.17 15.55 5.76L15.71 5.79C18.1 6.27 20 8.03 20.62 10.33C21.12 12.2 21.12 14.16 20.62 16.03C20 18.33 18.1 20.09 15.71 20.57L15.25 20.67C13.1 21.1 10.89 21.1 8.74 20.67L8.28 20.57C5.89 20.09 4 18.33 3.37 16.03C2.87 14.16 2.87 12.2 3.37 10.33C4 8.03 5.89 6.27 8.28 5.79L8.44 5.76Z" fill="#E9E1D8" fill-opacity="1.000000" fill-rule="nonzero"/>
		<path d="M12 3C13.73 3 15.18 4.17 15.55 5.76L15.71 5.79C18.1 6.27 20 8.03 20.62 10.33C21.12 12.2 21.12 14.16 20.62 16.03C20 18.33 18.1 20.09 15.71 20.57L15.25 20.67C13.1 21.1 10.89 21.1 8.74 20.67L8.28 20.57C5.89 20.09 4 18.33 3.37 16.03C2.87 14.16 2.87 12.2 3.37 10.33C4 8.03 5.89 6.27 8.28 5.79L8.44 5.76C8.81 4.17 10.26 3 12 3Z" stroke="#7F7667" stroke-opacity="1.000000" stroke-width="1.500000" stroke-linejoin="round"/>
		<path d="M9.5 13C9.5 11.61 10.61 10.5 12 10.5C13.38 10.5 14.5 11.61 14.5 13C14.5 14.38 13.38 15.5 12 15.5C10.61 15.5 9.5 14.38 9.5 13Z" stroke="#7F7667" stroke-opacity="1.000000" stroke-width="1.500000"/>
	</g>
</svg>
