<svg width="24.000000" height="24.000000" viewBox="0 0 24 24" fill="none" xmlns="http://www.w3.org/2000/svg" xmlns:xlink="http://www.w3.org/1999/xlink">
	<desc>
			Created with Pixso.
	</desc>
	<defs>
		<clipPath id="clip6_3014">
			<rect width="24.000000" height="24.000000" fill="white" fill-opacity="0"/>
		</clipPath>
	</defs>
	<g clip-path="url(#clip6_3014)">
		<path d="M3.35 8.95C4 6.17 6.17 4 8.95 3.35C10.95 2.88 13.04 2.88 15.04 3.35C17.82 4 19.99 6.17 20.64 8.95C21.11 10.95 21.11 13.04 20.64 15.04C19.99 17.82 17.82 19.99 15.04 20.64C13.04 21.11 10.95 21.11 8.95 20.64C6.17 19.99 4 17.82 3.35 15.04C2.88 13.04 2.88 10.95 3.35 8.95Z" fill="#E9E1D8" fill-opacity="1.000000" fill-rule="nonzero"/>
		<path d="M3.35 8.95C4 6.17 6.17 4 8.95 3.35C10.95 2.88 13.04 2.88 15.04 3.35C17.82 4 19.99 6.17 20.64 8.95C21.11 10.95 21.11 13.04 20.64 15.04C19.99 17.82 17.82 19.99 15.04 20.64C13.04 21.11 10.95 21.11 8.95 20.64C6.17 19.99 4 17.82 3.35 15.04C2.88 13.04 2.88 10.95 3.35 8.95Z" stroke="#7F7667" stroke-opacity="1.000000" stroke-width="1.500000"/>
		<path d="M10.49 10.03L10.46 10.03C10.17 9.73 10.17 9.26 10.46 8.96C10.76 8.67 11.23 8.67 11.53 8.96L11.53 8.99L10.49 10.03ZM11.53 15L11.53 15.03C11.23 15.32 10.76 15.32 10.46 15.03C10.17 14.73 10.17 14.26 10.46 13.96L10.49 13.96L11.53 15Z" fill="#E9E1D8" fill-opacity="1.000000" fill-rule="nonzero"/>
		<path d="M10.46 13.96L12.96 11.46L13.5 12L12.96 12.53L10.46 10.03L11.53 8.96L14.03 11.46Q14.08 11.52 14.12 11.58Q14.16 11.64 14.19 11.71Q14.22 11.78 14.23 11.85Q14.24 11.92 14.24 12Q14.24 12.07 14.23 12.14Q14.22 12.21 14.19 12.28Q14.16 12.35 14.12 12.41Q14.08 12.47 14.03 12.53L11.53 15.03L10.46 13.96ZM10.49 10.03L10.46 10.03C10.17 9.73 10.17 9.26 10.46 8.96C10.76 8.67 11.23 8.67 11.53 8.96L11.53 8.99L10.49 10.03ZM11.53 15L11.53 15.03C11.23 15.32 10.76 15.32 10.46 15.03C10.17 14.73 10.17 14.26 10.46 13.96L10.49 13.96L11.53 15Z" fill="#7F7667" fill-opacity="1.000000" fill-rule="evenodd"/>
	</g>
</svg>
