<svg width="24.000000" height="24.000000" viewBox="0 0 24 24" fill="none" xmlns="http://www.w3.org/2000/svg" xmlns:xlink="http://www.w3.org/1999/xlink">
	<desc>
			Created with Pixso.
	</desc>
	<defs>
		<clipPath id="clip6_2975">
			<rect width="24.000000" height="24.000000" fill="white" fill-opacity="0"/>
		</clipPath>
	</defs>
	<g clip-path="url(#clip6_2975)">
		<path d="M13.75 4.69C13.75 3.85 13.14 3.14 12.31 3.02C12.1 2.99 11.89 2.99 11.68 3.02C10.85 3.14 10.24 3.85 10.24 4.69L10.24 5.87C9.77 6 9.32 6.19 8.9 6.42L8.07 5.59C7.48 5 6.54 4.93 5.87 5.42C5.7 5.55 5.55 5.7 5.42 5.87C4.93 6.54 5 7.48 5.59 8.07L6.42 8.9C6.19 9.32 6 9.77 5.87 10.24L4.69 10.24C3.85 10.24 3.14 10.85 3.02 11.68C2.99 11.89 2.99 12.1 3.02 12.31C3.14 13.14 3.85 13.75 4.69 13.75L5.87 13.75C6 14.22 6.19 14.67 6.42 15.09L5.59 15.92C5 16.51 4.93 17.45 5.42 18.12C5.55 18.29 5.7 18.44 5.87 18.57C6.54 19.06 7.48 18.99 8.07 18.4L8.9 17.57C9.32 17.8 9.77 17.99 10.24 18.12L10.24 19.3C10.24 20.14 10.85 20.85 11.68 20.97C11.89 21 12.1 21 12.31 20.97C13.14 20.85 13.75 20.14 13.75 19.3L13.75 18.12C14.22 17.99 14.67 17.8 15.09 17.57L15.92 18.4C16.51 18.99 17.45 19.06 18.12 18.57C18.29 18.44 18.44 18.29 18.57 18.12C19.06 17.45 18.99 16.51 18.4 15.92L17.57 15.09C17.8 14.67 17.99 14.22 18.12 13.75L19.3 13.75C20.14 13.75 20.85 13.14 20.97 12.31C21 12.1 21 11.89 20.97 11.68C20.85 10.85 20.14 10.24 19.3 10.24L18.12 10.24C17.99 9.77 17.8 9.32 17.57 8.9L18.4 8.07C18.99 7.48 19.06 6.54 18.57 5.87C18.44 5.7 18.29 5.55 18.12 5.42C17.45 4.93 16.51 5 15.92 5.59L15.09 6.42C14.67 6.19 14.22 6 13.75 5.87L13.75 4.69Z" fill="#E9E1D8" fill-opacity="1.000000" fill-rule="nonzero"/>
		<path d="M13.75 4.69L13.75 5.87C14.22 6 14.67 6.19 15.09 6.42L15.92 5.59C16.51 5 17.45 4.93 18.12 5.42C18.29 5.55 18.44 5.7 18.57 5.87C19.06 6.54 18.99 7.48 18.4 8.07L17.57 8.9C17.8 9.32 17.99 9.77 18.12 10.24L19.3 10.24C20.14 10.24 20.85 10.85 20.97 11.68C21 11.89 21 12.1 20.97 12.31C20.85 13.14 20.14 13.75 19.3 13.75L18.12 13.75C17.99 14.22 17.8 14.67 17.57 15.09L18.4 15.92C18.99 16.51 19.06 17.45 18.57 18.12C18.44 18.29 18.29 18.44 18.12 18.57C17.45 19.06 16.51 18.99 15.92 18.4L15.09 17.57C14.67 17.8 14.22 17.99 13.75 18.12L13.75 19.3C13.75 20.14 13.14 20.85 12.31 20.97C12.1 21 11.89 21 11.68 20.97C10.85 20.85 10.24 20.14 10.24 19.3L10.24 18.12C9.77 17.99 9.32 17.8 8.9 17.57L8.07 18.4C7.48 18.99 6.54 19.06 5.87 18.57C5.7 18.44 5.55 18.29 5.42 18.12C4.93 17.45 5 16.51 5.59 15.92L6.42 15.09C6.19 14.67 6 14.22 5.87 13.75L4.69 13.75C3.85 13.75 3.14 13.14 3.02 12.31C2.99 12.1 2.99 11.89 3.02 11.68C3.14 10.85 3.85 10.24 4.69 10.24L5.87 10.24C6 9.77 6.19 9.32 6.42 8.9L5.59 8.07C5 7.48 4.93 6.54 5.42 5.87C5.55 5.7 5.7 5.55 5.87 5.42C6.54 4.93 7.48 5 8.07 5.59L8.9 6.42C9.32 6.19 9.77 6 10.24 5.87L10.24 4.69C10.24 3.85 10.85 3.14 11.68 3.02C11.89 2.99 12.1 2.99 12.31 3.02C13.14 3.14 13.75 3.85 13.75 4.69Z" stroke="#7F7667" stroke-opacity="1.000000" stroke-width="1.500000" stroke-linejoin="round"/>
		<path d="M9.5 12C9.5 10.61 10.61 9.5 12 9.5C13.38 9.5 14.5 10.61 14.5 12C14.5 13.38 13.38 14.5 12 14.5C10.61 14.5 9.5 13.38 9.5 12Z" stroke="#7F7667" stroke-opacity="1.000000" stroke-width="1.500000"/>
	</g>
</svg>
