<svg width="24.000000" height="24.000000" viewBox="0 0 24 24" fill="none" xmlns="http://www.w3.org/2000/svg" xmlns:xlink="http://www.w3.org/1999/xlink">
	<desc>
			Created with Pixso.
	</desc>
	<defs>
		<clipPath id="clip6_2906">
			<rect width="24.000000" height="24.000000" fill="white" fill-opacity="0"/>
		</clipPath>
	</defs>
	<g clip-path="url(#clip6_2906)">
		<path d="M4.33 9.35C4.94 6.66 6.99 4.57 9.61 3.94C11.51 3.48 13.48 3.48 15.38 3.94C18 4.57 20.05 6.66 20.66 9.35C21.11 11.29 21.11 13.3 20.66 15.24C20.05 17.93 18 20.02 15.38 20.65C13.48 21.11 11.51 21.11 9.61 20.65C6.99 20.02 4.94 17.93 4.33 15.24C3.88 13.3 3.88 11.29 4.33 9.35ZM7.83 3.02L7.82 3C7.82 2.58 8.14 2.25 8.57 2.25C8.99 2.25 9.32 2.58 9.32 3L9.3 3.02L7.83 3.02ZM9.3 5.49L9.32 5.51C9.32 5.93 8.99 6.26 8.57 6.26C8.14 6.26 7.82 5.93 7.82 5.51L7.83 5.49L9.3 5.49ZM15.69 3.02L15.67 3C15.67 2.58 16 2.25 16.42 2.25C16.85 2.25 17.17 2.58 17.17 3L17.16 3.02L15.69 3.02ZM17.16 5.49L17.17 5.51C17.17 5.93 16.85 6.26 16.42 6.26C16 6.26 15.67 5.93 15.67 5.51L15.69 5.49L17.16 5.49ZM9.57 16.04L9.55 16.06C9.13 16.06 8.8 15.73 8.8 15.31C8.8 14.89 9.13 14.56 9.55 14.56L9.57 14.58L9.57 16.04ZM12.48 14.58L12.5 14.56C12.91 14.56 13.25 14.89 13.25 15.31C13.25 15.73 12.91 16.06 12.5 16.06L12.48 16.04L12.48 14.58ZM9.57 13.03L9.55 13.05C9.13 13.05 8.8 12.72 8.8 12.3C8.8 11.88 9.13 11.55 9.55 11.55L9.57 11.57L9.57 13.03ZM15.42 11.57L15.44 11.55C15.86 11.55 16.19 11.88 16.19 12.3C16.19 12.72 15.86 13.05 15.44 13.05L15.42 13.03L15.42 11.57Z" fill="#E9E1D8" fill-opacity="1.000000" fill-rule="nonzero"/>
		<path d="M4.33 9.35C4.94 6.66 6.99 4.57 9.61 3.94C11.51 3.48 13.48 3.48 15.38 3.94C18 4.57 20.05 6.66 20.66 9.35C21.11 11.29 21.11 13.3 20.66 15.24C20.05 17.93 18 20.02 15.38 20.65C13.48 21.11 11.51 21.11 9.61 20.65C6.99 20.02 4.94 17.93 4.33 15.24C3.88 13.3 3.88 11.29 4.33 9.35ZM8.57 3L8.57 5.51M16.42 3L16.42 5.51M9.55 15.31L12.5 15.31M9.55 12.3L15.44 " stroke="#7F7667" stroke-opacity="1.000000" stroke-width="1.500000"/>
	</g>
</svg>
