<svg width="24.000000" height="24.000000" viewBox="0 0 24 24" fill="none" xmlns="http://www.w3.org/2000/svg" xmlns:xlink="http://www.w3.org/1999/xlink">
	<desc>
			Created with Pixso.
	</desc>
	<defs>
		<clipPath id="clip6_2721">
			<rect width="24.000000" height="24.000000" fill="white" fill-opacity="0"/>
		</clipPath>
	</defs>
	<g clip-path="url(#clip6_2721)">
		<path d="M18.8 9.76C18.46 6.52 15.54 4 12 4C8.22 4 5.15 6.86 5.15 10.4C5.15 10.49 5.16 10.58 5.16 10.67C3.32 11.32 2 13.1 2 15.2C2 17.85 3.82 20 6.44 20L17.13 20C20.04 20 22 17.61 22 14.66C22 12.46 20.68 10.57 18.8 9.76Z" fill="#E9E1D8" fill-opacity="1.000000" fill-rule="evenodd"/>
		<path d="M17.15 20.73L17.13 20.75C16.71 20.75 16.38 20.42 16.38 20C16.38 19.58 16.71 19.25 17.13 19.25L17.15 19.27L17.15 20.73ZM6.42 19.27L6.44 19.25C6.86 19.25 7.19 19.58 7.19 20C7.19 20.42 6.86 20.75 6.44 20.75L6.42 20.73L6.42 19.27Z" fill="#E9E1D8" fill-opacity="1.000000" fill-rule="nonzero"/>
		<path d="M17.13 20C20.04 20 22 17.61 22 14.66C22 12.46 20.68 10.57 18.8 9.76C18.46 6.52 15.54 4 12 4C8.22 4 5.15 6.86 5.15 10.4C5.15 10.49 5.16 10.58 5.16 10.67C3.32 11.32 2 13.1 2 15.2C2 17.85 3.82 20 6.44 " stroke="#7F7667" stroke-opacity="1.000000" stroke-width="1.500000" stroke-linecap="round"/>
		<path d="M12.96 15.49L12.96 15.46C13.26 15.17 13.73 15.17 14.03 15.46C14.32 15.76 14.32 16.23 14.03 16.53L14 16.53L12.96 15.49ZM11.03 22.5L11.03 22.53C10.73 22.82 10.26 22.82 9.96 22.53C9.67 22.23 9.67 21.76 9.96 21.46L9.99 21.46L11.03 22.5Z" fill="#E9E1D8" fill-opacity="1.000000" fill-rule="nonzero"/>
		<path d="M13.5 16L10.5 19L13.5 19L10.5 " stroke="#7F7667" stroke-opacity="1.000000" stroke-width="1.500000" stroke-linejoin="round" stroke-linecap="round"/>
	</g>
</svg>
