<svg width="24.000000" height="24.000000" viewBox="0 0 24 24" fill="none" xmlns="http://www.w3.org/2000/svg" xmlns:xlink="http://www.w3.org/1999/xlink">
	<desc>
			Created with Pixso.
	</desc>
	<defs>
		<clipPath id="clip6_2900">
			<rect width="24.000000" height="24.000000" fill="white" fill-opacity="0"/>
		</clipPath>
	</defs>
	<g clip-path="url(#clip6_2900)">
		<path d="M3.35 8.83C4 6.11 6.17 3.98 8.95 3.34C10.95 2.88 13.04 2.88 15.04 3.34C17.82 3.98 19.99 6.11 20.64 8.83C21.11 10.79 21.11 12.84 20.64 14.81C19.99 17.53 17.82 19.66 15.04 20.29C13.04 20.76 10.95 20.76 8.95 20.29C6.17 19.66 4 17.53 3.35 14.81C2.88 12.84 2.88 10.79 3.35 8.83Z" fill="#E9E1D8" fill-opacity="1.000000" fill-rule="evenodd"/>
		<path d="M3.35 8.83C4 6.11 6.17 3.98 8.95 3.34C10.95 2.88 13.04 2.88 15.04 3.34C17.82 3.98 19.99 6.11 20.64 8.83C21.11 10.79 21.11 12.84 20.64 14.81C19.99 17.53 17.82 19.66 15.04 20.29C13.04 20.76 10.95 20.76 8.95 20.29C6.17 19.66 4 17.53 3.35 14.81C2.88 12.84 2.88 10.79 3.35 8.83ZM14.08 21C14.08 18.11 14.08 16.67 14.99 15.77C15.9 14.88 17.37 14.88 20.32 " stroke="#7F7667" stroke-opacity="1.000000" stroke-width="1.500000"/>
		<path d="M9.02 9.72L9 9.75C8.58 9.75 8.25 9.41 8.25 9C8.25 8.58 8.58 8.25 9 8.25L9.02 8.27L9.02 9.72ZM11.98 8.27L12 8.25C12.41 8.25 12.75 8.58 12.75 9C12.75 9.41 12.41 9.75 12 9.75L11.98 9.72L11.98 8.27ZM9.02 12.73L9 12.75C8.58 12.75 8.25 12.41 8.25 12C8.25 11.58 8.58 11.25 9 11.25L9.02 11.27L9.02 12.73ZM13.98 11.27L14 11.25C14.41 11.25 14.75 11.58 14.75 12C14.75 12.41 14.41 12.75 14 12.75L13.98 12.73L13.98 11.27Z" fill="#E9E1D8" fill-opacity="1.000000" fill-rule="nonzero"/>
		<path d="M9 9L12 9M9 12L14 " stroke="#7F7667" stroke-opacity="1.000000" stroke-width="1.500000"/>
	</g>
</svg>
