<svg width="24.000000" height="24.000000" viewBox="0 0 24 24" fill="none" xmlns="http://www.w3.org/2000/svg" xmlns:xlink="http://www.w3.org/1999/xlink">
	<desc>
			Created with Pixso.
	</desc>
	<defs>
		<clipPath id="clip6_2825">
			<rect width="24.000000" height="24.000000" fill="white" fill-opacity="0"/>
		</clipPath>
	</defs>
	<g clip-path="url(#clip6_2825)">
		<path d="M5.02 10.82L5 10.84C4.58 10.84 4.25 10.51 4.25 10.09C4.25 9.67 4.58 9.34 5 9.34L5.02 9.36L5.02 10.82ZM12.69 5.56L12.66 5.56C12.35 5.28 12.31 4.82 12.59 4.5C12.87 4.19 13.33 4.15 13.65 4.43L13.65 4.46L12.69 5.56Z" fill="#E9E1D8" fill-opacity="1.000000" fill-rule="nonzero"/>
		<path d="M5 10.09L19 10.09L13.16 " stroke="#7F7667" stroke-opacity="1.000000" stroke-width="1.500000" stroke-linejoin="round" stroke-linecap="round"/>
		<path d="M18.98 13.17L19 13.15C19.41 13.15 19.75 13.48 19.75 13.9C19.75 14.32 19.41 14.65 19 14.65L18.98 14.63L18.98 13.17ZM11.3 18.43L11.33 18.43C11.64 18.71 11.68 19.17 11.4 19.49C11.12 19.8 10.66 19.84 10.34 19.56L10.34 19.53L11.3 18.43Z" fill="#E9E1D8" fill-opacity="1.000000" fill-rule="nonzero"/>
		<path d="M19 13.9L5 13.9L10.83 " stroke="#7F7667" stroke-opacity="1.000000" stroke-width="1.500000" stroke-linejoin="round" stroke-linecap="round"/>
	</g>
</svg>
