<svg width="24.000000" height="24.000000" viewBox="0 0 24 24" fill="none" xmlns="http://www.w3.org/2000/svg" xmlns:xlink="http://www.w3.org/1999/xlink">
	<desc>
			Created with Pixso.
	</desc>
	<defs>
		<clipPath id="clip6_2789">
			<rect width="24.000000" height="24.000000" fill="white" fill-opacity="0"/>
		</clipPath>
	</defs>
	<g clip-path="url(#clip6_2789)">
		<path d="M8.86 7L8.12 7C7.29 7 6.47 7.15 5.69 7.44C4.32 7.94 3.32 9.19 3.1 10.69L3.09 10.74C2.96 11.57 2.96 12.42 3.09 13.25L3.1 13.3C3.32 14.8 4.32 16.05 5.69 16.55C6.47 16.84 7.29 16.99 8.12 16.99L8.86 16.99C9.31 16.99 9.73 17.18 10.04 17.51L10.59 18.09C12.18 19.79 14.93 18.98 15.47 16.66C16.17 13.59 16.17 10.4 15.47 7.33C14.93 5.01 12.18 4.2 10.59 5.9L10.04 6.48C9.73 6.81 9.31 7 8.86 7Z" fill="#E9E1D8" fill-opacity="1.000000" fill-rule="nonzero"/>
		<path d="M8.86 7C9.31 7 9.73 6.81 10.04 6.48L10.59 5.9C12.18 4.2 14.93 5.01 15.47 7.33C16.17 10.4 16.17 13.59 15.47 16.66C14.93 18.98 12.18 19.79 10.59 18.09L10.04 17.51C9.73 17.18 9.31 16.99 8.86 16.99L8.12 16.99C7.29 16.99 6.47 16.84 5.69 16.55C4.32 16.05 3.32 14.8 3.1 13.3L3.09 13.25C2.96 12.42 2.96 11.57 3.09 10.74L3.1 10.69C3.32 9.19 4.32 7.94 5.69 7.44C6.47 7.15 7.29 7 8.12 7L8.86 7Z" stroke="#7F7667" stroke-opacity="1.000000" stroke-width="1.500000"/>
		<path d="M18.66 7.64L18.63 7.65C18.26 7.45 18.14 7 18.34 6.63C18.54 6.26 18.99 6.14 19.36 6.34L19.37 6.37L18.66 7.64ZM19.37 17.62L19.36 17.65C18.99 17.85 18.54 17.73 18.34 17.36C18.14 16.99 18.26 16.54 18.63 16.34L18.66 16.35L19.37 17.62Z" fill="#E9E1D8" fill-opacity="1.000000" fill-rule="nonzero"/>
		<path d="M19 7C20.79 7.99 22 9.86 22 12C22 14.13 20.79 16 19 " stroke="#7F7667" stroke-opacity="1.000000" stroke-width="1.500000" stroke-linejoin="round" stroke-linecap="round"/>
		<path d="M18.11 10.61L18.08 10.62C17.73 10.39 17.64 9.93 17.87 9.58C18.1 9.23 18.56 9.14 18.91 9.37L18.92 9.4L18.11 10.61ZM18.92 14.59L18.91 14.62C18.56 14.85 18.1 14.76 17.87 14.41C17.64 14.06 17.73 13.6 18.08 13.37L18.11 13.38L18.92 14.59Z" fill="#E9E1D8" fill-opacity="1.000000" fill-rule="nonzero"/>
		<path d="M18.5 10C19.09 10.39 19.5 11.14 19.5 12C19.5 12.85 19.09 13.6 18.5 " stroke="#7F7667" stroke-opacity="1.000000" stroke-width="1.500000" stroke-linejoin="round" stroke-linecap="round"/>
	</g>
</svg>
