<svg width="24.000000" height="24.000000" viewBox="0 0 24 24" fill="none" xmlns="http://www.w3.org/2000/svg" xmlns:xlink="http://www.w3.org/1999/xlink">
	<desc>
			Created with Pixso.
	</desc>
	<defs>
		<clipPath id="clip6_2914">
			<rect width="24.000000" height="24.000000" fill="white" fill-opacity="0"/>
		</clipPath>
	</defs>
	<g clip-path="url(#clip6_2914)">
		<path d="M3.83 9.35C4.44 6.66 6.49 4.57 9.11 3.94C11.01 3.48 12.98 3.48 14.88 3.94C17.5 4.57 19.55 6.66 20.16 9.35C20.61 11.29 20.61 13.3 20.16 15.24C19.55 17.93 17.5 20.02 14.88 20.65C12.98 21.11 11.01 21.11 9.11 20.65C6.49 20.02 4.44 17.93 3.83 15.24C3.38 13.3 3.38 11.29 3.83 9.35ZM7.33 3.02L7.32 3C7.32 2.58 7.64 2.25 8.07 2.25C8.49 2.25 8.82 2.58 8.82 3L8.8 3.02L7.33 3.02ZM8.8 5.49L8.82 5.51C8.82 5.93 8.49 6.26 8.07 6.26C7.64 6.26 7.32 5.93 7.32 5.51L7.33 5.49L8.8 5.49ZM15.19 3.02L15.17 3C15.17 2.58 15.5 2.25 15.92 2.25C16.35 2.25 16.67 2.58 16.67 3L16.66 3.02L15.19 3.02ZM16.66 5.49L16.67 5.51C16.67 5.93 16.35 6.26 15.92 6.26C15.5 6.26 15.17 5.93 15.17 5.51L15.19 5.49L16.66 5.49Z" fill="#E9E1D8" fill-opacity="1.000000" fill-rule="nonzero"/>
		<path d="M3.83 9.35C4.44 6.66 6.49 4.57 9.11 3.94C11.01 3.48 12.98 3.48 14.88 3.94C17.5 4.57 19.55 6.66 20.16 9.35C20.61 11.29 20.61 13.3 20.16 15.24C19.55 17.93 17.5 20.02 14.88 20.65C12.98 21.11 11.01 21.11 9.11 20.65C6.49 20.02 4.44 17.93 3.83 15.24C3.38 13.3 3.38 11.29 3.83 9.35ZM8.07 3L8.07 5.51M15.92 3L15.92 " stroke="#7F7667" stroke-opacity="1.000000" stroke-width="1.500000"/>
		<path d="M12.88 11.08L12.88 11.05C13.18 10.75 13.64 10.75 13.94 11.05C14.24 11.35 14.24 11.81 13.94 12.11L13.91 12.11L12.88 11.08ZM11.11 14.91L11.11 14.94C10.81 15.24 10.35 15.24 10.05 14.94C9.75 14.64 9.75 14.18 10.05 13.88L10.08 13.88L11.11 14.91ZM13.91 13.88L13.94 13.88C14.24 14.18 14.24 14.64 13.94 14.94C13.64 15.24 13.18 15.24 12.88 14.94L12.88 14.91L13.91 13.88ZM10.08 12.11L10.05 12.11C9.75 11.81 9.75 11.35 10.05 11.05C10.35 10.75 10.81 10.75 11.11 11.05L11.11 11.08L10.08 12.11Z" fill="#E9E1D8" fill-opacity="1.000000" fill-rule="nonzero"/>
		<path d="M13.41 11.58L10.58 14.41M13.41 14.41L10.58 " stroke="#7F7667" stroke-opacity="1.000000" stroke-width="1.500000"/>
	</g>
</svg>
