<svg width="24.000000" height="24.000000" viewBox="0 0 24 24" fill="none" xmlns="http://www.w3.org/2000/svg" xmlns:xlink="http://www.w3.org/1999/xlink">
	<desc>
			Created with Pixso.
	</desc>
	<defs>
		<clipPath id="clip6_3048">
			<rect width="24.000000" height="24.000000" fill="white" fill-opacity="0"/>
		</clipPath>
	</defs>
	<g clip-path="url(#clip6_3048)">
		<path d="M9.69 8.66L13.61 4.75C14.09 4.27 14.74 4 15.42 4C16.84 4 18 5.15 18 6.57C18 7.25 17.72 7.9 17.24 8.38L13.33 12.3C11.62 14 9.49 15.21 7.15 15.8L6.4 15.99C6.16 16.04 5.95 15.83 6 15.59L6.19 14.84C6.78 12.5 7.99 10.37 9.69 8.66Z" fill="#E9E1D8" fill-opacity="1.000000" fill-rule="nonzero"/>
		<path d="M9.69 8.66C7.99 10.37 6.78 12.5 6.19 14.84L6 15.59C5.95 15.83 6.16 16.04 6.4 15.99L7.15 15.8C9.49 15.21 11.62 14 13.33 12.3L17.24 8.38C17.72 7.9 18 7.25 18 6.57C18 5.15 16.84 4 15.42 4C14.74 4 14.09 4.27 13.61 4.75L9.69 8.66ZM16.5 9.13C14.68 9.74 12.25 7.31 12.86 " stroke="#7F7667" stroke-opacity="1.000000" stroke-width="1.500000"/>
		<path d="M18.98 19.27L19 19.25C19.41 19.25 19.75 19.58 19.75 20C19.75 20.41 19.41 20.75 19 20.75L18.98 20.73L18.98 19.27ZM5.02 20.73L5 20.75C4.58 20.75 4.25 20.41 4.25 20C4.25 19.58 4.58 19.25 5 19.25L5.02 19.27L5.02 20.73Z" fill="#E9E1D8" fill-opacity="1.000000" fill-rule="nonzero"/>
		<path d="M19 20L5 " stroke="#7F7667" stroke-opacity="1.000000" stroke-width="1.500000" stroke-linejoin="round" stroke-linecap="round"/>
	</g>
</svg>
