<svg width="24.000000" height="24.000000" viewBox="0 0 24 24" fill="none" xmlns="http://www.w3.org/2000/svg" xmlns:xlink="http://www.w3.org/1999/xlink">
	<desc>
			Created with Pixso.
	</desc>
	<defs>
		<clipPath id="clip6_2923">
			<rect width="24.000000" height="24.000000" fill="white" fill-opacity="0"/>
		</clipPath>
	</defs>
	<g clip-path="url(#clip6_2923)">
		<path d="M9.79 3.24C7.79 3.7 6.22 5.21 5.75 7.16C5.41 8.56 5.41 10.02 5.75 11.42C6.05 12.66 6.79 13.73 7.82 14.46L6.67 18.96C6.32 20.32 7.77 21.44 9.06 20.82L10.99 19.89C11.62 19.59 12.37 19.59 13 19.89L14.93 20.82C16.22 21.44 17.67 20.32 17.32 18.96L16.17 14.46C17.2 13.73 17.94 12.66 18.24 11.42C18.58 10.02 18.58 8.56 18.24 7.16C17.77 5.21 16.2 3.7 14.2 3.24C12.75 2.91 11.24 2.91 9.79 3.24Z" fill="#E9E1D8" fill-opacity="1.000000" fill-rule="evenodd"/>
		<path d="M9.79 15.34C9.07 15.17 8.4 14.87 7.82 14.46L6.67 18.96C6.32 20.32 7.77 21.44 9.06 20.82L10.99 19.89C11.62 19.59 12.37 19.59 13 19.89L14.93 20.82C16.22 21.44 17.67 20.32 17.32 18.96L16.17 14.46C15.59 14.87 14.92 15.17 14.2 15.34M9.79 15.34C7.79 14.88 6.22 13.37 5.75 11.42C5.41 10.02 5.41 8.56 5.75 7.16C6.22 5.21 7.79 3.7 9.79 3.24C11.24 2.91 12.75 2.91 14.2 3.24C16.2 3.7 17.77 5.21 18.24 7.16C18.58 8.56 18.58 10.02 18.24 11.42C17.77 13.37 16.2 14.88 14.2 15.34C12.75 15.67 11.24 15.67 9.79 15.34Z" stroke="#7F7667" stroke-opacity="1.000000" stroke-width="1.500000"/>
	</g>
</svg>
