<svg width="24.000000" height="24.000000" viewBox="0 0 24 24" fill="none" xmlns="http://www.w3.org/2000/svg" xmlns:xlink="http://www.w3.org/1999/xlink">
	<desc>
			Created with Pixso.
	</desc>
	<defs>
		<clipPath id="clip6_2852">
			<rect width="24.000000" height="24.000000" fill="white" fill-opacity="0"/>
		</clipPath>
	</defs>
	<g clip-path="url(#clip6_2852)">
		<path d="M15.69 3.85L15.66 3.85L14.65 4.91L14.65 4.93C14.96 5.22 15.42 5.22 15.71 4.91C16 4.61 15.99 4.14 15.69 3.85ZM4.3 11.4C4.71 9.91 5.78 8.69 7.2 8.05C7.01 7.91 6.89 7.69 6.89 7.44L6.91 7.42L8.37 7.42L8.39 7.44C8.39 7.52 8.38 7.6 8.35 7.67C8.36 7.67 8.37 7.67 8.37 7.67L8.65 7.61C10.86 7.16 13.13 7.16 15.34 7.61L15.62 7.67C17.6 8.07 19.18 9.52 19.69 11.4C20.19 13.27 20.07 15.23 19.34 17.03L19.25 17.25C18.5 19.09 16.8 20.4 14.78 20.72L14.03 20.84C12.68 21.05 11.31 21.05 9.96 20.84L9.21 20.72C7.19 20.4 5.49 19.09 4.74 17.25L4.65 17.03C3.92 15.23 3.8 13.27 4.3 11.4Z" fill="#E9E1D8" fill-opacity="1.000000" fill-rule="evenodd"/>
		<path d="M8.65 7.61C10.86 7.16 13.13 7.16 15.34 7.61L15.62 7.67C17.6 8.07 19.18 9.52 19.69 11.4C20.19 13.27 20.07 15.23 19.34 17.03L19.25 17.25C18.5 19.09 16.8 20.4 14.78 20.72L14.03 20.84C12.68 21.05 11.31 21.05 9.96 20.84L9.21 20.72C7.19 20.4 5.49 19.09 4.74 17.25L4.65 17.03C3.92 15.23 3.8 13.27 4.3 11.4C4.81 9.52 6.39 8.07 8.37 7.67L8.65 7.61ZM7.64 7.44L7.64 7.2C7.64 5.29 8.99 3.62 10.91 3.14L10.98 3.12C11.65 2.96 12.34 2.95 13.01 3.11C13.73 3.29 14.39 3.64 14.92 4.15L15.17 " stroke="#7F7667" stroke-opacity="1.000000" stroke-width="1.500000" stroke-linecap="round"/>
		<path d="M11.27 13.52L11.25 13.5C11.25 13.08 11.58 12.75 12 12.75C12.41 12.75 12.75 13.08 12.75 13.5L12.73 13.52L11.27 13.52ZM12.73 15.48L12.75 15.5C12.75 15.91 12.41 16.25 12 16.25C11.58 16.25 11.25 15.91 11.25 15.5L11.27 15.48L12.73 15.48Z" fill="#E9E1D8" fill-opacity="1.000000" fill-rule="nonzero"/>
		<path d="M12 13.5L12 " stroke="#7F7667" stroke-opacity="1.000000" stroke-width="1.500000" stroke-linecap="round"/>
	</g>
</svg>
