<svg width="24.000000" height="24.000000" viewBox="0 0 24 24" fill="none" xmlns="http://www.w3.org/2000/svg" xmlns:xlink="http://www.w3.org/1999/xlink">
	<desc>
			Created with Pixso.
	</desc>
	<defs>
		<clipPath id="clip6_2966">
			<rect width="24.000000" height="24.000000" fill="white" fill-opacity="0"/>
		</clipPath>
	</defs>
	<g clip-path="url(#clip6_2966)">
		<path d="M3.9 15.34C2.69 13.28 2.69 10.71 3.9 8.65C6.85 3.6 13.3 2.66 17.56 5.82L17.82 6.08L14.48 9.47L9.46 14.57L6.12 17.96L5.96 17.81C5.17 17.14 4.47 16.32 3.9 15.34ZM19.47 9.03L19.44 9.03C19.23 8.66 19.35 8.21 19.71 8C20.07 7.79 20.52 7.9 20.73 8.27L20.73 8.29L19.47 9.03ZM8.7 20.18L8.67 20.19C8.27 20.05 8.07 19.63 8.21 19.24C8.34 18.84 8.76 18.64 9.16 18.77L9.17 18.8L8.7 20.18ZM14.82 12.08L14.8 12.06C14.8 11.64 15.13 11.31 15.55 11.31C15.97 11.31 16.3 11.64 16.3 12.06L16.28 12.08L14.82 12.08ZM12.01 16.4L11.99 16.42C11.57 16.42 11.24 16.09 11.24 15.67C11.24 15.25 11.57 14.92 11.99 14.92L12.01 14.94L12.01 16.4ZM19.34 3.5L19.34 3.47C19.63 3.17 20.1 3.17 20.4 3.46C20.7 3.76 20.7 4.22 20.4 4.52L20.38 4.52L19.34 3.5ZM5.22 19.92L5.22 19.95C4.92 20.25 4.46 20.25 4.16 19.96C3.86 19.66 3.85 19.2 4.15 18.9L4.18 18.9L5.22 19.92Z" fill="#E9E1D8" fill-opacity="1.000000" fill-rule="nonzero"/>
		<path d="M20.09 8.65C21.3 10.71 21.3 13.28 20.09 15.34C17.67 19.47 12.9 20.85 8.92 19.48M6.12 17.96L5.96 17.81C5.17 17.14 4.47 16.32 3.9 15.34C2.69 13.28 2.69 10.71 3.9 8.65C6.85 3.6 13.3 2.66 17.56 5.82L17.82 6.08M9.46 14.57L9.31 14.42C8.77 13.79 8.44 12.96 8.44 12.06C8.44 10.06 10.03 8.44 11.99 8.44C12.94 8.44 13.79 8.81 14.43 9.42L14.48 9.47M15.55 12.06C15.55 14.05 13.96 15.67 11.99 15.67M19.87 4L17.82 6.08L14.48 9.47L9.46 14.57L6.12 17.96L4.68 " stroke="#7F7667" stroke-opacity="1.000000" stroke-width="1.500000"/>
	</g>
</svg>
