<svg width="24.000000" height="24.000000" viewBox="0 0 24 24" fill="none" xmlns="http://www.w3.org/2000/svg" xmlns:xlink="http://www.w3.org/1999/xlink">
	<desc>
			Created with Pixso.
	</desc>
	<defs>
		<clipPath id="clip6_3063">
			<rect width="24.000000" height="24.000000" fill="white" fill-opacity="0"/>
		</clipPath>
	</defs>
	<g clip-path="url(#clip6_3063)">
		<path d="M7.53 15L7.53 15.03C7.23 15.32 6.76 15.32 6.46 15.03C6.17 14.73 6.17 14.26 6.46 13.96L6.49 13.96L7.53 15ZM17.5 13.96L17.53 13.96C17.82 14.26 17.82 14.73 17.53 15.03C17.23 15.32 16.76 15.32 16.46 15.03L16.46 15L17.5 13.96Z" fill="#E9E1D8" fill-opacity="1.000000" fill-rule="nonzero"/>
		<path d="M16.46 15.03L11.46 10.03L12 9.5L12.53 10.03L7.53 15.03L6.46 13.96L11.46 8.96Q11.52 8.91 11.58 8.87Q11.64 8.83 11.71 8.8Q11.78 8.77 11.85 8.76Q11.92 8.75 12 8.75Q12.07 8.75 12.14 8.76Q12.21 8.77 12.28 8.8Q12.35 8.83 12.41 8.87Q12.47 8.91 12.53 8.96L17.53 13.96L16.46 15.03ZM7.53 15L7.53 15.03C7.23 15.32 6.76 15.32 6.46 15.03C6.17 14.73 6.17 14.26 6.46 13.96L6.49 13.96L7.53 15ZM17.5 13.96L17.53 13.96C17.82 14.26 17.82 14.73 17.53 15.03C17.23 15.32 16.76 15.32 16.46 15.03L16.46 15L17.5 13.96Z" fill="#7F7667" fill-opacity="1.000000" fill-rule="evenodd"/>
	</g>
</svg>
