<svg width="24.000000" height="24.000000" viewBox="0 0 24 24" fill="none" xmlns="http://www.w3.org/2000/svg" xmlns:xlink="http://www.w3.org/1999/xlink">
	<desc>
			Created with Pixso.
	</desc>
	<defs>
		<clipPath id="clip6_3091">
			<rect width="24.000000" height="24.000000" fill="white" fill-opacity="0"/>
		</clipPath>
	</defs>
	<g clip-path="url(#clip6_3091)">
		<path d="M7.3 19.73L7.28 19.75C6.86 19.75 6.53 19.41 6.53 19C6.53 18.58 6.86 18.25 7.28 18.25L7.3 18.27L7.3 19.73ZM19.98 18.27L20 18.25C20.41 18.25 20.75 18.58 20.75 19C20.75 19.41 20.41 19.75 20 19.75L19.98 19.73L19.98 18.27ZM19.97 11.27L19.99 11.25C20.41 11.25 20.74 11.58 20.74 12C20.74 12.41 20.41 12.75 19.99 12.75L19.97 12.73L19.97 11.27ZM4.02 12.73L4 12.75C3.58 12.75 3.25 12.41 3.25 12C3.25 11.58 3.58 11.25 4 11.25L4.02 11.27L4.02 12.73ZM19.98 4.27L20 4.25C20.41 4.25 20.75 4.58 20.75 5C20.75 5.41 20.41 5.75 20 5.75L19.98 5.72L19.98 4.27ZM12.99 5.72L12.97 5.75C12.55 5.75 12.22 5.41 12.22 5C12.22 4.58 12.55 4.25 12.97 4.25L12.99 4.27L12.99 5.72Z" fill="#E9E1D8" fill-opacity="1.000000" fill-rule="nonzero"/>
		<path d="M7.28 19L20 19M19.99 12L4 12M20 5L12.97 " stroke="#7F7667" stroke-opacity="1.000000" stroke-width="1.500000"/>
	</g>
</svg>
