<svg width="24.000000" height="24.000000" viewBox="0 0 24 24" fill="none" xmlns="http://www.w3.org/2000/svg" xmlns:xlink="http://www.w3.org/1999/xlink">
	<desc>
			Created with Pixso.
	</desc>
	<defs>
		<clipPath id="clip6_3065">
			<rect width="24.000000" height="24.000000" fill="white" fill-opacity="0"/>
		</clipPath>
	</defs>
	<g clip-path="url(#clip6_3065)">
		<path d="M15 16.46L15.03 16.46C15.32 16.76 15.32 17.23 15.03 17.53C14.73 17.82 14.26 17.82 13.96 17.53L13.96 17.5L15 16.46ZM13.96 6.49L13.96 6.46C14.26 6.17 14.73 6.17 15.03 6.46C15.32 6.76 15.32 7.23 15.03 7.53L15 7.53L13.96 6.49Z" fill="#E9E1D8" fill-opacity="1.000000" fill-rule="nonzero"/>
		<path d="M15.03 7.53L10.03 12.53L9.5 12L10.03 11.46L15.03 16.46L13.96 17.53L8.96 12.53Q8.91 12.47 8.87 12.41Q8.83 12.35 8.8 12.28Q8.77 12.21 8.76 12.14Q8.75 12.07 8.75 12Q8.75 11.92 8.76 11.85Q8.77 11.78 8.8 11.71Q8.83 11.64 8.87 11.58Q8.91 11.52 8.96 11.46L13.96 6.46L15.03 7.53ZM15 16.46L15.03 16.46C15.32 16.76 15.32 17.23 15.03 17.53C14.73 17.82 14.26 17.82 13.96 17.53L13.96 17.5L15 16.46ZM13.96 6.49L13.96 6.46C14.26 6.17 14.73 6.17 15.03 6.46C15.32 6.76 15.32 7.23 15.03 7.53L15 7.53L13.96 6.49Z" fill="#7F7667" fill-opacity="1.000000" fill-rule="evenodd"/>
	</g>
</svg>
