<svg width="24.000000" height="24.000000" viewBox="0 0 24 24" fill="none" xmlns="http://www.w3.org/2000/svg" xmlns:xlink="http://www.w3.org/1999/xlink">
	<desc>
			Created with Pixso.
	</desc>
	<defs>
		<clipPath id="clip6_3011">
			<rect width="24.000000" height="24.000000" fill="white" fill-opacity="0"/>
		</clipPath>
	</defs>
	<g clip-path="url(#clip6_3011)">
		<path d="M3.35 8.95C4 6.17 6.17 4 8.95 3.35C10.95 2.88 13.04 2.88 15.04 3.35C17.82 4 19.99 6.17 20.64 8.95C21.11 10.95 21.11 13.04 20.64 15.04C19.99 17.82 17.82 19.99 15.04 20.64C13.04 21.11 10.95 21.11 8.95 20.64C6.17 19.99 4 17.82 3.35 15.04C2.88 13.04 2.88 10.95 3.35 8.95Z" fill="#E9E1D8" fill-opacity="1.000000" fill-rule="nonzero"/>
		<path d="M3.35 8.95C4 6.17 6.17 4 8.95 3.35C10.95 2.88 13.04 2.88 15.04 3.35C17.82 4 19.99 6.17 20.64 8.95C21.11 10.95 21.11 13.04 20.64 15.04C19.99 17.82 17.82 19.99 15.04 20.64C13.04 21.11 10.95 21.11 8.95 20.64C6.17 19.99 4 17.82 3.35 15.04C2.88 13.04 2.88 10.95 3.35 8.95Z" stroke="#7F7667" stroke-opacity="1.000000" stroke-width="1.500000"/>
		<path d="M13.5 13.96L13.53 13.96C13.82 14.26 13.82 14.73 13.53 15.03C13.23 15.32 12.76 15.32 12.46 15.03L12.46 15L13.5 13.96ZM12.46 8.99L12.46 8.96C12.76 8.67 13.23 8.67 13.53 8.96C13.82 9.26 13.82 9.73 13.53 10.03L13.5 10.03L12.46 8.99Z" fill="#E9E1D8" fill-opacity="1.000000" fill-rule="nonzero"/>
		<path d="M13.53 10.03L11.03 12.53L10.5 12L11.03 11.46L13.53 13.96L12.46 15.03L9.96 12.53Q9.91 12.47 9.87 12.41Q9.83 12.35 9.8 12.28Q9.77 12.21 9.76 12.14Q9.75 12.07 9.75 12Q9.75 11.92 9.76 11.85Q9.77 11.78 9.8 11.71Q9.83 11.64 9.87 11.58Q9.91 11.52 9.96 11.46L12.46 8.96L13.53 10.03ZM13.5 13.96L13.53 13.96C13.82 14.26 13.82 14.73 13.53 15.03C13.23 15.32 12.76 15.32 12.46 15.03L12.46 15L13.5 13.96ZM12.46 8.99L12.46 8.96C12.76 8.67 13.23 8.67 13.53 8.96C13.82 9.26 13.82 9.73 13.53 10.03L13.5 10.03L12.46 8.99Z" fill="#7F7667" fill-opacity="1.000000" fill-rule="evenodd"/>
	</g>
</svg>
