<svg width="24.000000" height="24.000000" viewBox="0 0 24 24" fill="none" xmlns="http://www.w3.org/2000/svg" xmlns:xlink="http://www.w3.org/1999/xlink">
	<desc>
			Created with Pixso.
	</desc>
	<defs>
		<clipPath id="clip6_2955">
			<rect width="24.000000" height="24.000000" fill="white" fill-opacity="0"/>
		</clipPath>
	</defs>
	<g clip-path="url(#clip6_2955)">
		<path d="M3.29 5.23C3.52 4.27 4.27 3.52 5.23 3.29L5.23 3.29C6.06 3.1 6.93 3.1 7.76 3.29L7.76 3.29C8.72 3.52 9.47 4.27 9.7 5.23L9.7 5.23C9.89 6.06 9.89 6.93 9.7 7.76L9.7 7.76C9.47 8.72 8.72 9.47 7.76 9.7L7.76 9.7C6.93 9.89 6.06 9.89 5.23 9.7L5.23 9.7C4.27 9.47 3.52 8.72 3.29 7.76L3.29 7.76C3.1 6.93 3.1 6.06 3.29 5.23L3.29 5.23Z" fill="#E9E1D8" fill-opacity="1.000000" fill-rule="nonzero"/>
		<path d="M3.29 5.23C3.52 4.27 4.27 3.52 5.23 3.29C6.06 3.1 6.93 3.1 7.76 3.29C8.72 3.52 9.47 4.27 9.7 5.23C9.89 6.06 9.89 6.93 9.7 7.76C9.47 8.72 8.72 9.47 7.76 9.7C6.93 9.89 6.06 9.89 5.23 9.7C4.27 9.47 3.52 8.72 3.29 7.76C3.1 6.93 3.1 6.06 3.29 5.23Z" stroke="#7F7667" stroke-opacity="1.000000" stroke-width="1.500000"/>
		<path d="M3.29 16.23C3.52 15.27 4.27 14.52 5.23 14.29L5.23 14.29C6.06 14.1 6.93 14.1 7.76 14.29L7.76 14.29C8.72 14.52 9.47 15.27 9.7 16.23L9.7 16.23C9.89 17.06 9.89 17.93 9.7 18.76L9.7 18.76C9.47 19.72 8.72 20.47 7.76 20.7L7.76 20.7C6.93 20.89 6.06 20.89 5.23 20.7L5.23 20.7C4.27 20.47 3.52 19.72 3.29 18.76L3.29 18.76C3.1 17.93 3.1 17.06 3.29 16.23L3.29 16.23Z" fill="#E9E1D8" fill-opacity="1.000000" fill-rule="nonzero"/>
		<path d="M3.29 16.23C3.52 15.27 4.27 14.52 5.23 14.29C6.06 14.1 6.93 14.1 7.76 14.29C8.72 14.52 9.47 15.27 9.7 16.23C9.89 17.06 9.89 17.93 9.7 18.76C9.47 19.72 8.72 20.47 7.76 20.7C6.93 20.89 6.06 20.89 5.23 20.7C4.27 20.47 3.52 19.72 3.29 18.76C3.1 17.93 3.1 17.06 3.29 16.23Z" stroke="#7F7667" stroke-opacity="1.000000" stroke-width="1.500000"/>
		<path d="M14.29 5.23C14.52 4.27 15.27 3.52 16.23 3.29L16.23 3.29C17.06 3.1 17.93 3.1 18.76 3.29L18.76 3.29C19.72 3.52 20.47 4.27 20.7 5.23L20.7 5.23C20.89 6.06 20.89 6.93 20.7 7.76L20.7 7.76C20.47 8.72 19.72 9.47 18.76 9.7L18.76 9.7C17.93 9.89 17.06 9.89 16.23 9.7L16.23 9.7C15.27 9.47 14.52 8.72 14.29 7.76L14.29 7.76C14.1 6.93 14.1 6.06 14.29 5.23L14.29 5.23Z" fill="#E9E1D8" fill-opacity="1.000000" fill-rule="nonzero"/>
		<path d="M14.29 5.23C14.52 4.27 15.27 3.52 16.23 3.29C17.06 3.1 17.93 3.1 18.76 3.29C19.72 3.52 20.47 4.27 20.7 5.23C20.89 6.06 20.89 6.93 20.7 7.76C20.47 8.72 19.72 9.47 18.76 9.7C17.93 9.89 17.06 9.89 16.23 9.7C15.27 9.47 14.52 8.72 14.29 7.76C14.1 6.93 14.1 6.06 14.29 5.23Z" stroke="#7F7667" stroke-opacity="1.000000" stroke-width="1.500000"/>
		<path d="M14.29 16.23C14.52 15.27 15.27 14.52 16.23 14.29L16.23 14.29C17.06 14.1 17.93 14.1 18.76 14.29L18.76 14.29C19.72 14.52 20.47 15.27 20.7 16.23L20.7 16.23C20.89 17.06 20.89 17.93 20.7 18.76L20.7 18.76C20.47 19.72 19.72 20.47 18.76 20.7L18.76 20.7C17.93 20.89 17.06 20.89 16.23 20.7L16.23 20.7C15.27 20.47 14.52 19.72 14.29 18.76L14.29 18.76C14.1 17.93 14.1 17.06 14.29 16.23L14.29 16.23Z" fill="#E9E1D8" fill-opacity="1.000000" fill-rule="nonzero"/>
		<path d="M14.29 16.23C14.52 15.27 15.27 14.52 16.23 14.29C17.06 14.1 17.93 14.1 18.76 14.29C19.72 14.52 20.47 15.27 20.7 16.23C20.89 17.06 20.89 17.93 20.7 18.76C20.47 19.72 19.72 20.47 18.76 20.7C17.93 20.89 17.06 20.89 16.23 20.7C15.27 20.47 14.52 19.72 14.29 18.76C14.1 17.93 14.1 17.06 14.29 16.23Z" stroke="#7F7667" stroke-opacity="1.000000" stroke-width="1.500000"/>
	</g>
</svg>
