<svg width="24.000000" height="24.000000" viewBox="0 0 24 24" fill="none" xmlns="http://www.w3.org/2000/svg" xmlns:xlink="http://www.w3.org/1999/xlink">
	<desc>
			Created with Pixso.
	</desc>
	<defs>
		<clipPath id="clip6_3057">
			<rect width="24.000000" height="24.000000" fill="white" fill-opacity="0"/>
		</clipPath>
	</defs>
	<g clip-path="url(#clip6_3057)">
		<path d="M8.02 12.73L8 12.75C7.58 12.75 7.25 12.41 7.25 12C7.25 11.58 7.58 11.25 8 11.25L8.02 11.27L8.02 12.73ZM15.98 11.27L16 11.25C16.41 11.25 16.75 11.58 16.75 12C16.75 12.41 16.41 12.75 16 12.75L15.98 12.73L15.98 11.27ZM11.27 8.02L11.25 8C11.25 7.58 11.58 7.25 12 7.25C12.41 7.25 12.75 7.58 12.75 8L12.73 8.02L11.27 8.02ZM12.73 15.98L12.75 16C12.75 16.41 12.41 16.75 12 16.75C11.58 16.75 11.25 16.41 11.25 16L11.27 15.98L12.73 15.98Z" fill="#E9E1D8" fill-opacity="1.000000" fill-rule="nonzero"/>
		<path d="M8 12L16 12M12 8L12 " stroke="#7F7667" stroke-opacity="1.000000" stroke-width="1.500000"/>
	</g>
</svg>
