<svg width="24.000000" height="24.000000" viewBox="0 0 24 24" fill="none" xmlns="http://www.w3.org/2000/svg" xmlns:xlink="http://www.w3.org/1999/xlink">
	<desc>
			Created with Pixso.
	</desc>
	<defs>
		<clipPath id="clip6_3061">
			<rect width="24.000000" height="24.000000" fill="white" fill-opacity="0"/>
		</clipPath>
	</defs>
	<g clip-path="url(#clip6_3061)">
		<path d="M16.46 8.99L16.46 8.96C16.76 8.67 17.23 8.67 17.53 8.96C17.82 9.26 17.82 9.73 17.53 10.03L17.5 10.03L16.46 8.99ZM6.49 10.03L6.46 10.03C6.17 9.73 6.17 9.26 6.46 8.96C6.76 8.67 7.23 8.67 7.53 8.96L7.53 8.99L6.49 10.03Z" fill="#E9E1D8" fill-opacity="1.000000" fill-rule="nonzero"/>
		<path d="M7.53 8.96L12.53 13.96L12 14.5L11.46 13.96L16.46 8.96L17.53 10.03L12.53 15.03Q12.47 15.08 12.41 15.12Q12.35 15.16 12.28 15.19Q12.21 15.22 12.14 15.23Q12.07 15.24 12 15.24Q11.92 15.24 11.85 15.23Q11.78 15.22 11.71 15.19Q11.64 15.16 11.58 15.12Q11.52 15.08 11.46 15.03L6.46 10.03L7.53 8.96ZM16.46 8.99L16.46 8.96C16.76 8.67 17.23 8.67 17.53 8.96C17.82 9.26 17.82 9.73 17.53 10.03L17.5 10.03L16.46 8.99ZM6.49 10.03L6.46 10.03C6.17 9.73 6.17 9.26 6.46 8.96C6.76 8.67 7.23 8.67 7.53 8.96L7.53 8.99L6.49 10.03Z" fill="#7F7667" fill-opacity="1.000000" fill-rule="evenodd"/>
	</g>
</svg>
