<svg width="24.000000" height="24.000000" viewBox="0 0 24 24" fill="none" xmlns="http://www.w3.org/2000/svg" xmlns:xlink="http://www.w3.org/1999/xlink">
	<desc>
			Created with Pixso.
	</desc>
	<defs>
		<clipPath id="clip6_2892">
			<rect width="24.000000" height="24.000000" fill="white" fill-opacity="0"/>
		</clipPath>
	</defs>
	<g clip-path="url(#clip6_2892)">
		<path d="M13.38 7.28L16.97 3.69C17.41 3.24 18.01 3 18.64 3C19.94 3 21 4.05 21 5.35C21 5.98 20.75 6.58 20.3 7.02L16.71 10.61C15.15 12.17 13.2 13.28 11.06 13.81L10.36 13.99C10.15 14.04 9.95 13.84 10 13.63L10.18 12.93C10.71 10.79 11.82 8.84 13.38 7.28Z" fill="#E9E1D8" fill-opacity="1.000000" fill-rule="nonzero"/>
		<path d="M13.38 7.28C11.82 8.84 10.71 10.79 10.18 12.93L10 13.63C9.95 13.84 10.15 14.04 10.36 13.99L11.06 13.81C13.2 13.28 15.15 12.17 16.71 10.61L20.3 7.02C20.75 6.58 21 5.98 21 5.35C21 4.05 19.94 3 18.64 3C18.01 3 17.41 3.24 16.97 3.69L13.38 7.28ZM20.44 6.88C18.77 7.44 16.55 5.22 17.11 " stroke="#7F7667" stroke-opacity="1.000000" stroke-width="1.500000"/>
		<path d="M11.98 2.27L12 2.25C12.41 2.25 12.75 2.57 12.75 3C12.75 3.42 12.41 3.75 12 3.75L11.98 3.72L11.98 2.27ZM20.27 12.02L20.25 12C20.25 11.58 20.58 11.25 21 11.25C21.41 11.25 21.75 11.58 21.75 12L21.73 12.02L20.27 12.02Z" fill="#E9E1D8" fill-opacity="1.000000" fill-rule="nonzero"/>
		<path d="M21 12C21 13.02 20.88 14.04 20.64 15.04C19.99 17.82 17.82 19.99 15.04 20.64C13.04 21.11 10.95 21.11 8.95 20.64C6.17 19.99 4 17.82 3.35 15.04C2.88 13.04 2.88 10.95 3.35 8.95C4 6.17 6.17 4 8.95 3.35C9.95 3.11 10.97 3 12 " stroke="#7F7667" stroke-opacity="1.000000" stroke-width="1.500000" stroke-linecap="round"/>
	</g>
</svg>
