<svg width="24.000000" height="24.000000" viewBox="0 0 24 24" fill="none" xmlns="http://www.w3.org/2000/svg" xmlns:xlink="http://www.w3.org/1999/xlink">
	<desc>
			Created with Pixso.
	</desc>
	<defs>
		<clipPath id="clip6_2770">
			<rect width="24.000000" height="24.000000" fill="white" fill-opacity="0"/>
		</clipPath>
	</defs>
	<g clip-path="url(#clip6_2770)">
		<path d="M19.29 9.5L19.29 14.63C19.29 17.53 17.31 20.04 14.51 20.7C14.33 20.74 14.15 20.78 13.97 20.82L14.54 21.09L14.55 21.11C14.37 21.49 13.93 21.65 13.55 21.47C13.32 21.36 13.17 21.16 13.13 20.94C12.38 21.01 11.61 21.01 10.86 20.94C10.82 21.16 10.67 21.36 10.44 21.47C10.06 21.65 9.62 21.49 9.44 21.11L9.45 21.09L10.02 20.82C9.84 20.78 9.66 20.74 9.48 20.7C6.68 20.04 4.7 17.53 4.7 14.63L4.7 9.5L9.17 5.01C10.5 3.67 11.17 3 12 3C12.82 3 13.49 3.67 14.82 5.01L19.29 9.5ZM21.5 10.7L21.53 10.7C21.82 10.99 21.82 11.46 21.52 11.76C21.23 12.05 20.76 12.05 20.46 11.75L20.46 11.72L21.5 10.7ZM3.53 11.75L3.53 11.72L2.49 10.7L2.46 10.7C2.17 10.99 2.17 11.46 2.47 11.76C2.76 12.05 3.23 12.05 3.53 11.75Z" fill="#E9E1D8" fill-opacity="1.000000" fill-rule="evenodd"/>
		<path d="M19.29 9.5L19.29 9.71L19.29 14.63C19.29 17.53 17.31 20.04 14.51 20.7C12.86 21.09 11.13 21.09 9.48 20.7C6.68 20.04 4.7 17.53 4.7 14.63L4.7 9.71L4.7 9.5M21 11.22L19.29 9.5L14.82 5.01C13.49 3.67 12.82 3 12 3C11.17 3 10.5 3.67 9.17 5.01L4.7 9.5L3 11.22M10.12 20.79L10 20.55C9.67 19.85 9.57 19.07 9.71 18.32L9.73 18.21C9.89 17.36 10.52 16.67 11.36 16.44C11.77 16.32 12.22 16.32 12.63 16.44C13.47 16.67 14.1 17.36 14.26 18.21L14.28 18.32C14.42 19.07 14.32 19.85 13.99 20.55L13.87 " stroke="#7F7667" stroke-opacity="1.000000" stroke-width="1.500000"/>
	</g>
</svg>
