<svg width="24.000000" height="24.000000" viewBox="0 0 24 24" fill="none" xmlns="http://www.w3.org/2000/svg" xmlns:xlink="http://www.w3.org/1999/xlink">
	<desc>
			Created with Pixso.
	</desc>
	<defs>
		<clipPath id="clip6_2705">
			<rect width="24.000000" height="24.000000" fill="white" fill-opacity="0"/>
		</clipPath>
	</defs>
	<g clip-path="url(#clip6_2705)">
		<path d="M2.88 8.84C3.55 6.13 5.7 4.04 8.43 3.44L8.88 3.34C10.93 2.88 13.06 2.88 15.11 3.34L15.56 3.44C18.29 4.04 20.44 6.13 21.11 8.84C21.62 10.91 21.62 13.08 21.11 15.15C20.44 17.86 18.29 19.95 15.56 20.55L15.11 20.65C13.06 21.11 10.93 21.11 8.88 20.65L8.43 20.55C5.7 19.95 3.55 17.86 2.88 15.15C2.37 13.08 2.37 10.91 2.88 8.84Z" fill="#E9E1D8" fill-opacity="1.000000" fill-rule="nonzero"/>
		<path d="M8.88 3.34C10.93 2.88 13.06 2.88 15.11 3.34L15.56 3.44C18.29 4.04 20.44 6.13 21.11 8.84C21.62 10.91 21.62 13.08 21.11 15.15C20.44 17.86 18.29 19.95 15.56 20.55L15.11 20.65C13.06 21.11 10.93 21.11 8.88 20.65L8.43 20.55C5.7 19.95 3.55 17.86 2.88 15.15C2.37 13.08 2.37 10.91 2.88 8.84C3.55 6.13 5.7 4.04 8.43 3.44L8.88 3.34Z" stroke="#7F7667" stroke-opacity="1.000000" stroke-width="1.500000"/>
		<path d="M12 7C12.38 7 12.69 7.29 12.69 7.65L12.69 8.18L12.76 8.18C14.05 8.18 15 9.24 15 10.41C15 10.77 14.68 11.07 14.3 11.07C13.92 11.07 13.61 10.77 13.61 10.41C13.61 9.85 13.18 9.49 12.76 9.49L12.69 9.49L12.69 11.54L13.62 11.86C14.47 12.15 15 12.94 15 13.78C15 14.85 14.14 15.81 12.96 15.81L12.69 15.81L12.69 16.34C12.69 16.7 12.38 17 12 17C11.61 17 11.3 16.7 11.3 16.34L11.3 15.81L11.23 15.81C9.94 15.81 9 14.75 9 13.58C9 13.22 9.31 12.92 9.69 12.92C10.07 12.92 10.38 13.22 10.38 13.58C10.38 14.14 10.81 14.5 11.23 14.5L11.3 14.5L11.3 12.45L10.37 12.13C9.52 11.84 9 11.05 9 10.21C9 9.14 9.85 8.18 11.03 8.18L11.3 8.18L11.3 7.65C11.3 7.29 11.61 7 12 7ZM11.3 9.49L11.03 9.49C10.73 9.49 10.38 9.76 10.38 10.21C10.38 10.56 10.6 10.82 10.84 10.91L11.3 11.06L11.3 9.49ZM12.69 12.93L12.69 14.5L12.96 14.5C13.26 14.5 13.61 14.23 13.61 13.78C13.61 13.43 13.39 13.17 13.15 13.08L12.69 12.93Z" fill="#7F7667" fill-opacity="1.000000" fill-rule="evenodd"/>
	</g>
</svg>
