<svg width="24.000000" height="24.000000" viewBox="0 0 24 24" fill="none" xmlns="http://www.w3.org/2000/svg" xmlns:xlink="http://www.w3.org/1999/xlink">
	<desc>
			Created with Pixso.
	</desc>
	<defs>
		<clipPath id="clip6_3071">
			<rect width="24.000000" height="24.000000" fill="white" fill-opacity="0"/>
		</clipPath>
	</defs>
	<g clip-path="url(#clip6_3071)">
		<path d="M12.73 17.48L12.75 17.5C12.75 17.91 12.41 18.25 12 18.25C11.58 18.25 11.25 17.91 11.25 17.5L11.27 17.48L12.73 17.48ZM8.56 11.55L8.56 11.58C8.28 11.89 7.82 11.92 7.5 11.65C7.19 11.37 7.15 10.91 7.43 10.59L7.46 10.59L8.56 11.55ZM16.53 10.59L16.56 10.59C16.84 10.91 16.8 11.37 16.49 11.65C16.17 11.92 15.71 11.89 15.43 11.58L15.43 11.55L16.53 10.59Z" fill="#E9E1D8" fill-opacity="1.000000" fill-rule="nonzero"/>
		<path d="M12 17.5L12 6.5M16 11.08L12 6.5L8 " stroke="#7F7667" stroke-opacity="1.000000" stroke-width="1.500000" stroke-linejoin="round"/>
	</g>
</svg>
