<svg width="24.000000" height="24.000000" viewBox="0 0 24 24" fill="none" xmlns="http://www.w3.org/2000/svg" xmlns:xlink="http://www.w3.org/1999/xlink">
	<desc>
			Created with Pixso.
	</desc>
	<defs>
		<clipPath id="clip6_2750">
			<rect width="24.000000" height="24.000000" fill="white" fill-opacity="0"/>
		</clipPath>
	</defs>
	<g clip-path="url(#clip6_2750)">
		<path d="M2.88 8.84C3.55 6.13 5.7 4.04 8.43 3.44L8.88 3.34C10.93 2.88 13.06 2.88 15.11 3.34L15.56 3.44C18.29 4.04 20.44 6.13 21.11 8.84C21.62 10.91 21.62 13.08 21.11 15.15C20.44 17.86 18.29 19.95 15.56 20.55L15.11 20.65C13.06 21.11 10.93 21.11 8.88 20.65L8.43 20.55C5.7 19.95 3.55 17.86 2.88 15.15C2.37 13.08 2.37 10.91 2.88 8.84ZM7.74 10.95L7.71 10.96C7.37 10.71 7.29 10.25 7.54 9.91C7.78 9.57 8.24 9.49 8.58 9.73L8.59 9.76L7.74 10.95ZM15.4 9.76L15.41 9.73C15.75 9.49 16.21 9.57 16.45 9.91C16.7 10.25 16.62 10.71 16.28 10.96L16.25 10.95L15.4 9.76Z" fill="#E9E1D8" fill-opacity="1.000000" fill-rule="nonzero"/>
		<path d="M8.88 3.34C10.93 2.88 13.06 2.88 15.11 3.34L15.56 3.44C18.29 4.04 20.44 6.13 21.11 8.84C21.62 10.91 21.62 13.08 21.11 15.15C20.44 17.86 18.29 19.95 15.56 20.55L15.11 20.65C13.06 21.11 10.93 21.11 8.88 20.65L8.43 20.55C5.7 19.95 3.55 17.86 2.88 15.15C2.37 13.08 2.37 10.91 2.88 8.84C3.55 6.13 5.7 4.04 8.43 3.44L8.88 3.34ZM8.15 10.35L10.72 12.18C11.48 12.73 12.51 12.73 13.27 12.18L15.84 " stroke="#7F7667" stroke-opacity="1.000000" stroke-width="1.500000" stroke-linecap="round"/>
	</g>
</svg>
