<svg width="24.000000" height="24.000000" viewBox="0 0 24 24" fill="none" xmlns="http://www.w3.org/2000/svg" xmlns:xlink="http://www.w3.org/1999/xlink">
	<desc>
			Created with Pixso.
	</desc>
	<defs>
		<clipPath id="clip6_2855">
			<rect width="24.000000" height="24.000000" fill="white" fill-opacity="0"/>
		</clipPath>
	</defs>
	<g clip-path="url(#clip6_2855)">
		<path d="M3.83 9.35C4.44 6.66 6.49 4.57 9.11 3.94C11.01 3.48 12.98 3.48 14.88 3.94C17.5 4.57 19.55 6.66 20.16 9.35C20.61 11.29 20.61 13.3 20.16 15.24C19.55 17.93 17.5 20.02 14.88 20.65C12.98 21.11 11.01 21.11 9.11 20.65C6.49 20.02 4.44 17.93 3.83 15.24C3.38 13.3 3.38 11.29 3.83 9.35ZM7.33 3.02L7.32 3C7.32 2.57 7.64 2.25 8.07 2.25C8.49 2.25 8.82 2.57 8.82 3L8.8 3.02L7.33 3.02ZM8.8 5.49L8.82 5.51C8.82 5.93 8.49 6.26 8.07 6.26C7.64 6.26 7.32 5.93 7.32 5.51L7.33 5.49L8.8 5.49ZM15.19 3.02L15.17 3C15.17 2.57 15.5 2.25 15.92 2.25C16.35 2.25 16.67 2.57 16.67 3L16.66 3.02L15.19 3.02ZM16.66 5.49L16.67 5.51C16.67 5.93 16.35 6.26 15.92 6.26C15.5 6.26 15.17 5.93 15.17 5.51L15.19 5.49L16.66 5.49Z" fill="#E9E1D8" fill-opacity="1.000000" fill-rule="nonzero"/>
		<path d="M8.82 3C8.82 2.57 8.49 2.25 8.07 2.25C7.64 2.25 7.32 2.57 7.32 3L7.32 3.8Q7.1 3.9 6.9 4.02Q6.5 4.25 6.14 4.51Q5.63 4.89 5.18 5.35Q4.85 5.69 4.55 6.07Q4.18 6.56 3.89 7.1Q3.66 7.51 3.48 7.95Q3.24 8.55 3.1 9.18Q2.93 9.92 2.84 10.66Q2.75 11.47 2.75 12.3Q2.75 13.12 2.84 13.93Q2.93 14.68 3.1 15.41Q3.24 16.05 3.48 16.64Q3.66 17.08 3.89 17.49Q4.18 18.03 4.55 18.52Q4.84 18.9 5.18 19.24Q5.63 19.7 6.14 20.08Q6.5 20.35 6.9 20.57Q7.4 20.86 7.94 21.07Q8.43 21.26 8.94 21.38Q9.72 21.57 10.52 21.66Q11.25 21.75 12 21.75Q12.74 21.75 13.47 21.66Q14.27 21.57 15.05 21.38Q15.56 21.26 16.05 21.07Q16.59 20.86 17.09 20.57Q17.49 20.35 17.85 20.08Q18.36 19.7 18.81 19.24Q19.15 18.9 19.44 18.52Q19.81 18.03 20.1 17.49Q20.33 17.08 20.51 16.64Q20.75 16.05 20.89 15.41Q21.06 14.68 21.15 13.93Q21.25 13.12 21.25 12.3Q21.25 11.47 21.15 10.66Q21.06 9.92 20.89 9.18Q20.75 8.55 20.51 7.95Q20.33 7.51 20.1 7.1Q19.81 6.56 19.44 6.07Q19.14 5.69 18.81 5.35Q18.36 4.89 17.85 4.51Q17.49 4.25 17.09 4.02Q16.89 3.9 16.67 3.8L16.67 3C16.67 2.57 16.35 2.25 15.92 2.25C15.5 2.25 15.17 2.57 15.17 3L15.17 3.24Q15.11 3.22 15.05 3.21Q14.27 3.02 13.47 2.93Q12.74 2.85 12 2.85Q11.25 2.85 10.52 2.93Q9.72 3.02 8.94 3.21Q8.88 3.22 8.82 3.24L8.82 3ZM7.32 5.52Q7.19 5.61 7.06 5.7Q6.63 6.01 6.26 6.4Q5.99 6.67 5.76 6.97Q5.55 7.23 5.37 7.52L18.62 7.52Q18.44 7.23 18.23 6.97Q18 6.67 17.73 6.4Q17.36 6.01 16.93 5.7Q16.8 5.61 16.67 5.52C16.67 5.94 16.34 6.26 15.92 6.26C15.5 6.26 15.17 5.93 15.17 5.51L15.17 4.8Q14.94 4.72 14.7 4.67Q14 4.5 13.29 4.42Q12.65 4.35 12 4.35Q11.34 4.35 10.7 4.42Q9.99 4.5 9.29 4.67Q9.05 4.72 8.82 4.8L8.82 5.51C8.82 5.93 8.49 6.26 8.07 6.26C7.65 6.26 7.32 5.94 7.32 5.52ZM19.3 9.02L4.69 9.02Q4.62 9.27 4.56 9.52Q4.41 10.17 4.33 10.83Q4.25 11.56 4.25 12.3Q4.25 13.04 4.33 13.76Q4.41 14.42 4.56 15.08Q4.68 15.61 4.89 16.11Q5.03 16.45 5.2 16.77Q5.45 17.22 5.76 17.62Q5.99 17.92 6.26 18.2Q6.63 18.58 7.06 18.89Q7.34 19.1 7.64 19.27Q8.06 19.51 8.49 19.68Q8.88 19.83 9.29 19.92Q9.99 20.09 10.7 20.17Q11.34 20.25 12 20.25Q12.65 20.25 13.29 20.17Q14 20.09 14.7 19.92Q15.11 19.83 15.5 19.68Q15.94 19.51 16.35 19.27Q16.65 19.1 16.93 18.89Q17.36 18.58 17.73 18.2Q18 17.92 18.23 17.62Q18.54 17.22 18.79 16.77Q18.96 16.45 19.1 16.11Q19.31 15.61 19.43 15.08Q19.58 14.42 19.66 13.76Q19.75 13.03 19.75 12.3Q19.75 11.56 19.66 10.83Q19.58 10.17 19.43 9.52Q19.37 9.27 19.3 9.02Z" fill="#7F7667" fill-opacity="1.000000" fill-rule="evenodd"/>
		<path d="M13.44 13.92C13.84 13.63 14.09 13.2 14.09 12.61C14.09 11.4 13.16 10.77 12.05 10.77C10.94 10.77 10 11.4 10 12.61C10 13.2 10.26 13.63 10.66 13.92C10.11 14.25 9.79 14.8 9.79 15.44C9.79 16.6 10.65 17.32 12.05 17.32C13.45 17.32 14.31 16.6 14.31 15.44C14.31 14.8 14 14.25 13.44 13.92ZM12.05 11.94C12.52 11.94 12.86 12.21 12.86 12.68C12.86 13.14 12.52 13.42 12.05 13.42C11.58 13.42 11.24 13.14 11.24 12.68C11.24 12.21 11.58 11.94 12.05 11.94ZM12.05 16.15C11.46 16.15 11.02 15.84 11.02 15.28C11.02 14.72 11.46 14.41 12.05 14.41C12.64 14.41 13.08 14.72 13.08 15.28C13.08 15.84 12.64 16.15 12.05 16.15Z" fill="#7F7667" fill-opacity="1.000000" fill-rule="evenodd"/>
	</g>
</svg>
