<svg width="24.000000" height="24.000000" viewBox="0 0 24 24" fill="none" xmlns="http://www.w3.org/2000/svg" xmlns:xlink="http://www.w3.org/1999/xlink">
	<desc>
			Created with Pixso.
	</desc>
	<defs>
		<clipPath id="clip6_3043">
			<rect width="24.000000" height="24.000000" fill="white" fill-opacity="0"/>
		</clipPath>
	</defs>
	<g clip-path="url(#clip6_3043)">
		<path d="M17.85 5.88L17.82 5.88C17.53 5.58 17.53 5.12 17.83 4.82C18.13 4.53 18.6 4.53 18.89 4.83L18.89 4.86L17.85 5.88ZM5.1 4.86L5.1 4.83C5.39 4.53 5.86 4.53 6.16 4.82C6.46 5.12 6.46 5.58 6.17 5.88L6.14 5.88L5.1 4.86ZM11.27 3.02L11.25 3C11.25 2.58 11.58 2.25 12 2.25C12.41 2.25 12.75 2.58 12.75 3L12.73 3.02L11.27 3.02ZM12.73 7.7L12.75 7.72C12.75 8.14 12.41 8.47 12 8.47C11.58 8.47 11.25 8.14 11.25 7.72L11.27 7.7L12.73 7.7Z" fill="#E9E1D8" fill-opacity="1.000000" fill-rule="nonzero"/>
		<path d="M18.36 5.36C19.62 6.64 20.48 8.27 20.82 10.05C21.17 11.83 20.99 13.67 20.31 15.34C19.63 17.01 18.48 18.45 17 19.45C15.52 20.46 13.78 21 12 21C10.22 21 8.47 20.46 7 19.45C5.52 18.45 4.36 17.01 3.68 15.34C3 13.67 2.82 11.83 3.17 10.05C3.52 8.27 4.37 6.64 5.63 5.36M12 3L12 " stroke="#7F7667" stroke-opacity="1.000000" stroke-width="1.500000"/>
	</g>
</svg>
