<svg width="24.000000" height="24.000000" viewBox="0 0 24 24" fill="none" xmlns="http://www.w3.org/2000/svg" xmlns:xlink="http://www.w3.org/1999/xlink">
	<desc>
			Created with Pixso.
	</desc>
	<defs>
		<clipPath id="clip6_2781">
			<rect width="24.000000" height="24.000000" fill="white" fill-opacity="0"/>
		</clipPath>
	</defs>
	<g clip-path="url(#clip6_2781)">
		<path d="M11.44 15.61C9.61 15.35 8.16 13.84 7.87 11.91C7.62 10.2 7.62 8.46 7.87 6.75C8.16 4.82 9.61 3.31 11.44 3.04L11.55 3.03C11.85 2.98 12.15 2.98 12.45 3.03L12.55 3.04C14.38 3.31 15.84 4.83 16.12 6.77C16.37 8.47 16.37 10.19 16.12 11.89C15.84 13.83 14.38 15.35 12.54 15.61L12.44 15.63C12.15 15.67 11.85 15.67 11.55 15.63L11.44 15.61ZM18.27 11.47L18.25 11.45C18.25 11.03 18.58 10.7 19 10.7C19.41 10.7 19.75 11.03 19.75 11.45L19.73 11.47L18.27 11.47ZM4.27 11.47L4.25 11.45C4.25 11.03 4.58 10.7 5 10.7C5.41 10.7 5.75 11.03 5.75 11.45L5.72 11.47L4.27 11.47ZM12.73 20.98L12.75 21C12.75 21.42 12.41 21.75 12 21.75C11.58 21.75 11.25 21.42 11.25 21L11.27 20.98L12.73 20.98Z" fill="#E9E1D8" fill-opacity="1.000000" fill-rule="nonzero"/>
		<path d="M11.55 3.03C11.85 2.98 12.15 2.98 12.45 3.03L12.55 3.04C14.38 3.31 15.84 4.83 16.12 6.77C16.37 8.47 16.37 10.19 16.12 11.89C15.84 13.83 14.38 15.35 12.54 15.61L12.44 15.63C12.15 15.67 11.85 15.67 11.55 15.63L11.44 15.61C9.61 15.35 8.16 13.84 7.87 11.91C7.62 10.2 7.62 8.46 7.87 6.75C8.16 4.82 9.61 3.31 11.44 3.04L11.55 3.03ZM19 11.45C19 15.55 15.86 18.87 12 18.87C8.13 18.87 5 15.55 5 11.45M12 18.87L12 " stroke="#7F7667" stroke-opacity="1.000000" stroke-width="1.500000"/>
	</g>
</svg>
