<svg width="24.000000" height="24.000000" viewBox="0 0 24 24" fill="none" xmlns="http://www.w3.org/2000/svg" xmlns:xlink="http://www.w3.org/1999/xlink">
	<desc>
			Created with Pixso.
	</desc>
	<defs>
		<clipPath id="clip6_3093">
			<rect width="24.000000" height="24.000000" fill="white" fill-opacity="0"/>
		</clipPath>
	</defs>
	<g clip-path="url(#clip6_3093)">
		<path d="M5 10C3.89 10 3 10.89 3 12C3 13.1 3.89 14 5 14C6.1 14 7 13.1 7 12C7 10.89 6.1 10 5 10Z" fill="#E9E1D8" fill-opacity="1.000000" fill-rule="nonzero"/>
		<path d="M3 12C3 13.1 3.89 14 5 14C6.1 14 7 13.1 7 12C7 10.89 6.1 10 5 10C3.89 10 3 10.89 3 12Z" stroke="#7F7667" stroke-opacity="1.000000" stroke-width="1.500000"/>
		<path d="M19 10C17.89 10 17 10.89 17 12C17 13.1 17.89 14 19 14C20.1 14 21 13.1 21 12C21 10.89 20.1 10 19 10Z" fill="#E9E1D8" fill-opacity="1.000000" fill-rule="nonzero"/>
		<path d="M17 12C17 13.1 17.89 14 19 14C20.1 14 21 13.1 21 12C21 10.89 20.1 10 19 10C17.89 10 17 10.89 17 12Z" stroke="#7F7667" stroke-opacity="1.000000" stroke-width="1.500000"/>
		<path d="M12 10C10.89 10 10 10.89 10 12C10 13.1 10.89 14 12 14C13.1 14 14 13.1 14 12C14 10.89 13.1 10 12 10Z" fill="#E9E1D8" fill-opacity="1.000000" fill-rule="nonzero"/>
		<path d="M10 12C10 13.1 10.89 14 12 14C13.1 14 14 13.1 14 12C14 10.89 13.1 10 12 10C10.89 10 10 10.89 10 12Z" stroke="#7F7667" stroke-opacity="1.000000" stroke-width="1.500000"/>
	</g>
</svg>
