<svg width="24.000000" height="24.000000" viewBox="0 0 24 24" fill="none" xmlns="http://www.w3.org/2000/svg" xmlns:xlink="http://www.w3.org/1999/xlink">
	<desc>
			Created with Pixso.
	</desc>
	<defs>
		<clipPath id="clip6_3003">
			<rect width="24.000000" height="24.000000" fill="white" fill-opacity="0"/>
		</clipPath>
	</defs>
	<g clip-path="url(#clip6_3003)">
		<path d="M7.3 4.33C4.82 4.91 2.88 6.92 2.28 9.49C1.9 11.14 1.9 12.85 2.28 14.5C2.88 17.07 4.82 19.08 7.3 19.66L7.54 19.72C9.09 20.09 10.71 20.09 12.27 19.72L12.51 19.66C14.63 19.16 16.37 17.61 17.2 15.55C17.31 15.55 17.42 15.55 17.54 15.55L18.64 15.55C20.24 15.55 21.61 14.37 21.93 12.73C22.02 12.24 22.02 11.75 21.93 11.26C21.61 9.62 20.24 8.44 18.64 8.44L17.54 8.44C17.42 8.44 17.31 8.44 17.2 8.44C16.37 6.38 14.63 4.83 12.51 4.33L12.27 4.27C10.71 3.9 9.09 3.9 7.54 4.27L7.3 4.33Z" fill="#E9E1D8" fill-opacity="1.000000" fill-rule="evenodd"/>
		<path d="M7.54 4.27C9.09 3.9 10.71 3.9 12.27 4.27L12.51 4.33C14.98 4.91 16.93 6.92 17.52 9.5C17.91 11.14 17.91 12.85 17.52 14.5C16.93 17.07 14.98 19.08 12.51 19.66L12.27 19.72C10.71 20.09 9.09 20.09 7.54 19.72L7.3 19.66C4.82 19.08 2.88 17.07 2.28 14.5C1.9 12.85 1.9 11.14 2.28 9.49C2.88 6.92 4.82 4.91 7.3 4.33L7.54 4.27ZM17.52 14.5C17.44 14.86 17.33 15.21 17.2 15.55C17.31 15.55 17.42 15.55 17.54 15.55L18.64 15.55C20.24 15.55 21.61 14.37 21.93 12.73C22.02 12.24 22.02 11.75 21.93 11.26C21.61 9.62 20.24 8.44 18.64 8.44L17.54 8.44C17.42 8.44 17.31 8.44 17.2 8.44C17.33 8.78 17.44 9.13 17.52 9.5M11.32 10.22L11.32 13.77M7.92 10.57L7.92 " stroke="#7F7667" stroke-opacity="1.000000" stroke-width="1.500000" stroke-linejoin="round"/>
	</g>
</svg>
