<svg width="24.000000" height="24.000000" viewBox="0 0 24 24" fill="none" xmlns="http://www.w3.org/2000/svg" xmlns:xlink="http://www.w3.org/1999/xlink">
	<desc>
			Created with Pixso.
	</desc>
	<defs>
		<clipPath id="clip6_2715">
			<rect width="24.000000" height="24.000000" fill="white" fill-opacity="0"/>
		</clipPath>
	</defs>
	<g clip-path="url(#clip6_2715)">
		<path d="M18.8 9.76C18.46 6.52 15.54 4 12 4C8.22 4 5.15 6.86 5.15 10.4C5.15 10.49 5.16 10.58 5.16 10.67C3.32 11.32 2 13.1 2 15.2C2 17.85 3.82 20 6.44 20L17.13 20C20.04 20 22 17.61 22 14.66C22 12.46 20.68 10.57 18.8 9.76Z" fill="#E9E1D8" fill-opacity="1.000000" fill-rule="evenodd"/>
		<path d="M17.15 20.73L17.13 20.75C16.71 20.75 16.38 20.42 16.38 20C16.38 19.58 16.71 19.25 17.13 19.25L17.15 19.27L17.15 20.73ZM6.42 19.27L6.44 19.25C6.86 19.25 7.19 19.58 7.19 20C7.19 20.42 6.86 20.75 6.44 20.75L6.42 20.73L6.42 19.27Z" fill="#E9E1D8" fill-opacity="1.000000" fill-rule="nonzero"/>
		<path d="M17.13 20C20.04 20 22 17.61 22 14.66C22 12.46 20.68 10.57 18.8 9.76C18.46 6.52 15.54 4 12 4C8.22 4 5.15 6.86 5.15 10.4C5.15 10.49 5.16 10.58 5.16 10.67C3.32 11.32 2 13.1 2 15.2C2 17.85 3.82 20 6.44 " stroke="#7F7667" stroke-opacity="1.000000" stroke-width="1.500000" stroke-linecap="round"/>
		<path d="M10.05 15.65L10.05 15.62C10.26 15.26 10.71 15.14 11.07 15.35C11.43 15.56 11.55 16.01 11.34 16.37L11.32 16.38L10.05 15.65ZM10.34 18.07L10.34 18.1C10.13 18.47 9.68 18.59 9.32 18.38C8.96 18.17 8.84 17.72 9.05 17.35L9.07 17.34L10.34 18.07ZM13.52 17.65L13.51 17.62C13.72 17.26 14.17 17.14 14.53 17.35C14.9 17.56 15.02 18.01 14.81 18.37L14.78 18.38L13.52 17.65ZM13.8 20.07L13.81 20.1C13.6 20.47 13.15 20.59 12.78 20.38C12.42 20.17 12.3 19.72 12.51 19.35L12.54 19.34L13.8 20.07ZM10.29 19.25L10.28 19.22C10.49 18.85 10.94 18.73 11.3 18.94C11.67 19.15 11.79 19.6 11.58 19.97L11.55 19.98L10.29 19.25ZM10.57 21.67L10.58 21.7C10.37 22.06 9.92 22.18 9.55 21.97C9.19 21.76 9.07 21.31 9.28 20.95L9.31 20.94L10.57 21.67Z" fill="#E9E1D8" fill-opacity="1.000000" fill-rule="nonzero"/>
		<path d="M10.7 16L9.7 17.73M14.16 18L13.16 19.73M10.93 19.59L9.93 " stroke="#7F7667" stroke-opacity="1.000000" stroke-width="1.500000"/>
	</g>
</svg>
