<svg width="24.000000" height="24.000000" viewBox="0 0 24 24" fill="none" xmlns="http://www.w3.org/2000/svg" xmlns:xlink="http://www.w3.org/1999/xlink">
	<desc>
			Created with Pixso.
	</desc>
	<defs>
		<clipPath id="clip6_2845">
			<rect width="24.000000" height="24.000000" fill="white" fill-opacity="0"/>
		</clipPath>
	</defs>
	<g clip-path="url(#clip6_2845)">
		<path d="M3.83 9.35C4.44 6.66 6.49 4.57 9.11 3.94C11.01 3.48 12.98 3.48 14.88 3.94C17.5 4.57 19.55 6.66 20.16 9.35C20.61 11.29 20.61 13.3 20.16 15.24C19.55 17.93 17.5 20.02 14.88 20.65C12.98 21.11 11.01 21.11 9.11 20.65C6.49 20.02 4.44 17.93 3.83 15.24C3.38 13.3 3.38 11.29 3.83 9.35ZM7.33 3.02L7.32 3C7.32 2.57 7.64 2.25 8.07 2.25C8.49 2.25 8.82 2.57 8.82 3L8.8 3.02L7.33 3.02ZM8.8 5.49L8.82 5.51C8.82 5.93 8.49 6.26 8.07 6.26C7.64 6.26 7.32 5.93 7.32 5.51L7.33 5.49L8.8 5.49ZM15.19 3.02L15.17 3C15.17 2.57 15.5 2.25 15.92 2.25C16.35 2.25 16.67 2.57 16.67 3L16.66 3.02L15.19 3.02ZM16.66 5.49L16.67 5.51C16.67 5.93 16.35 6.26 15.92 6.26C15.5 6.26 15.17 5.93 15.17 5.51L15.19 5.49L16.66 5.49Z" fill="#E9E1D8" fill-opacity="1.000000" fill-rule="nonzero"/>
		<path d="M3.83 9.35C4.44 6.66 6.49 4.57 9.11 3.94C11.01 3.48 12.98 3.48 14.88 3.94C17.5 4.57 19.55 6.66 20.16 9.35C20.61 11.29 20.61 13.3 20.16 15.24C19.55 17.93 17.5 20.02 14.88 20.65C12.98 21.11 11.01 21.11 9.11 20.65C6.49 20.02 4.44 17.93 3.83 15.24C3.38 13.3 3.38 11.29 3.83 9.35ZM8.07 3L8.07 5.51M15.92 3L15.92 " stroke="#7F7667" stroke-opacity="1.000000" stroke-width="1.500000"/>
		<path d="M7.04 11.42L7.01 11.42C6.69 11.15 6.65 10.68 6.93 10.36C7.2 10.05 7.66 10.01 7.98 10.28L7.99 10.31L7.04 11.42ZM10 9.45L10.01 9.43C10.33 9.15 10.79 9.19 11.06 9.51C11.34 9.83 11.3 10.29 10.98 10.56L10.96 10.56L10 9.45ZM7.04 15.71L7.01 15.71C6.69 15.43 6.65 14.97 6.93 14.65C7.2 14.33 7.66 14.3 7.98 14.57L7.99 14.6L7.04 15.71ZM10 13.74L10.01 13.71C10.33 13.44 10.79 13.47 11.06 13.79C11.34 14.11 11.3 14.58 10.98 14.85L10.96 14.85L10 13.74ZM13.02 12.01L13 12.03C12.58 12.03 12.25 11.7 12.25 11.28C12.25 10.86 12.58 10.53 13 10.53L13.02 10.55L13.02 12.01ZM16.48 10.55L16.5 10.53C16.91 10.53 17.25 10.86 17.25 11.28C17.25 11.7 16.91 12.03 16.5 12.03L16.48 12.01L16.48 10.55ZM13.02 16.3L13 16.32C12.58 16.32 12.25 15.99 12.25 15.57C12.25 15.15 12.58 14.82 13 14.82L13.02 14.84L13.02 16.3ZM16.48 14.84L16.5 14.82C16.91 14.82 17.25 15.15 17.25 15.57C17.25 15.99 16.91 16.32 16.5 16.32L16.48 16.3L16.48 14.84Z" fill="#E9E1D8" fill-opacity="1.000000" fill-rule="nonzero"/>
		<path d="M7.5 10.85L8.5 11.71L10.5 10M7.5 15.14L8.5 16L10.5 14.28M13 11.28L16.5 11.28M13 15.57L16.5 " stroke="#7F7667" stroke-opacity="1.000000" stroke-width="1.500000"/>
	</g>
</svg>
