<svg width="24.000000" height="24.000000" viewBox="0 0 24 24" fill="none" xmlns="http://www.w3.org/2000/svg" xmlns:xlink="http://www.w3.org/1999/xlink">
	<desc>
			Created with Pixso.
	</desc>
	<defs>
		<clipPath id="clip110_8859">
			<rect width="24.000000" height="24.000000" fill="white" fill-opacity="0"/>
		</clipPath>
		<clipPath id="clip6_2858">
			<rect width="24.000000" height="24.000000" fill="white" fill-opacity="0"/>
		</clipPath>
	</defs>
	<g clip-path="url(#clip6_2858)">
		<rect width="24.000000" height="24.000000" fill="#FFFFFF" fill-opacity="0"/>
		<g clip-path="url(#clip110_8859)">
			<path d="M9.26 7.5L7.96 7.5L5.48 14L6.87 14L7.4 12.5L9.84 12.5L10.38 14L11.73 14L9.26 7.5ZM8.62 9.01L9.47 11.46L7.77 11.46L8.62 9.01ZM22 11C22 6.59 17.51 3 12 3C6.48 3 2 6.59 2 11C2 13.46 3.16 14.85 4 15.85L4.02 15.87C4.08 16.68 4.06 17.44 3.95 18.18C3.82 19 4.57 19.8 5.35 19.51C6.39 19.12 6.9 18.81 7.51 18.43C7.57 18.39 7.63 18.36 7.69 18.32C7.77 18.34 7.84 18.36 7.92 18.38C8.92 18.62 10.29 18.96 12.08 18.96C16.85 18.96 22 15.92 22 11ZM0 11C0 5.22 5.66 1 12 1C18.29 1 24 5.19 24 11C24 16.12 19.17 20.96 12.09 20.96C10.8 20.96 9.44 20.8 8.03 20.46C6.74 21.25 4.27 22.04 2.02 22.58C1.21 22.77 0.58 21.93 0.9 21.17C1.55 19.61 2.08 17.92 2.04 16.63C0.73 15.07 0 13.05 0 11Z" fill="#7F7667" fill-opacity="1.000000" fill-rule="evenodd"/>
			<path d="M17.56 10.06C17.63 9.82 17.66 9.63 17.7 9.45L16.6 9.24L16.49 9.74C16.12 9.68 15.72 9.68 15.33 9.72C15.33 9.45 15.35 9.19 15.37 8.93L16.6 8.93L16.6 7.89L15.52 7.89C15.58 7.63 15.62 7.47 15.67 7.32L14.59 7C14.51 7.26 14.45 7.52 14.38 7.89L13.16 7.89L13.16 8.93L14.25 8.93C14.22 9.27 14.2 9.62 14.2 9.97C12.99 10.41 12.48 11.26 12.48 12.03C12.48 12.93 13.19 13.73 14.32 13.62C15.72 13.5 16.66 12.44 17.2 11.14C17.77 11.46 18.01 12.01 17.79 12.52C17.6 12.99 17.02 13.44 15.9 13.42L15.9 14.54C17.14 14.56 18.35 14.09 18.83 12.96C19.29 11.85 18.76 10.64 17.56 10.06ZM15.42 11.9C15.72 11.6 15.94 11.21 16.12 10.82C15.87 10.8 15.6 10.81 15.33 10.85C15.35 11.22 15.38 11.58 15.42 11.9ZM14.23 11.19C14.25 11.66 14.31 12.1 14.38 12.48C13.39 12.67 13.35 11.68 14.23 11.19Z" fill="#7F7667" fill-opacity="1.000000" fill-rule="evenodd"/>
			<path d="M12 3C17.51 3 22 6.59 22 11C22 15.92 16.85 18.96 12.08 18.96C10.29 18.96 8.92 18.62 7.92 18.38C7.84 18.36 7.77 18.34 7.69 18.32C7.63 18.36 7.57 18.39 7.51 18.43C6.9 18.81 6.39 19.12 5.35 19.51C4.57 19.8 3.82 19 3.95 18.18C4.06 17.44 4.08 16.68 4.02 15.87L4 15.85C3.16 14.85 2 13.46 2 11C2 6.59 6.48 3 12 3ZM9.26 7.5L7.96 7.5L5.48 14L6.87 14L7.4 12.5L9.84 12.5L10.38 14L11.73 14L9.26 7.5ZM17.7 9.45C17.66 9.63 17.63 9.82 17.56 10.06C18.76 10.64 19.29 11.85 18.83 12.96C18.35 14.09 17.14 14.56 15.9 14.54L15.9 13.42C17.02 13.44 17.6 12.99 17.79 12.52C18.01 12.01 17.77 11.46 17.2 11.14C16.66 12.44 15.72 13.5 14.32 13.62C13.19 13.73 12.48 12.93 12.48 12.03C12.48 11.26 12.99 10.41 14.2 9.97C14.2 9.62 14.22 9.27 14.25 8.93L13.16 8.93L13.16 7.89L14.38 7.89C14.45 7.52 14.51 7.26 14.59 7L15.67 7.32C15.62 7.47 15.58 7.63 15.52 7.89L16.6 7.89L16.6 8.93L15.37 8.93C15.35 9.19 15.33 9.45 15.33 9.72C15.72 9.68 16.12 9.68 16.49 9.74L16.6 9.24L17.7 9.45Z" fill="#E9E1D8" fill-opacity="1.000000" fill-rule="evenodd"/>
			<path d="M9.47 11.46L8.62 9.01L7.77 11.46L9.47 11.46Z" fill="#E9E1D8" fill-opacity="1.000000" fill-rule="nonzero"/>
			<path d="M14.23 11.19C14.25 11.66 14.31 12.1 14.38 12.48C13.39 12.67 13.35 11.68 14.23 11.19Z" fill="#E9E1D8" fill-opacity="1.000000" fill-rule="nonzero"/>
			<path d="M16.12 10.82C15.94 11.21 15.72 11.6 15.42 11.9C15.38 11.58 15.35 11.22 15.33 10.85C15.6 10.81 15.87 10.8 16.12 10.82Z" fill="#E9E1D8" fill-opacity="1.000000" fill-rule="nonzero"/>
		</g>
	</g>
</svg>
