<svg width="24.000000" height="24.000000" viewBox="0 0 24 24" fill="none" xmlns="http://www.w3.org/2000/svg" xmlns:xlink="http://www.w3.org/1999/xlink">
	<desc>
			Created with Pixso.
	</desc>
	<defs>
		<clipPath id="clip6_3083">
			<rect width="24.000000" height="24.000000" fill="white" fill-opacity="0"/>
		</clipPath>
	</defs>
	<g clip-path="url(#clip6_3083)">
		<path d="M3.35 8.95C4 6.17 6.17 4 8.95 3.35C10.95 2.88 13.04 2.88 15.04 3.35C17.82 4 19.99 6.17 20.64 8.95C21.11 10.95 21.11 13.04 20.64 15.04C19.99 17.82 17.82 19.99 15.04 20.64C13.04 21.11 10.95 21.11 8.95 20.64C6.17 19.99 4 17.82 3.35 15.04C2.88 13.04 2.88 10.95 3.35 8.95Z" fill="#E9E1D8" fill-opacity="1.000000" fill-rule="nonzero"/>
		<path d="M3.35 8.95C4 6.17 6.17 4 8.95 3.35C10.95 2.88 13.04 2.88 15.04 3.35C17.82 4 19.99 6.17 20.64 8.95C21.11 10.95 21.11 13.04 20.64 15.04C19.99 17.82 17.82 19.99 15.04 20.64C13.04 21.11 10.95 21.11 8.95 20.64C6.17 19.99 4 17.82 3.35 15.04C2.88 13.04 2.88 10.95 3.35 8.95Z" stroke="#7F7667" stroke-opacity="1.000000" stroke-width="1.500000"/>
		<path d="M11.27 8.52L11.25 8.5C11.25 8.08 11.58 7.75 12 7.75C12.41 7.75 12.75 8.08 12.75 8.5L12.73 8.52L11.27 8.52ZM13.96 12.49L13.96 12.46C14.26 12.17 14.73 12.17 15.03 12.46C15.32 12.76 15.32 13.23 15.03 13.53L15 13.53L13.96 12.49ZM8.99 13.53L8.96 13.53C8.67 13.23 8.67 12.76 8.96 12.46C9.26 12.17 9.73 12.17 10.03 12.46L10.03 12.49L8.99 13.53Z" fill="#E9E1D8" fill-opacity="1.000000" fill-rule="nonzero"/>
		<path d="M12 8.5L12 15.5M9.5 13L12 15.5L14.5 " stroke="#7F7667" stroke-opacity="1.000000" stroke-width="1.500000" stroke-linejoin="round"/>
	</g>
</svg>
