<svg width="24.000000" height="24.000000" viewBox="0 0 24 24" fill="none" xmlns="http://www.w3.org/2000/svg" xmlns:xlink="http://www.w3.org/1999/xlink">
	<desc>
			Created with Pixso.
	</desc>
	<defs>
		<clipPath id="clip6_2920">
			<rect width="24.000000" height="24.000000" fill="white" fill-opacity="0"/>
		</clipPath>
	</defs>
	<g clip-path="url(#clip6_2920)">
		<path d="M5.22 8.71C5.77 6.46 7.51 4.72 9.71 4.23L10.16 4.12C11.83 3.75 13.57 3.75 15.24 4.12L15.69 4.23C17.89 4.72 19.63 6.46 20.18 8.71C20.6 10.45 20.6 12.27 20.18 14.01C19.63 16.26 17.89 17.99 15.69 18.49L15.24 18.59C13.57 18.97 11.83 18.97 10.16 18.59L9.71 18.49C7.51 17.99 5.77 16.26 5.22 14.01C4.8 12.27 4.8 10.45 5.22 8.71ZM6.92 6.19L6.94 6.21C7.02 6.62 6.75 7 6.34 7.08C5.92 7.15 5.54 6.89 5.46 6.48L5.48 6.45L6.92 6.19ZM3.39 3.72L3.36 3.73C2.95 3.66 2.68 3.28 2.76 2.86C2.83 2.45 3.21 2.18 3.63 2.26L3.64 2.28L3.39 3.72Z" fill="#E9E1D8" fill-opacity="1.000000" fill-rule="nonzero"/>
		<path d="M3.63 2.26C3.21 2.18 2.83 2.45 2.76 2.86C2.68 3.28 2.95 3.66 3.36 3.73Q3.53 3.76 3.7 3.82Q3.88 3.88 4.06 3.97Q4.17 4.04 4.28 4.11Q4.48 4.24 4.64 4.41Q4.75 4.52 4.84 4.64Q4.98 4.81 5.08 5.01Q5.15 5.14 5.2 5.28Q5.29 5.5 5.33 5.74L5.44 6.35Q5.31 6.55 5.2 6.76Q5 7.1 4.85 7.46Q4.63 7.98 4.5 8.53Q4.34 9.19 4.25 9.86Q4.16 10.6 4.16 11.36Q4.16 12.12 4.25 12.86Q4.34 13.53 4.5 14.19Q4.63 14.74 4.85 15.26Q5 15.62 5.2 15.96Q5.46 16.43 5.8 16.85Q6.04 17.16 6.32 17.44Q6.44 17.56 6.56 17.67Q6.56 17.68 6.56 17.68Q6.33 17.96 6.19 18.31Q6.06 18.63 6.02 18.96Q5.98 19.3 6.04 19.65Q6.1 20.02 6.26 20.33Q6.41 20.62 6.62 20.86Q6.87 21.14 7.18 21.33Q7.45 21.49 7.77 21.57Q8.1 21.67 8.44 21.66Q8.78 21.65 9.11 21.54Q9.42 21.44 9.68 21.26Q9.98 21.06 10.22 20.77Q10.42 20.51 10.55 20.22Q10.69 19.9 10.74 19.53Q10.74 19.5 10.74 19.47Q11.08 19.52 11.41 19.56Q12.05 19.62 12.7 19.62Q13.35 19.62 13.99 19.56Q14.24 19.53 14.5 19.49Q14.51 19.78 14.6 20.05Q14.69 20.36 14.88 20.65Q15.08 20.96 15.35 21.2Q15.6 21.4 15.89 21.53Q16.22 21.68 16.56 21.73Q16.89 21.77 17.23 21.72Q17.56 21.66 17.85 21.53Q18.17 21.38 18.44 21.13Q18.69 20.91 18.86 20.64Q19.05 20.34 19.15 19.98Q19.24 19.64 19.24 19.3Q19.24 18.96 19.14 18.62Q19.03 18.26 18.83 17.96Q18.77 17.87 18.7 17.79Q18.9 17.62 19.08 17.44Q19.36 17.16 19.6 16.85Q19.94 16.43 20.21 15.96Q20.4 15.62 20.55 15.26Q20.77 14.74 20.91 14.19Q21.07 13.53 21.15 12.86Q21.25 12.12 21.25 11.36Q21.25 10.6 21.15 9.86Q21.07 9.19 20.91 8.53Q20.77 7.98 20.55 7.46Q20.4 7.1 20.21 6.76Q19.94 6.29 19.6 5.86Q19.36 5.56 19.08 5.28Q18.68 4.88 18.23 4.56Q17.93 4.34 17.6 4.16Q17.16 3.92 16.69 3.74Q16.28 3.59 15.85 3.49L15.4 3.39Q14.7 3.23 13.99 3.16Q13.35 3.09 12.7 3.09Q12.05 3.09 11.41 3.16Q10.7 3.23 10 3.39L9.55 3.49Q9.12 3.59 8.71 3.74Q8.24 3.92 7.8 4.16Q7.47 4.34 7.17 4.56Q6.91 4.74 6.67 4.95Q6.65 4.87 6.62 4.79Q6.53 4.55 6.41 4.32Q6.25 4.02 6.05 3.75Q5.9 3.55 5.71 3.36Q5.46 3.11 5.18 2.91Q4.98 2.77 4.77 2.65Q4.49 2.5 4.19 2.4Q3.91 2.31 3.63 2.26ZM17.45 18.64Q17.08 18.83 16.69 18.97Q16.35 19.1 16 19.19Q15.99 19.26 15.99 19.33Q15.99 19.49 16.04 19.62Q16.07 19.74 16.14 19.84Q16.22 19.97 16.34 20.06Q16.42 20.13 16.52 20.17Q16.64 20.22 16.76 20.24Q16.88 20.25 16.99 20.23Q17.1 20.22 17.2 20.18Q17.33 20.12 17.43 20.02Q17.52 19.95 17.58 19.86Q17.66 19.73 17.7 19.58Q17.74 19.45 17.74 19.31Q17.74 19.18 17.7 19.05Q17.65 18.9 17.57 18.77Q17.52 18.7 17.45 18.64ZM9.25 19.15Q8.98 19.07 8.71 18.97Q8.24 18.8 7.8 18.55Q7.79 18.55 7.79 18.55Q7.76 18.58 7.73 18.61Q7.64 18.72 7.58 18.87Q7.53 18.99 7.51 19.12Q7.5 19.26 7.52 19.4Q7.55 19.55 7.62 19.68Q7.67 19.78 7.74 19.87Q7.84 19.98 7.97 20.05Q8.06 20.1 8.16 20.13Q8.28 20.16 8.4 20.16Q8.52 20.15 8.64 20.11Q8.74 20.08 8.83 20.03Q8.95 19.95 9.05 19.83Q9.12 19.74 9.17 19.64Q9.23 19.5 9.25 19.35Q9.26 19.25 9.25 19.15ZM9.88 4.96L10.33 4.86Q10.95 4.72 11.58 4.65Q12.14 4.59 12.7 4.59Q13.27 4.59 13.82 4.65Q14.45 4.72 15.07 4.86L15.52 4.96Q15.85 5.03 16.16 5.14Q16.53 5.28 16.88 5.47Q17.11 5.6 17.33 5.76Q17.7 6.02 18.02 6.34Q18.23 6.55 18.41 6.77Q18.68 7.11 18.9 7.5Q19.04 7.75 19.15 8.01Q19.34 8.43 19.45 8.89Q19.59 9.46 19.66 10.03Q19.75 10.69 19.75 11.36Q19.75 12.03 19.66 12.68Q19.59 13.26 19.45 13.83Q19.43 13.89 19.42 13.95L5.99 13.95Q5.97 13.89 5.95 13.83Q5.81 13.26 5.74 12.68Q5.66 12.03 5.66 11.36Q5.66 10.69 5.74 10.03Q5.81 9.46 5.95 8.89Q6.06 8.43 6.25 8.01Q6.36 7.75 6.5 7.5Q6.72 7.11 6.99 6.77Q7.17 6.55 7.38 6.34Q7.71 6.02 8.08 5.76Q8.29 5.6 8.53 5.47Q8.88 5.28 9.25 5.14Q9.56 5.03 9.88 4.96ZM6.64 15.45Q6.8 15.71 6.99 15.94Q7.17 16.17 7.38 16.38Q7.71 16.7 8.08 16.96Q8.29 17.11 8.53 17.24Q8.88 17.44 9.25 17.57Q9.56 17.69 9.88 17.76L10.33 17.86Q10.95 18 11.58 18.07Q12.14 18.12 12.7 18.12Q13.27 18.12 13.82 18.07Q14.45 18 15.07 17.86L15.52 17.76Q15.85 17.69 16.16 17.57Q16.53 17.44 16.88 17.24Q17.11 17.11 17.33 16.96Q17.7 16.7 18.02 16.38Q18.23 16.17 18.41 15.94Q18.6 15.71 18.76 15.45L6.64 15.45Z" fill="#7F7667" fill-opacity="1.000000" fill-rule="evenodd"/>
		<path d="M14.39 7.72L14.37 7.73C13.96 7.67 13.69 7.29 13.76 6.87C13.82 6.46 14.2 6.19 14.62 6.26L14.63 6.28L14.39 7.72ZM18.23 10.48L18.25 10.5C18.25 10.91 17.91 11.25 17.5 11.25C17.08 11.25 16.75 10.91 16.75 10.5L16.77 10.48L18.23 10.48Z" fill="#E9E1D8" fill-opacity="1.000000" fill-rule="nonzero"/>
		<path d="M14.5 7L14.54 7C16.24 7.29 17.5 8.76 17.5 " stroke="#7F7667" stroke-opacity="1.000000" stroke-width="1.500000" stroke-linecap="round"/>
	</g>
</svg>
