<svg width="24.000000" height="24.000000" viewBox="0 0 24 24" fill="none" xmlns="http://www.w3.org/2000/svg" xmlns:xlink="http://www.w3.org/1999/xlink">
	<desc>
			Created with Pixso.
	</desc>
	<defs/>
	<path d="M6.69 3C7.96 3 9 4.13 9 5.54L9 9.45C9 10.86 7.96 12 6.69 12C6.4 12 6.12 11.95 5.84 11.86L5.57 11.78C4.31 11.39 3.36 10.25 3.11 8.83C2.96 7.95 2.96 7.04 3.11 6.16C3.36 4.74 4.31 3.6 5.57 3.21L5.84 3.13C6.12 3.04 6.4 3 6.69 3ZM12 17.3C12 16.03 13.13 15 14.54 15L18.45 15C19.86 15 21 16.03 21 17.3C21 17.59 20.95 17.87 20.86 18.15L20.78 18.42C20.39 19.68 19.25 20.63 17.83 20.88C16.95 21.03 16.04 21.03 15.16 20.88C13.74 20.63 12.6 19.68 12.21 18.42L12.13 18.15C12.04 17.87 12 17.59 12 17.3Z" fill="#E9E1D8" fill-opacity="1.000000" fill-rule="evenodd"/>
	<path d="M12.21 18.42C12.6 19.68 13.74 20.63 15.16 20.88C16.04 21.03 16.95 21.03 17.83 20.88C19.25 20.63 20.39 19.68 20.78 18.42L20.86 18.15C20.95 17.87 21 17.59 21 17.3C21 16.03 19.86 15 18.45 15L14.54 15C13.13 15 12 16.03 12 17.3C12 17.59 12.04 17.87 12.13 18.15L12.21 18.42ZM5.57 3.21C4.31 3.6 3.36 4.74 3.11 6.16C2.96 7.04 2.96 7.95 3.11 8.83C3.36 10.25 4.31 11.39 5.57 11.78L5.84 11.86C6.12 11.95 6.4 12 6.69 12C7.96 12 9 10.86 9 9.45L9 5.54C9 4.13 7.96 3 6.69 3C6.4 3 6.12 3.04 5.84 3.13L5.57 3.21ZM3.11 8.83C4.25 14.95 9.04 19.74 15.16 " stroke="#7F7667" stroke-opacity="1.000000" stroke-width="1.500000"/>
</svg>
