<svg width="24.000000" height="24.000000" viewBox="0 0 24 24" fill="none" xmlns="http://www.w3.org/2000/svg" xmlns:xlink="http://www.w3.org/1999/xlink">
	<desc>
			Created with Pixso.
	</desc>
	<defs>
		<clipPath id="clip6_2797">
			<rect width="24.000000" height="24.000000" fill="white" fill-opacity="0"/>
		</clipPath>
	</defs>
	<g clip-path="url(#clip6_2797)">
		<path d="M3.98 11.61L9.11 18.51C10.59 20.49 13.4 20.49 14.88 18.51L20.01 11.61C21.32 9.84 21.32 7.34 20.01 5.57C18.09 2.99 13.65 3.76 12 6.54C10.34 3.76 5.9 2.99 3.98 5.57C2.67 7.34 2.67 9.84 3.98 11.61Z" fill="#E9E1D8" fill-opacity="1.000000" fill-rule="evenodd"/>
		<path d="M9.11 18.51C10.59 20.49 13.4 20.49 14.88 18.51L20.01 11.61C21.32 9.84 21.32 7.34 20.01 5.57C18.09 2.99 13.65 3.76 12 6.54C10.34 3.76 5.9 2.99 3.98 5.57C2.67 7.34 2.67 9.84 3.98 11.61L9.11 18.51Z" stroke="#7F7667" stroke-opacity="1.000000" stroke-width="1.500000" stroke-linejoin="round"/>
	</g>
</svg>
