<svg width="24.000000" height="24.000000" viewBox="0 0 24 24" fill="none" xmlns="http://www.w3.org/2000/svg" xmlns:xlink="http://www.w3.org/1999/xlink">
	<desc>
			Created with Pixso.
	</desc>
	<defs>
		<clipPath id="clip6_2952">
			<rect width="24.000000" height="24.000000" fill="white" fill-opacity="0"/>
		</clipPath>
	</defs>
	<g clip-path="url(#clip6_2952)">
		<path d="M13.68 3.3C15.82 3.63 17.48 5.35 17.73 7.51L17.82 8.22C17.86 8.58 17.89 8.93 17.91 9.29C18.06 11.48 17.85 13.68 17.29 15.8C17.22 16.1 17.13 16.4 17.04 16.7L16.9 17.17C16.32 19.03 14.75 20.42 12.83 20.76C11.09 21.07 9.31 21.07 7.57 20.76L7.44 20.74C5.6 20.41 4.1 19.08 3.54 17.3C2.58 14.16 2.27 10.86 2.65 7.6L2.69 7.29C2.93 5.26 4.49 3.64 6.5 3.33L7.27 3.22C9.21 2.92 11.19 2.92 13.13 3.22L13.68 3.3Z" fill="#E9E1D8" fill-opacity="1.000000" fill-rule="evenodd"/>
		<path d="M17.82 8.22C17.86 8.58 17.89 8.93 17.91 9.29C18.06 11.48 17.85 13.68 17.29 15.8C17.22 16.1 17.13 16.4 17.04 16.7L16.9 17.17C16.32 19.03 14.75 20.42 12.83 20.76C11.09 21.07 9.31 21.07 7.57 20.76L7.44 20.74C5.6 20.41 4.1 19.08 3.54 17.3C2.58 14.16 2.27 10.86 2.65 7.6L2.69 7.29C2.93 5.26 4.49 3.64 6.5 3.33L7.27 3.22C9.21 2.92 11.19 2.92 13.13 3.22L13.68 3.3C15.82 3.63 17.48 5.35 17.73 7.51L17.82 8.22ZM17.91 9.29L18.32 9.29C19.81 9.29 21.1 10.33 21.41 11.79L21.42 11.84C21.52 12.3 21.52 12.78 21.42 13.25C21.1 14.74 19.79 15.8 18.27 15.8L17.78 15.8L17.29 " stroke="#7F7667" stroke-opacity="1.000000" stroke-width="1.500000"/>
		<path d="M5.27 11.52L5.25 11.5C5.25 11.08 5.58 10.75 6 10.75C6.41 10.75 6.75 11.08 6.75 11.5L6.72 11.52L5.27 11.52ZM7.64 16.15L7.67 16.16C7.85 16.54 7.71 16.98 7.33 17.17C6.95 17.35 6.51 17.21 6.32 16.83L6.33 16.8L7.64 16.15Z" fill="#E9E1D8" fill-opacity="1.000000" fill-rule="nonzero"/>
		<path d="M6 11.5L6 12.26C6 13.73 6.34 15.18 7 " stroke="#7F7667" stroke-opacity="1.000000" stroke-width="1.500000" stroke-linecap="round"/>
	</g>
</svg>
