<svg width="24.000000" height="24.000000" viewBox="0 0 24 24" fill="none" xmlns="http://www.w3.org/2000/svg" xmlns:xlink="http://www.w3.org/1999/xlink">
	<desc>
			Created with Pixso.
	</desc>
	<defs>
		<clipPath id="clip6_2947">
			<rect width="24.000000" height="24.000000" fill="white" fill-opacity="0"/>
		</clipPath>
	</defs>
	<g clip-path="url(#clip6_2947)">
		<path d="M6.06 9.9C6.15 9.51 6.29 9.13 6.46 8.78C6.96 7.78 7.78 6.96 8.78 6.46C9.13 6.29 9.51 6.15 9.9 6.06C10.59 5.9 11.29 5.82 12 5.82C12.7 5.82 13.4 5.9 14.09 6.06C14.48 6.15 14.86 6.29 15.21 6.46C16.21 6.96 17.03 7.78 17.53 8.78C17.7 9.13 17.84 9.51 17.93 9.9C18.09 10.59 18.17 11.29 18.17 12C18.17 12.7 18.09 13.4 17.93 14.09C17.84 14.48 17.7 14.86 17.53 15.21C17.03 16.21 16.21 17.03 15.21 17.53C14.86 17.7 14.48 17.84 14.09 17.93C13.4 18.09 12.7 18.17 12 18.17C11.29 18.17 10.59 18.09 9.9 17.93C9.51 17.84 9.13 17.7 8.78 17.53C7.78 17.03 6.96 16.21 6.46 15.21C6.29 14.86 6.15 14.48 6.06 14.09C5.9 13.4 5.82 12.7 5.82 12C5.82 11.29 5.9 10.59 6.06 9.9ZM11.27 3.02L11.25 3C11.25 2.58 11.58 2.25 12 2.25C12.41 2.25 12.75 2.58 12.75 3L12.73 3.02L11.27 3.02ZM8.05 3.02L8.03 3C8.03 2.58 8.36 2.25 8.78 2.25C9.2 2.25 9.53 2.58 9.53 3L9.51 3.02L8.05 3.02ZM14.48 3.02L14.46 3C14.46 2.58 14.79 2.25 15.21 2.25C15.63 2.25 15.96 2.58 15.96 3L15.94 3.02L14.48 3.02ZM3.02 12.73L3 12.75C2.58 12.75 2.25 12.41 2.25 12C2.25 11.58 2.58 11.25 3 11.25L3.02 11.27L3.02 12.73ZM3.02 9.51L3 9.53C2.58 9.53 2.25 9.2 2.25 8.78C2.25 8.36 2.58 8.03 3 8.03L3.02 8.05L3.02 9.51ZM3.02 15.94L3 15.96C2.58 15.96 2.25 15.63 2.25 15.21C2.25 14.79 2.58 14.46 3 14.46L3.02 14.48L3.02 15.94ZM12.73 20.98L12.75 21C12.75 21.41 12.41 21.75 12 21.75C11.58 21.75 11.25 21.41 11.25 21L11.27 20.98L12.73 20.98ZM9.51 20.98L9.53 21C9.53 21.41 9.2 21.75 8.78 21.75C8.36 21.75 8.03 21.41 8.03 21L8.05 20.98L9.51 20.98ZM15.94 20.98L15.96 21C15.96 21.41 15.63 21.75 15.21 21.75C14.79 21.75 14.46 21.41 14.46 21L14.48 20.98L15.94 20.98ZM20.98 11.27L21 11.25C21.41 11.25 21.75 11.58 21.75 12C21.75 12.41 21.41 12.75 21 12.75L20.98 12.73L20.98 11.27ZM20.98 8.05L21 8.03C21.41 8.03 21.75 8.36 21.75 8.78C21.75 9.2 21.41 9.53 21 9.53L20.98 9.51L20.98 8.05ZM20.98 14.48L21 14.46C21.41 14.46 21.75 14.79 21.75 15.21C21.75 15.63 21.41 15.96 21 15.96L20.98 15.94L20.98 14.48Z" fill="#E9E1D8" fill-opacity="1.000000" fill-rule="nonzero"/>
		<path d="M12 5.82C12.7 5.82 13.4 5.9 14.09 6.06C14.48 6.15 14.86 6.29 15.21 6.46C16.21 6.96 17.03 7.78 17.53 8.78C17.7 9.13 17.84 9.51 17.93 9.9C18.09 10.59 18.17 11.29 18.17 12C18.17 12.7 18.09 13.4 17.93 14.09C17.84 14.48 17.7 14.86 17.53 15.21C17.03 16.21 16.21 17.03 15.21 17.53C14.86 17.7 14.48 17.84 14.09 17.93C13.4 18.09 12.7 18.17 12 18.17C11.29 18.17 10.59 18.09 9.9 17.93C9.51 17.84 9.13 17.7 8.78 17.53C7.78 17.03 6.96 16.21 6.46 15.21C6.29 14.86 6.15 14.48 6.06 14.09C5.9 13.4 5.82 12.7 5.82 12C5.82 11.29 5.9 10.59 6.06 9.9C6.15 9.51 6.29 9.13 6.46 8.78C6.96 7.78 7.78 6.96 8.78 6.46C9.13 6.29 9.51 6.15 9.9 6.06C10.59 5.9 11.29 5.82 12 5.82ZM12 5.82L12 3M8.78 6.46L8.78 3M15.21 6.46L15.21 3M5.82 12L3 12M6.46 8.78L3 8.78M6.46 15.21L3 15.21M12 18.17L12 21M8.78 17.53L8.78 21M15.21 17.53L15.21 21M18.17 12L21 12M17.53 8.78L21 8.78M17.53 15.21L21 " stroke="#7F7667" stroke-opacity="1.000000" stroke-width="1.500000"/>
		<path d="M9.22 11.02C9.43 10.13 10.13 9.43 11.02 9.22C11.66 9.07 12.33 9.07 12.97 9.22C13.86 9.43 14.56 10.13 14.77 11.02C14.92 11.66 14.92 12.33 14.77 12.97C14.56 13.86 13.86 14.56 12.97 14.77C12.33 14.92 11.66 14.92 11.02 14.77C10.13 14.56 9.43 13.86 9.22 12.97C9.07 12.33 9.07 11.66 9.22 11.02Z" stroke="#7F7667" stroke-opacity="1.000000" stroke-width="1.500000"/>
	</g>
</svg>
