<svg width="24.000000" height="24.000000" viewBox="0 0 24 24" fill="none" xmlns="http://www.w3.org/2000/svg" xmlns:xlink="http://www.w3.org/1999/xlink">
	<desc>
			Created with Pixso.
	</desc>
	<defs>
		<clipPath id="clip6_2971">
			<rect width="24.000000" height="24.000000" fill="white" fill-opacity="0"/>
		</clipPath>
	</defs>
	<g clip-path="url(#clip6_2971)">
		<path d="M7.66 19.3C6.25 18.48 5.54 18.07 5.01 17.52C4.4 16.88 3.95 16.1 3.71 15.24C3.5 14.49 3.5 13.66 3.5 12C3.5 10.33 3.5 9.5 3.71 8.75C3.95 7.89 4.4 7.11 5.01 6.47C5.54 5.92 6.25 5.51 7.66 4.69L7.83 4.6C9.35 3.72 10.11 3.28 10.91 3.11C11.63 2.96 12.36 2.96 13.08 3.11C13.88 3.28 14.64 3.72 16.16 4.6L16.33 4.69C17.74 5.51 18.45 5.92 18.98 6.47C19.59 7.11 20.04 7.89 20.28 8.75C20.5 9.5 20.5 10.33 20.5 12C20.5 13.66 20.5 14.49 20.28 15.24C20.04 16.1 19.59 16.88 18.98 17.52C18.45 18.07 17.74 18.48 16.33 19.3L16.16 19.39C14.64 20.27 13.88 20.71 13.08 20.88C12.36 21.03 11.63 21.03 10.91 20.88C10.11 20.71 9.35 20.27 7.83 19.39L7.66 19.3Z" fill="#E9E1D8" fill-opacity="1.000000" fill-rule="evenodd"/>
		<path d="M7.83 4.6C9.35 3.72 10.11 3.28 10.91 3.11C11.63 2.96 12.36 2.96 13.08 3.11C13.88 3.28 14.64 3.72 16.16 4.6L16.33 4.69C17.74 5.51 18.45 5.92 18.98 6.47C19.59 7.11 20.04 7.89 20.28 8.75C20.5 9.5 20.5 10.33 20.5 12C20.5 13.66 20.5 14.49 20.28 15.24C20.04 16.1 19.59 16.88 18.98 17.52C18.45 18.07 17.74 18.48 16.33 19.3L16.16 19.39C14.64 20.27 13.88 20.71 13.08 20.88C12.36 21.03 11.63 21.03 10.91 20.88C10.11 20.71 9.35 20.27 7.83 19.39L7.66 19.3C6.25 18.48 5.54 18.07 5.01 17.52C4.4 16.88 3.95 16.1 3.71 15.24C3.5 14.49 3.5 13.66 3.5 12C3.5 10.33 3.5 9.5 3.71 8.75C3.95 7.89 4.4 7.11 5.01 6.47C5.54 5.92 6.25 5.51 7.66 4.69L7.83 4.6ZM9.34 12C9.34 10.49 10.53 9.27 12 9.27C13.46 9.27 14.65 10.49 14.65 12C14.65 13.5 13.46 14.72 12 14.72C10.53 14.72 9.34 13.5 9.34 12Z" stroke="#7F7667" stroke-opacity="1.000000" stroke-width="1.500000"/>
	</g>
</svg>
