<svg width="24.000000" height="24.000000" viewBox="0 0 24 24" fill="none" xmlns="http://www.w3.org/2000/svg" xmlns:xlink="http://www.w3.org/1999/xlink">
	<desc>
			Created with Pixso.
	</desc>
	<defs>
		<clipPath id="clip6_2864">
			<rect width="24.000000" height="24.000000" fill="white" fill-opacity="0"/>
		</clipPath>
	</defs>
	<g clip-path="url(#clip6_2864)">
		<path d="M2.88 8.84C3.55 6.13 5.7 4.04 8.43 3.44L8.88 3.34C10.93 2.88 13.06 2.88 15.11 3.34L15.56 3.44C18.29 4.04 20.44 6.13 21.11 8.84C21.62 10.91 21.62 13.08 21.11 15.15C20.44 17.86 18.29 19.95 15.56 20.55L15.11 20.65C13.06 21.11 10.93 21.11 8.88 20.65L8.43 20.55C5.7 19.95 3.55 17.86 2.88 15.15C2.37 13.08 2.37 10.91 2.88 8.84Z" fill="#E9E1D8" fill-opacity="1.000000" fill-rule="nonzero"/>
		<path d="M8.88 3.34C10.93 2.88 13.06 2.88 15.11 3.34L15.56 3.44C18.29 4.04 20.44 6.13 21.11 8.84C21.62 10.91 21.62 13.08 21.11 15.15C20.44 17.86 18.29 19.95 15.56 20.55L15.11 20.65C13.06 21.11 10.93 21.11 8.88 20.65L8.43 20.55C5.7 19.95 3.55 17.86 2.88 15.15C2.37 13.08 2.37 10.91 2.88 8.84C3.55 6.13 5.7 4.04 8.43 3.44L8.88 3.34ZM3.2 8.7L20.79 " stroke="#7F7667" stroke-opacity="1.000000" stroke-width="1.500000"/>
		<path d="M7.02 12.73L7 12.75C6.58 12.75 6.25 12.41 6.25 12C6.25 11.58 6.58 11.25 7 11.25L7.02 11.27L7.02 12.73ZM10.98 11.27L11 11.25C11.41 11.25 11.75 11.58 11.75 12C11.75 12.41 11.41 12.75 11 12.75L10.98 12.73L10.98 11.27Z" fill="#E9E1D8" fill-opacity="1.000000" fill-rule="nonzero"/>
		<path d="M7 12L11 " stroke="#7F7667" stroke-opacity="1.000000" stroke-width="1.500000" stroke-linecap="round"/>
	</g>
</svg>
