<svg width="24.000000" height="24.000000" viewBox="0 0 24 24" fill="none" xmlns="http://www.w3.org/2000/svg" xmlns:xlink="http://www.w3.org/1999/xlink">
	<desc>
			Created with Pixso.
	</desc>
	<defs>
		<clipPath id="clip6_3055">
			<rect width="24.000000" height="24.000000" fill="white" fill-opacity="0"/>
		</clipPath>
	</defs>
	<g clip-path="url(#clip6_3055)">
		<path d="M17.98 3L5.87 3C4.25 3 3.3 4.83 4.25 6.16L8.37 11.95C8.86 12.63 9.12 13.44 9.12 14.27L9.12 18.32C9.12 19.8 10.31 21 11.79 21C13.26 21 14.46 19.8 14.46 18.32L14.46 14.33C14.46 13.46 14.74 12.62 15.26 11.93L19.58 6.2C20.57 4.88 19.63 3 17.98 3Z" fill="#E9E1D8" fill-opacity="1.000000" fill-rule="nonzero"/>
		<path d="M17.98 3C19.63 3 20.57 4.88 19.58 6.2L15.26 11.93C14.74 12.62 14.46 13.46 14.46 14.33L14.46 18.32C14.46 19.8 13.26 21 11.79 21C10.31 21 9.12 19.8 9.12 18.32L9.12 14.27C9.12 13.44 8.86 12.63 8.37 11.95L4.25 6.16C3.3 4.83 4.25 3 5.87 3L17.98 3Z" stroke="#7F7667" stroke-opacity="1.000000" stroke-width="1.500000" stroke-linejoin="round"/>
	</g>
</svg>
