<svg width="24.000000" height="24.000000" viewBox="0 0 24 24" fill="none" xmlns="http://www.w3.org/2000/svg" xmlns:xlink="http://www.w3.org/1999/xlink">
	<desc>
			Created with Pixso.
	</desc>
	<defs>
		<clipPath id="clip6_2702">
			<rect width="24.000000" height="24.000000" fill="white" fill-opacity="0"/>
		</clipPath>
	</defs>
	<g clip-path="url(#clip6_2702)">
		<path d="M8.02 9.72L8 9.75C7.58 9.75 7.25 9.42 7.25 9C7.25 8.57 7.58 8.25 8 8.25L8.02 8.27L8.02 9.72ZM11.98 8.27L12 8.25C12.41 8.25 12.75 8.57 12.75 9C12.75 9.42 12.41 9.75 12 9.75L11.98 9.72L11.98 8.27Z" fill="#E9E1D8" fill-opacity="1.000000" fill-rule="nonzero"/>
		<path d="M8 9L12 " stroke="#7F7667" stroke-opacity="1.000000" stroke-width="1.500000" stroke-linecap="round"/>
		<path d="M2.88 8.84C3.55 6.13 5.7 4.04 8.43 3.44L8.88 3.34C10.93 2.88 13.06 2.88 15.11 3.34L15.56 3.44C18.29 4.04 20.44 6.13 21.11 8.84C21.18 9.14 21.25 9.44 21.3 9.74L21.57 9.12L21.6 9.11C21.98 9.28 22.15 9.71 21.98 10.1C21.87 10.34 21.66 10.5 21.41 10.54C21.52 11.51 21.52 12.48 21.41 13.45C21.66 13.49 21.87 13.65 21.98 13.89C22.15 14.28 21.98 14.71 21.6 14.88L21.57 14.87L21.3 14.25C21.25 14.55 21.18 14.85 21.11 15.15C20.44 17.86 18.29 19.95 15.56 20.55L15.11 20.65C13.06 21.11 10.93 21.11 8.88 20.65L8.43 20.55C5.7 19.95 3.55 17.86 2.88 15.15C2.37 13.08 2.37 10.91 2.88 8.84Z" fill="#E9E1D8" fill-opacity="1.000000" fill-rule="evenodd"/>
		<path d="M8.88 3.34C10.93 2.88 13.06 2.88 15.11 3.34L15.56 3.44C18.29 4.04 20.44 6.13 21.11 8.84C21.62 10.91 21.62 13.08 21.11 15.15C20.44 17.86 18.29 19.95 15.56 20.55L15.11 20.65C13.06 21.11 10.93 21.11 8.88 20.65L8.43 20.55C5.7 19.95 3.55 17.86 2.88 15.15C2.37 13.08 2.37 10.91 2.88 8.84C3.55 6.13 5.7 4.04 8.43 3.44L8.88 3.34ZM21.3 14.19C20.48 14.55 19.57 14.66 18.69 14.5L18.63 14.49C17.65 14.31 16.85 13.59 16.57 12.62C16.46 12.21 16.46 11.78 16.57 11.37C16.85 10.4 17.65 9.68 18.63 9.5L18.69 9.49C19.57 9.33 20.48 9.44 21.3 " stroke="#7F7667" stroke-opacity="1.000000" stroke-width="1.500000" stroke-linecap="round"/>
	</g>
</svg>
