<svg width="24.000000" height="24.000000" viewBox="0 0 24 24" fill="none" xmlns="http://www.w3.org/2000/svg" xmlns:xlink="http://www.w3.org/1999/xlink">
	<desc>
			Created with Pixso.
	</desc>
	<defs>
		<clipPath id="clip6_2799">
			<rect width="24.000000" height="24.000000" fill="white" fill-opacity="0"/>
		</clipPath>
	</defs>
	<g clip-path="url(#clip6_2799)">
		<path d="M3.31 8.32C3.89 5.83 5.83 3.89 8.32 3.31C10.11 2.89 11.98 2.89 13.78 3.31C16.26 3.89 18.2 5.83 18.78 8.32C19.21 10.11 19.21 11.98 18.78 13.78C18.2 16.26 16.26 18.2 13.78 18.78C11.98 19.21 10.11 19.21 8.32 18.78C5.83 18.2 3.89 16.26 3.31 13.78C2.89 11.98 2.89 10.11 3.31 8.32ZM21.5 20.46L21.53 20.46C21.82 20.76 21.82 21.23 21.53 21.53C21.23 21.82 20.76 21.82 20.46 21.53L20.46 21.5L21.5 20.46Z" fill="#E9E1D8" fill-opacity="1.000000" fill-rule="nonzero"/>
		<path d="M2.91 7.1Q2.71 7.61 2.58 8.15Q2.41 8.86 2.33 9.59Q2.25 10.31 2.25 11.05Q2.25 11.78 2.33 12.51Q2.41 13.23 2.58 13.95Q2.71 14.49 2.91 15Q3.09 15.46 3.34 15.89Q3.58 16.33 3.88 16.73Q4.2 17.15 4.57 17.52Q4.95 17.9 5.37 18.21Q5.77 18.51 6.2 18.76Q6.64 19 7.1 19.19Q7.61 19.39 8.15 19.51Q8.86 19.68 9.59 19.77Q10.31 19.85 11.05 19.85Q11.78 19.85 12.51 19.77Q13.23 19.68 13.95 19.51Q14.49 19.39 15 19.19Q15.46 19 15.89 18.76Q16.33 18.51 16.73 18.21Q16.85 18.12 16.97 18.03L20.46 21.53C20.76 21.82 21.23 21.82 21.53 21.53C21.82 21.23 21.82 20.76 21.53 20.46L18.03 16.97Q18.12 16.85 18.22 16.73Q18.51 16.33 18.76 15.89Q19 15.46 19.19 15Q19.39 14.49 19.51 13.95Q19.68 13.23 19.77 12.51Q19.85 11.78 19.85 11.05Q19.85 10.31 19.77 9.59Q19.68 8.86 19.51 8.15Q19.39 7.61 19.19 7.1Q19 6.64 18.76 6.2Q18.51 5.77 18.22 5.37Q17.9 4.95 17.52 4.57Q17.15 4.2 16.73 3.88Q16.33 3.58 15.89 3.34Q15.46 3.09 15 2.91Q14.49 2.71 13.95 2.58Q13.23 2.41 12.51 2.33Q11.78 2.25 11.05 2.25Q10.31 2.25 9.59 2.33Q8.86 2.41 8.15 2.58Q7.61 2.71 7.1 2.91Q6.64 3.09 6.2 3.34Q5.77 3.58 5.37 3.88Q4.95 4.2 4.57 4.57Q4.2 4.95 3.88 5.37Q3.58 5.77 3.34 6.2Q3.09 6.64 2.91 7.1ZM3.82 9.76Q3.89 9.12 4.04 8.49Q4.14 8.05 4.31 7.64Q4.45 7.28 4.64 6.94Q4.84 6.59 5.08 6.27Q5.33 5.93 5.63 5.63Q5.93 5.33 6.27 5.08Q6.59 4.84 6.94 4.64Q7.28 4.45 7.64 4.31Q8.05 4.14 8.49 4.04Q9.12 3.89 9.76 3.82Q10.4 3.75 11.05 3.75Q11.7 3.75 12.33 3.82Q12.97 3.89 13.6 4.04Q14.04 4.14 14.45 4.31Q14.81 4.45 15.16 4.64Q15.51 4.84 15.82 5.08Q16.16 5.33 16.46 5.63Q16.77 5.93 17.02 6.27Q17.26 6.59 17.45 6.94Q17.64 7.28 17.79 7.64Q17.95 8.05 18.05 8.49Q18.2 9.12 18.28 9.76Q18.35 10.4 18.35 11.05Q18.35 11.7 18.28 12.34Q18.2 12.97 18.05 13.6Q17.95 14.04 17.79 14.45Q17.64 14.81 17.45 15.16Q17.26 15.51 17.02 15.82Q16.77 16.16 16.46 16.46Q16.16 16.77 15.82 17.02Q15.51 17.26 15.16 17.45Q14.81 17.64 14.45 17.79Q14.04 17.95 13.6 18.05Q12.97 18.2 12.34 18.28Q11.7 18.35 11.05 18.35Q10.4 18.35 9.76 18.28Q9.12 18.2 8.49 18.05Q8.05 17.95 7.64 17.79Q7.28 17.64 6.94 17.45Q6.59 17.26 6.27 17.02Q5.93 16.77 5.63 16.46Q5.33 16.16 5.08 15.82Q4.84 15.51 4.64 15.16Q4.45 14.81 4.31 14.45Q4.14 14.04 4.04 13.6Q3.89 12.97 3.82 12.33Q3.75 11.7 3.75 11.05Q3.75 10.4 3.82 9.76Z" fill="#7F7667" fill-opacity="1.000000" fill-rule="evenodd"/>
	</g>
</svg>
