<svg width="24.000000" height="24.000000" viewBox="0 0 24 24" fill="none" xmlns="http://www.w3.org/2000/svg" xmlns:xlink="http://www.w3.org/1999/xlink">
	<desc>
			Created with Pixso.
	</desc>
	<defs>
		<clipPath id="clip6_2829">
			<rect width="24.000000" height="24.000000" fill="white" fill-opacity="0"/>
		</clipPath>
	</defs>
	<g clip-path="url(#clip6_2829)">
		<path d="M20 11.17C20 15.69 16.41 21 12 21C7.58 21 4 15.69 4 11.17C4 6.66 7.58 3 12 3C16.41 3 20 6.66 20 11.17Z" fill="#E9E1D8" fill-opacity="1.000000" fill-rule="nonzero"/>
		<path d="M12 21C7.58 21 4 15.69 4 11.17C4 6.66 7.58 3 12 3C16.41 3 20 6.66 20 11.17C20 15.69 16.41 21 12 21Z" stroke="#7F7667" stroke-opacity="1.000000" stroke-width="1.500000"/>
		<path d="M9.5 10.5C9.5 9.11 10.61 8 12 8C13.38 8 14.5 9.11 14.5 10.5C14.5 11.88 13.38 13 12 13C10.61 13 9.5 11.88 9.5 10.5Z" stroke="#7F7667" stroke-opacity="1.000000" stroke-width="1.500000"/>
	</g>
</svg>
