<svg width="24.000000" height="24.000000" viewBox="0 0 24 24" fill="none" xmlns="http://www.w3.org/2000/svg" xmlns:xlink="http://www.w3.org/1999/xlink">
	<desc>
			Created with Pixso.
	</desc>
	<defs>
		<clipPath id="clip6_3023">
			<rect width="24.000000" height="24.000000" fill="white" fill-opacity="0"/>
		</clipPath>
	</defs>
	<g clip-path="url(#clip6_3023)">
		<path d="M3.35 8.95C4 6.17 6.17 4 8.95 3.35C10.95 2.88 13.04 2.88 15.04 3.35C17.82 4 19.99 6.17 20.64 8.95C21.11 10.95 21.11 13.04 20.64 15.04C19.99 17.82 17.82 19.99 15.04 20.64C13.04 21.11 10.95 21.11 8.95 20.64C6.17 19.99 4 17.82 3.35 15.04C2.88 13.04 2.88 10.95 3.35 8.95Z" fill="#E9E1D8" fill-opacity="1.000000" fill-rule="nonzero"/>
		<path d="M3.35 8.95C4 6.17 6.17 4 8.95 3.35C10.95 2.88 13.04 2.88 15.04 3.35C17.82 4 19.99 6.17 20.64 8.95C21.11 10.95 21.11 13.04 20.64 15.04C19.99 17.82 17.82 19.99 15.04 20.64C13.04 21.11 10.95 21.11 8.95 20.64C6.17 19.99 4 17.82 3.35 15.04C2.88 13.04 2.88 10.95 3.35 8.95Z" stroke="#7F7667" stroke-opacity="1.000000" stroke-width="1.500000"/>
		<path d="M14.48 11.27L14.5 11.25C14.91 11.25 15.25 11.58 15.25 12C15.25 12.41 14.91 12.75 14.5 12.75L14.48 12.73L14.48 11.27ZM9.52 12.73L9.5 12.75C9.08 12.75 8.75 12.41 8.75 12C8.75 11.58 9.08 11.25 9.5 11.25L9.52 11.27L9.52 12.73ZM12.73 14.48L12.75 14.5C12.75 14.91 12.41 15.25 12 15.25C11.58 15.25 11.25 14.91 11.25 14.5L11.27 14.48L12.73 14.48ZM11.27 9.52L11.25 9.5C11.25 9.08 11.58 8.75 12 8.75C12.41 8.75 12.75 9.08 12.75 9.5L12.73 9.52L11.27 9.52Z" fill="#E9E1D8" fill-opacity="1.000000" fill-rule="nonzero"/>
		<path d="M14.5 12L9.5 12M12 14.5L12 " stroke="#7F7667" stroke-opacity="1.000000" stroke-width="1.500000"/>
	</g>
</svg>
