<svg width="24.000000" height="24.000000" viewBox="0 0 24 24" fill="none" xmlns="http://www.w3.org/2000/svg" xmlns:xlink="http://www.w3.org/1999/xlink">
	<desc>
			Created with Pixso.
	</desc>
	<defs>
		<clipPath id="clip6_3097">
			<rect width="24.000000" height="24.000000" fill="white" fill-opacity="0"/>
		</clipPath>
	</defs>
	<g clip-path="url(#clip6_3097)">
		<circle cx="12.000000" cy="12.000000" r="9.000000" fill="#E9E1D8" fill-opacity="1.000000"/>
		<path d="M21.73 12.17L21.75 12.15C21.75 11.73 21.41 11.4 21 11.4C20.58 11.4 20.25 11.73 20.25 12.15L20.27 12.17L21.73 12.17ZM21.73 3.02L21.75 3C21.75 2.58 21.41 2.25 21 2.25C20.58 2.25 20.25 2.58 20.25 3L20.27 3.02L21.73 3.02ZM16.36 7.49L16.34 7.47C15.92 7.47 15.59 7.8 15.59 8.22C15.59 8.64 15.92 8.97 16.34 8.97L16.36 8.95L16.36 7.49Z" fill="#E9E1D8" fill-opacity="1.000000" fill-rule="nonzero"/>
		<path d="M21 8.22C21 8.22 18 3.3 12 3.3C7 3.3 3 7.26 3 12.15C3 17.03 7.02 21 12 21C16.97 21 21 17.03 21 12.15M16.34 8.22L21 8.22L21 " stroke="#7F7667" stroke-opacity="1.000000" stroke-width="1.500000" stroke-linejoin="round"/>
	</g>
</svg>
