<svg width="24.000000" height="24.000000" viewBox="0 0 24 24" fill="none" xmlns="http://www.w3.org/2000/svg" xmlns:xlink="http://www.w3.org/1999/xlink">
	<desc>
			Created with Pixso.
	</desc>
	<defs>
		<clipPath id="clip6_2879">
			<rect width="24.000000" height="24.000000" fill="white" fill-opacity="0"/>
		</clipPath>
	</defs>
	<g clip-path="url(#clip6_2879)">
		<path d="M4.22 20C4.22 16.71 6.29 13.91 9.22 12.8L9.22 11.47C9.22 10.1 10.65 9 12 9C13.34 9 14.77 10.1 14.77 11.47L14.77 12.8C17.7 13.91 19.77 16.71 19.77 20L4.22 20ZM2.02 20.73L2 20.75C1.58 20.75 1.25 20.41 1.25 20C1.25 19.58 1.58 19.25 2 19.25L2.02 19.27L2.02 20.73ZM21.98 19.27L22 19.25C22.41 19.25 22.75 19.58 22.75 20C22.75 20.41 22.41 20.75 22 20.75L21.98 20.73L21.98 19.27Z" fill="#E9E1D8" fill-opacity="1.000000" fill-rule="nonzero"/>
		<path d="M9.97 11.78Q10.04 11.77 10.1 11.75Q11.03 11.55 12 11.55Q12.96 11.55 13.89 11.75Q13.95 11.77 14.02 11.78L14.02 11.47Q14.02 11.44 14.02 11.41Q14.01 11.13 13.86 10.86Q13.7 10.55 13.4 10.29Q13.28 10.19 13.14 10.1Q12.94 9.97 12.72 9.89Q12.35 9.75 12 9.75Q11.64 9.75 11.27 9.89Q11.05 9.97 10.85 10.1Q10.71 10.19 10.59 10.29Q10.29 10.55 10.13 10.86Q9.98 11.13 9.97 11.41Q9.97 11.44 9.97 11.47L9.97 11.78ZM15.52 12.3Q16.16 12.59 16.74 12.97Q17.42 13.43 18.02 14.02Q18.67 14.66 19.16 15.41Q19.56 16.02 19.85 16.7Q20.16 17.43 20.33 18.18Q20.44 18.71 20.49 19.25L22 19.25C22.41 19.25 22.75 19.58 22.75 20C22.75 20.41 22.41 20.75 22 20.75L2 20.75C1.58 20.75 1.25 20.41 1.25 20C1.25 19.58 1.58 19.25 2 19.25L3.5 19.25Q3.55 18.71 3.66 18.18Q3.83 17.43 4.14 16.7Q4.43 16.02 4.83 15.41Q5.32 14.66 5.97 14.02Q6.57 13.43 7.25 12.97Q7.83 12.59 8.47 12.3L8.47 11.47Q8.47 11.26 8.5 11.06Q8.57 10.59 8.8 10.16Q8.81 10.13 8.83 10.1Q9.12 9.57 9.62 9.15Q9.84 8.96 10.08 8.81Q10.39 8.62 10.72 8.49Q11.32 8.26 11.93 8.25Q11.96 8.25 12 8.25Q12.03 8.25 12.06 8.25Q12.67 8.26 13.27 8.49Q13.6 8.62 13.91 8.81Q14.15 8.96 14.37 9.15Q14.87 9.57 15.16 10.1Q15.18 10.13 15.19 10.16Q15.42 10.59 15.49 11.06Q15.52 11.26 15.52 11.47L15.52 12.3ZM5.01 19.25L18.98 19.25Q18.94 18.86 18.86 18.48Q18.72 17.88 18.47 17.29Q18.24 16.74 17.92 16.25Q17.51 15.62 16.97 15.08Q16.47 14.59 15.9 14.22Q15.35 13.85 14.73 13.59Q14.17 13.36 13.59 13.22Q12.81 13.05 12 13.05Q11.18 13.05 10.4 13.22Q9.82 13.36 9.26 13.59Q8.64 13.85 8.09 14.22Q7.52 14.59 7.02 15.08Q6.48 15.62 6.07 16.25Q5.75 16.74 5.52 17.29Q5.27 17.88 5.13 18.48Q5.05 18.86 5.01 19.25Z" fill="#7F7667" fill-opacity="1.000000" fill-rule="evenodd"/>
		<path d="M12.73 4.97L12.75 5C12.75 5.42 12.41 5.75 12 5.75C11.58 5.75 11.25 5.42 11.25 5L11.27 4.97L12.73 4.97ZM11.27 4.02L11.25 4C11.25 3.57 11.58 3.25 12 3.25C12.41 3.25 12.75 3.57 12.75 4L12.73 4.02L11.27 4.02ZM15.96 5.56L15.96 5.53C16.26 5.23 16.73 5.23 17.03 5.53C17.32 5.82 17.32 6.29 17.03 6.59L17 6.59L15.96 5.56ZM16.09 7.5L16.09 7.53C15.79 7.82 15.32 7.82 15.03 7.53C14.73 7.23 14.73 6.76 15.03 6.46L15.06 6.46L16.09 7.5ZM8.93 6.46L8.96 6.46C9.26 6.76 9.26 7.23 8.96 7.53C8.67 7.82 8.2 7.82 7.9 7.53L7.9 7.5L8.93 6.46ZM6.99 6.59L6.96 6.59C6.67 6.29 6.67 5.82 6.96 5.53C7.26 5.23 7.73 5.23 8.03 5.53L8.03 5.56L6.99 6.59Z" fill="#E9E1D8" fill-opacity="1.000000" fill-rule="nonzero"/>
		<path d="M12 5L12 4M16.5 6.06L15.56 7M8.43 7L7.5 " stroke="#7F7667" stroke-opacity="1.000000" stroke-width="1.500000" stroke-linejoin="round"/>
	</g>
</svg>
