<svg width="24.000000" height="24.000000" viewBox="0 0 24 24" fill="none" xmlns="http://www.w3.org/2000/svg" xmlns:xlink="http://www.w3.org/1999/xlink">
	<desc>
			Created with Pixso.
	</desc>
	<defs>
		<clipPath id="clip6_2841">
			<rect width="24.000000" height="24.000000" fill="white" fill-opacity="0"/>
		</clipPath>
	</defs>
	<g clip-path="url(#clip6_2841)">
		<path d="M8.95 3.35C6.17 4 4 6.17 3.35 8.95C2.88 10.95 2.88 13.04 3.35 15.04C4 17.82 6.17 19.99 8.95 20.64C10.95 21.11 13.04 21.11 15.04 20.64C17.82 19.99 19.99 17.82 20.64 15.04C21.11 13.04 21.11 10.95 20.64 8.95C19.99 6.17 17.82 4 15.04 3.35C13.04 2.88 10.95 2.88 8.95 3.35Z" fill="#E9E1D8" fill-opacity="1.000000" fill-rule="evenodd"/>
		<path d="M3.35 8.95C4 6.17 6.17 4 8.95 3.35C10.95 2.88 13.04 2.88 15.04 3.35C17.82 4 19.99 6.17 20.64 8.95C21.11 10.95 21.11 13.04 20.64 15.04C19.99 17.82 17.82 19.99 15.04 20.64C13.04 21.11 10.95 21.11 8.95 20.64C6.17 19.99 4 17.82 3.35 15.04C2.88 13.04 2.88 10.95 3.35 8.95ZM12 8.87L12 15.12M15.12 8.87L12 8.87L8.87 " stroke="#7F7667" stroke-opacity="1.000000" stroke-width="1.500000" stroke-linejoin="round"/>
	</g>
</svg>
