<svg width="24.000000" height="24.000000" viewBox="0 0 24 24" fill="none" xmlns="http://www.w3.org/2000/svg" xmlns:xlink="http://www.w3.org/1999/xlink">
	<desc>
			Created with Pixso.
	</desc>
	<defs>
		<clipPath id="clip6_2835">
			<rect width="24.000000" height="24.000000" fill="white" fill-opacity="0"/>
		</clipPath>
	</defs>
	<g clip-path="url(#clip6_2835)">
		<path d="M17.43 9.3L8.11 4.32C5.86 3.13 3.37 5.4 4.14 7.95L5.35 12.01L4.14 16.04C3.38 18.59 5.86 20.86 8.11 19.67L17.43 14.71C19.52 13.6 19.52 10.42 17.43 9.3ZM8.3 11.28L8.32 11.26C8.74 11.26 9.07 11.59 9.07 12.01C9.07 12.43 8.74 12.76 8.32 12.76L8.3 12.74L8.3 11.28Z" fill="#E9E1D8" fill-opacity="1.000000" fill-rule="nonzero"/>
		<path d="M17.43 9.3C19.52 10.42 19.52 13.6 17.43 14.71L8.11 19.67C5.86 20.86 3.38 18.59 4.14 16.04L5.35 12.01L4.14 7.95C3.37 5.4 5.86 3.13 8.11 4.32L17.43 9.3ZM5.35 12.01L8.32 " stroke="#7F7667" stroke-opacity="1.000000" stroke-width="1.500000"/>
	</g>
</svg>
