<svg width="24.000000" height="24.000000" viewBox="0 0 24 24" fill="none" xmlns="http://www.w3.org/2000/svg" xmlns:xlink="http://www.w3.org/1999/xlink">
	<desc>
			Created with Pixso.
	</desc>
	<defs>
		<clipPath id="clip6_2728">
			<rect width="24.000000" height="24.000000" fill="white" fill-opacity="0"/>
		</clipPath>
	</defs>
	<g clip-path="url(#clip6_2728)">
		<path d="M14.63 3.47C14.87 2.84 15.79 2.84 16.02 3.47L16.82 5.63C16.89 5.83 17.06 5.99 17.26 6.06L19.5 6.83C20.16 7.05 20.16 7.94 19.5 8.16L17.26 8.93C17.06 9 16.89 9.16 16.82 9.36L16.02 11.52C15.79 12.15 14.87 12.15 14.63 11.52L13.84 9.36C13.77 9.16 13.6 9 13.39 8.93L11.15 8.16C10.5 7.94 10.5 7.05 11.15 6.83L13.39 6.06C13.6 5.99 13.77 5.83 13.84 5.63L14.63 3.47ZM7.51 9.36C7.34 8.87 6.65 8.87 6.48 9.36L6.01 10.68C5.96 10.84 5.84 10.96 5.68 11.01L4.36 11.48C3.87 11.65 3.87 12.34 4.36 12.51L5.68 12.98C5.84 13.03 5.96 13.15 6.01 13.31L6.48 14.63C6.65 15.12 7.34 15.12 7.51 14.63L7.98 13.31C8.03 13.15 8.15 13.03 8.31 12.98L9.63 12.51C10.12 12.34 10.12 11.65 9.63 11.48L8.31 11.01C8.15 10.96 8.03 10.84 7.98 10.68L7.51 9.36ZM12.87 16.16C13.02 15.75 13.63 15.75 13.79 16.16L14.2 17.3C14.25 17.43 14.36 17.53 14.5 17.58L15.67 17.98C16.1 18.13 16.1 18.72 15.67 18.86L14.5 19.27C14.36 19.31 14.25 19.42 14.2 19.55L13.79 20.68C13.63 21.1 13.02 21.1 12.87 20.68L12.46 19.55C12.41 19.42 12.3 19.31 12.16 19.27L10.98 18.86C10.55 18.72 10.55 18.13 10.98 17.98L12.16 17.58C12.3 17.53 12.41 17.43 12.46 17.3L12.87 16.16Z" fill="#E9E1D8" fill-opacity="1.000000" fill-rule="evenodd"/>
		<path d="M13.79 16.16L14.2 17.3C14.25 17.43 14.36 17.53 14.5 17.58L15.67 17.98C16.1 18.13 16.1 18.72 15.67 18.86L14.5 19.27C14.36 19.31 14.25 19.42 14.2 19.55L13.79 20.68C13.63 21.1 13.02 21.1 12.87 20.68L12.46 19.55C12.41 19.42 12.3 19.31 12.16 19.27L10.98 18.86C10.55 18.72 10.55 18.13 10.98 17.98L12.16 17.58C12.3 17.53 12.41 17.43 12.46 17.3L12.87 16.16C13.02 15.75 13.63 15.75 13.79 16.16ZM16.02 3.47L16.82 5.63C16.89 5.83 17.06 5.99 17.26 6.06L19.5 6.83C20.16 7.05 20.16 7.94 19.5 8.16L17.26 8.93C17.06 9 16.89 9.16 16.82 9.36L16.02 11.52C15.79 12.15 14.87 12.15 14.63 11.52L13.84 9.36C13.77 9.16 13.6 9 13.39 8.93L11.15 8.16C10.5 7.94 10.5 7.05 11.15 6.83L13.39 6.06C13.6 5.99 13.77 5.83 13.84 5.63L14.63 3.47C14.87 2.84 15.79 2.84 16.02 3.47ZM7.51 9.36L7.98 10.68C8.03 10.84 8.15 10.96 8.31 11.01L9.63 11.48C10.12 11.65 10.12 12.34 9.63 12.51L8.31 12.98C8.15 13.03 8.03 13.15 7.98 13.31L7.51 14.63C7.34 15.12 6.65 15.12 6.48 14.63L6.01 13.31C5.96 13.15 5.84 13.03 5.68 12.98L4.36 12.51C3.87 12.34 3.87 11.65 4.36 11.48L5.68 11.01C5.84 10.96 5.96 10.84 6.01 10.68L6.48 9.36C6.65 8.87 7.34 8.87 7.51 9.36Z" stroke="#7F7667" stroke-opacity="1.000000" stroke-width="1.500000" stroke-linejoin="round"/>
	</g>
</svg>
