<svg width="24.000000" height="24.000000" viewBox="0 0 24 24" fill="none" xmlns="http://www.w3.org/2000/svg" xmlns:xlink="http://www.w3.org/1999/xlink">
	<desc>
			Created with Pixso.
	</desc>
	<defs>
		<clipPath id="clip6_2928">
			<rect width="24.000000" height="24.000000" fill="white" fill-opacity="0"/>
		</clipPath>
	</defs>
	<g clip-path="url(#clip6_2928)">
		<path d="M4.5 21C3.12 21 2 19.85 2 18.43L2 14.47C2 13.05 3.12 11.9 4.5 11.9C4.82 11.9 5.13 11.94 5.43 12.03L5.72 12.12C7.1 12.51 8.13 13.67 8.41 15.1C8.57 15.99 8.57 16.91 8.41 17.8C8.13 19.23 7.1 20.38 5.72 20.78L5.43 20.86C5.13 20.95 4.82 21 4.5 21ZM19.49 21C20.87 21 22 19.85 22 18.43L22 14.47C22 13.05 20.87 11.9 19.49 11.9C19.17 11.9 18.86 11.94 18.56 12.03L18.27 12.12C16.89 12.51 15.86 13.67 15.58 15.1C15.42 15.99 15.42 16.91 15.58 17.8C15.86 19.23 16.89 20.38 18.27 20.78L18.56 20.86C18.86 20.95 19.17 21 19.49 21Z" fill="#E9E1D8" fill-opacity="1.000000" fill-rule="evenodd"/>
		<path d="M2 17.02L2 13.04L2.02 12.67C2.33 7.99 5.67 4.11 10.16 3.18C11.37 2.93 12.62 2.93 13.83 3.18C18.32 4.11 21.66 7.99 21.97 12.67L22 13.04L22 17.02M18.27 20.78C16.89 20.38 15.86 19.23 15.58 17.8C15.42 16.91 15.42 15.99 15.58 15.1C15.86 13.67 16.89 12.51 18.27 12.12L18.56 12.03C18.86 11.94 19.17 11.9 19.49 11.9C20.87 11.9 22 13.05 22 14.47L22 18.43C22 19.85 20.87 21 19.49 21C19.17 21 18.86 20.95 18.56 20.86L18.27 20.78ZM5.72 20.78C7.1 20.38 8.13 19.23 8.41 17.8C8.57 16.91 8.57 15.99 8.41 15.1C8.13 13.67 7.1 12.51 5.72 12.12L5.43 12.03C5.13 11.94 4.82 11.9 4.5 11.9C3.12 11.9 2 13.05 2 14.47L2 18.43C2 19.85 3.12 21 4.5 21C4.82 21 5.13 20.95 5.43 20.86L5.72 20.78Z" stroke="#7F7667" stroke-opacity="1.000000" stroke-width="1.500000"/>
	</g>
</svg>
