<svg width="24.000000" height="24.000000" viewBox="0 0 24 24" fill="none" xmlns="http://www.w3.org/2000/svg" xmlns:xlink="http://www.w3.org/1999/xlink">
	<desc>
			Created with Pixso.
	</desc>
	<defs>
		<clipPath id="clip6_2776">
			<rect width="24.000000" height="24.000000" fill="white" fill-opacity="0"/>
		</clipPath>
	</defs>
	<g clip-path="url(#clip6_2776)">
		<path d="M5 7.03L19 7.03L19 12.17C19 13.75 18.77 15.31 18.34 16.83C17.73 18.91 16 20.46 13.88 20.82L13.72 20.85C12.58 21.04 11.41 21.04 10.27 20.85L10.11 20.82C7.99 20.46 6.26 18.91 5.65 16.83C5.22 15.31 5 13.75 5 12.17L5 7.03ZM3.02 7.76L3 7.78C2.58 7.78 2.25 7.45 2.25 7.03C2.25 6.61 2.58 6.28 3 6.28L3.02 6.3L3.02 7.76ZM20.98 6.3L21 6.28C21.41 6.28 21.75 6.61 21.75 7.03C21.75 7.45 21.41 7.78 21 7.78L20.98 7.76L20.98 6.3Z" fill="#E9E1D8" fill-opacity="1.000000" fill-rule="nonzero"/>
		<path d="M8.34 6.28L15.65 6.28Q15.58 6.03 15.47 5.8Q15.42 5.68 15.35 5.56Q15.09 5.1 14.68 4.73Q14.58 4.65 14.48 4.57Q14.02 4.21 13.46 4.01Q13.2 3.91 12.94 3.85Q12.48 3.75 12 3.75Q11.51 3.75 11.05 3.85Q10.79 3.91 10.53 4.01Q9.97 4.21 9.51 4.57Q9.41 4.65 9.31 4.73Q8.9 5.1 8.64 5.56Q8.57 5.68 8.52 5.8Q8.41 6.03 8.34 6.28ZM17.18 6.28L21 6.28C21.41 6.28 21.75 6.61 21.75 7.03C21.75 7.45 21.41 7.78 21 7.78L19.75 7.78L19.75 12.17Q19.75 13.43 19.57 14.66Q19.4 15.86 19.06 17.03Q18.92 17.51 18.71 17.96Q18.54 18.33 18.32 18.68Q18.08 19.07 17.78 19.41Q17.5 19.74 17.18 20.03Q16.82 20.35 16.43 20.61Q16.08 20.84 15.71 21.02Q15.31 21.21 14.89 21.34Q14.46 21.49 14 21.56L13.84 21.59Q12.92 21.75 12 21.75Q11.07 21.75 10.15 21.59L9.99 21.56Q9.53 21.49 9.1 21.34Q8.68 21.21 8.28 21.02Q7.91 20.84 7.56 20.61Q7.17 20.35 6.81 20.03Q6.49 19.74 6.21 19.41Q5.91 19.07 5.67 18.68Q5.45 18.33 5.28 17.96Q5.07 17.51 4.93 17.03Q4.59 15.86 4.42 14.66Q4.25 13.43 4.25 12.17L4.25 7.78L3 7.78C2.58 7.78 2.25 7.45 2.25 7.03C2.25 6.61 2.58 6.28 3 6.28L6.81 6.28Q6.81 6.25 6.82 6.23Q6.92 5.69 7.16 5.17Q7.28 4.91 7.43 4.67Q7.78 4.09 8.31 3.62Q8.51 3.44 8.73 3.28Q9.31 2.86 10.01 2.6Q10.39 2.46 10.78 2.37Q11.38 2.25 12 2.25Q12.61 2.25 13.21 2.37Q13.6 2.46 13.98 2.6Q14.68 2.86 15.26 3.28Q15.48 3.44 15.68 3.62Q16.21 4.09 16.56 4.67Q16.71 4.91 16.83 5.17Q17.07 5.69 17.17 6.23Q17.18 6.25 17.18 6.28ZM5.75 7.78L5.75 12.17Q5.75 13.32 5.91 14.45Q6.06 15.55 6.37 16.62Q6.48 16.99 6.65 17.34Q6.78 17.62 6.94 17.88Q7.13 18.18 7.35 18.44Q7.57 18.69 7.81 18.91Q8.09 19.16 8.4 19.37Q8.66 19.53 8.93 19.67Q9.24 19.81 9.55 19.92Q9.89 20.02 10.24 20.08L10.4 20.11Q11.2 20.25 12 20.25Q12.79 20.25 13.59 20.11L13.75 20.08Q14.1 20.02 14.44 19.92Q14.75 19.81 15.06 19.67Q15.33 19.53 15.59 19.37Q15.9 19.16 16.18 18.91Q16.42 18.69 16.64 18.44Q16.86 18.18 17.05 17.88Q17.21 17.62 17.34 17.34Q17.51 16.99 17.62 16.62Q17.93 15.55 18.08 14.45Q18.25 13.32 18.25 12.17L18.25 7.78L5.75 7.78Z" fill="#7F7667" fill-opacity="1.000000" fill-rule="evenodd"/>
		<path d="M9.27 12.02L9.25 12C9.25 11.58 9.58 11.25 10 11.25C10.41 11.25 10.75 11.58 10.75 12L10.73 12.02L9.27 12.02ZM10.73 15.98L10.75 16C10.75 16.42 10.41 16.75 10 16.75C9.58 16.75 9.25 16.42 9.25 16L9.27 15.98L10.73 15.98ZM13.27 12.02L13.25 12C13.25 11.58 13.58 11.25 14 11.25C14.41 11.25 14.75 11.58 14.75 12L14.73 12.02L13.27 12.02ZM14.73 15.98L14.75 16C14.75 16.42 14.41 16.75 14 16.75C13.58 16.75 13.25 16.42 13.25 16L13.27 15.98L14.73 15.98Z" fill="#E9E1D8" fill-opacity="1.000000" fill-rule="nonzero"/>
		<path d="M10 12L10 16M14 12L14 " stroke="#7F7667" stroke-opacity="1.000000" stroke-width="1.500000"/>
	</g>
</svg>
