<svg width="24.000000" height="24.000000" viewBox="0 0 24 24" fill="none" xmlns="http://www.w3.org/2000/svg" xmlns:xlink="http://www.w3.org/1999/xlink">
	<desc>
			Created with Pixso.
	</desc>
	<defs>
		<clipPath id="clip6_2968">
			<rect width="24.000000" height="24.000000" fill="white" fill-opacity="0"/>
		</clipPath>
	</defs>
	<g clip-path="url(#clip6_2968)">
		<path d="M12.31 3.02C13.28 3.14 14 3.97 14 4.94L14 6.32C15.71 6.93 17.06 8.28 17.67 9.99L19.05 9.99C20.02 9.99 20.85 10.71 20.97 11.68C21 11.89 21 12.1 20.97 12.31C20.85 13.28 20.02 14 19.05 14L17.67 14C17.06 15.71 15.71 17.06 14 17.67L14 19.05C14 20.02 13.28 20.85 12.31 20.97C12.1 21 11.89 21 11.68 20.97C10.71 20.85 9.99 20.02 9.99 19.05L9.99 17.67C8.28 17.06 6.93 15.71 6.32 14L4.94 14C3.97 14 3.14 13.28 3.02 12.31C2.99 12.1 2.99 11.89 3.02 11.68C3.14 10.71 3.97 9.99 4.94 9.99L6.32 9.99C6.93 8.28 8.28 6.93 9.99 6.32L9.99 4.94C9.99 3.97 10.71 3.14 11.68 3.02C11.89 2.99 12.1 2.99 12.31 3.02Z" fill="#E9E1D8" fill-opacity="1.000000" fill-rule="nonzero"/>
		<path d="M12.31 3.02C12.1 2.99 11.89 2.99 11.68 3.02C10.71 3.14 9.99 3.97 9.99 4.94L9.99 6.32C8.28 6.93 6.93 8.28 6.32 9.99L4.94 9.99C3.97 9.99 3.14 10.71 3.02 11.68C2.99 11.89 2.99 12.1 3.02 12.31C3.14 13.28 3.97 14 4.94 14L6.32 14C6.93 15.71 8.28 17.06 9.99 17.67L9.99 19.05C9.99 20.02 10.71 20.85 11.68 20.97C11.89 21 12.1 21 12.31 20.97C13.28 20.85 14 20.02 14 19.05L14 17.67C15.71 17.06 17.06 15.71 17.67 14L19.05 14C20.02 14 20.85 13.28 20.97 12.31C21 12.1 21 11.89 20.97 11.68C20.85 10.71 20.02 9.99 19.05 9.99L17.67 9.99C17.06 8.28 15.71 6.93 14 6.32L14 4.94C14 3.97 13.28 3.14 12.31 3.02Z" stroke="#7F7667" stroke-opacity="1.000000" stroke-width="1.500000" stroke-linejoin="round"/>
		<path d="M9.5 12C9.5 10.61 10.61 9.5 12 9.5C13.38 9.5 14.5 10.61 14.5 12C14.5 13.38 13.38 14.5 12 14.5C10.61 14.5 9.5 13.38 9.5 12Z" stroke="#7F7667" stroke-opacity="1.000000" stroke-width="1.500000"/>
	</g>
</svg>
