<svg width="24.000000" height="24.000000" viewBox="0 0 24 24" fill="none" xmlns="http://www.w3.org/2000/svg" xmlns:xlink="http://www.w3.org/1999/xlink">
	<desc>
			Created with Pixso.
	</desc>
	<defs>
		<clipPath id="clip6_2983">
			<rect width="24.000000" height="24.000000" fill="white" fill-opacity="0"/>
		</clipPath>
	</defs>
	<g clip-path="url(#clip6_2983)">
		<path d="M2.42 8.71C3.11 6.07 5.22 4.04 7.87 3.48L8.37 3.37C10.76 2.87 13.23 2.87 15.62 3.37L16.12 3.48C18.77 4.04 20.88 6.07 21.57 8.71C22.14 10.86 22.14 13.13 21.57 15.28C20.88 17.92 18.77 19.95 16.12 20.51L15.62 20.62C13.23 21.12 10.76 21.12 8.37 20.62L7.87 20.51C5.22 19.95 3.11 17.92 2.42 15.28C1.85 13.13 1.85 10.86 2.42 8.71Z" fill="#E9E1D8" fill-opacity="1.000000" fill-rule="nonzero"/>
		<path d="M8.37 3.37C10.76 2.87 13.23 2.87 15.62 3.37L16.12 3.48C18.77 4.04 20.88 6.07 21.57 8.71C22.14 10.86 22.14 13.13 21.57 15.28C20.88 17.92 18.77 19.95 16.12 20.51L15.62 20.62C13.23 21.12 10.76 21.12 8.37 20.62L7.87 20.51C5.22 19.95 3.11 17.92 2.42 15.28C1.85 13.13 1.85 10.86 2.42 8.71C3.11 6.07 5.22 4.04 7.87 3.48L8.37 3.37Z" stroke="#7F7667" stroke-opacity="1.000000" stroke-width="1.500000"/>
		<path d="M6.02 12.73L6 12.75C5.58 12.75 5.25 12.41 5.25 12C5.25 11.58 5.58 11.25 6 11.25L6.02 11.27L6.02 12.73ZM17.98 11.27L18 11.25C18.41 11.25 18.75 11.58 18.75 12C18.75 12.41 18.41 12.75 18 12.75L17.98 12.73L17.98 11.27Z" fill="#E9E1D8" fill-opacity="1.000000" fill-rule="nonzero"/>
		<path d="M6 12L8 12L10 15L14 9L16 12L18 " stroke="#7F7667" stroke-opacity="1.000000" stroke-width="1.500000" stroke-linejoin="round" stroke-linecap="round"/>
	</g>
</svg>
