<svg width="24.000000" height="24.000000" viewBox="0 0 24 24" fill="none" xmlns="http://www.w3.org/2000/svg" xmlns:xlink="http://www.w3.org/1999/xlink">
	<desc>
			Created with Pixso.
	</desc>
	<defs>
		<clipPath id="clip6_2992">
			<rect width="24.000000" height="24.000000" fill="white" fill-opacity="0"/>
		</clipPath>
	</defs>
	<g clip-path="url(#clip6_2992)">
		<path d="M15.87 19.48L16.05 19.36C16.62 18.97 16.9 18.77 17.15 18.56C18.52 17.42 19.45 15.84 19.75 14.09C19.81 13.76 19.84 13.42 19.9 12.74L19.93 12.39C20.03 11.26 20.02 10.12 19.9 9L19.86 8.65C19.66 6.67 18.45 4.94 16.66 4.07C13.72 2.64 10.27 2.64 7.33 4.07C5.54 4.94 4.33 6.67 4.13 8.65L4.09 9C3.97 10.12 3.96 11.26 4.06 12.39L4.09 12.74C4.15 13.42 4.18 13.76 4.24 14.09C4.54 15.84 5.47 17.42 6.84 18.56C7.09 18.77 7.37 18.97 7.94 19.36L8.12 19.48C8.89 20.01 9.27 20.28 9.66 20.46C11.13 21.17 12.86 21.17 14.33 20.46C14.72 20.28 15.1 20.01 15.87 19.48Z" fill="#E9E1D8" fill-opacity="1.000000" fill-rule="evenodd"/>
		<path d="M15.87 19.48C15.1 20.01 14.72 20.28 14.33 20.46C12.86 21.17 11.13 21.17 9.66 20.46C9.27 20.28 8.89 20.01 8.12 19.48L7.94 19.36C7.37 18.97 7.09 18.77 6.84 18.56C5.47 17.42 4.54 15.84 4.24 14.09C4.18 13.76 4.15 13.42 4.09 12.74L4.06 12.39C3.96 11.26 3.97 10.12 4.09 9L4.13 8.65C4.33 6.67 5.54 4.94 7.33 4.07C10.27 2.64 13.72 2.64 16.66 4.07C18.45 4.94 19.66 6.67 19.86 8.65L19.9 9C20.02 10.12 20.03 11.26 19.93 12.39L19.9 12.74C19.84 13.42 19.81 13.76 19.75 14.09C19.45 15.84 18.52 17.42 17.15 18.56C16.9 18.77 16.62 18.97 16.05 19.36L15.87 19.48Z" stroke="#7F7667" stroke-opacity="1.000000" stroke-width="1.500000"/>
		<path d="M8.74 12.28L8.71 12.28C8.42 11.98 8.42 11.51 8.71 11.21C9.01 10.92 9.48 10.92 9.78 11.21L9.78 11.24L8.74 12.28ZM14.2 9.51L14.2 9.48C14.48 9.18 14.95 9.16 15.26 9.45C15.56 9.73 15.58 10.2 15.29 10.51L15.27 10.51L14.2 9.51Z" fill="#E9E1D8" fill-opacity="1.000000" fill-rule="nonzero"/>
		<path d="M9.25 11.75L11.25 13.75L14.75 " stroke="#7F7667" stroke-opacity="1.000000" stroke-width="1.500000" stroke-linejoin="round" stroke-linecap="round"/>
	</g>
</svg>
