<svg width="24.000000" height="24.000000" viewBox="0 0 24 24" fill="none" xmlns="http://www.w3.org/2000/svg" xmlns:xlink="http://www.w3.org/1999/xlink">
	<desc>
			Created with Pixso.
	</desc>
	<defs>
		<clipPath id="clip6_2759">
			<rect width="24.000000" height="24.000000" fill="white" fill-opacity="0"/>
		</clipPath>
	</defs>
	<g clip-path="url(#clip6_2759)">
		<path d="M2.88 8.84C3.55 6.13 5.7 4.04 8.43 3.44L8.88 3.34C10.93 2.88 13.06 2.88 15.11 3.34L15.56 3.44C18.29 4.04 20.44 6.13 21.11 8.84C21.62 10.91 21.62 13.08 21.11 15.15C20.44 17.86 18.29 19.95 15.56 20.55L15.11 20.65C13.06 21.11 10.93 21.11 8.88 20.65L8.43 20.55C5.7 19.95 3.55 17.86 2.88 15.15C2.37 13.08 2.37 10.91 2.88 8.84ZM3.89 7.1L3.86 7.11C3.52 6.86 3.44 6.4 3.69 6.06C3.93 5.72 4.39 5.64 4.73 5.89L4.74 5.91L3.89 7.1ZM19.25 5.91L19.26 5.89C19.6 5.64 20.06 5.72 20.3 6.06C20.55 6.4 20.47 6.86 20.13 7.11L20.1 7.1L19.25 5.91Z" fill="#E9E1D8" fill-opacity="1.000000" fill-rule="nonzero"/>
		<path d="M8.88 3.34C10.93 2.88 13.06 2.88 15.11 3.34L15.56 3.44C18.29 4.04 20.44 6.13 21.11 8.84C21.62 10.91 21.62 13.08 21.11 15.15C20.44 17.86 18.29 19.95 15.56 20.55L15.11 20.65C13.06 21.11 10.93 21.11 8.88 20.65L8.43 20.55C5.7 19.95 3.55 17.86 2.88 15.15C2.37 13.08 2.37 10.91 2.88 8.84C3.55 6.13 5.7 4.04 8.43 3.44L8.88 3.34ZM4.3 6.5L10.08 10.63C11.22 11.44 12.77 11.44 13.91 10.63L19.69 " stroke="#7F7667" stroke-opacity="1.000000" stroke-width="1.500000" stroke-linecap="round"/>
	</g>
</svg>
