<svg width="24.000000" height="24.000000" viewBox="0 0 24 24" fill="none" xmlns="http://www.w3.org/2000/svg" xmlns:xlink="http://www.w3.org/1999/xlink">
	<desc>
			Created with Pixso.
	</desc>
	<defs>
		<clipPath id="clip6_2805">
			<rect width="24.000000" height="24.000000" fill="white" fill-opacity="0"/>
		</clipPath>
	</defs>
	<g clip-path="url(#clip6_2805)">
		<path d="M3.35 8.95C4 6.17 6.17 4 8.95 3.35C10.95 2.88 13.04 2.88 15.04 3.35C17.82 4 19.99 6.17 20.64 8.95C21.11 10.95 21.11 13.04 20.64 15.04C19.99 17.82 17.82 19.99 15.04 20.64C13.04 21.11 10.95 21.11 8.95 20.64C6.17 19.99 4 17.82 3.35 15.04C2.88 13.04 2.88 10.95 3.35 8.95Z" fill="#E9E1D8" fill-opacity="1.000000" fill-rule="nonzero"/>
		<path d="M3.35 8.95C4 6.17 6.17 4 8.95 3.35C10.95 2.88 13.04 2.88 15.04 3.35C17.82 4 19.99 6.17 20.64 8.95C21.11 10.95 21.11 13.04 20.64 15.04C19.99 17.82 17.82 19.99 15.04 20.64C13.04 21.11 10.95 21.11 8.95 20.64C6.17 19.99 4 17.82 3.35 15.04C2.88 13.04 2.88 10.95 3.35 8.95Z" stroke="#7F7667" stroke-opacity="1.000000" stroke-width="1.500000"/>
		<path d="M9.05 12C9.05 12.55 8.59 13 8.02 13C7.45 13 7 12.55 7 12C7 11.44 7.45 11 8.02 11C8.59 11 9.05 11.44 9.05 12ZM13.02 12C13.02 12.55 12.56 13 12 13C11.43 13 10.97 12.55 10.97 12C10.97 11.44 11.43 11 12 11C12.56 11 13.02 11.44 13.02 12ZM15.97 13C16.54 13 17 12.55 17 12C17 11.44 16.54 11 15.97 11C15.4 11 14.94 11.44 14.94 12C14.94 12.55 15.4 13 15.97 13Z" fill="#7F7667" fill-opacity="1.000000" fill-rule="evenodd"/>
	</g>
</svg>
