<svg width="24.000000" height="24.000000" viewBox="0 0 24 24" fill="none" xmlns="http://www.w3.org/2000/svg" xmlns:xlink="http://www.w3.org/1999/xlink">
	<desc>
			Created with Pixso.
	</desc>
	<defs>
		<clipPath id="clip6_2783">
			<rect width="24.000000" height="24.000000" fill="white" fill-opacity="0"/>
		</clipPath>
	</defs>
	<g clip-path="url(#clip6_2783)">
		<path d="M19.61 10.61L19.58 10.62C19.23 10.39 19.14 9.93 19.37 9.58C19.6 9.23 20.06 9.14 20.41 9.37L20.42 9.4L19.61 10.61ZM20.42 14.59L20.41 14.62C20.06 14.85 19.6 14.76 19.37 14.41C19.14 14.06 19.23 13.6 19.58 13.37L19.61 13.38L20.42 14.59Z" fill="#E9E1D8" fill-opacity="1.000000" fill-rule="nonzero"/>
		<path d="M20 10C20.59 10.39 21 11.14 21 12C21 12.85 20.59 13.6 20 " stroke="#7F7667" stroke-opacity="1.000000" stroke-width="1.500000" stroke-linejoin="round" stroke-linecap="round"/>
		<path d="M9.31 7L8.52 7C7.62 7 6.74 7.15 5.89 7.44C4.42 7.94 3.35 9.19 3.1 10.69L3.1 10.74C2.96 11.57 2.96 12.42 3.1 13.25L3.1 13.3C3.35 14.8 4.42 16.05 5.89 16.55C6.74 16.84 7.62 16.99 8.52 16.99L9.31 16.99C9.79 16.99 10.25 17.18 10.59 17.51L11.17 18.09C12.89 19.79 15.85 18.98 16.43 16.66C17.18 13.59 17.18 10.4 16.43 7.33C15.85 5.01 12.89 4.2 11.17 5.9L10.59 6.48C10.25 6.81 9.79 7 9.31 7Z" fill="#E9E1D8" fill-opacity="1.000000" fill-rule="nonzero"/>
		<path d="M9.31 7C9.79 7 10.25 6.81 10.59 6.48L11.17 5.9C12.89 4.2 15.85 5.01 16.43 7.33C17.18 10.4 17.18 13.59 16.43 16.66C15.85 18.98 12.89 19.79 11.17 18.09L10.59 17.51C10.25 17.18 9.79 16.99 9.31 16.99L8.52 16.99C7.62 16.99 6.74 16.84 5.89 16.55C4.42 16.05 3.35 14.8 3.1 13.3L3.1 13.25C2.96 12.42 2.96 11.57 3.1 10.74L3.1 10.69C3.35 9.19 4.42 7.94 5.89 7.44C6.74 7.15 7.62 7 8.52 7L9.31 7Z" stroke="#7F7667" stroke-opacity="1.000000" stroke-width="1.500000"/>
	</g>
</svg>
