<svg width="24.000000" height="24.000000" viewBox="0 0 24 24" fill="none" xmlns="http://www.w3.org/2000/svg" xmlns:xlink="http://www.w3.org/1999/xlink">
	<desc>
			Created with Pixso.
	</desc>
	<defs>
		<clipPath id="clip6_2730">
			<rect width="24.000000" height="24.000000" fill="white" fill-opacity="0"/>
		</clipPath>
	</defs>
	<g clip-path="url(#clip6_2730)">
		<path d="M17 12C17 14.76 14.76 17 12 17C9.23 17 7 14.76 7 12C7 9.23 9.23 7 12 7C14.76 7 17 9.23 17 12Z" fill="#E9E1D8" fill-opacity="1.000000" fill-rule="nonzero"/>
		<path d="M12 17C9.23 17 7 14.76 7 12C7 9.23 9.23 7 12 7C14.76 7 17 9.23 17 12C17 14.76 14.76 17 12 17Z" stroke="#7F7667" stroke-opacity="1.000000" stroke-width="1.500000"/>
		<path d="M18.84 6.19L18.84 6.21C18.54 6.51 18.07 6.51 17.78 6.21C17.48 5.92 17.48 5.45 17.78 5.15L17.8 5.15L18.84 6.19ZM17.89 5.06L17.89 5.04C18.19 4.74 18.66 4.74 18.95 5.04C19.25 5.33 19.25 5.8 18.95 6.1L18.93 6.1L17.89 5.06ZM6.1 18.93L6.1 18.95C5.8 19.25 5.33 19.25 5.04 18.95C4.74 18.66 4.74 18.19 5.04 17.89L5.06 17.89L6.1 18.93ZM5.15 17.8L5.15 17.78C5.45 17.48 5.92 17.48 6.21 17.78C6.51 18.07 6.51 18.54 6.21 18.84L6.19 18.84L5.15 17.8ZM12.73 3.05L12.75 3.07C12.75 3.49 12.41 3.82 12 3.82C11.58 3.82 11.25 3.49 11.25 3.07L11.27 3.05L12.73 3.05ZM11.27 3.02L11.25 3C11.25 2.57 11.58 2.25 12 2.25C12.41 2.25 12.75 2.57 12.75 3L12.73 3.02L11.27 3.02ZM12.73 20.98L12.75 21C12.75 21.42 12.41 21.75 12 21.75C11.58 21.75 11.25 21.42 11.25 21L11.27 20.98L12.73 20.98ZM11.27 20.94L11.25 20.92C11.25 20.5 11.58 20.17 12 20.17C12.41 20.17 12.75 20.5 12.75 20.92L12.73 20.94L11.27 20.94ZM3.05 11.27L3.07 11.25C3.49 11.25 3.82 11.58 3.82 12C3.82 12.42 3.49 12.75 3.07 12.75L3.05 12.73L3.05 11.27ZM3.02 12.73L3 12.75C2.58 12.75 2.25 12.42 2.25 12C2.25 11.58 2.58 11.25 3 11.25L3.02 11.27L3.02 12.73ZM20.98 11.27L21 11.25C21.41 11.25 21.75 11.58 21.75 12C21.75 12.42 21.41 12.75 21 12.75L20.98 12.73L20.98 11.27ZM20.94 12.73L20.92 12.75C20.5 12.75 20.17 12.42 20.17 12C20.17 11.58 20.5 11.25 20.92 11.25L20.94 11.27L20.94 12.73ZM6.19 5.15L6.21 5.15C6.51 5.45 6.51 5.92 6.21 6.21C5.92 6.51 5.45 6.51 5.15 6.21L5.15 6.19L6.19 5.15ZM5.06 6.1L5.04 6.1C4.74 5.8 4.74 5.33 5.04 5.04C5.33 4.74 5.8 4.74 6.1 5.04L6.1 5.06L5.06 6.1ZM18.93 17.89L18.95 17.89C19.25 18.19 19.25 18.66 18.95 18.95C18.66 19.25 18.19 19.25 17.89 18.95L17.89 18.93L18.93 17.89ZM17.8 18.84L17.78 18.84C17.48 18.54 17.48 18.07 17.78 17.78C18.07 17.48 18.54 17.48 18.84 17.78L18.84 17.8L17.8 18.84Z" fill="#E9E1D8" fill-opacity="1.000000" fill-rule="nonzero"/>
		<path d="M18.31 5.68L18.42 5.57M5.57 18.42L5.68 18.31M12 3.07L12 3M12 21L12 20.92M3.07 12L3 12M21 12L20.92 12M5.68 5.68L5.57 5.57M18.42 18.42L18.31 " stroke="#7F7667" stroke-opacity="1.000000" stroke-width="1.500000" stroke-linejoin="round"/>
	</g>
</svg>
