<svg width="24.000000" height="24.000000" viewBox="0 0 24 24" fill="none" xmlns="http://www.w3.org/2000/svg" xmlns:xlink="http://www.w3.org/1999/xlink">
	<desc>
			Created with Pixso.
	</desc>
	<defs>
		<clipPath id="clip6_2903">
			<rect width="24.000000" height="24.000000" fill="white" fill-opacity="0"/>
		</clipPath>
	</defs>
	<g clip-path="url(#clip6_2903)">
		<path d="M3.83 9.35C4.44 6.66 6.49 4.57 9.11 3.94C11.01 3.48 12.98 3.48 14.88 3.94C17.5 4.57 19.55 6.66 20.16 9.35C20.61 11.29 20.61 13.3 20.16 15.24C19.55 17.93 17.5 20.02 14.88 20.65C12.98 21.11 11.01 21.11 9.11 20.65C6.49 20.02 4.44 17.93 3.83 15.24C3.38 13.3 3.38 11.29 3.83 9.35ZM7.33 3.02L7.32 3C7.32 2.58 7.64 2.25 8.07 2.25C8.49 2.25 8.82 2.58 8.82 3L8.8 3.02L7.33 3.02ZM8.8 5.49L8.82 5.51C8.82 5.93 8.49 6.26 8.07 6.26C7.64 6.26 7.32 5.93 7.32 5.51L7.33 5.49L8.8 5.49ZM15.19 3.02L15.17 3C15.17 2.58 15.5 2.25 15.92 2.25C16.35 2.25 16.67 2.58 16.67 3L16.66 3.02L15.19 3.02ZM16.66 5.49L16.67 5.51C16.67 5.93 16.35 6.26 15.92 6.26C15.5 6.26 15.17 5.93 15.17 5.51L15.19 5.49L16.66 5.49Z" fill="#E9E1D8" fill-opacity="1.000000" fill-rule="nonzero"/>
		<path d="M3.83 9.35C4.44 6.66 6.49 4.57 9.11 3.94C11.01 3.48 12.98 3.48 14.88 3.94C17.5 4.57 19.55 6.66 20.16 9.35C20.61 11.29 20.61 13.3 20.16 15.24C19.55 17.93 17.5 20.02 14.88 20.65C12.98 21.11 11.01 21.11 9.11 20.65C6.49 20.02 4.44 17.93 3.83 15.24C3.38 13.3 3.38 11.29 3.83 9.35ZM8.07 3L8.07 5.51M15.92 3L15.92 " stroke="#7F7667" stroke-opacity="1.000000" stroke-width="1.500000"/>
		<path d="M12.02 13.73L12 13.75C11.58 13.75 11.25 13.41 11.25 13C11.25 12.58 11.58 12.25 12 12.25L12.02 12.27L12.02 13.73ZM14.98 12.27L15 12.25C15.41 12.25 15.75 12.58 15.75 13C15.75 13.41 15.41 13.75 15 13.75L14.98 13.73L14.98 12.27ZM9.02 16.73L9 16.75C8.58 16.75 8.25 16.41 8.25 16C8.25 15.58 8.58 15.25 9 15.25L9.02 15.27L9.02 16.73ZM14.98 15.27L15 15.25C15.41 15.25 15.75 15.58 15.75 16C15.75 16.41 15.41 16.75 15 16.75L14.98 16.73L14.98 15.27Z" fill="#E9E1D8" fill-opacity="1.000000" fill-rule="nonzero"/>
		<path d="M12 13L15 13M9 16L15 " stroke="#7F7667" stroke-opacity="1.000000" stroke-width="1.500000"/>
	</g>
</svg>
