<svg width="24.000000" height="24.000000" viewBox="0 0 24 24" fill="none" xmlns="http://www.w3.org/2000/svg" xmlns:xlink="http://www.w3.org/1999/xlink">
	<desc>
			Created with Pixso.
	</desc>
	<defs>
		<clipPath id="clip6_2988">
			<rect width="24.000000" height="24.000000" fill="white" fill-opacity="0"/>
		</clipPath>
	</defs>
	<g clip-path="url(#clip6_2988)">
		<path d="M3.01 12.99L3.01 7.25C3.01 5.35 4.29 3.69 6.11 3.19C6.56 3.06 7.03 3 7.5 3L8.36 3C10.04 3 12.02 4.31 12.74 6.04C13.53 6.1 14.32 6.2 15.1 6.37C17.3 6.82 19.06 8.52 19.63 10.7C20.11 12.51 20.12 14.44 19.64 16.25C19.05 18.46 17.27 20.15 15.04 20.61L14.89 20.65C12.65 21.11 10.34 21.11 8.1 20.65L7.95 20.61C5.72 20.15 3.94 18.46 3.35 16.25C3.16 15.52 3.04 14.77 3.01 14.01L3.01 14.01L3.01 13.99C2.99 13.66 2.99 13.32 3.01 12.99Z" fill="#E9E1D8" fill-opacity="1.000000" fill-rule="evenodd"/>
		<path d="M14.89 20.65C12.65 21.11 10.34 21.11 8.1 20.65L7.95 20.61C5.72 20.15 3.94 18.46 3.35 16.25C2.87 14.44 2.88 12.51 3.36 10.7C3.93 8.52 5.69 6.82 7.89 6.37C10.27 5.87 12.72 5.87 15.1 6.37C17.3 6.82 19.06 8.52 19.63 10.7C20.11 12.51 20.12 14.44 19.64 16.25C19.05 18.46 17.27 20.15 15.04 20.61L14.89 20.65ZM7.89 6.37C9.08 6.12 11.54 6.04 12.74 6.04C12.02 4.31 10.04 3 8.36 3L7.5 3C7.03 3 6.56 3.06 6.11 3.19C4.29 3.69 3.01 5.35 3.01 7.25L3.01 12.99C3.04 12.22 3.16 11.45 3.36 10.7M3.01 14.01L3.01 14.01C3.01 14 3.01 14 3.01 13.99L3.01 14.01ZM14.11 8.76L14.15 8.77C15.93 9.07 17.24 10.62 17.24 " stroke="#7F7667" stroke-opacity="1.000000" stroke-width="1.500000" stroke-linecap="round"/>
	</g>
</svg>
