<svg width="24.000000" height="24.000000" viewBox="0 0 24 24" fill="none" xmlns="http://www.w3.org/2000/svg" xmlns:xlink="http://www.w3.org/1999/xlink">
	<desc>
			Created with Pixso.
	</desc>
	<defs>
		<clipPath id="clip6_2772">
			<rect width="24.000000" height="24.000000" fill="white" fill-opacity="0"/>
		</clipPath>
	</defs>
	<g clip-path="url(#clip6_2772)">
		<path d="M13.6 3.09C12.53 2.96 11.46 2.96 10.39 3.09C10.35 3.06 10.3 3.03 10.25 3C9.9 2.83 9.48 2.95 9.28 3.27C9.17 3.3 9.06 3.32 8.95 3.35C6.17 4 4 6.17 3.35 8.95C3.32 9.06 3.3 9.17 3.27 9.28C2.95 9.48 2.83 9.9 3 10.25C3.03 10.3 3.06 10.35 3.09 10.39C2.9 11.94 2.99 13.52 3.35 15.04C4 17.82 6.17 19.99 8.95 20.64C9.29 20.72 9.64 20.79 9.99 20.84L9.38 21.13L9.37 21.16C9.55 21.54 9.99 21.7 10.37 21.51C10.61 21.4 10.76 21.18 10.79 20.94C11.59 21.01 12.4 21.01 13.2 20.94C13.23 21.18 13.38 21.4 13.62 21.51C14 21.7 14.44 21.54 14.62 21.16L14.61 21.13L14 20.84C14.35 20.79 14.7 20.72 15.04 20.64C17.82 19.99 19.99 17.82 20.64 15.04C21 13.52 21.09 11.94 20.9 10.39C20.93 10.35 20.96 10.3 20.99 10.25C21.16 9.9 21.04 9.48 20.72 9.28C20.69 9.17 20.67 9.06 20.64 8.95C19.99 6.17 17.82 4 15.04 3.35C14.93 3.32 14.82 3.3 14.71 3.27C14.51 2.95 14.09 2.83 13.74 3C13.69 3.03 13.64 3.06 13.6 3.09Z" fill="#E9E1D8" fill-opacity="1.000000" fill-rule="evenodd"/>
		<path d="M3.35 8.95C4 6.17 6.17 4 8.95 3.35C10.95 2.88 13.04 2.88 15.04 3.35C17.82 4 19.99 6.17 20.64 8.95C21.11 10.95 21.11 13.04 20.64 15.04C19.99 17.82 17.82 19.99 15.04 20.64C13.04 21.11 10.95 21.11 8.95 20.64C6.17 19.99 4 17.82 3.35 15.04C2.88 13.04 2.88 10.95 3.35 8.95ZM14.08 3.67L14.61 4.73C15.61 6.75 17.24 8.38 19.26 9.38L20.32 9.91M9.91 3.67L9.38 4.73C8.38 6.75 6.75 8.38 4.73 9.38L3.67 9.91M10.04 20.84L9.92 20.58C9.58 19.87 9.47 19.06 9.62 18.28L9.64 18.17C9.81 17.29 10.46 16.58 11.33 16.34C11.77 16.22 12.22 16.22 12.66 16.34C13.53 16.58 14.18 17.29 14.35 18.17L14.37 18.28C14.52 19.06 14.41 19.87 14.07 20.58L13.95 " stroke="#7F7667" stroke-opacity="1.000000" stroke-width="1.500000"/>
	</g>
</svg>
