<svg width="24.000000" height="24.000000" viewBox="0 0 24 24" fill="none" xmlns="http://www.w3.org/2000/svg" xmlns:xlink="http://www.w3.org/1999/xlink">
	<desc>
			Created with Pixso.
	</desc>
	<defs>
		<clipPath id="clip6_2895">
			<rect width="24.000000" height="24.000000" fill="white" fill-opacity="0"/>
		</clipPath>
	</defs>
	<g clip-path="url(#clip6_2895)">
		<path d="M9.3 10.44L13.87 5.87C14.44 5.31 15.2 5 16 5C17.65 5 19 6.34 19 7.99C19 8.79 18.68 9.55 18.12 10.12L13.55 14.69C11.56 16.67 9.07 18.08 6.35 18.76L5.46 18.98C5.19 19.05 4.94 18.8 5.01 18.53L5.23 17.64C5.91 14.92 7.32 12.43 9.3 10.44Z" fill="#E9E1D8" fill-opacity="1.000000" fill-rule="nonzero"/>
		<path d="M9.3 10.44C7.32 12.43 5.91 14.92 5.23 17.64L5.01 18.53C4.94 18.8 5.19 19.05 5.46 18.98L6.35 18.76C9.07 18.08 11.56 16.67 13.55 14.69L18.12 10.12C18.68 9.55 19 8.79 19 7.99C19 6.34 17.65 5 16 5C15.2 5 14.44 5.31 13.87 5.87L9.3 10.44ZM17.25 10.99C15.12 11.69 12.3 8.87 13 " stroke="#7F7667" stroke-opacity="1.000000" stroke-width="1.500000"/>
	</g>
</svg>
