<svg width="24.000000" height="24.000000" viewBox="0 0 24 24" fill="none" xmlns="http://www.w3.org/2000/svg" xmlns:xlink="http://www.w3.org/1999/xlink">
	<desc>
			Created with Pixso.
	</desc>
	<defs>
		<clipPath id="clip6_2810">
			<rect width="24.000000" height="24.000000" fill="white" fill-opacity="0"/>
		</clipPath>
	</defs>
	<g clip-path="url(#clip6_2810)">
		<path d="M9 11C10.93 11 12.5 9.43 12.5 7.5C12.5 5.56 10.93 4 9 4C7.06 4 5.5 5.56 5.5 7.5C5.5 9.43 7.06 11 9 11ZM6.43 14.4C4.45 14.72 3 16.43 3 18.43C3 19.29 3.7 20 4.56 20L13.43 20C14.29 20 15 19.29 15 18.43C15 16.43 13.54 14.72 11.56 14.4L11.38 14.38C9.8 14.12 8.19 14.12 6.61 14.38L6.43 14.4Z" fill="#E9E1D8" fill-opacity="1.000000" fill-rule="evenodd"/>
		<path d="M6.61 14.38C8.19 14.12 9.8 14.12 11.38 14.38L11.56 14.4C13.54 14.72 15 16.43 15 18.43C15 19.29 14.29 20 13.43 20L4.56 20C3.7 20 3 19.29 3 18.43C3 16.43 4.45 14.72 6.43 14.4L6.61 14.38ZM9 11C7.06 11 5.5 9.43 5.5 7.5C5.5 5.56 7.06 4 9 4C10.93 4 12.5 5.56 12.5 7.5C12.5 9.43 10.93 11 9 11Z" stroke="#7F7667" stroke-opacity="1.000000" stroke-width="1.500000"/>
		<path d="M15.02 11.73L15 11.75C14.58 11.75 14.25 11.42 14.25 11C14.25 10.58 14.58 10.25 15 10.25L15.02 10.27L15.02 11.73ZM15.02 4.72L15 4.75C14.58 4.75 14.25 4.42 14.25 4C14.25 3.57 14.58 3.25 15 3.25L15.02 3.27L15.02 4.72ZM17.4 20.73L17.38 20.75C16.96 20.75 16.63 20.42 16.63 20C16.63 19.58 16.96 19.25 17.38 19.25L17.4 19.27L17.4 20.73ZM16.26 15.11L16.24 15.13C15.82 15.13 15.49 14.8 15.49 14.38C15.49 13.96 15.82 13.63 16.24 13.63L16.26 13.65L16.26 15.11Z" fill="#E9E1D8" fill-opacity="1.000000" fill-rule="nonzero"/>
		<path d="M16.24 14.38C16.79 14.38 16.88 14.38 17.2 14.38C17.32 14.38 17.44 14.39 17.56 14.4C19.54 14.72 21 16.43 21 18.43C21 19.29 20.29 20 19.43 20L17.38 20M15 4C16.93 4 18.5 5.56 18.5 7.5C18.5 9.43 16.93 11 15 " stroke="#7F7667" stroke-opacity="1.000000" stroke-width="1.500000"/>
	</g>
</svg>
