<svg width="24.000000" height="24.000000" viewBox="0 0 24 24" fill="none" xmlns="http://www.w3.org/2000/svg" xmlns:xlink="http://www.w3.org/1999/xlink">
	<desc>
			Created with Pixso.
	</desc>
	<defs>
		<clipPath id="clip6_3037">
			<rect width="24.000000" height="24.000000" fill="white" fill-opacity="0"/>
		</clipPath>
	</defs>
	<g clip-path="url(#clip6_3037)">
		<path d="M6.26 4.91C4.6 5.31 3.31 6.62 2.94 8.28L2.88 8.55C2.37 10.82 2.37 13.17 2.88 15.44L2.94 15.71C3.31 17.37 4.6 18.68 6.26 19.08C8.53 19.64 10.92 19.63 13.19 19.08C14.83 18.67 16.13 17.4 16.54 15.77L16.57 15.68C16.6 15.55 16.63 15.43 16.66 15.3L16.86 15.37C16.91 15.39 16.96 15.41 17 15.43L18.69 16.27C19.98 16.91 21.5 15.98 21.5 14.54L21.5 9.81C21.5 8.29 19.82 7.37 18.53 8.17L17.04 9.09C16.97 9.14 16.9 9.19 16.84 9.25L16.79 9.31C16.72 8.98 16.65 8.64 16.57 8.31L16.54 8.22C16.13 6.59 14.83 5.32 13.19 4.91C10.92 4.36 8.53 4.35 6.26 4.91Z" fill="#E9E1D8" fill-opacity="1.000000" fill-rule="evenodd"/>
		<path d="M16.57 8.31C17.18 10.73 17.18 13.26 16.57 15.68L16.54 15.77C16.13 17.4 14.83 18.67 13.19 19.08C10.92 19.63 8.53 19.64 6.26 19.08C4.6 18.68 3.31 17.37 2.94 15.71L2.88 15.44C2.37 13.17 2.37 10.82 2.88 8.55L2.94 8.28C3.31 6.62 4.6 5.31 6.26 4.91C8.53 4.35 10.92 4.36 13.19 4.91C14.83 5.32 16.13 6.59 16.54 8.22L16.57 8.31ZM16.86 15.37C16.91 15.39 16.96 15.41 17 15.43L18.69 16.27C19.98 16.91 21.5 15.98 21.5 14.54L21.5 9.81C21.5 8.29 19.82 7.37 18.53 8.17L17.04 9.09C16.97 9.14 16.9 9.19 16.84 9.25L16.79 9.31C17.15 11.29 17.11 13.33 16.66 15.3L16.86 15.37Z" stroke="#7F7667" stroke-opacity="1.000000" stroke-width="1.500000"/>
	</g>
</svg>
