<svg width="24.000000" height="24.000000" viewBox="0 0 24 24" fill="none" xmlns="http://www.w3.org/2000/svg" xmlns:xlink="http://www.w3.org/1999/xlink">
	<desc>
			Created with Pixso.
	</desc>
	<defs>
		<clipPath id="clip6_2725">
			<rect width="24.000000" height="24.000000" fill="white" fill-opacity="0"/>
		</clipPath>
	</defs>
	<g clip-path="url(#clip6_2725)">
		<path d="M18.6 3.29C18.46 2.9 17.9 2.9 17.76 3.29L17.29 4.62C17.24 4.75 17.14 4.84 17.02 4.89L15.67 5.36C15.27 5.5 15.27 6.05 15.67 6.19L17.02 6.66C17.14 6.7 17.24 6.8 17.29 6.93L17.76 8.26C17.9 8.65 18.46 8.65 18.6 8.26L19.08 6.93C19.12 6.8 19.22 6.7 19.35 6.66L20.7 6.19C21.09 6.05 21.09 5.5 20.7 5.36L19.35 4.89C19.22 4.84 19.12 4.75 19.08 4.62L18.6 3.29ZM13.39 7.64C13.49 7.37 13.87 7.37 13.97 7.64L14.24 8.38C14.27 8.46 14.33 8.53 14.42 8.56L15.17 8.82C15.44 8.92 15.44 9.3 15.17 9.39L14.42 9.65C14.33 9.68 14.27 9.75 14.24 9.84L13.97 10.57C13.87 10.84 13.49 10.84 13.39 10.57L13.13 9.84C13.1 9.75 13.03 9.68 12.94 9.65L12.2 9.39C11.93 9.3 11.93 8.92 12.2 8.82L12.94 8.56C13.03 8.53 13.1 8.46 13.13 8.38L13.39 7.64ZM16.3 10.91C16.37 10.73 16.62 10.73 16.69 10.91L16.86 11.4C16.88 11.45 16.93 11.5 16.99 11.52L17.48 11.69C17.67 11.76 17.67 12.01 17.48 12.07L16.99 12.25C16.93 12.27 16.88 12.31 16.86 12.37L16.69 12.86C16.62 13.04 16.37 13.04 16.3 12.86L16.13 12.37C16.11 12.31 16.06 12.27 16 12.25L15.51 12.07C15.32 12.01 15.32 11.76 15.51 11.69L16 11.52C16.06 11.5 16.11 11.45 16.13 11.4L16.3 10.91Z" fill="#7F7667" fill-opacity="1.000000" fill-rule="evenodd"/>
		<path d="M3 13.45C3 17.62 6.47 21 10.75 21C14.05 21 16.87 18.99 18 16.17C17.11 16.58 16.11 16.81 15.07 16.81C11.26 16.81 8.17 13.81 8.17 10.1C8.17 8.56 8.71 7.13 9.62 6C5.87 6.53 3 9.67 3 13.45Z" fill="#E9E1D8" fill-opacity="1.000000" fill-rule="evenodd"/>
		<path d="M3 13.45C3 9.67 5.87 6.53 9.62 6C8.71 7.13 8.17 8.56 8.17 10.1C8.17 13.81 11.26 16.81 15.07 16.81C16.11 16.81 17.11 16.58 18 16.17C16.87 18.99 14.05 21 10.75 21C6.47 21 3 17.62 3 13.45Z" stroke="#7F7667" stroke-opacity="1.000000" stroke-width="1.500000" stroke-linejoin="round"/>
	</g>
</svg>
