<svg width="24.000000" height="24.000000" viewBox="0 0 24 24" fill="none" xmlns="http://www.w3.org/2000/svg" xmlns:xlink="http://www.w3.org/1999/xlink">
	<desc>
			Created with Pixso.
	</desc>
	<defs>
		<clipPath id="clip6_3100">
			<rect width="24.000000" height="24.000000" fill="white" fill-opacity="0"/>
		</clipPath>
	</defs>
	<g clip-path="url(#clip6_3100)">
		<circle cx="12.000000" cy="12.000000" r="9.000000" fill="#E9E1D8" fill-opacity="1.000000"/>
		<path d="M2.27 12.17L2.25 12.15C2.25 11.73 2.58 11.4 3 11.4C3.41 11.4 3.75 11.73 3.75 12.15L3.72 12.17L2.27 12.17ZM2.27 3.02L2.25 3C2.25 2.58 2.58 2.25 3 2.25C3.41 2.25 3.75 2.58 3.75 3L3.72 3.02L2.27 3.02ZM7.63 7.49L7.65 7.47C8.07 7.47 8.4 7.8 8.4 8.22C8.4 8.64 8.07 8.97 7.65 8.97L7.63 8.95L7.63 7.49Z" fill="#E9E1D8" fill-opacity="1.000000" fill-rule="nonzero"/>
		<path d="M3 8.22C3 8.22 6 3.3 12 3.3C17 3.3 21 7.26 21 12.15C21 17.03 16.97 21 12 21C7.02 21 3 17.03 3 12.15M7.65 8.22L3 8.22L3 " stroke="#7F7667" stroke-opacity="1.000000" stroke-width="1.500000" stroke-linejoin="round"/>
	</g>
</svg>
