<svg width="24.000000" height="24.000000" viewBox="0 0 24 24" fill="none" xmlns="http://www.w3.org/2000/svg" xmlns:xlink="http://www.w3.org/1999/xlink">
	<desc>
			Created with Pixso.
	</desc>
	<defs>
		<clipPath id="clip6_2786">
			<rect width="24.000000" height="24.000000" fill="white" fill-opacity="0"/>
		</clipPath>
	</defs>
	<g clip-path="url(#clip6_2786)">
		<path d="M7.86 7L7.12 7C6.29 7 5.47 7.15 4.69 7.44C3.32 7.94 2.32 9.19 2.1 10.69L2.09 10.74C1.96 11.57 1.96 12.42 2.09 13.25L2.1 13.3C2.32 14.8 3.32 16.05 4.69 16.55C5.47 16.84 6.29 16.99 7.12 16.99L7.86 16.99C8.31 16.99 8.73 17.18 9.04 17.51L9.59 18.09C11.18 19.79 13.93 18.98 14.47 16.66C15.17 13.59 15.17 10.4 14.47 7.33C13.93 5.01 11.18 4.2 9.59 5.9L9.04 6.48C8.73 6.81 8.31 7 7.86 7Z" fill="#E9E1D8" fill-opacity="1.000000" fill-rule="nonzero"/>
		<path d="M7.86 7C8.31 7 8.73 6.81 9.04 6.48L9.59 5.9C11.18 4.2 13.93 5.01 14.47 7.33C15.17 10.4 15.17 13.59 14.47 16.66C13.93 18.98 11.18 19.79 9.59 18.09L9.04 17.51C8.73 17.18 8.31 16.99 7.86 16.99L7.12 16.99C6.29 16.99 5.47 16.84 4.69 16.55C3.32 16.05 2.32 14.8 2.1 13.3L2.09 13.25C1.96 12.42 1.96 11.57 2.09 10.74L2.1 10.69C2.32 9.19 3.32 7.94 4.69 7.44C5.47 7.15 6.29 7 7.12 7L7.86 7Z" stroke="#7F7667" stroke-opacity="1.000000" stroke-width="1.500000"/>
		<path d="M21.46 9.49L21.46 9.46C21.76 9.17 22.23 9.17 22.53 9.46C22.82 9.76 22.82 10.23 22.53 10.53L22.5 10.53L21.46 9.49ZM18.53 14.5L18.53 14.53C18.23 14.82 17.76 14.82 17.46 14.53C17.17 14.23 17.17 13.76 17.46 13.46L17.49 13.46L18.53 14.5ZM22.5 13.46L22.53 13.46C22.82 13.76 22.82 14.23 22.53 14.53C22.23 14.82 21.76 14.82 21.46 14.53L21.46 14.5L22.5 13.46ZM17.49 10.53L17.46 10.53C17.17 10.23 17.17 9.76 17.46 9.46C17.76 9.17 18.23 9.17 18.53 9.46L18.53 9.49L17.49 10.53Z" fill="#E9E1D8" fill-opacity="1.000000" fill-rule="nonzero"/>
		<path d="M22 10L18 14M22 14L18 " stroke="#7F7667" stroke-opacity="1.000000" stroke-width="1.500000"/>
	</g>
</svg>
