<svg width="24.000000" height="24.000000" viewBox="0 0 24 24" fill="none" xmlns="http://www.w3.org/2000/svg" xmlns:xlink="http://www.w3.org/1999/xlink">
	<desc>
			Created with Pixso.
	</desc>
	<defs>
		<clipPath id="clip6_2870">
			<rect width="24.000000" height="24.000000" fill="white" fill-opacity="0"/>
		</clipPath>
	</defs>
	<g clip-path="url(#clip6_2870)">
		<path d="M9.02 9.72L9 9.75C8.58 9.75 8.25 9.41 8.25 9C8.25 8.58 8.58 8.25 9 8.25L9.02 8.27L9.02 9.72ZM12.98 8.27L13 8.25C13.41 8.25 13.75 8.58 13.75 9C13.75 9.41 13.41 9.75 13 9.75L12.98 9.72L12.98 8.27ZM9.02 15.73L9 15.75C8.58 15.75 8.25 15.41 8.25 15C8.25 14.58 8.58 14.25 9 14.25L9.02 14.27L9.02 15.73ZM11.98 14.27L12 14.25C12.41 14.25 12.75 14.58 12.75 15C12.75 15.41 12.41 15.75 12 15.75L11.98 15.73L11.98 14.27ZM9.02 12.73L9 12.75C8.58 12.75 8.25 12.41 8.25 12C8.25 11.58 8.58 11.25 9 11.25L9.02 11.27L9.02 12.73ZM14.98 11.27L15 11.25C15.41 11.25 15.75 11.58 15.75 12C15.75 12.41 15.41 12.75 15 12.75L14.98 12.73L14.98 11.27Z" fill="#E9E1D8" fill-opacity="1.000000" fill-rule="nonzero"/>
		<path d="M9 9L13 9M9 15L12 15M9 12L15 " stroke="#7F7667" stroke-opacity="1.000000" stroke-width="1.500000"/>
		<path d="M3.35 8.95C4 6.17 6.17 4 8.95 3.35C10.95 2.88 13.04 2.88 15.04 3.35C17.82 4 19.99 6.17 20.64 8.95C21.11 10.95 21.11 13.04 20.64 15.04C19.99 17.82 17.82 19.99 15.04 20.64C13.04 21.11 10.95 21.11 8.95 20.64C6.17 19.99 4 17.82 3.35 15.04C2.88 13.04 2.88 10.95 3.35 8.95Z" fill="#E9E1D8" fill-opacity="1.000000" fill-rule="nonzero"/>
		<path d="M3.35 8.95C4 6.17 6.17 4 8.95 3.35C10.95 2.88 13.04 2.88 15.04 3.35C17.82 4 19.99 6.17 20.64 8.95C21.11 10.95 21.11 13.04 20.64 15.04C19.99 17.82 17.82 19.99 15.04 20.64C13.04 21.11 10.95 21.11 8.95 20.64C6.17 19.99 4 17.82 3.35 15.04C2.88 13.04 2.88 10.95 3.35 8.95Z" stroke="#7F7667" stroke-opacity="1.000000" stroke-width="1.500000"/>
	</g>
</svg>
