<svg width="24.000000" height="24.000000" viewBox="0 0 24 24" fill="none" xmlns="http://www.w3.org/2000/svg" xmlns:xlink="http://www.w3.org/1999/xlink">
	<desc>
			Created with Pixso.
	</desc>
	<defs>
		<clipPath id="clip6_2940">
			<rect width="24.000000" height="24.000000" fill="white" fill-opacity="0"/>
		</clipPath>
	</defs>
	<g clip-path="url(#clip6_2940)">
		<path d="M16 12C16 14.2 14.2 16 12 16C9.79 16 8 14.2 8 12C8 9.79 9.79 8 12 8C14.2 8 16 9.79 16 12Z" fill="#E9E1D8" fill-opacity="1.000000" fill-rule="nonzero"/>
		<path d="M12 16C14.2 16 16 14.2 16 12C16 9.79 14.2 8 12 8C9.79 8 8 9.79 8 12C8 14.2 9.79 16 12 16ZM12.58 14.43Q12.29 14.5 12 14.5Q11.7 14.5 11.41 14.43Q11.21 14.38 11.02 14.3Q10.82 14.21 10.64 14.1Q10.42 13.95 10.23 13.76Q10.04 13.57 9.89 13.35Q9.78 13.17 9.69 12.97Q9.61 12.78 9.56 12.58Q9.5 12.29 9.5 12Q9.5 11.7 9.56 11.41Q9.61 11.21 9.69 11.02Q9.78 10.82 9.89 10.64Q10.04 10.42 10.23 10.23Q10.42 10.04 10.64 9.89Q10.82 9.78 11.02 9.69Q11.21 9.61 11.41 9.56Q11.7 9.5 12 9.5Q12.29 9.5 12.58 9.56Q12.78 9.61 12.97 9.69Q13.17 9.78 13.35 9.89Q13.57 10.04 13.76 10.23Q13.95 10.42 14.1 10.64Q14.21 10.82 14.3 11.02Q14.38 11.21 14.43 11.41Q14.5 11.7 14.5 12Q14.5 12.29 14.43 12.58Q14.38 12.78 14.3 12.97Q14.21 13.17 14.1 13.35Q13.95 13.57 13.76 13.76Q13.57 13.95 13.35 14.1Q13.17 14.21 12.97 14.3Q12.78 14.38 12.58 14.43Z" fill="#7F7667" fill-opacity="1.000000" fill-rule="evenodd"/>
		<path d="M20.98 11.27L21 11.25C21.41 11.25 21.75 11.58 21.75 12C21.75 12.41 21.41 12.75 21 12.75L20.98 12.73L20.98 11.27ZM18.02 12.73L18 12.75C17.58 12.75 17.25 12.41 17.25 12C17.25 11.58 17.58 11.25 18 11.25L18.02 11.27L18.02 12.73Z" fill="#E9E1D8" fill-opacity="1.000000" fill-rule="nonzero"/>
		<path d="M18 11.25L21 11.25L21 12.75L18 12.75L18 11.25ZM20.98 11.27L21 11.25C21.41 11.25 21.75 11.58 21.75 12C21.75 12.41 21.41 12.75 21 12.75L20.98 12.73L20.98 11.27ZM18.02 12.73L18 12.75C17.58 12.75 17.25 12.41 17.25 12C17.25 11.58 17.58 11.25 18 11.25L18.02 11.27L18.02 12.73Z" fill="#7F7667" fill-opacity="1.000000" fill-rule="evenodd"/>
		<path d="M3.02 12.73L3 12.75C2.58 12.75 2.25 12.41 2.25 12C2.25 11.58 2.58 11.25 3 11.25L3.02 11.27L3.02 12.73ZM5.97 11.27L6 11.25C6.41 11.25 6.75 11.58 6.75 12C6.75 12.41 6.41 12.75 6 12.75L5.97 12.73L5.97 11.27Z" fill="#E9E1D8" fill-opacity="1.000000" fill-rule="nonzero"/>
		<path d="M3 11.25L6 11.25L6 12.75L3 12.75L3 11.25ZM3.02 12.73L3 12.75C2.58 12.75 2.25 12.41 2.25 12C2.25 11.58 2.58 11.25 3 11.25L3.02 11.27L3.02 12.73ZM5.97 11.27L6 11.25C6.41 11.25 6.75 11.58 6.75 12C6.75 12.41 6.41 12.75 6 12.75L5.97 12.73L5.97 11.27Z" fill="#7F7667" fill-opacity="1.000000" fill-rule="evenodd"/>
		<path d="M12.73 20.98L12.75 21C12.75 21.41 12.41 21.75 12 21.75C11.58 21.75 11.25 21.41 11.25 21L11.27 20.98L12.73 20.98ZM11.27 3.02L11.25 3C11.25 2.58 11.58 2.25 12 2.25C12.41 2.25 12.75 2.58 12.75 3L12.73 3.02L11.27 3.02ZM12.73 5.97L12.75 6C12.75 6.41 12.41 6.75 12 6.75C11.58 6.75 11.25 6.41 11.25 6L11.27 5.97L12.73 5.97ZM11.27 18.02L11.25 18C11.25 17.58 11.58 17.25 12 17.25C12.41 17.25 12.75 17.58 12.75 18L12.73 18.02L11.27 18.02Z" fill="#E9E1D8" fill-opacity="1.000000" fill-rule="nonzero"/>
		<path d="M11.25 6L11.25 3L12.75 3L12.75 6L11.25 6ZM11.25 21L11.25 18L12.75 18L12.75 21L11.25 21ZM12.73 20.98L12.75 21C12.75 21.41 12.41 21.75 12 21.75C11.58 21.75 11.25 21.41 11.25 21L11.27 20.98L12.73 20.98ZM11.27 3.02L11.25 3C11.25 2.58 11.58 2.25 12 2.25C12.41 2.25 12.75 2.58 12.75 3L12.73 3.02L11.27 3.02ZM12.73 5.97L12.75 6C12.75 6.41 12.41 6.75 12 6.75C11.58 6.75 11.25 6.41 11.25 6L11.27 5.97L12.73 5.97ZM11.27 18.02L11.25 18C11.25 17.58 11.58 17.25 12 17.25C12.41 17.25 12.75 17.58 12.75 18L12.73 18.02L11.27 18.02Z" fill="#7F7667" fill-opacity="1.000000" fill-rule="evenodd"/>
		<path d="M11.27 3.02L11.25 3C11.25 2.58 11.58 2.25 12 2.25C12.41 2.25 12.75 2.58 12.75 3L12.73 3.02L11.27 3.02ZM12.73 5.97L12.75 6C12.75 6.41 12.41 6.75 12 6.75C11.58 6.75 11.25 6.41 11.25 6L11.27 5.97L12.73 5.97Z" fill="#E9E1D8" fill-opacity="1.000000" fill-rule="nonzero"/>
		<path d="M11.25 6L11.25 3L12.75 3L12.75 6L11.25 6ZM11.27 3.02L11.25 3C11.25 2.58 11.58 2.25 12 2.25C12.41 2.25 12.75 2.58 12.75 3L12.73 3.02L11.27 3.02ZM12.73 5.97L12.75 6C12.75 6.41 12.41 6.75 12 6.75C11.58 6.75 11.25 6.41 11.25 6L11.27 5.97L12.73 5.97Z" fill="#7F7667" fill-opacity="1.000000" fill-rule="evenodd"/>
		<path d="M12.73 20.98L12.75 21C12.75 21.41 12.41 21.75 12 21.75C11.58 21.75 11.25 21.41 11.25 21L11.27 20.98L12.73 20.98ZM11.27 18.02L11.25 18C11.25 17.58 11.58 17.25 12 17.25C12.41 17.25 12.75 17.58 12.75 18L12.73 18.02L11.27 18.02Z" fill="#E9E1D8" fill-opacity="1.000000" fill-rule="nonzero"/>
		<path d="M11.25 21L11.25 18L12.75 18L12.75 21L11.25 21ZM12.73 20.98L12.75 21C12.75 21.41 12.41 21.75 12 21.75C11.58 21.75 11.25 21.41 11.25 21L11.27 20.98L12.73 20.98ZM11.27 18.02L11.25 18C11.25 17.58 11.58 17.25 12 17.25C12.41 17.25 12.75 17.58 12.75 18L12.73 18.02L11.27 18.02Z" fill="#7F7667" fill-opacity="1.000000" fill-rule="evenodd"/>
	</g>
</svg>
