<svg width="24.000000" height="24.000000" viewBox="0 0 24 24" fill="none" xmlns="http://www.w3.org/2000/svg" xmlns:xlink="http://www.w3.org/1999/xlink">
	<desc>
			Created with Pixso.
	</desc>
	<defs>
		<clipPath id="clip6_2867">
			<rect width="24.000000" height="24.000000" fill="white" fill-opacity="0"/>
		</clipPath>
	</defs>
	<g clip-path="url(#clip6_2867)">
		<path d="M3.35 8.95C4 6.17 6.17 4 8.95 3.35C10.95 2.88 13.04 2.88 15.04 3.35C17.82 4 19.99 6.17 20.64 8.95C21.11 10.95 21.11 13.04 20.64 15.04C19.99 17.82 17.82 19.99 15.04 20.64C13.04 21.11 10.95 21.11 8.95 20.64C6.17 19.99 4 17.82 3.35 15.04C2.88 13.04 2.88 10.95 3.35 8.95ZM5.24 17.7L5.24 17.73C4.95 18.02 4.48 18.02 4.18 17.73C3.89 17.43 3.89 16.96 4.18 16.67L4.21 16.67L5.24 17.7ZM17.18 19.27L17.21 19.27C17.5 19.56 17.5 20.03 17.21 20.33C16.91 20.62 16.44 20.62 16.15 20.33L16.15 20.3L17.18 19.27ZM20.35 16.71L20.37 16.72C20.64 17.04 20.6 17.5 20.28 17.77C19.95 18.04 19.49 18 19.22 17.68L19.22 17.65L20.35 16.71Z" fill="#E9E1D8" fill-opacity="1.000000" fill-rule="nonzero"/>
		<path d="M3.35 8.95C4 6.17 6.17 4 8.95 3.35C10.95 2.88 13.04 2.88 15.04 3.35C17.82 4 19.99 6.17 20.64 8.95C21.11 10.95 21.11 13.04 20.64 15.04C19.99 17.82 17.82 19.99 15.04 20.64C13.04 21.11 10.95 21.11 8.95 20.64C6.17 19.99 4 17.82 3.35 15.04C2.88 13.04 2.88 10.95 3.35 8.95ZM4.71 17.2L6.45 15.46C8.08 13.83 10.71 13.83 12.34 15.46L14.08 17.2L16.68 19.8M14.08 17.2L14.78 16.49C16.08 15.19 18.21 15.29 19.38 16.7L19.8 " stroke="#7F7667" stroke-opacity="1.000000" stroke-width="1.500000" stroke-linejoin="round"/>
		<rect x="13.000000" y="7.000000" rx="2.000000" width="4.000000" height="4.000000" stroke="#7F7667" stroke-opacity="1.000000" stroke-width="1.500000"/>
	</g>
</svg>
