<svg width="24.000000" height="24.000000" viewBox="0 0 24 24" fill="none" xmlns="http://www.w3.org/2000/svg" xmlns:xlink="http://www.w3.org/1999/xlink">
	<desc>
			Created with Pixso.
	</desc>
	<defs>
		<clipPath id="clip6_3069">
			<rect width="24.000000" height="24.000000" fill="white" fill-opacity="0"/>
		</clipPath>
	</defs>
	<g clip-path="url(#clip6_3069)">
		<path d="M11.27 6.52L11.25 6.5C11.25 6.08 11.58 5.75 12 5.75C12.41 5.75 12.75 6.08 12.75 6.5L12.73 6.52L11.27 6.52ZM15.43 12.44L15.43 12.41C15.71 12.1 16.17 12.07 16.49 12.34C16.8 12.62 16.84 13.08 16.56 13.4L16.53 13.4L15.43 12.44ZM7.46 13.4L7.43 13.4C7.15 13.08 7.19 12.62 7.5 12.34C7.82 12.07 8.28 12.1 8.56 12.41L8.56 12.44L7.46 13.4Z" fill="#E9E1D8" fill-opacity="1.000000" fill-rule="nonzero"/>
		<path d="M12 6.5L12 17.5M8 12.91L12 17.5L16 " stroke="#7F7667" stroke-opacity="1.000000" stroke-width="1.500000" stroke-linejoin="round"/>
	</g>
</svg>
