<svg width="24.000000" height="24.000000" viewBox="0 0 24 24" fill="none" xmlns="http://www.w3.org/2000/svg" xmlns:xlink="http://www.w3.org/1999/xlink">
	<desc>
			Created with Pixso.
	</desc>
	<defs>
		<clipPath id="clip6_3089">
			<rect width="24.000000" height="24.000000" fill="white" fill-opacity="0"/>
		</clipPath>
	</defs>
	<g clip-path="url(#clip6_3089)">
		<path d="M17.43 6.54L17.43 6.51C17.7 6.19 18.16 6.15 18.48 6.43C18.8 6.7 18.84 7.16 18.56 7.48L18.54 7.49L17.43 6.54ZM5.45 13.49L5.43 13.48C5.15 13.16 5.19 12.7 5.51 12.43C5.83 12.15 6.29 12.19 6.56 12.51L6.56 12.54L5.45 13.49Z" fill="#E9E1D8" fill-opacity="1.000000" fill-rule="nonzero"/>
		<path d="M6.56 12.51L9.99 16.51L9.42 17L8.85 16.51L17.43 6.51L18.56 7.48L9.99 17.48Q9.96 17.53 9.91 17.56Q9.86 17.61 9.79 17.65Q9.73 17.68 9.66 17.71Q9.59 17.73 9.51 17.74Q9.44 17.75 9.37 17.74Q9.29 17.74 9.22 17.72Q9.15 17.7 9.08 17.66Q9.02 17.63 8.96 17.58Q8.9 17.54 8.85 17.48L5.43 13.48L6.56 12.51ZM17.43 6.54L17.43 6.51C17.7 6.19 18.16 6.15 18.48 6.43C18.8 6.7 18.84 7.16 18.56 7.48L18.54 7.49L17.43 6.54ZM5.45 13.49L5.43 13.48C5.15 13.16 5.19 12.7 5.51 12.43C5.83 12.15 6.29 12.19 6.56 12.51L6.56 12.54L5.45 13.49Z" fill="#7F7667" fill-opacity="1.000000" fill-rule="evenodd"/>
	</g>
</svg>
