<svg width="24.000000" height="24.000000" viewBox="0 0 24 24" fill="none" xmlns="http://www.w3.org/2000/svg" xmlns:xlink="http://www.w3.org/1999/xlink">
	<desc>
			Created with Pixso.
	</desc>
	<defs>
		<clipPath id="clip6_2779">
			<rect width="24.000000" height="24.000000" fill="white" fill-opacity="0"/>
		</clipPath>
	</defs>
	<g clip-path="url(#clip6_2779)">
		<path d="M9.22 4.79C9.07 5.15 9 5.53 9 5.91L15 5.91L7.01 5.91C5.89 5.91 5 6.78 5 7.86L5 8.01C5 8.86 5.62 9.59 6.48 9.75C6.53 9.76 6.58 9.77 6.62 9.77C5.94 10.57 5.47 11.54 5.29 12.61L5.26 12.85C5.08 13.91 5.15 15 5.45 16.04L5.56 16.45C6.22 18.74 8.18 20.46 10.59 20.88C11.52 21.03 12.47 21.03 13.4 20.88C15.81 20.46 17.77 18.74 18.43 16.45L18.54 16.04C18.84 15 18.91 13.91 18.73 12.85L18.7 12.61C18.52 11.54 18.05 10.57 17.37 9.77C17.41 9.77 17.46 9.76 17.51 9.75C18.37 9.59 19 8.86 19 8.01L19 7.86C19 6.78 18.1 5.91 16.98 5.91L15 5.91C15 5.53 14.92 5.15 14.77 4.79C14.62 4.44 14.39 4.12 14.12 3.85C13.84 3.58 13.51 3.36 13.14 3.22C12.78 3.07 12.39 3 12 3C11.6 3 11.21 3.07 10.85 3.22C10.48 3.36 10.15 3.58 9.87 3.85C9.6 4.12 9.37 4.44 9.22 4.79Z" fill="#E9E1D8" fill-opacity="1.000000" fill-rule="evenodd"/>
		<path d="M6.62 9.77C10.17 10.41 13.82 10.41 17.37 9.77C18.05 10.57 18.52 11.54 18.7 12.61L18.73 12.85C18.91 13.91 18.84 15 18.54 16.04L18.43 16.45C17.77 18.74 15.81 20.46 13.4 20.88C12.47 21.03 11.52 21.03 10.59 20.88C8.18 20.46 6.22 18.74 5.56 16.45L5.45 16.04C5.15 15 5.08 13.91 5.26 12.85L5.29 12.61C5.47 11.54 5.94 10.57 6.62 9.77ZM16.98 5.91C18.1 5.91 19 6.78 19 7.86L19 8.01C19 8.86 18.37 9.59 17.51 9.75C13.86 10.42 10.13 10.42 6.48 9.75C5.62 9.59 5 8.86 5 8.01L5 7.86C5 6.78 5.89 5.91 7.01 5.91L16.98 5.91ZM9 5.91L15 5.91C15 5.53 14.92 5.15 14.77 4.79C14.62 4.44 14.39 4.12 14.12 3.85C13.84 3.58 13.51 3.36 13.14 3.22C12.78 3.07 12.39 3 12 3C11.6 3 11.21 3.07 10.85 3.22C10.48 3.36 10.15 3.58 9.87 3.85C9.6 4.12 9.37 4.44 9.22 4.79C9.07 5.15 9 5.53 9 5.91ZM10 12.7L10 16.59M14 12.7L14 " stroke="#7F7667" stroke-opacity="1.000000" stroke-width="1.500000"/>
	</g>
</svg>
