<svg width="24.000000" height="24.000000" viewBox="0 0 24 24" fill="none" xmlns="http://www.w3.org/2000/svg" xmlns:xlink="http://www.w3.org/1999/xlink">
	<desc>
			Created with Pixso.
	</desc>
	<defs>
		<clipPath id="clip6_2973">
			<rect width="24.000000" height="24.000000" fill="white" fill-opacity="0"/>
		</clipPath>
	</defs>
	<g clip-path="url(#clip6_2973)">
		<path d="M17.82 5.91C17.58 6.99 16.62 7.8 15.48 7.8C14.42 7.8 13.53 7.12 13.21 6.18C13.09 6.25 12.95 6.3 12.8 6.3L12.78 6.28L12.78 4.82L12.8 4.8C12.92 4.8 13.03 4.82 13.13 4.87C13.37 3.8 14.33 3 15.48 3C16.71 3 17.72 3.92 17.86 5.11C17.99 4.92 18.22 4.8 18.48 4.8L18.5 4.82L18.5 6.28L18.48 6.3C18.19 6.3 17.95 6.14 17.82 5.91ZM20.98 4.82L21 4.8C21.41 4.8 21.75 5.13 21.75 5.55C21.75 5.97 21.41 6.3 21 6.3L20.98 6.28L20.98 4.82ZM3 6.3L3.02 6.28L3.02 4.82L3 4.8C2.58 4.8 2.25 5.13 2.25 5.55C2.25 5.97 2.58 6.3 3 6.3ZM7.08 14.39C8.3 14.39 9.31 13.48 9.46 12.29C9.56 12.58 9.83 12.79 10.16 12.79L10.18 12.77L10.18 11.31L10.16 11.29C9.84 11.29 9.57 11.48 9.46 11.76C9.35 10.55 8.32 9.6 7.08 9.6C5.75 9.6 4.68 10.67 4.68 12C4.68 13.32 5.75 14.39 7.08 14.39ZM21 11.29L20.98 11.31L20.98 12.77L21 12.79C21.41 12.79 21.75 12.46 21.75 12.04C21.75 11.62 21.41 11.29 21 11.29ZM3.01 12.79L3.03 12.77L3 11.31L2.98 11.29C2.56 11.3 2.23 11.64 2.25 12.06C2.26 12.48 2.59 12.8 3.01 12.79ZM17.85 18.95C17.68 20.11 16.68 21 15.48 21C14.36 21 13.42 20.23 13.15 19.2C13.05 19.25 12.93 19.28 12.8 19.28L12.78 19.26L12.78 17.8L12.8 17.78C12.94 17.78 13.07 17.82 13.18 17.89C13.48 16.91 14.4 16.2 15.48 16.2C16.65 16.2 17.62 17.03 17.83 18.14C17.96 17.92 18.2 17.78 18.48 17.78L18.5 17.8L18.5 19.26L18.48 19.28C18.21 19.28 17.98 19.15 17.85 18.95ZM20.98 17.8L21 17.78C21.41 17.78 21.75 18.11 21.75 18.53C21.75 18.95 21.41 19.28 21 19.28L20.98 19.26L20.98 17.8ZM3.02 19.26L3 19.28C2.58 19.28 2.25 18.95 2.25 18.53C2.25 18.11 2.58 17.78 3 17.78L3.02 17.8L3.02 19.26Z" fill="#E9E1D8" fill-opacity="1.000000" fill-rule="evenodd"/>
		<path d="M18.48 18.53L21 18.53M4.68 12L3 12.04M10.16 12.04L21 12.04M12.8 5.55L3 5.55M21 5.55L18.48 5.55M3 18.53L12.8 18.53M15.48 21C14.15 21 13.08 19.92 13.08 18.6C13.08 17.27 14.15 16.2 15.48 16.2C16.8 16.2 17.87 17.27 17.87 18.6C17.87 19.92 16.8 21 15.48 21ZM7.08 14.39C5.75 14.39 4.68 13.32 4.68 12C4.68 10.67 5.75 9.6 7.08 9.6C8.4 9.6 9.47 10.67 9.47 12C9.47 13.32 8.4 14.39 7.08 14.39ZM15.48 7.8C14.15 7.8 13.08 6.72 13.08 5.39C13.08 4.07 14.15 3 15.48 3C16.8 3 17.87 4.07 17.87 5.39C17.87 6.72 16.8 7.8 15.48 7.8Z" stroke="#7F7667" stroke-opacity="1.000000" stroke-width="1.500000"/>
	</g>
</svg>
