<svg width="24.000000" height="24.000000" viewBox="0 0 24 24" fill="none" xmlns="http://www.w3.org/2000/svg" xmlns:xlink="http://www.w3.org/1999/xlink">
	<desc>
			Created with Pixso.
	</desc>
	<defs>
		<clipPath id="clip6_2978">
			<rect width="24.000000" height="24.000000" fill="white" fill-opacity="0"/>
		</clipPath>
	</defs>
	<g clip-path="url(#clip6_2978)">
		<path d="M9.08 20.62C6.72 19.99 4.92 18.1 4.43 15.71L4.33 15.25C3.88 13.1 3.88 10.89 4.33 8.74L4.43 8.28C4.92 5.89 6.72 4 9.08 3.37C10.99 2.87 13 2.87 14.91 3.37C17.27 4 19.07 5.89 19.56 8.28L19.66 8.74C20.11 10.89 20.11 13.1 19.66 15.25L19.56 15.71C19.07 18.1 17.27 19.99 14.91 20.62C13 21.12 10.99 21.12 9.08 20.62Z" fill="#E9E1D8" fill-opacity="1.000000" fill-rule="nonzero"/>
		<path d="M4.33 15.25C3.88 13.1 3.88 10.89 4.33 8.74L4.43 8.28C4.92 5.89 6.72 4 9.08 3.37C10.99 2.87 13 2.87 14.91 3.37C17.27 4 19.07 5.89 19.56 8.28L19.66 8.74C20.11 10.89 20.11 13.1 19.66 15.25L19.56 15.71C19.07 18.1 17.27 19.99 14.91 20.62C13 21.12 10.99 21.12 9.08 20.62C6.72 19.99 4.92 18.1 4.43 15.71L4.33 15.25Z" stroke="#7F7667" stroke-opacity="1.000000" stroke-width="1.500000"/>
		<path d="M11.27 7.02L11.25 7C11.25 6.58 11.58 6.25 12 6.25C12.41 6.25 12.75 6.58 12.75 7L12.73 7.02L11.27 7.02ZM12.73 8.97L12.75 9C12.75 9.41 12.41 9.75 12 9.75C11.58 9.75 11.25 9.41 11.25 9L11.27 8.97L12.73 8.97Z" fill="#E9E1D8" fill-opacity="1.000000" fill-rule="nonzero"/>
		<path d="M12 7L12 " stroke="#7F7667" stroke-opacity="1.000000" stroke-width="1.500000" stroke-linecap="round"/>
	</g>
</svg>
