<svg width="24.000000" height="24.000000" viewBox="0 0 24 24" fill="none" xmlns="http://www.w3.org/2000/svg" xmlns:xlink="http://www.w3.org/1999/xlink">
	<desc>
			Created with Pixso.
	</desc>
	<defs>
		<clipPath id="clip6_2774">
			<rect width="24.000000" height="24.000000" fill="white" fill-opacity="0"/>
		</clipPath>
	</defs>
	<g clip-path="url(#clip6_2774)">
		<path d="M11.73 3.27C9.59 3.77 7.92 5.44 7.42 7.57C7.29 8.14 7.2 8.72 7.17 9.31C7.08 9.32 7 9.34 6.92 9.36C5.09 9.79 3.66 11.22 3.23 13.05C2.92 14.37 2.92 15.75 3.23 17.07C3.66 18.9 5.09 20.33 6.92 20.76C8.24 21.07 9.62 21.07 10.94 20.76C12.77 20.33 14.2 18.9 14.63 17.07C14.65 16.99 14.67 16.91 14.68 16.82C15.27 16.79 15.85 16.7 16.42 16.57C18.55 16.07 20.22 14.4 20.72 12.26C21.09 10.72 21.09 9.11 20.72 7.57C20.22 5.44 18.55 3.77 16.42 3.27C14.88 2.9 13.27 2.9 11.73 3.27Z" fill="#E9E1D8" fill-opacity="1.000000" fill-rule="evenodd"/>
		<path d="M7.42 7.57C7.92 5.44 9.59 3.77 11.73 3.27C13.27 2.9 14.88 2.9 16.42 3.27C18.55 3.77 20.22 5.44 20.72 7.57C21.09 9.11 21.09 10.72 20.72 12.26C20.22 14.4 18.55 16.07 16.42 16.57C14.88 16.93 13.27 16.93 11.73 16.57C9.59 16.07 7.92 14.4 7.42 12.26C7.06 10.72 7.06 9.11 7.42 7.57ZM11.73 16.57C12.7 16.8 13.69 16.88 14.68 16.82C14.67 16.91 14.65 16.99 14.63 17.07C14.2 18.9 12.77 20.33 10.94 20.76C9.62 21.07 8.24 21.07 6.92 20.76C5.09 20.33 3.66 18.9 3.23 17.07C2.92 15.75 2.92 14.37 3.23 13.05C3.66 11.22 5.09 9.79 6.92 9.36C7 9.34 7.08 9.32 7.17 9.31C7.11 10.3 7.19 11.29 7.42 " stroke="#7F7667" stroke-opacity="1.000000" stroke-width="1.500000"/>
	</g>
</svg>
