<svg width="24.000000" height="24.000000" viewBox="0 0 24 24" fill="none" xmlns="http://www.w3.org/2000/svg" xmlns:xlink="http://www.w3.org/1999/xlink">
	<desc>
			Created with Pixso.
	</desc>
	<defs>
		<clipPath id="clip6_2719">
			<rect width="24.000000" height="24.000000" fill="white" fill-opacity="0"/>
		</clipPath>
	</defs>
	<g clip-path="url(#clip6_2719)">
		<path d="M4.22 8.53C4.22 9.32 4.44 10.06 4.82 10.69C3.16 11.39 2 13.01 2 14.9C2 17.44 4.08 19.5 6.66 19.5L6.67 19.5L15.32 19.5L15.33 19.5C19.01 19.5 22 16.56 22 12.94C22 9.31 19.01 6.38 15.33 6.38C14.04 6.38 12.84 6.73 11.83 7.35C11.34 5.7 9.86 4.5 8.11 4.5C5.96 4.5 4.22 6.3 4.22 8.53Z" fill="#E9E1D8" fill-opacity="1.000000" fill-rule="evenodd"/>
		<path d="M6.66 10.31C6.01 10.31 5.38 10.45 4.82 10.69C4.44 10.06 4.22 9.32 4.22 8.53C4.22 6.3 5.96 4.5 8.11 4.5C9.86 4.5 11.34 5.7 11.83 7.35C10.69 8.05 9.78 9.07 9.23 10.29C9.08 10.61 8.71 10.76 8.38 10.64C7.85 10.43 7.27 10.31 6.66 10.31C4.08 10.31 2 12.37 2 14.9C2 17.44 4.08 19.5 6.66 19.5C6.66 19.5 6.67 19.5 6.67 19.5L15.32 19.5C15.33 19.5 15.33 19.5 15.33 19.5C19.01 19.5 22 16.56 22 12.94C22 9.31 19.01 6.38 15.33 6.38C12.61 6.38 10.26 7.98 9.23 " stroke="#7F7667" stroke-opacity="1.000000" stroke-width="1.500000"/>
	</g>
</svg>
