<svg width="24.000000" height="24.000000" viewBox="0 0 24 24" fill="none" xmlns="http://www.w3.org/2000/svg" xmlns:xlink="http://www.w3.org/1999/xlink">
	<desc>
			Created with Pixso.
	</desc>
	<defs>
		<clipPath id="clip6_2860">
			<rect width="24.000000" height="24.000000" fill="white" fill-opacity="0"/>
		</clipPath>
	</defs>
	<g clip-path="url(#clip6_2860)">
		<path d="M11.27 3.02L11.25 3C11.25 2.57 11.58 2.25 12 2.25C12.41 2.25 12.75 2.57 12.75 3L12.73 3.02L11.27 3.02ZM12.75 4L12.73 3.98L11.27 3.98L11.25 4C11.25 4.02 11.25 4.03 11.25 4.05C10.88 4.1 10.51 4.18 10.15 4.3C8.14 4.95 6.58 6.58 6.02 8.63L5.43 10.81L4.97 12.92C4.82 13.57 4.63 14.24 4.52 14.9C4.5 15.02 4.5 15.14 4.5 15.26C4.5 16.32 5.24 17.24 6.28 17.45L6.65 17.53C7.43 17.69 8.22 17.81 9 17.9C9.02 18.09 9.05 18.28 9.09 18.47L9.18 18.81C9.43 19.85 10.25 20.66 11.29 20.91C11.75 21.02 12.24 21.02 12.7 20.91C13.74 20.66 14.56 19.85 14.81 18.81L14.9 18.47C14.94 18.28 14.97 18.09 14.99 17.9C15.77 17.81 16.56 17.69 17.34 17.53L17.71 17.45C18.75 17.24 19.5 16.32 19.5 15.26C19.5 15.14 19.49 15.02 19.47 14.9C19.36 14.24 19.17 13.57 19.02 12.92L18.56 10.81L17.97 8.58C17.45 6.57 15.93 4.95 13.96 4.3C13.57 4.17 13.16 4.08 12.74 4.04C12.74 4.02 12.75 4.01 12.75 4Z" fill="#E9E1D8" fill-opacity="1.000000" fill-rule="evenodd"/>
		<path d="M14.99 17.9C14.97 18.09 14.94 18.28 14.9 18.47L14.81 18.81C14.56 19.85 13.74 20.66 12.7 20.91C12.24 21.02 11.75 21.02 11.29 20.91C10.25 20.66 9.43 19.85 9.18 18.81L9.09 18.47C9.05 18.28 9.02 18.09 9 17.9C10.99 18.12 13 18.12 14.99 17.9ZM10.15 4.3C11.39 3.9 12.73 3.9 13.96 4.3C15.93 4.95 17.45 6.57 17.97 8.58L18.56 10.81L19.02 12.92C19.17 13.57 19.36 14.24 19.47 14.9C19.49 15.02 19.5 15.14 19.5 15.26C19.5 16.32 18.75 17.24 17.71 17.45L17.34 17.53C13.81 18.25 10.18 18.25 6.65 17.53L6.28 17.45C5.24 17.24 4.5 16.32 4.5 15.26C4.5 15.14 4.5 15.02 4.52 14.9C4.63 14.24 4.82 13.57 4.97 12.92L5.43 10.81L6.02 8.63C6.58 6.58 8.14 4.95 10.15 4.3ZM12 3L12 " stroke="#7F7667" stroke-opacity="1.000000" stroke-width="1.500000" stroke-linecap="round"/>
	</g>
</svg>
