<svg width="24.000000" height="24.000000" viewBox="0 0 24 24" fill="none" xmlns="http://www.w3.org/2000/svg" xmlns:xlink="http://www.w3.org/1999/xlink">
	<desc>
			Created with Pixso.
	</desc>
	<defs>
		<clipPath id="clip6_2708">
			<rect width="24.000000" height="24.000000" fill="white" fill-opacity="0"/>
		</clipPath>
	</defs>
	<g clip-path="url(#clip6_2708)">
		<path d="M8.68 7.67C8.45 6.98 8.41 6.25 8.57 5.54C8.85 4.28 9.9 3.3 11.24 3.07L11.36 3.05C11.78 2.98 12.21 2.98 12.63 3.05L12.75 3.07C14.09 3.3 15.14 4.28 15.42 5.54C15.58 6.25 15.54 6.98 15.31 7.67C15.51 7.7 15.71 7.74 15.91 7.78C17.72 8.15 19.15 9.45 19.61 11.16L19.69 11.44C20.19 13.3 20.07 15.26 19.34 17.04L19.25 17.27C18.5 19.09 16.8 20.41 14.78 20.72L14.03 20.84C12.68 21.05 11.31 21.05 9.96 20.84L9.21 20.72C7.19 20.41 5.49 19.09 4.74 17.27L4.65 17.04C3.92 15.26 3.8 13.3 4.3 11.44L4.38 11.16C4.84 9.45 6.27 8.15 8.08 7.78C8.28 7.74 8.48 7.7 8.68 7.67Z" fill="#E9E1D8" fill-opacity="1.000000" fill-rule="evenodd"/>
		<path d="M14.03 20.84C12.68 21.05 11.31 21.05 9.96 20.84L9.21 20.72C7.19 20.41 5.49 19.09 4.74 17.27L4.65 17.04C3.92 15.26 3.8 13.3 4.3 11.44L4.38 11.16C4.84 9.45 6.27 8.15 8.08 7.78C8.28 7.74 8.48 7.7 8.68 7.67C10.87 7.3 13.12 7.3 15.31 7.67C15.51 7.7 15.71 7.74 15.91 7.78C17.72 8.15 19.15 9.45 19.61 11.16L19.69 11.44C20.19 13.3 20.07 15.26 19.34 17.04L19.25 17.27C18.5 19.09 16.8 20.41 14.78 20.72L14.03 20.84ZM15.31 7.67C15.27 7.79 15.22 7.9 15.17 8.02L14.96 8.51M8.68 7.67C8.72 7.79 8.77 7.9 8.82 8.02L9.03 8.51M8.68 7.67C8.45 6.98 8.41 6.25 8.57 5.54C8.85 4.28 9.9 3.3 11.24 3.07L11.36 3.05C11.78 2.98 12.21 2.98 12.63 3.05L12.75 3.07C14.09 3.3 15.14 4.28 15.42 5.54C15.58 6.25 15.54 6.98 15.31 " stroke="#7F7667" stroke-opacity="1.000000" stroke-width="1.500000" stroke-linecap="round"/>
	</g>
</svg>
