<svg width="24.000000" height="24.000000" viewBox="0 0 24 24" fill="none" xmlns="http://www.w3.org/2000/svg" xmlns:xlink="http://www.w3.org/1999/xlink">
	<desc>
			Created with Pixso.
	</desc>
	<defs>
		<clipPath id="clip6_2813">
			<rect width="24.000000" height="24.000000" fill="white" fill-opacity="0"/>
		</clipPath>
	</defs>
	<g clip-path="url(#clip6_2813)">
		<path d="M20.98 11.27L21 11.25C21.41 11.25 21.75 11.58 21.75 12C21.75 12.42 21.41 12.75 21 12.75L20.98 12.73L20.98 11.27ZM17.02 12.73L17 12.75C16.58 12.75 16.25 12.42 16.25 12C16.25 11.58 16.58 11.25 17 11.25L17.02 11.27L17.02 12.73ZM19.73 13.98L19.75 14C19.75 14.42 19.41 14.75 19 14.75C18.58 14.75 18.25 14.42 18.25 14L18.27 13.98L19.73 13.98ZM18.27 10.02L18.25 10C18.25 9.57 18.58 9.25 19 9.25C19.41 9.25 19.75 9.57 19.75 10L19.73 10.02L18.27 10.02Z" fill="#E9E1D8" fill-opacity="1.000000" fill-rule="nonzero"/>
		<path d="M21 12L17 12M19 14L19 " stroke="#7F7667" stroke-opacity="1.000000" stroke-width="1.500000"/>
		<path d="M10 10.87C12.25 10.87 14.08 9.11 14.08 6.93C14.08 4.76 12.25 3 10 3C7.74 3 5.91 4.76 5.91 6.93C5.91 9.11 7.74 10.87 10 10.87ZM7 14.26C4.69 14.64 3 16.69 3 19.11C3 20.15 3.81 21 4.82 21L15.17 21C16.18 21 17 20.15 17 19.11C17 16.69 15.3 14.64 12.99 14.26L12.78 14.22C10.94 13.92 9.05 13.92 7.21 14.22L7 14.26Z" fill="#E9E1D8" fill-opacity="1.000000" fill-rule="evenodd"/>
		<path d="M7.21 14.22C9.05 13.92 10.94 13.92 12.78 14.22L12.99 14.26C15.3 14.64 17 16.69 17 19.11C17 20.15 16.18 21 15.17 21L4.82 21C3.81 21 3 20.15 3 19.11C3 16.69 4.69 14.64 7 14.26L7.21 14.22ZM10 10.87C7.74 10.87 5.91 9.11 5.91 6.93C5.91 4.76 7.74 3 10 3C12.25 3 14.08 4.76 14.08 6.93C14.08 9.11 12.25 10.87 10 10.87Z" stroke="#7F7667" stroke-opacity="1.000000" stroke-width="1.500000"/>
	</g>
</svg>
