<svg width="24.000000" height="24.000000" viewBox="0 0 24 24" fill="none" xmlns="http://www.w3.org/2000/svg" xmlns:xlink="http://www.w3.org/1999/xlink">
	<desc>
			Created with Pixso.
	</desc>
	<defs>
		<clipPath id="clip6_2761">
			<rect width="24.000000" height="24.000000" fill="white" fill-opacity="0"/>
		</clipPath>
	</defs>
	<g clip-path="url(#clip6_2761)">
		<path d="M2.39 8.61C3.11 5.52 5.52 3.11 8.61 2.39C10.84 1.86 13.15 1.86 15.38 2.39C18.47 3.11 20.88 5.52 21.6 8.61C22.13 10.84 22.13 13.15 21.6 15.38C20.88 18.47 18.47 20.88 15.38 21.6C13.15 22.13 10.84 22.13 8.61 21.6C5.52 20.88 3.11 18.47 2.39 15.38C1.86 13.15 1.86 10.84 2.39 8.61Z" fill="#E9E1D8" fill-opacity="1.000000" fill-rule="evenodd"/>
		<path d="M21.73 7.47L21.75 7.5C21.75 7.92 21.41 8.25 21 8.25C20.58 8.25 20.25 7.92 20.25 7.5L20.27 7.47L21.73 7.47ZM16.52 3.72L16.5 3.75C16.08 3.75 15.75 3.42 15.75 3C15.75 2.57 16.08 2.25 16.5 2.25L16.52 2.27L16.52 3.72ZM7.47 2.27L7.5 2.25C7.91 2.25 8.25 2.57 8.25 3C8.25 3.42 7.91 3.75 7.5 3.75L7.47 3.72L7.47 2.27ZM3.72 7.47L3.75 7.5C3.75 7.92 3.41 8.25 3 8.25C2.58 8.25 2.25 7.92 2.25 7.5L2.27 7.47L3.72 7.47ZM7.25 12.82L7.24 12.85C6.85 13.02 6.42 12.85 6.25 12.47C6.08 12.09 6.24 11.65 6.63 11.48L6.65 11.49L7.25 12.82ZM17.34 11.49L17.36 11.48C17.75 11.65 17.91 12.09 17.74 12.47C17.57 12.85 17.14 13.02 16.75 12.85L16.74 12.82L17.34 11.49ZM2.27 14.16L2.25 14.14C2.25 13.72 2.58 13.39 3 13.39C3.41 13.39 3.75 13.72 3.75 14.14L3.72 14.16L2.27 14.16ZM20.27 14.16L20.25 14.14C20.25 13.72 20.58 13.39 21 13.39C21.41 13.39 21.75 13.72 21.75 14.14L21.73 14.16L20.27 14.16Z" fill="#E9E1D8" fill-opacity="1.000000" fill-rule="nonzero"/>
		<path d="M21 7.5C21 5.01 18.98 3 16.5 3M7.5 3C5.01 3 3 5.01 3 7.5M6.93 12.17L7.88 11.74C10.5 10.58 13.49 10.58 16.11 11.74L17.06 12.17M21 14.14C21 17.26 18.73 19.96 15.57 20.59L15.01 20.7C13.08 21.09 11.08 21.09 9.14 20.71L8.42 20.57C5.26 19.95 3 17.26 3 " stroke="#7F7667" stroke-opacity="1.000000" stroke-width="1.500000"/>
	</g>
</svg>
