<svg width="24.000000" height="24.000000" viewBox="0 0 24 24" fill="none" xmlns="http://www.w3.org/2000/svg" xmlns:xlink="http://www.w3.org/1999/xlink">
	<desc>
			Created with Pixso.
	</desc>
	<defs>
		<clipPath id="clip6_2736">
			<rect width="24.000000" height="24.000000" fill="white" fill-opacity="0"/>
		</clipPath>
	</defs>
	<g clip-path="url(#clip6_2736)">
		<path d="M16.53 8.5L16.53 8.53C16.23 8.82 15.76 8.82 15.46 8.53C15.17 8.23 15.17 7.76 15.46 7.46L15.49 7.46L16.53 8.5ZM17.83 5.13L17.83 5.1C18.13 4.8 18.59 4.8 18.89 5.1C19.19 5.4 19.19 5.86 18.89 6.16L18.86 6.16L17.83 5.13ZM6.16 18.86L6.16 18.89C5.86 19.19 5.4 19.19 5.1 18.89C4.8 18.59 4.8 18.13 5.1 17.83L5.13 17.83L6.16 18.86ZM7.46 15.49L7.46 15.46C7.76 15.17 8.23 15.17 8.53 15.46C8.82 15.76 8.82 16.23 8.53 16.53L8.5 16.53L7.46 15.49ZM17.67 12.73L17.65 12.75C17.23 12.75 16.9 12.42 16.9 12C16.9 11.58 17.23 11.25 17.65 11.25L17.67 11.27L17.67 12.73ZM20.98 11.27L21 11.25C21.41 11.25 21.75 11.58 21.75 12C21.75 12.42 21.41 12.75 21 12.75L20.98 12.73L20.98 11.27ZM3.02 12.73L3 12.75C2.58 12.75 2.25 12.42 2.25 12C2.25 11.58 2.58 11.25 3 11.25L3.02 11.27L3.02 12.73ZM6.32 11.27L6.34 11.25C6.76 11.25 7.09 11.58 7.09 12C7.09 12.42 6.76 12.75 6.34 12.75L6.32 12.73L6.32 11.27ZM12.73 6.32L12.75 6.34C12.75 6.76 12.41 7.09 12 7.09C11.58 7.09 11.25 6.76 11.25 6.34L11.27 6.32L12.73 6.32ZM11.27 3.02L11.25 3C11.25 2.57 11.58 2.25 12 2.25C12.41 2.25 12.75 2.57 12.75 3L12.73 3.02L11.27 3.02ZM12.73 20.98L12.75 21C12.75 21.42 12.41 21.75 12 21.75C11.58 21.75 11.25 21.42 11.25 21L11.27 20.98L12.73 20.98ZM11.27 17.67L11.25 17.65C11.25 17.23 11.58 16.9 12 16.9C12.41 16.9 12.75 17.23 12.75 17.65L12.73 17.67L11.27 17.67ZM8.5 7.46L8.53 7.46C8.82 7.76 8.82 8.23 8.53 8.53C8.23 8.82 7.76 8.82 7.46 8.53L7.46 8.5L8.5 7.46ZM5.13 6.16L5.1 6.16C4.8 5.86 4.8 5.4 5.1 5.1C5.4 4.8 5.86 4.8 6.16 5.1L6.16 5.13L5.13 6.16ZM18.86 17.83L18.89 17.83C19.19 18.13 19.19 18.59 18.89 18.89C18.59 19.19 18.13 19.19 17.83 18.89L17.83 18.86L18.86 17.83ZM15.49 16.53L15.46 16.53C15.17 16.23 15.17 15.76 15.46 15.46C15.76 15.17 16.23 15.17 16.53 15.46L16.53 15.49L15.49 16.53Z" fill="#E9E1D8" fill-opacity="1.000000" fill-rule="nonzero"/>
		<path d="M16 8L18.36 5.63M5.63 18.36L8 16M17.65 12L21 12M3 12L6.34 12M12 6.34L12 3M12 21L12 17.65M8 8L5.63 5.63M18.36 18.36L16 " stroke="#7F7667" stroke-opacity="1.000000" stroke-width="1.500000" stroke-linejoin="round"/>
	</g>
</svg>
