<svg width="24.000000" height="24.000000" viewBox="0 0 24 24" fill="none" xmlns="http://www.w3.org/2000/svg" xmlns:xlink="http://www.w3.org/1999/xlink">
	<desc>
			Created with Pixso.
	</desc>
	<defs>
		<clipPath id="clip6_2843">
			<rect width="24.000000" height="24.000000" fill="white" fill-opacity="0"/>
		</clipPath>
	</defs>
	<g clip-path="url(#clip6_2843)">
		<path d="M3.35 8.95C4 6.17 6.17 4 8.95 3.35C10.95 2.88 13.04 2.88 15.04 3.35C17.82 4 19.99 6.17 20.64 8.95C21.11 10.95 21.11 13.04 20.64 15.04C19.99 17.82 17.82 19.99 15.04 20.64C13.04 21.11 10.95 21.11 8.95 20.64C6.17 19.99 4 17.82 3.35 15.04C2.88 13.04 2.88 10.95 3.35 8.95ZM6.81 9.92L6.78 9.92C6.49 9.63 6.49 9.16 6.78 8.86C7.08 8.57 7.55 8.57 7.84 8.86L7.84 8.89L6.81 9.92ZM9.9 7.85L9.9 7.82C10.2 7.53 10.67 7.53 10.96 7.82C11.26 8.12 11.26 8.59 10.96 8.88L10.94 8.88L9.9 7.85ZM13.06 10.64L13.04 10.66C12.62 10.66 12.29 10.33 12.29 9.91C12.29 9.49 12.62 9.16 13.04 9.16L13.06 9.18L13.06 10.64ZM16.66 9.18L16.68 9.16C17.1 9.16 17.43 9.49 17.43 9.91C17.43 10.33 17.1 10.66 16.68 10.66L16.66 10.64L16.66 9.18ZM6.81 15.13L6.78 15.13C6.49 14.83 6.49 14.36 6.78 14.07C7.08 13.77 7.55 13.77 7.84 14.07L7.84 14.09L6.81 15.13ZM9.9 13.05L9.9 13.03C10.2 12.73 10.67 12.73 10.96 13.03C11.26 13.32 11.26 13.79 10.96 14.09L10.94 14.09L9.9 13.05ZM13.06 15.85L13.04 15.87C12.62 15.87 12.29 15.54 12.29 15.12C12.29 14.7 12.62 14.37 13.04 14.37L13.06 14.39L13.06 15.85ZM16.66 14.39L16.68 14.37C17.1 14.37 17.43 14.7 17.43 15.12C17.43 15.54 17.1 15.87 16.68 15.87L16.66 15.85L16.66 14.39Z" fill="#E9E1D8" fill-opacity="1.000000" fill-rule="nonzero"/>
		<path d="M3.35 8.95C4 6.17 6.17 4 8.95 3.35C10.95 2.88 13.04 2.88 15.04 3.35C17.82 4 19.99 6.17 20.64 8.95C21.11 10.95 21.11 13.04 20.64 15.04C19.99 17.82 17.82 19.99 15.04 20.64C13.04 21.11 10.95 21.11 8.95 20.64C6.17 19.99 4 17.82 3.35 15.04C2.88 13.04 2.88 10.95 3.35 8.95ZM7.31 9.39L8.35 10.43L10.43 8.35M13.04 9.91L16.68 9.91M7.31 14.6L8.35 15.64L10.43 13.56M13.04 15.12L16.68 " stroke="#7F7667" stroke-opacity="1.000000" stroke-width="1.500000"/>
	</g>
</svg>
