<svg width="24.000000" height="24.000000" viewBox="0 0 24 24" fill="none" xmlns="http://www.w3.org/2000/svg" xmlns:xlink="http://www.w3.org/1999/xlink">
	<desc>
			Created with Pixso.
	</desc>
	<defs>
		<clipPath id="clip6_3067">
			<rect width="24.000000" height="24.000000" fill="white" fill-opacity="0"/>
		</clipPath>
	</defs>
	<g clip-path="url(#clip6_3067)">
		<path d="M8.99 7.53L8.96 7.53C8.67 7.23 8.67 6.76 8.96 6.46C9.26 6.17 9.73 6.17 10.03 6.46L10.03 6.49L8.99 7.53ZM10.03 17.5L10.03 17.53C9.73 17.82 9.26 17.82 8.96 17.53C8.67 17.23 8.67 16.76 8.96 16.46L8.99 16.46L10.03 17.5Z" fill="#E9E1D8" fill-opacity="1.000000" fill-rule="nonzero"/>
		<path d="M8.96 16.46L13.96 11.46L14.5 12L13.96 12.53L8.96 7.53L10.03 6.46L15.03 11.46Q15.08 11.52 15.12 11.58Q15.16 11.64 15.19 11.71Q15.22 11.78 15.23 11.85Q15.24 11.92 15.24 12Q15.24 12.07 15.23 12.14Q15.22 12.21 15.19 12.28Q15.16 12.35 15.12 12.41Q15.08 12.47 15.03 12.53L10.03 17.53L8.96 16.46ZM8.99 7.53L8.96 7.53C8.67 7.23 8.67 6.76 8.96 6.46C9.26 6.17 9.73 6.17 10.03 6.46L10.03 6.49L8.99 7.53ZM10.03 17.5L10.03 17.53C9.73 17.82 9.26 17.82 8.96 17.53C8.67 17.23 8.67 16.76 8.96 16.46L8.99 16.46L10.03 17.5Z" fill="#7F7667" fill-opacity="1.000000" fill-rule="evenodd"/>
	</g>
</svg>
