<svg width="24.000000" height="24.000000" viewBox="0 0 24 24" fill="none" xmlns="http://www.w3.org/2000/svg" xmlns:xlink="http://www.w3.org/1999/xlink">
	<desc>
			Created with Pixso.
	</desc>
	<defs>
		<clipPath id="clip6_2849">
			<rect width="24.000000" height="24.000000" fill="white" fill-opacity="0"/>
		</clipPath>
	</defs>
	<g clip-path="url(#clip6_2849)">
		<path d="M4.3 11.39C4.71 9.9 5.78 8.68 7.2 8.03C7.01 7.9 6.89 7.68 6.89 7.43L6.91 7.41L8.37 7.41L8.39 7.43C8.39 7.51 8.38 7.58 8.35 7.66C8.36 7.66 8.37 7.65 8.37 7.65L8.65 7.6C10.86 7.15 13.13 7.15 15.34 7.6L15.62 7.65C15.62 7.65 15.63 7.66 15.64 7.66C15.61 7.58 15.6 7.51 15.6 7.43L15.62 7.41L17.08 7.41L17.1 7.43C17.1 7.68 16.98 7.9 16.79 8.03C18.21 8.68 19.28 9.9 19.69 11.39C20.19 13.26 20.07 15.23 19.34 17.02L19.25 17.25C18.5 19.08 16.8 20.4 14.78 20.72L14.03 20.84C12.68 21.05 11.31 21.05 9.96 20.84L9.21 20.72C7.19 20.4 5.49 19.08 4.74 17.25L4.65 17.02C3.92 15.23 3.8 13.26 4.3 11.39Z" fill="#E9E1D8" fill-opacity="1.000000" fill-rule="evenodd"/>
		<path d="M8.65 7.6C10.86 7.15 13.13 7.15 15.34 7.6L15.62 7.65C17.6 8.06 19.18 9.5 19.69 11.39C20.19 13.26 20.07 15.23 19.34 17.02L19.25 17.25C18.5 19.08 16.8 20.4 14.78 20.72L14.03 20.84C12.68 21.05 11.31 21.05 9.96 20.84L9.21 20.72C7.19 20.4 5.49 19.08 4.74 17.25L4.65 17.02C3.92 15.23 3.8 13.26 4.3 11.39C4.81 9.51 6.39 8.06 8.37 7.65L8.65 7.6ZM7.64 7.43L7.64 7.12C7.64 5.25 8.96 3.61 10.85 3.14C11.6 2.95 12.39 2.95 13.14 3.14C15.03 3.61 16.35 5.25 16.35 7.12L16.35 " stroke="#7F7667" stroke-opacity="1.000000" stroke-width="1.500000" stroke-linecap="round"/>
		<path d="M11.27 13.52L11.25 13.5C11.25 13.08 11.58 12.75 12 12.75C12.41 12.75 12.75 13.08 12.75 13.5L12.73 13.52L11.27 13.52ZM12.73 15.48L12.75 15.5C12.75 15.91 12.41 16.25 12 16.25C11.58 16.25 11.25 15.91 11.25 15.5L11.27 15.48L12.73 15.48Z" fill="#E9E1D8" fill-opacity="1.000000" fill-rule="nonzero"/>
		<path d="M12 13.5L12 " stroke="#7F7667" stroke-opacity="1.000000" stroke-width="1.500000" stroke-linecap="round"/>
	</g>
</svg>
