<svg width="24.000000" height="24.000000" viewBox="0 0 24 24" fill="none" xmlns="http://www.w3.org/2000/svg" xmlns:xlink="http://www.w3.org/1999/xlink">
	<desc>
			Created with Pixso.
	</desc>
	<defs>
		<clipPath id="clip6_2755">
			<rect width="24.000000" height="24.000000" fill="white" fill-opacity="0"/>
		</clipPath>
	</defs>
	<g clip-path="url(#clip6_2755)">
		<path d="M9.85 3.32C7.28 3.92 5.28 5.93 4.68 8.5C4.24 10.35 4.24 12.28 4.68 14.14C4.82 14.77 5.05 15.36 5.36 15.91C4.04 16 3 17.1 3 18.45C3 19.85 4.14 21 5.54 21C6.89 21 7.99 19.95 8.08 18.63C8.63 18.94 9.22 19.17 9.85 19.31C11.71 19.75 13.64 19.75 15.49 19.31C18.06 18.71 20.07 16.71 20.67 14.14C21.1 12.28 21.1 10.35 20.67 8.5C20.07 5.93 18.06 3.92 15.49 3.32C13.64 2.89 11.71 2.89 9.85 3.32Z" fill="#E9E1D8" fill-opacity="1.000000" fill-rule="evenodd"/>
		<path d="M4.68 8.5C5.28 5.93 7.28 3.92 9.85 3.32C11.71 2.89 13.64 2.89 15.49 3.32C18.06 3.92 20.07 5.93 20.67 8.5C21.1 10.35 21.1 12.28 20.67 14.14C20.07 16.71 18.06 18.71 15.49 19.31C13.64 19.75 11.71 19.75 9.85 19.31C7.28 18.71 5.28 16.71 4.68 14.14C4.24 12.28 4.24 10.35 4.68 8.5ZM3 18.45C3 19.85 4.14 21 5.54 21C6.89 21 7.99 19.95 8.08 18.63C6.93 18 5.99 17.06 5.36 15.91C4.04 16 3 17.1 3 18.45ZM9.11 9.79L12.16 9.79M10.13 12.85L15.22 " stroke="#7F7667" stroke-opacity="1.000000" stroke-width="1.500000"/>
	</g>
</svg>
