<svg width="24.000000" height="24.000000" viewBox="0 0 24 24" fill="none" xmlns="http://www.w3.org/2000/svg" xmlns:xlink="http://www.w3.org/1999/xlink">
	<desc>
			Created with Pixso.
	</desc>
	<defs>
		<clipPath id="clip6_2887">
			<rect width="24.000000" height="24.000000" fill="white" fill-opacity="0"/>
		</clipPath>
	</defs>
	<g clip-path="url(#clip6_2887)">
		<path d="M9.65 4.58C10.53 2.47 13.46 2.47 14.34 4.58L14.95 6.05C15.31 6.92 16.1 7.52 17.02 7.63L18.72 7.82C20.88 8.06 21.77 10.77 20.2 12.29L18.75 13.7C18.11 14.31 17.83 15.22 18 16.1L18.35 17.87C18.79 20.11 16.39 21.81 14.5 20.59L13.35 19.85C12.52 19.32 11.47 19.32 10.64 19.85L9.49 20.59C7.6 21.81 5.2 20.11 5.64 17.87L5.99 16.1C6.16 15.22 5.88 14.31 5.24 13.7L3.79 12.29C2.22 10.77 3.11 8.06 5.27 7.82L6.97 7.63C7.89 7.52 8.68 6.92 9.04 6.05L9.65 4.58Z" fill="#E9E1D8" fill-opacity="1.000000" fill-rule="evenodd"/>
		<path d="M14.95 6.05C15.31 6.92 16.1 7.52 17.02 7.63L18.72 7.82C20.88 8.06 21.77 10.77 20.2 12.29L18.75 13.7C18.11 14.31 17.83 15.22 18 16.1L18.35 17.87C18.79 20.11 16.39 21.81 14.5 20.59L13.35 19.85C12.52 19.32 11.47 19.32 10.64 19.85L9.49 20.59C7.6 21.81 5.2 20.11 5.64 17.87L5.99 16.1C6.16 15.22 5.88 14.31 5.24 13.7L3.79 12.29C2.22 10.77 3.11 8.06 5.27 7.82L6.97 7.63C7.89 7.52 8.68 6.92 9.04 6.05L9.65 4.58C10.53 2.47 13.46 2.47 14.34 4.58L14.95 6.05Z" stroke="#7F7667" stroke-opacity="1.000000" stroke-width="1.500000" stroke-linejoin="round"/>
	</g>
</svg>
