<svg width="24.000000" height="24.000000" viewBox="0 0 24 24" fill="none" xmlns="http://www.w3.org/2000/svg" xmlns:xlink="http://www.w3.org/1999/xlink">
	<desc>
			Created with Pixso.
	</desc>
	<defs>
		<clipPath id="clip6_2889">
			<rect width="24.000000" height="24.000000" fill="white" fill-opacity="0"/>
		</clipPath>
	</defs>
	<g clip-path="url(#clip6_2889)">
		<path d="M11.98 2.27L12 2.25C12.41 2.25 12.75 2.57 12.75 3C12.75 3.42 12.41 3.75 12 3.75L11.98 3.72L11.98 2.27ZM20.27 12.02L20.25 12C20.25 11.58 20.58 11.25 21 11.25C21.41 11.25 21.75 11.58 21.75 12L21.73 12.02L20.27 12.02Z" fill="#E9E1D8" fill-opacity="1.000000" fill-rule="nonzero"/>
		<path d="M21 12C21 13.02 20.88 14.04 20.64 15.04C19.99 17.82 17.82 19.99 15.04 20.64C13.04 21.11 10.95 21.11 8.95 20.64C6.17 19.99 4 17.82 3.35 15.04C2.88 13.04 2.88 10.95 3.35 8.95C4 6.17 6.17 4 8.95 3.35C9.95 3.11 10.97 3 12 " stroke="#7F7667" stroke-opacity="1.000000" stroke-width="1.500000" stroke-linecap="round"/>
		<path d="M17.02 3.72L17 3.75C16.58 3.75 16.25 3.42 16.25 3C16.25 2.57 16.58 2.25 17 2.25L17.02 2.27L17.02 3.72ZM21.73 7.64L21.75 7.66C21.75 8.08 21.41 8.41 21 8.41C20.58 8.41 20.25 8.08 20.25 7.66L20.27 7.64L21.73 7.64ZM15.56 10.46L15.56 10.48C15.29 10.8 14.83 10.84 14.51 10.56C14.19 10.29 14.15 9.83 14.43 9.51L14.45 9.5L15.56 10.46Z" fill="#E9E1D8" fill-opacity="1.000000" fill-rule="nonzero"/>
		<path d="M17 3L21 3L21 7.66M21 3L15 " stroke="#7F7667" stroke-opacity="1.000000" stroke-width="1.500000" stroke-linejoin="round"/>
	</g>
</svg>
