<svg width="24.000000" height="24.000000" viewBox="0 0 24 24" fill="none" xmlns="http://www.w3.org/2000/svg" xmlns:xlink="http://www.w3.org/1999/xlink">
	<desc>
			Created with Pixso.
	</desc>
	<defs>
		<clipPath id="clip6_2733">
			<rect width="24.000000" height="24.000000" fill="white" fill-opacity="0"/>
		</clipPath>
	</defs>
	<g clip-path="url(#clip6_2733)">
		<path d="M12 10C9.31 10 7.14 12.3 7.14 15.14L16.85 15.14C16.85 12.3 14.68 10 12 10ZM3.52 15.87L3.5 15.89C3.08 15.89 2.75 15.56 2.75 15.14C2.75 14.72 3.08 14.39 3.5 14.39L3.52 14.41L3.52 15.87ZM20.48 14.41L20.5 14.39C20.91 14.39 21.25 14.72 21.25 15.14C21.25 15.56 20.91 15.89 20.5 15.89L20.48 15.87L20.48 14.41ZM7.16 19.73L7.14 19.75C6.72 19.75 6.39 19.42 6.39 19C6.39 18.58 6.72 18.25 7.14 18.25L7.16 18.27L7.16 19.73ZM16.83 18.27L16.85 18.25C17.27 18.25 17.6 18.58 17.6 19C17.6 19.42 17.27 19.75 16.85 19.75L16.83 19.73L16.83 18.27Z" fill="#E9E1D8" fill-opacity="1.000000" fill-rule="nonzero"/>
		<path d="M12 10C14.68 10 16.85 12.3 16.85 15.14L7.14 15.14C7.14 12.3 9.31 10 12 10ZM3.5 15.14L20.5 15.14M7.14 19L16.85 " stroke="#7F7667" stroke-opacity="1.000000" stroke-width="1.500000"/>
		<path d="M12.73 5.97L12.75 6C12.75 6.42 12.41 6.75 12 6.75C11.58 6.75 11.25 6.42 11.25 6L11.27 5.97L12.73 5.97ZM11.27 5.02L11.25 5C11.25 4.57 11.58 4.25 12 4.25C12.41 4.25 12.75 4.57 12.75 5L12.73 5.02L11.27 5.02ZM15.96 6.56L15.96 6.53C16.26 6.23 16.73 6.23 17.03 6.53C17.32 6.82 17.32 7.29 17.03 7.59L17 7.59L15.96 6.56ZM16.09 8.5L16.09 8.53C15.79 8.82 15.32 8.82 15.03 8.53C14.73 8.23 14.73 7.76 15.03 7.46L15.06 7.46L16.09 8.5ZM8.93 7.46L8.96 7.46C9.26 7.76 9.26 8.23 8.96 8.53C8.67 8.82 8.2 8.82 7.9 8.53L7.9 8.5L8.93 7.46ZM6.99 7.59L6.96 7.59C6.67 7.29 6.67 6.82 6.96 6.53C7.26 6.23 7.73 6.23 8.03 6.53L8.03 6.56L6.99 7.59Z" fill="#E9E1D8" fill-opacity="1.000000" fill-rule="nonzero"/>
		<path d="M12 6L12 5M16.5 7.06L15.56 8M8.43 8L7.5 " stroke="#7F7667" stroke-opacity="1.000000" stroke-width="1.500000" stroke-linejoin="round"/>
	</g>
</svg>
