<svg width="24.000000" height="24.000000" viewBox="0 0 24 24" fill="none" xmlns="http://www.w3.org/2000/svg" xmlns:xlink="http://www.w3.org/1999/xlink">
	<desc>
			Created with Pixso.
	</desc>
	<defs>
		<clipPath id="clip6_2757">
			<rect width="24.000000" height="24.000000" fill="white" fill-opacity="0"/>
		</clipPath>
	</defs>
	<g clip-path="url(#clip6_2757)">
		<path d="M3.77 9.22C4.45 6.28 6.65 3.99 9.46 3.32L9.68 3.27C11.2 2.9 12.77 2.9 14.28 3.27L14.66 3.36C17.37 4.01 19.5 6.21 20.15 9.06L20.24 9.44C20.58 10.91 20.58 12.43 20.24 13.9C19.56 16.84 17.05 18.92 14.17 18.92L13.11 18.92C12.76 18.92 12.44 19.15 12.31 19.49C11.83 20.72 10.48 21.32 9.31 20.82L9.19 20.77C6.48 19.61 4.46 17.12 3.77 14.13C3.4 12.52 3.4 10.83 3.77 9.22ZM8.71 9.78L8.69 9.8C8.27 9.8 7.94 9.47 7.94 9.05C7.94 8.63 8.27 8.3 8.69 8.3L8.71 8.32L8.71 9.78ZM14.7 8.32L14.72 8.3C15.14 8.3 15.47 8.63 15.47 9.05C15.47 9.47 15.14 9.8 14.72 9.8L14.7 9.78L14.7 8.32ZM8.71 13.24L8.69 13.26C8.27 13.26 7.94 12.93 7.94 12.51C7.94 12.09 8.27 11.76 8.69 11.76L8.71 11.78L8.71 13.24ZM12.51 11.78L12.53 11.76C12.95 11.76 13.28 12.09 13.28 12.51C13.28 12.93 12.95 13.26 12.53 13.26L12.51 13.24L12.51 11.78Z" fill="#E9E1D8" fill-opacity="1.000000" fill-rule="nonzero"/>
		<path d="M9.68 3.27C11.2 2.9 12.77 2.9 14.28 3.27L14.66 3.36C17.37 4.01 19.5 6.21 20.15 9.06L20.24 9.44C20.58 10.91 20.58 12.43 20.24 13.9C19.56 16.84 17.05 18.92 14.17 18.92L13.11 18.92C12.76 18.92 12.44 19.15 12.31 19.49C11.83 20.72 10.48 21.32 9.31 20.82L9.19 20.77C6.48 19.61 4.46 17.12 3.77 14.13C3.4 12.52 3.4 10.83 3.77 9.22C4.45 6.28 6.65 3.99 9.46 3.32L9.68 3.27ZM8.69 9.05L14.72 9.05M8.69 12.51L12.53 " stroke="#7F7667" stroke-opacity="1.000000" stroke-width="1.500000"/>
	</g>
</svg>
