<svg width="24.000000" height="24.000000" viewBox="0 0 24 24" fill="none" xmlns="http://www.w3.org/2000/svg" xmlns:xlink="http://www.w3.org/1999/xlink">
	<desc>
			Created with Pixso.
	</desc>
	<defs>
		<clipPath id="clip6_2998">
			<rect width="24.000000" height="24.000000" fill="white" fill-opacity="0"/>
		</clipPath>
	</defs>
	<g clip-path="url(#clip6_2998)">
		<path d="M3.68 9.06C4.31 6.39 6.39 4.31 9.06 3.68L9.06 3.68C10.99 3.23 13 3.23 14.93 3.68L14.93 3.68C17.6 4.31 19.68 6.39 20.31 9.06L20.31 9.06C20.76 10.99 20.76 13 20.31 14.93L20.31 14.93C19.68 17.6 17.6 19.68 14.93 20.31L14.93 20.31C13 20.76 10.99 20.76 9.06 20.31L9.06 20.31C6.39 19.68 4.31 17.6 3.68 14.93L3.68 14.93C3.23 13 3.23 10.99 3.68 9.06L3.68 9.06Z" fill="#E9E1D8" fill-opacity="1.000000" fill-rule="nonzero"/>
		<path d="M3.68 9.06C4.31 6.39 6.39 4.31 9.06 3.68C10.99 3.23 13 3.23 14.93 3.68C17.6 4.31 19.68 6.39 20.31 9.06C20.76 10.99 20.76 13 20.31 14.93C19.68 17.6 17.6 19.68 14.93 20.31C13 20.76 10.99 20.76 9.06 20.31C6.39 19.68 4.31 17.6 3.68 14.93C3.23 13 3.23 10.99 3.68 9.06Z" stroke="#7F7667" stroke-opacity="1.000000" stroke-width="1.500000"/>
		<path d="M11.51 14.82C10.73 15.32 9.75 14.69 9.75 13.69L9.75 10.3C9.75 9.3 10.73 8.67 11.51 9.17L14.16 10.87C14.94 11.37 14.94 12.62 14.16 13.12L11.51 14.82Z" stroke="#7F7667" stroke-opacity="1.000000" stroke-width="1.500000"/>
	</g>
</svg>
