<svg width="24.000000" height="24.000000" viewBox="0 0 24 24" fill="none" xmlns="http://www.w3.org/2000/svg" xmlns:xlink="http://www.w3.org/1999/xlink">
	<desc>
			Created with Pixso.
	</desc>
	<defs>
		<clipPath id="clip6_2795">
			<rect width="24.000000" height="24.000000" fill="white" fill-opacity="0"/>
		</clipPath>
	</defs>
	<g clip-path="url(#clip6_2795)">
		<path d="M10.36 7.27L9.53 7.27C8.6 7.27 7.68 7.42 6.8 7.71C5.26 8.22 4.14 9.48 3.88 11L3.87 11.05C3.73 11.88 3.73 12.74 3.87 13.57L3.88 13.62C4.14 15.14 5.26 16.4 6.79 16.91L17.23 6.47C16.09 5.05 13.77 4.77 12.3 6.17L11.69 6.75C11.34 7.08 10.86 7.27 10.36 7.27ZM10.38 18.08L10.36 18.1C9.94 18.1 9.61 17.77 9.61 17.35C9.61 16.93 9.94 16.6 10.36 16.6L10.38 16.62L10.38 18.08ZM17.54 10.3L17.52 10.28C17.47 9.87 17.77 9.5 18.18 9.45C18.6 9.41 18.96 9.7 19.01 10.12L18.99 10.14L17.54 10.3ZM7 16.21L7.03 16.2C7.43 16.33 7.64 16.74 7.51 17.14C7.38 17.54 6.96 17.75 6.56 17.62L6.55 17.6L7 16.21ZM18.68 3.99L18.68 3.96C18.97 3.67 19.44 3.67 19.74 3.96C20.03 4.26 20.03 4.73 19.74 5.03L19.71 5.03L18.68 3.99ZM5.03 19.71L5.03 19.74C4.73 20.03 4.26 20.03 3.96 19.74C3.67 19.44 3.67 18.97 3.96 18.68L3.99 18.68L5.03 19.71Z" fill="#E9E1D8" fill-opacity="1.000000" fill-rule="nonzero"/>
		<path d="M19.74 5.03L17.76 7L7.38 17.38C7.34 17.43 7.31 17.46 7.26 17.5L5.03 19.74C4.73 20.03 4.26 20.03 3.96 19.74C3.67 19.44 3.67 18.97 3.96 18.68L5.5 17.14Q5.41 17.08 5.31 17.02Q4.93 16.77 4.61 16.46Q4.44 16.31 4.3 16.14Q4 15.8 3.77 15.42Q3.65 15.23 3.56 15.03Q3.38 14.68 3.27 14.31Q3.19 14.03 3.14 13.75L3.14 13.7Q3.02 13 3.02 12.31Q3.02 11.62 3.14 10.92L3.14 10.87Q3.19 10.59 3.27 10.31Q3.38 9.94 3.56 9.59Q3.65 9.39 3.77 9.2Q4 8.82 4.3 8.48Q4.45 8.31 4.61 8.16Q4.93 7.85 5.32 7.6Q5.51 7.47 5.7 7.37Q6.11 7.15 6.56 7Q7.2 6.79 7.87 6.67Q8.69 6.52 9.53 6.52L10.36 6.52Q10.5 6.52 10.63 6.49Q10.72 6.47 10.81 6.44Q10.96 6.38 11.09 6.28Q11.13 6.25 11.18 6.21L11.79 5.62Q12.14 5.29 12.54 5.05Q12.9 4.85 13.29 4.71Q13.61 4.6 13.94 4.55Q14.44 4.47 14.95 4.51Q15.43 4.55 15.88 4.69Q16.21 4.8 16.53 4.96Q16.91 5.15 17.23 5.41L18.68 3.96C18.97 3.67 19.44 3.67 19.74 3.96C20.03 4.26 20.03 4.73 19.74 5.03ZM16.16 6.48Q16.01 6.38 15.85 6.29Q15.66 6.2 15.47 6.14Q15.16 6.03 14.83 6.01Q14.47 5.98 14.13 6.04Q13.95 6.08 13.77 6.13Q13.53 6.21 13.32 6.34Q13.05 6.49 12.82 6.71L12.21 7.29Q12.06 7.43 11.9 7.55Q11.65 7.72 11.36 7.83Q11.14 7.92 10.91 7.97Q10.64 8.02 10.36 8.02L9.53 8.02Q8.81 8.02 8.1 8.15Q7.56 8.25 7.03 8.42Q6.44 8.62 5.96 8.97Q5.67 9.19 5.42 9.47Q5.04 9.9 4.83 10.4Q4.69 10.74 4.62 11.12L4.61 11.17Q4.52 11.74 4.52 12.31Q4.52 12.88 4.61 13.45L4.62 13.5Q4.69 13.88 4.83 14.22Q5.04 14.72 5.42 15.15Q5.67 15.43 5.96 15.65Q6.26 15.87 6.61 16.03L16.16 6.48ZM19.01 10.12C18.96 9.7 18.6 9.41 18.18 9.45C17.77 9.5 17.47 9.87 17.52 10.28Q17.7 11.87 17.6 13.43Q17.5 15.14 17.06 16.83Q16.98 17.15 16.82 17.43Q16.66 17.7 16.42 17.92Q16.28 18.05 16.13 18.16Q15.76 18.41 15.3 18.53Q14.92 18.63 14.55 18.62Q14.28 18.62 14 18.55Q13.67 18.47 13.38 18.32Q13.08 18.16 12.82 17.91L12.21 17.33Q12.06 17.19 11.9 17.07Q11.65 16.9 11.36 16.79Q11.14 16.7 10.91 16.65Q10.64 16.6 10.36 16.6C9.94 16.6 9.61 16.93 9.61 17.35C9.61 17.77 9.94 18.1 10.36 18.1Q10.5 18.1 10.63 18.13Q10.72 18.15 10.81 18.18Q10.96 18.24 11.09 18.34Q11.13 18.37 11.18 18.41L11.79 19Q12.19 19.38 12.67 19.64Q13.13 19.89 13.66 20.01Q14.12 20.12 14.57 20.12Q15.13 20.13 15.69 19.98Q16.33 19.81 16.86 19.47Q17.17 19.27 17.45 19.01Q17.84 18.64 18.11 18.19Q18.38 17.73 18.52 17.2Q18.98 15.38 19.1 13.54Q19.2 11.84 19.01 10.12Z" fill="#7F7667" fill-opacity="1.000000" fill-rule="evenodd"/>
	</g>
</svg>
