<svg width="24.000000" height="24.000000" viewBox="0 0 24 24" fill="none" xmlns="http://www.w3.org/2000/svg" xmlns:xlink="http://www.w3.org/1999/xlink">
	<desc>
			Created with Pixso.
	</desc>
	<defs>
		<clipPath id="clip6_2950">
			<rect width="24.000000" height="24.000000" fill="white" fill-opacity="0"/>
		</clipPath>
	</defs>
	<g clip-path="url(#clip6_2950)">
		<path d="M4.8 10.7C5.33 8.73 6.98 7.21 9.07 6.77L9.57 6.67C11.17 6.34 12.82 6.34 14.42 6.67L14.92 6.77C17.01 7.21 18.66 8.73 19.19 10.7C19.6 12.25 19.6 13.86 19.19 15.4C18.66 17.38 17.01 18.9 14.92 19.33L14.42 19.43C12.82 19.77 11.17 19.77 9.57 19.43L9.07 19.33C6.98 18.9 5.33 17.38 4.8 15.4C4.39 13.86 4.39 12.25 4.8 10.7ZM14.83 2.48L14.83 2.45C15.13 2.16 15.6 2.17 15.89 2.48C16.18 2.78 16.17 3.25 15.86 3.54L15.83 3.54L14.83 2.48ZM8.16 3.54L8.13 3.54C7.82 3.25 7.81 2.78 8.1 2.48C8.39 2.17 8.86 2.16 9.16 2.45L9.16 2.48L8.16 3.54ZM8.05 19L8.05 18.98C8.29 18.63 8.75 18.55 9.09 18.79C9.44 19.03 9.52 19.49 9.28 19.84L9.25 19.84L8.05 19ZM8.16 21.4L8.17 21.42C7.92 21.77 7.47 21.85 7.12 21.61C6.78 21.37 6.7 20.91 6.94 20.57L6.96 20.56L8.16 21.4ZM14.74 19.84L14.71 19.84C14.47 19.49 14.56 19.03 14.9 18.79C15.24 18.55 15.7 18.63 15.94 18.98L15.94 19L14.74 19.84ZM17.03 20.56L17.06 20.57C17.3 20.91 17.21 21.37 16.87 21.61C16.53 21.85 16.07 21.77 15.83 21.42L15.83 21.4L17.03 20.56Z" fill="#E9E1D8" fill-opacity="1.000000" fill-rule="nonzero"/>
		<path d="M9.57 6.67C11.17 6.34 12.82 6.34 14.42 6.67L14.92 6.77C17.01 7.21 18.66 8.73 19.19 10.7C19.6 12.25 19.6 13.86 19.19 15.4C18.66 17.38 17.01 18.9 14.92 19.33L14.42 19.43C12.82 19.77 11.17 19.77 9.57 19.43L9.07 19.33C6.98 18.9 5.33 17.38 4.8 15.4C4.39 13.86 4.39 12.25 4.8 10.7C5.33 8.73 6.98 7.21 9.07 6.77L9.57 6.67ZM15.35 3L12 6.17L8.64 3M8.66 19.41L7.55 21M15.33 19.41L16.44 " stroke="#7F7667" stroke-opacity="1.000000" stroke-width="1.500000"/>
	</g>
</svg>
