<svg width="24.000000" height="24.000000" viewBox="0 0 24 24" fill="none" xmlns="http://www.w3.org/2000/svg" xmlns:xlink="http://www.w3.org/1999/xlink">
	<desc>
			Created with Pixso.
	</desc>
	<defs>
		<clipPath id="clip6_2710">
			<rect width="24.000000" height="24.000000" fill="white" fill-opacity="0"/>
		</clipPath>
	</defs>
	<g clip-path="url(#clip6_2710)">
		<path d="M20.22 15.14C19.65 17.65 17.7 19.62 15.2 20.22C13.1 20.73 10.89 20.73 8.79 20.22C6.29 19.62 4.34 17.65 3.77 15.14C3.27 12.9 3.39 10.56 4.13 8.39L4.24 8.06C5.06 5.67 7.1 3.91 9.59 3.44L10.27 3.32C11.41 3.1 12.58 3.1 13.72 3.32L14.4 3.44C16.89 3.91 18.93 5.67 19.75 8.06L19.86 8.39C20.6 10.56 20.73 12.9 20.22 15.14Z" fill="#E9E1D8" fill-opacity="1.000000" fill-rule="nonzero"/>
		<path d="M10.27 3.32C11.41 3.1 12.58 3.1 13.72 3.32L14.4 3.44C16.89 3.91 18.93 5.67 19.75 8.06L19.86 8.39C20.6 10.56 20.73 12.9 20.22 15.14C19.65 17.65 17.7 19.62 15.2 20.22C13.1 20.73 10.89 20.73 8.79 20.22C6.29 19.62 4.34 17.65 3.77 15.14C3.27 12.9 3.39 10.56 4.13 8.39L4.24 8.06C5.06 5.67 7.1 3.91 9.59 3.44L10.27 3.32Z" stroke="#7F7667" stroke-opacity="1.000000" stroke-width="1.500000"/>
		<path d="M14.8 7L15 7.47C15.32 8.25 15.4 9.1 15.23 9.92C14.97 11.17 13.97 12.14 12.71 12.37L12.6 12.39C12.2 12.46 11.79 12.46 11.39 12.39L11.28 12.37C10.02 12.14 9.02 11.17 8.76 9.92C8.59 9.1 8.67 8.25 8.99 7.47L9.2 " stroke="#7F7667" stroke-opacity="1.000000" stroke-width="1.500000" stroke-linecap="round"/>
	</g>
</svg>
