<svg width="24.000000" height="24.000000" viewBox="0 0 24 24" fill="none" xmlns="http://www.w3.org/2000/svg" xmlns:xlink="http://www.w3.org/1999/xlink">
	<desc>
			Created with Pixso.
	</desc>
	<defs>
		<clipPath id="clip6_3001">
			<rect width="24.000000" height="24.000000" fill="white" fill-opacity="0"/>
		</clipPath>
	</defs>
	<g clip-path="url(#clip6_3001)">
		<path d="M18.5 18.86L18.5 8.07C18.5 5.99 17.03 4.2 15 3.79C13.02 3.4 10.97 3.4 8.99 3.79C6.96 4.2 5.5 5.99 5.5 8.07L5.5 18.86C5.5 20.12 6.86 20.91 7.94 20.27L10.9 18.53C11.58 18.13 12.41 18.13 13.09 18.53L16.05 20.27C17.13 20.91 18.5 20.12 18.5 18.86Z" fill="#E9E1D8" fill-opacity="1.000000" fill-rule="nonzero"/>
		<path d="M18.5 18.86C18.5 20.12 17.13 20.91 16.05 20.27L13.09 18.53C12.41 18.13 11.58 18.13 10.9 18.53L7.94 20.27C6.86 20.91 5.5 20.12 5.5 18.86L5.5 8.07C5.5 5.99 6.96 4.2 8.99 3.79C10.97 3.4 13.02 3.4 15 3.79C17.03 4.2 18.5 5.99 18.5 8.07L18.5 18.86Z" stroke="#7F7667" stroke-opacity="1.000000" stroke-width="1.500000" stroke-linejoin="round"/>
	</g>
</svg>
