<svg width="24.000000" height="24.000000" viewBox="0 0 24 24" fill="none" xmlns="http://www.w3.org/2000/svg" xmlns:xlink="http://www.w3.org/1999/xlink">
	<desc>
			Created with Pixso.
	</desc>
	<defs>
		<clipPath id="clip6_2930">
			<rect width="24.000000" height="24.000000" fill="white" fill-opacity="0"/>
		</clipPath>
	</defs>
	<g clip-path="url(#clip6_2930)">
		<path d="M12 19.69L12 4.3C11.09 4.3 10.18 4.41 9.28 4.61C6.82 5.16 4.89 7.02 4.31 9.39C3.89 11.1 3.89 12.89 4.31 14.6C4.89 16.97 6.82 18.83 9.28 19.38C10.18 19.58 11.09 19.69 12 19.69ZM11.27 3.02L11.25 3C11.25 2.58 11.58 2.25 12 2.25C12.41 2.25 12.75 2.58 12.75 3L12.73 3.02L11.27 3.02ZM12.73 20.98L12.75 21C12.75 21.41 12.41 21.75 12 21.75C11.58 21.75 11.25 21.41 11.25 21L11.27 20.98L12.73 20.98ZM14.89 20.09L14.87 20.12C14.46 20.21 14.07 19.96 13.97 19.55C13.88 19.14 14.13 18.74 14.54 18.65L14.56 18.67L14.89 20.09ZM14.56 5.32L14.54 5.34C14.13 5.25 13.88 4.85 13.97 4.44C14.07 4.03 14.46 3.78 14.87 3.87L14.89 3.9L14.56 5.32ZM11.98 3.57L12 3.55C12.41 3.55 12.75 3.88 12.75 4.3C12.75 4.72 12.41 5.05 12 5.05L11.98 5.03L11.98 3.57ZM11.98 18.96L12 18.94C12.41 18.94 12.75 19.27 12.75 19.69C12.75 20.11 12.41 20.44 12 20.44L11.98 20.42L11.98 18.96Z" fill="#E9E1D8" fill-opacity="1.000000" fill-rule="nonzero"/>
		<path d="M12 3L12 21M12 19.69C11.09 19.69 10.18 19.58 9.28 19.38C6.82 18.83 4.89 16.97 4.31 14.6C3.89 12.89 3.89 11.1 4.31 9.39C4.89 7.02 6.82 5.16 9.28 4.61C10.18 4.41 11.09 4.3 12 4.3M14.71 4.61C17.17 5.16 19.1 7.02 19.68 9.39C20.1 11.1 20.1 12.89 19.68 14.6C19.1 16.97 17.17 18.83 14.71 " stroke="#7F7667" stroke-opacity="1.000000" stroke-width="1.500000"/>
	</g>
</svg>
