<svg width="24.000000" height="24.000000" viewBox="0 0 24 24" fill="none" xmlns="http://www.w3.org/2000/svg" xmlns:xlink="http://www.w3.org/1999/xlink">
	<desc>
			Created with Pixso.
	</desc>
	<defs>
		<clipPath id="clip6_2752">
			<rect width="24.000000" height="24.000000" fill="white" fill-opacity="0"/>
		</clipPath>
	</defs>
	<g clip-path="url(#clip6_2752)">
		<path d="M6.78 6.78C5.04 7.56 3.73 9.12 3.29 11.02C2.9 12.68 2.9 14.41 3.29 16.07C3.83 18.37 5.62 20.16 7.92 20.7C9.58 21.09 11.31 21.09 12.97 20.7C14.87 20.26 16.43 18.95 17.21 17.21C18.95 16.43 20.26 14.87 20.7 12.97C21.09 11.31 21.09 9.58 20.7 7.92C20.16 5.62 18.37 3.83 16.07 3.29C14.41 2.9 12.68 2.9 11.02 3.29C9.12 3.73 7.56 5.04 6.78 6.78Z" fill="#E9E1D8" fill-opacity="1.000000" fill-rule="evenodd"/>
		<path d="M7.92 6.39C9.58 6 11.31 6 12.97 6.39C15.27 6.93 17.06 8.72 17.6 11.02C17.99 12.68 17.99 14.41 17.6 16.07C17.06 18.37 15.27 20.16 12.97 20.7C11.31 21.09 9.58 21.09 7.92 20.7C5.62 20.16 3.83 18.37 3.29 16.07C2.9 14.41 2.9 12.68 3.29 11.02C3.83 8.72 5.62 6.93 7.92 6.39ZM17.6 16.07C17.51 16.47 17.38 16.85 17.21 17.21C18.95 16.43 20.26 14.87 20.7 12.97C21.09 11.31 21.09 9.58 20.7 7.92C20.16 5.62 18.37 3.83 16.07 3.29C14.41 2.9 12.68 2.9 11.02 3.29C9.12 3.73 7.56 5.04 6.78 6.78C7.14 6.61 7.52 6.48 7.92 " stroke="#7F7667" stroke-opacity="1.000000" stroke-width="1.500000"/>
		<path d="M7.11 12.61L7.08 12.62C6.73 12.39 6.64 11.93 6.87 11.58C7.1 11.23 7.56 11.14 7.91 11.37L7.92 11.4L7.11 12.61ZM13.07 11.4L13.08 11.37C13.43 11.14 13.89 11.23 14.12 11.58C14.35 11.93 14.26 12.39 13.91 12.62L13.88 12.61L13.07 11.4Z" fill="#E9E1D8" fill-opacity="1.000000" fill-rule="nonzero"/>
		<path d="M7.5 12L9.39 13.26C10.06 13.7 10.93 13.7 11.6 13.26L13.5 " stroke="#7F7667" stroke-opacity="1.000000" stroke-width="1.500000" stroke-linecap="round"/>
	</g>
</svg>
