<svg width="24.000000" height="24.000000" viewBox="0 0 24 24" fill="none" xmlns="http://www.w3.org/2000/svg" xmlns:xlink="http://www.w3.org/1999/xlink">
	<desc>
			Created with Pixso.
	</desc>
	<defs>
		<clipPath id="clip6_3008">
			<rect width="24.000000" height="24.000000" fill="white" fill-opacity="0"/>
		</clipPath>
	</defs>
	<g clip-path="url(#clip6_3008)">
		<path d="M3.35 8.95C4 6.17 6.17 4 8.95 3.35C10.95 2.88 13.04 2.88 15.04 3.35C17.82 4 19.99 6.17 20.64 8.95C21.11 10.95 21.11 13.04 20.64 15.04C19.99 17.82 17.82 19.99 15.04 20.64C13.04 21.11 10.95 21.11 8.95 20.64C6.17 19.99 4 17.82 3.35 15.04C2.88 13.04 2.88 10.95 3.35 8.95Z" fill="#E9E1D8" fill-opacity="1.000000" fill-rule="nonzero"/>
		<path d="M3.35 8.95C4 6.17 6.17 4 8.95 3.35C10.95 2.88 13.04 2.88 15.04 3.35C17.82 4 19.99 6.17 20.64 8.95C21.11 10.95 21.11 13.04 20.64 15.04C19.99 17.82 17.82 19.99 15.04 20.64C13.04 21.11 10.95 21.11 8.95 20.64C6.17 19.99 4 17.82 3.35 15.04C2.88 13.04 2.88 10.95 3.35 8.95Z" stroke="#7F7667" stroke-opacity="1.000000" stroke-width="1.500000"/>
		<path d="M13.96 10.49L13.96 10.46C14.26 10.17 14.73 10.17 15.03 10.46C15.32 10.76 15.32 11.23 15.03 11.53L15 11.53L13.96 10.49ZM8.99 11.53L8.96 11.53C8.67 11.23 8.67 10.76 8.96 10.46C9.26 10.17 9.73 10.17 10.03 10.46L10.03 10.49L8.99 11.53Z" fill="#E9E1D8" fill-opacity="1.000000" fill-rule="nonzero"/>
		<path d="M10.03 10.46L12.53 12.96L12 13.5L11.46 12.96L13.96 10.46L15.03 11.53L12.53 14.03Q12.47 14.08 12.41 14.12Q12.35 14.16 12.28 14.19Q12.21 14.22 12.14 14.23Q12.07 14.24 12 14.24Q11.92 14.24 11.85 14.23Q11.78 14.22 11.71 14.19Q11.64 14.16 11.58 14.12Q11.52 14.08 11.46 14.03L8.96 11.53L10.03 10.46ZM13.96 10.49L13.96 10.46C14.26 10.17 14.73 10.17 15.03 10.46C15.32 10.76 15.32 11.23 15.03 11.53L15 11.53L13.96 10.49ZM8.99 11.53L8.96 11.53C8.67 11.23 8.67 10.76 8.96 10.46C9.26 10.17 9.73 10.17 10.03 10.46L10.03 10.49L8.99 11.53Z" fill="#7F7667" fill-opacity="1.000000" fill-rule="evenodd"/>
	</g>
</svg>
