<svg width="24.000000" height="24.000000" viewBox="0 0 24 24" fill="none" xmlns="http://www.w3.org/2000/svg" xmlns:xlink="http://www.w3.org/1999/xlink">
	<desc>
			Created with Pixso.
	</desc>
	<defs>
		<clipPath id="clip6_3051">
			<rect width="24.000000" height="24.000000" fill="white" fill-opacity="0"/>
		</clipPath>
	</defs>
	<g clip-path="url(#clip6_3051)">
		<path d="M17.98 11.27L18 11.25C18.41 11.25 18.75 11.58 18.75 12C18.75 12.41 18.41 12.75 18 12.75L17.98 12.73L17.98 11.27ZM6.02 12.73L6 12.75C5.58 12.75 5.25 12.41 5.25 12C5.25 11.58 5.58 11.25 6 11.25L6.02 11.27L6.02 12.73Z" fill="#E9E1D8" fill-opacity="1.000000" fill-rule="nonzero"/>
		<path d="M18 12L6 " stroke="#7F7667" stroke-opacity="1.000000" stroke-width="1.500000" stroke-linecap="round"/>
		<path d="M20.98 3.27L21 3.25C21.41 3.25 21.75 3.58 21.75 4C21.75 4.41 21.41 4.75 21 4.75L20.98 4.72L20.98 3.27ZM3.02 4.72L3 4.75C2.58 4.75 2.25 4.41 2.25 4C2.25 3.58 2.58 3.25 3 3.25L3.02 3.27L3.02 4.72Z" fill="#E9E1D8" fill-opacity="1.000000" fill-rule="nonzero"/>
		<path d="M21 4L3 " stroke="#7F7667" stroke-opacity="1.000000" stroke-width="1.500000" stroke-linecap="round"/>
		<path d="M9.02 20.73L9 20.75C8.58 20.75 8.25 20.41 8.25 20C8.25 19.58 8.58 19.25 9 19.25L9.02 19.27L9.02 20.73ZM14.98 19.27L15 19.25C15.41 19.25 15.75 19.58 15.75 20C15.75 20.41 15.41 20.75 15 20.75L14.98 20.73L14.98 19.27Z" fill="#E9E1D8" fill-opacity="1.000000" fill-rule="nonzero"/>
		<path d="M9 20L15 " stroke="#7F7667" stroke-opacity="1.000000" stroke-width="1.500000" stroke-linecap="round"/>
	</g>
</svg>
