<svg width="24.000000" height="24.000000" viewBox="0 0 24 24" fill="none" xmlns="http://www.w3.org/2000/svg" xmlns:xlink="http://www.w3.org/1999/xlink">
	<desc>
			Created with Pixso.
	</desc>
	<defs>
		<clipPath id="clip6_2885">
			<rect width="24.000000" height="24.000000" fill="white" fill-opacity="0"/>
		</clipPath>
	</defs>
	<g clip-path="url(#clip6_2885)">
		<path d="M2.49 3.53L2.46 3.53C2.17 3.23 2.17 2.76 2.46 2.46C2.76 2.17 3.23 2.17 3.53 2.46L3.53 2.49L2.49 3.53ZM8.58 5.71C8.94 4.15 10.33 3 12 3C13.66 3 15.05 4.15 15.41 5.71L15.56 5.74C17.84 6.21 19.66 7.94 20.26 10.2C20.74 12.03 20.74 13.96 20.26 15.79C19.96 16.91 19.31 17.71 18.51 18.48L19.01 19.01L19.01 19.04C18.71 19.33 18.24 19.32 17.95 19.01C17.67 18.71 17.67 18.26 17.96 17.96L14.5 14.5C14.39 14.51 14.27 14.51 14.15 14.47C13.79 14.35 13.58 14 13.64 13.64L11.35 11.35C10.99 11.41 10.64 11.2 10.53 10.84C10.49 10.72 10.48 10.61 10.5 10.5L6.56 6.56L6.9 7.1L6.89 7.13C6.53 7.35 6.08 7.25 5.86 6.89C5.64 6.53 5.74 6.08 6.1 5.86L6.13 5.86L6.51 6.48C7.11 6.12 7.72 5.89 8.43 5.74L8.58 5.71ZM4.23 7.56L4.23 7.54C4.49 7.2 4.95 7.14 5.28 7.4C5.61 7.66 5.67 8.12 5.41 8.45L5.39 8.46L4.23 7.56ZM8.88 12.08L8.89 12.1L10.29 12.52L10.32 12.5C10.43 12.1 10.21 11.69 9.81 11.57C9.4 11.45 8.99 11.68 8.88 12.08ZM12.49 14.68L12.47 14.7L12.88 16.1L12.9 16.12C13.31 16 13.53 15.59 13.41 15.19C13.3 14.78 12.89 14.56 12.49 14.68ZM16.42 19.2L16.41 19.22L16.99 20.57L17.01 20.58C17.4 20.41 17.57 19.98 17.41 19.59C17.24 19.21 16.81 19.03 16.42 19.2ZM21.53 20.46L21.5 20.46L20.46 21.5L20.46 21.53C20.76 21.82 21.23 21.82 21.53 21.53C21.82 21.23 21.82 20.76 21.53 20.46Z" fill="#E9E1D8" fill-opacity="1.000000" fill-rule="evenodd"/>
		<path d="M6.5 6.5C7.1 6.12 7.72 5.89 8.43 5.74L8.58 5.71C8.94 4.15 10.33 3 12 3C13.66 3 15.05 4.15 15.41 5.71L15.56 5.74C17.84 6.21 19.66 7.94 20.26 10.2C20.74 12.03 20.74 13.96 20.26 15.79C19.96 16.92 19.31 17.72 18.5 18.5M16.72 19.89C16.35 20.05 15.96 20.17 15.56 20.25L15.12 20.34C13.06 20.77 10.93 20.77 8.87 20.34L8.43 20.25C6.15 19.78 4.33 18.05 3.73 15.79C3.25 13.96 3.25 12.03 3.73 10.2C3.95 9.38 4.32 8.64 4.82 8M12.69 15.4C12.47 15.46 12.24 15.5 12 15.5C10.61 15.5 9.5 14.38 9.5 13C9.5 12.75 9.53 12.51 9.6 12.29M11.24 10.61C11.48 10.54 11.73 10.5 12 10.5C13.38 10.5 14.5 11.61 14.5 13C14.5 13.26 14.45 13.52 14.38 13.75M3 3L6.5 6.5L18.5 18.5L21 " stroke="#7F7667" stroke-opacity="1.000000" stroke-width="1.500000"/>
	</g>
</svg>
