<svg width="24.000000" height="24.000000" viewBox="0 0 24 24" fill="none" xmlns="http://www.w3.org/2000/svg" xmlns:xlink="http://www.w3.org/1999/xlink">
	<desc>
			Created with Pixso.
	</desc>
	<defs>
		<clipPath id="clip6_2837">
			<rect width="24.000000" height="24.000000" fill="white" fill-opacity="0"/>
		</clipPath>
	</defs>
	<g clip-path="url(#clip6_2837)">
		<path d="M3.35 8.95C4 6.17 6.17 4 8.95 3.35C10.95 2.88 13.04 2.88 15.04 3.35C17.82 4 19.99 6.17 20.64 8.95C21.11 10.95 21.11 13.04 20.64 15.04C19.99 17.82 17.82 19.99 15.04 20.64C13.04 21.11 10.95 21.11 8.95 20.64C6.17 19.99 4 17.82 3.35 15.04C2.88 13.04 2.88 10.95 3.35 8.95Z" fill="#E9E1D8" fill-opacity="1.000000" fill-rule="nonzero"/>
		<path d="M3.35 8.95C4 6.17 6.17 4 8.95 3.35C10.95 2.88 13.04 2.88 15.04 3.35C17.82 4 19.99 6.17 20.64 8.95C21.11 10.95 21.11 13.04 20.64 15.04C19.99 17.82 17.82 19.99 15.04 20.64C13.04 21.11 10.95 21.11 8.95 20.64C6.17 19.99 4 17.82 3.35 15.04C2.88 13.04 2.88 10.95 3.35 8.95Z" stroke="#7F7667" stroke-opacity="1.000000" stroke-width="1.500000"/>
		<path d="M7.54 10.07L7.52 10.07C7.19 9.8 7.15 9.34 7.42 9.01C7.69 8.69 8.15 8.65 8.47 8.92L8.48 8.95L7.54 10.07ZM8.48 15.04L8.47 15.07C8.15 15.34 7.69 15.3 7.42 14.98C7.15 14.65 7.19 14.19 7.52 13.92L7.54 13.92L8.48 15.04Z" fill="#E9E1D8" fill-opacity="1.000000" fill-rule="nonzero"/>
		<path d="M8 9.5L10.07 11.23C10.55 11.63 10.55 12.36 10.07 12.76L8 " stroke="#7F7667" stroke-opacity="1.000000" stroke-width="1.500000" stroke-linejoin="round" stroke-linecap="round"/>
		<path d="M12.52 15.23L12.5 15.25C12.08 15.25 11.75 14.92 11.75 14.5C11.75 14.08 12.08 13.75 12.5 13.75L12.52 13.77L12.52 15.23ZM15.98 13.77L16 13.75C16.41 13.75 16.75 14.08 16.75 14.5C16.75 14.92 16.41 15.25 16 15.25L15.98 15.23L15.98 13.77Z" fill="#E9E1D8" fill-opacity="1.000000" fill-rule="nonzero"/>
		<path d="M12.5 14.5L16 " stroke="#7F7667" stroke-opacity="1.000000" stroke-width="1.500000" stroke-linecap="round"/>
	</g>
</svg>
