<svg width="24.000000" height="24.000000" viewBox="0 0 24 24" fill="none" xmlns="http://www.w3.org/2000/svg" xmlns:xlink="http://www.w3.org/1999/xlink">
	<desc>
			Created with Pixso.
	</desc>
	<defs>
		<clipPath id="clip6_2986">
			<rect width="24.000000" height="24.000000" fill="white" fill-opacity="0"/>
		</clipPath>
	</defs>
	<g clip-path="url(#clip6_2986)">
		<path d="M3.35 8.95C4 6.17 6.17 4 8.95 3.35C10.95 2.88 13.04 2.88 15.04 3.35C17.82 4 19.99 6.17 20.64 8.95C21.11 10.95 21.11 13.04 20.64 15.04C19.99 17.82 17.82 19.99 15.04 20.64C13.04 21.11 10.95 21.11 8.95 20.64C6.17 19.99 4 17.82 3.35 15.04C2.88 13.04 2.88 10.95 3.35 8.95Z" fill="#E9E1D8" fill-opacity="1.000000" fill-rule="evenodd"/>
		<path d="M3.35 8.95C4 6.17 6.17 4 8.95 3.35C10.95 2.88 13.04 2.88 15.04 3.35C17.82 4 19.99 6.17 20.64 8.95C21.11 10.95 21.11 13.04 20.64 15.04C19.99 17.82 17.82 19.99 15.04 20.64C13.04 21.11 10.95 21.11 8.95 20.64C6.17 19.99 4 17.82 3.35 15.04C2.88 13.04 2.88 10.95 3.35 8.95ZM8.35 12.78L10.06 11.24C10.48 10.87 10.68 10.68 10.92 10.71C11.16 10.74 11.31 10.97 11.62 11.44L12.37 12.55C12.68 13.02 12.83 13.25 13.07 13.28C13.31 13.31 13.51 13.12 13.93 12.75L15.64 " stroke="#7F7667" stroke-opacity="1.000000" stroke-width="1.500000" stroke-linecap="round"/>
	</g>
</svg>
