<svg width="24.000000" height="24.000000" viewBox="0 0 24 24" fill="none" xmlns="http://www.w3.org/2000/svg" xmlns:xlink="http://www.w3.org/1999/xlink">
	<desc>
			Created with Pixso.
	</desc>
	<defs>
		<clipPath id="clip6_2821">
			<rect width="24.000000" height="24.000000" fill="white" fill-opacity="0"/>
		</clipPath>
	</defs>
	<g clip-path="url(#clip6_2821)">
		<path d="M3.47 10.61C4.03 8.64 5.66 7.15 7.69 6.76L8.77 6.56C10.9 6.14 13.09 6.14 15.22 6.56L16.3 6.76C18.33 7.15 19.96 8.64 20.52 10.61L20.62 10.93C21.12 12.71 21.12 14.61 20.61 16.4C20 18.55 18.21 20.19 15.99 20.61C13.35 21.12 10.64 21.12 8 20.61C5.78 20.19 3.99 18.55 3.38 16.4C2.87 14.61 2.87 12.71 3.37 10.93L3.47 10.61Z" fill="#E9E1D8" fill-opacity="1.000000" fill-rule="nonzero"/>
		<path d="M7.82 7.06C7.82 5.22 9.07 3.62 10.87 3.14C11.61 2.95 12.38 2.95 13.12 3.14C14.92 3.62 16.17 5.22 16.17 7.06M8.77 6.56C10.9 6.14 13.09 6.14 15.22 6.56L16.3 6.76C18.33 7.15 19.96 8.64 20.52 10.61L20.62 10.93C21.12 12.71 21.12 14.61 20.61 16.4C20 18.55 18.21 20.19 15.99 20.61C13.35 21.12 10.64 21.12 8 20.61C5.78 20.19 3.99 18.55 3.38 16.4C2.87 14.61 2.87 12.71 3.37 10.93L3.47 10.61C4.03 8.64 5.66 7.15 7.69 6.76L8.77 6.56ZM3.64 11.08C9.03 13.08 14.96 13.08 20.35 " stroke="#7F7667" stroke-opacity="1.000000" stroke-width="1.500000"/>
		<path d="M7.27 10.52L7.25 10.5C7.25 10.08 7.58 9.75 8 9.75C8.41 9.75 8.75 10.08 8.75 10.5L8.72 10.52L7.27 10.52ZM8.72 13.98L8.75 14C8.75 14.42 8.41 14.75 8 14.75C7.58 14.75 7.25 14.42 7.25 14L7.27 13.98L8.72 13.98Z" fill="#E9E1D8" fill-opacity="1.000000" fill-rule="nonzero"/>
		<path d="M8 10.5L8 " stroke="#7F7667" stroke-opacity="1.000000" stroke-width="1.500000" stroke-linecap="round"/>
		<path d="M15.27 10.52L15.25 10.5C15.25 10.08 15.58 9.75 16 9.75C16.41 9.75 16.75 10.08 16.75 10.5L16.73 10.52L15.27 10.52ZM16.73 13.98L16.75 14C16.75 14.42 16.41 14.75 16 14.75C15.58 14.75 15.25 14.42 15.25 14L15.27 13.98L16.73 13.98Z" fill="#E9E1D8" fill-opacity="1.000000" fill-rule="nonzero"/>
		<path d="M16 10.5L16 " stroke="#7F7667" stroke-opacity="1.000000" stroke-width="1.500000" stroke-linecap="round"/>
	</g>
</svg>
