<svg width="24.000000" height="24.000000" viewBox="0 0 24 24" fill="none" xmlns="http://www.w3.org/2000/svg" xmlns:xlink="http://www.w3.org/1999/xlink">
	<desc>
			Created with Pixso.
	</desc>
	<defs>
		<clipPath id="clip6_3075">
			<rect width="24.000000" height="24.000000" fill="white" fill-opacity="0"/>
		</clipPath>
	</defs>
	<g clip-path="url(#clip6_3075)">
		<path d="M6.52 12.73L6.5 12.75C6.08 12.75 5.75 12.41 5.75 12C5.75 11.58 6.08 11.25 6.5 11.25L6.52 11.27L6.52 12.73ZM12.44 8.56L12.41 8.56C12.1 8.28 12.07 7.82 12.34 7.5C12.62 7.19 13.08 7.15 13.4 7.43L13.4 7.46L12.44 8.56ZM13.4 16.53L13.4 16.56C13.08 16.84 12.62 16.8 12.34 16.49C12.07 16.17 12.1 15.71 12.41 15.43L12.44 15.43L13.4 16.53Z" fill="#E9E1D8" fill-opacity="1.000000" fill-rule="nonzero"/>
		<path d="M6.5 12L17.5 12M12.91 16L17.5 12L12.91 " stroke="#7F7667" stroke-opacity="1.000000" stroke-width="1.500000" stroke-linejoin="round"/>
	</g>
</svg>
