<svg width="24.000000" height="24.000000" viewBox="0 0 24 24" fill="none" xmlns="http://www.w3.org/2000/svg" xmlns:xlink="http://www.w3.org/1999/xlink">
	<desc>
			Created with Pixso.
	</desc>
	<defs>
		<clipPath id="clip6_2873">
			<rect width="24.000000" height="24.000000" fill="white" fill-opacity="0"/>
		</clipPath>
	</defs>
	<g clip-path="url(#clip6_2873)">
		<path d="M11.02 17.02L11 17C11 16.43 11.43 16 12 16C12.56 16 13 16.43 13 17L12.98 17.02L11.02 17.02ZM12.98 17L13 17.02C13 17.58 12.56 18.02 12 18.02C11.43 18.02 11 17.58 11 17.02L11.02 17L12.98 17Z" fill="#E9E1D8" fill-opacity="1.000000" fill-rule="nonzero"/>
		<path d="M12 17L12 " stroke="#7F7667" stroke-opacity="1.000000" stroke-width="2.000000" stroke-linecap="round"/>
		<path d="M13.25 7L10.75 " stroke="#7F7667" stroke-opacity="1.000000" stroke-width="1.500000" stroke-linecap="round"/>
		<path d="M9.08 20.62C6.72 19.99 4.92 18.1 4.43 15.71L4.33 15.25C3.88 13.1 3.88 10.89 4.33 8.74L4.43 8.28C4.92 5.89 6.72 4 9.08 3.37C10.99 2.87 13 2.87 14.91 3.37C17.27 4 19.07 5.89 19.56 8.28L19.66 8.74C20.11 10.89 20.11 13.1 19.66 15.25L19.56 15.71C19.07 18.1 17.27 19.99 14.91 20.62C13 21.12 10.99 21.12 9.08 20.62ZM19.28 13.35L19.3 13.33C19.72 13.33 20.05 13.66 20.05 14.08C20.05 14.5 19.72 14.83 19.3 14.83L19.28 14.81L19.28 13.35ZM4.71 14.81L4.69 14.83C4.27 14.83 3.94 14.5 3.94 14.08C3.94 13.66 4.27 13.33 4.69 13.33L4.71 13.35L4.71 14.81Z" fill="#E9E1D8" fill-opacity="1.000000" fill-rule="nonzero"/>
		<path d="M4.33 15.25C3.88 13.1 3.88 10.89 4.33 8.74L4.43 8.28C4.92 5.89 6.72 4 9.08 3.37C10.99 2.87 13 2.87 14.91 3.37C17.27 4 19.07 5.89 19.56 8.28L19.66 8.74C20.11 10.89 20.11 13.1 19.66 15.25L19.56 15.71C19.07 18.1 17.27 19.99 14.91 20.62C13 21.12 10.99 21.12 9.08 20.62C6.72 19.99 4.92 18.1 4.43 15.71L4.33 15.25ZM19.3 14.08L4.69 " stroke="#7F7667" stroke-opacity="1.000000" stroke-width="1.500000" stroke-linecap="round"/>
	</g>
</svg>
