<svg width="24.000000" height="24.000000" viewBox="0 0 24 24" fill="none" xmlns="http://www.w3.org/2000/svg" xmlns:xlink="http://www.w3.org/1999/xlink">
	<desc>
			Created with Pixso.
	</desc>
	<defs>
		<clipPath id="clip6_2793">
			<rect width="24.000000" height="24.000000" fill="white" fill-opacity="0"/>
		</clipPath>
	</defs>
	<g clip-path="url(#clip6_2793)">
		<path d="M10.86 7L10.12 7C9.29 7 8.47 7.15 7.69 7.44C6.32 7.94 5.32 9.19 5.1 10.69L5.09 10.74C4.96 11.57 4.96 12.42 5.09 13.25L5.1 13.3C5.32 14.8 6.32 16.05 7.69 16.55C8.47 16.84 9.29 16.99 10.12 16.99L10.86 16.99C11.31 16.99 11.73 17.18 12.04 17.51L12.59 18.09C14.18 19.79 16.93 18.98 17.47 16.66C18.17 13.59 18.17 10.4 17.47 7.33C16.93 5.01 14.18 4.2 12.59 5.9L12.04 6.48C11.73 6.81 11.31 7 10.86 7Z" fill="#E9E1D8" fill-opacity="1.000000" fill-rule="nonzero"/>
		<path d="M10.86 7C11.31 7 11.73 6.81 12.04 6.48L12.59 5.9C14.18 4.2 16.93 5.01 17.47 7.33C18.17 10.4 18.17 13.59 17.47 16.66C16.93 18.98 14.18 19.79 12.59 18.09L12.04 17.51C11.73 17.18 11.31 16.99 10.86 16.99L10.12 16.99C9.29 16.99 8.47 16.84 7.69 16.55C6.32 16.05 5.32 14.8 5.1 13.3L5.09 13.25C4.96 12.42 4.96 11.57 5.09 10.74L5.1 10.69C5.32 9.19 6.32 7.94 7.69 7.44C8.47 7.15 9.29 7 10.12 7L10.86 7Z" stroke="#7F7667" stroke-opacity="1.000000" stroke-width="1.500000"/>
	</g>
</svg>
