<svg width="24.000000" height="24.000000" viewBox="0 0 24 24" fill="none" xmlns="http://www.w3.org/2000/svg" xmlns:xlink="http://www.w3.org/1999/xlink">
	<desc>
			Created with Pixso.
	</desc>
	<defs>
		<clipPath id="clip6_2981">
			<rect width="24.000000" height="24.000000" fill="white" fill-opacity="0"/>
		</clipPath>
	</defs>
	<g clip-path="url(#clip6_2981)">
		<path d="M3.35 8.95C4 6.17 6.17 4 8.95 3.35C10.95 2.88 13.04 2.88 15.04 3.35C17.82 4 19.99 6.17 20.64 8.95C21.11 10.95 21.11 13.04 20.64 15.04C19.99 17.82 17.82 19.99 15.04 20.64C13.04 21.11 10.95 21.11 8.95 20.64C6.17 19.99 4 17.82 3.35 15.04C2.88 13.04 2.88 10.95 3.35 8.95ZM9.6 15.1L9.62 15.12C9.62 15.54 9.29 15.87 8.87 15.87C8.45 15.87 8.12 15.54 8.12 15.12L8.14 15.1L9.6 15.1ZM8.14 10.97L8.12 10.95C8.12 10.53 8.45 10.2 8.87 10.2C9.29 10.2 9.62 10.53 9.62 10.95L9.6 10.97L8.14 10.97ZM15.85 15.1L15.87 15.12C15.87 15.54 15.54 15.87 15.12 15.87C14.7 15.87 14.37 15.54 14.37 15.12L14.39 15.1L15.85 15.1ZM14.39 12.02L14.37 12C14.37 11.58 14.7 11.25 15.12 11.25C15.54 11.25 15.87 11.58 15.87 12L15.85 12.02L14.39 12.02ZM12.73 14.06L12.75 14.08C12.75 14.5 12.41 14.83 12 14.83C11.58 14.83 11.25 14.5 11.25 14.08L11.27 14.06L12.73 14.06ZM11.27 8.89L11.25 8.87C11.25 8.45 11.58 8.12 12 8.12C12.41 8.12 12.75 8.45 12.75 8.87L12.73 8.89L11.27 8.89Z" fill="#E9E1D8" fill-opacity="1.000000" fill-rule="nonzero"/>
		<path d="M3.35 8.95C4 6.17 6.17 4 8.95 3.35C10.95 2.88 13.04 2.88 15.04 3.35C17.82 4 19.99 6.17 20.64 8.95C21.11 10.95 21.11 13.04 20.64 15.04C19.99 17.82 17.82 19.99 15.04 20.64C13.04 21.11 10.95 21.11 8.95 20.64C6.17 19.99 4 17.82 3.35 15.04C2.88 13.04 2.88 10.95 3.35 8.95ZM8.87 15.12L8.87 10.95M15.12 15.12L15.12 12M12 14.08L12 " stroke="#7F7667" stroke-opacity="1.000000" stroke-width="1.500000"/>
	</g>
</svg>
