<svg width="141" height="37" viewBox="0 0 141 37" fill="none" xmlns="http://www.w3.org/2000/svg">
<path d="M15.2727 16.2188C15.1335 15.7348 14.938 15.3073 14.6861 14.9361C14.4342 14.5582 14.1259 14.2401 13.7614 13.9815C13.4034 13.7164 12.9924 13.5142 12.5284 13.375C12.071 13.2358 11.5639 13.1662 11.0071 13.1662C9.96638 13.1662 9.05161 13.4247 8.26278 13.9418C7.48059 14.4588 6.87074 15.2112 6.43324 16.1989C5.99574 17.1799 5.77699 18.3797 5.77699 19.7983C5.77699 21.2169 5.99242 22.4233 6.4233 23.4176C6.85417 24.4119 7.46402 25.1709 8.25284 25.6946C9.04167 26.2116 9.97301 26.4702 11.0469 26.4702C12.0213 26.4702 12.8532 26.2978 13.5426 25.9531C14.2386 25.6018 14.7689 25.108 15.1335 24.4716C15.5047 23.8352 15.6903 23.0829 15.6903 22.2145L16.5653 22.3438H11.3153V19.1023H19.8366V21.6676C19.8366 23.4574 19.4588 24.9953 18.7031 26.2812C17.9474 27.5606 16.9067 28.5483 15.581 29.2443C14.2552 29.9337 12.7372 30.2784 11.027 30.2784C9.1179 30.2784 7.44081 29.8575 5.99574 29.0156C4.55066 28.1671 3.42377 26.964 2.61506 25.4062C1.81297 23.8419 1.41193 21.9858 1.41193 19.8381C1.41193 18.1875 1.65057 16.7159 2.12784 15.4233C2.61174 14.1241 3.28788 13.0237 4.15625 12.1222C5.02462 11.2206 6.03551 10.5346 7.18892 10.0639C8.34233 9.59328 9.59186 9.35795 10.9375 9.35795C12.0909 9.35795 13.1648 9.52699 14.1591 9.86506C15.1534 10.1965 16.035 10.6671 16.804 11.277C17.5795 11.8868 18.2126 12.6127 18.7031 13.4545C19.1937 14.2898 19.5085 15.2112 19.6477 16.2188H15.2727ZM29.9513 30.2983C28.3803 30.2983 27.0281 29.9801 25.8945 29.3438C24.7676 28.7008 23.8993 27.7926 23.2894 26.6193C22.6796 25.4394 22.3746 24.044 22.3746 22.4332C22.3746 20.8622 22.6796 19.4834 23.2894 18.2969C23.8993 17.1103 24.7577 16.1856 25.8647 15.5227C26.9783 14.8598 28.2842 14.5284 29.7823 14.5284C30.7899 14.5284 31.7279 14.6908 32.5962 15.0156C33.4712 15.3338 34.2335 15.8144 34.8832 16.4574C35.5394 17.1004 36.0498 17.9091 36.4144 18.8835C36.779 19.8513 36.9613 20.9848 36.9613 22.2841V23.4474H24.065V20.8224H32.9741C32.9741 20.2126 32.8415 19.6723 32.5763 19.2017C32.3112 18.7311 31.9433 18.3632 31.4727 18.098C31.0086 17.8262 30.4684 17.6903 29.8519 17.6903C29.2089 17.6903 28.6388 17.8395 28.1417 18.1378C27.6512 18.4295 27.2667 18.8239 26.9883 19.321C26.7099 19.8116 26.5674 20.3584 26.5607 20.9616V23.4574C26.5607 24.2131 26.6999 24.866 26.9783 25.4162C27.2634 25.9664 27.6644 26.3906 28.1815 26.6889C28.6985 26.9872 29.3117 27.1364 30.021 27.1364C30.4916 27.1364 30.9225 27.0701 31.3136 26.9375C31.7047 26.8049 32.0394 26.6061 32.3178 26.3409C32.5962 26.0758 32.8084 25.7509 32.9542 25.3665L36.8718 25.625C36.6729 26.5663 36.2653 27.3883 35.6488 28.0909C35.0389 28.7869 34.2501 29.3305 33.2823 29.7216C32.3211 30.1061 31.2108 30.2983 29.9513 30.2983ZM43.9613 21.1705V30H39.7255V14.7273H43.7624V17.4219H43.9414C44.2795 16.5336 44.8462 15.831 45.6417 15.3139C46.4371 14.7902 47.4016 14.5284 48.5352 14.5284C49.5958 14.5284 50.5205 14.7604 51.3093 15.2244C52.0981 15.6884 52.7113 16.3513 53.1488 17.2131C53.5863 18.0682 53.805 19.089 53.805 20.2756V30H49.5692V21.0312C49.5759 20.0966 49.3372 19.3674 48.8533 18.8438C48.3694 18.3134 47.7032 18.0483 46.8548 18.0483C46.2847 18.0483 45.7809 18.1709 45.3434 18.4162C44.9125 18.6615 44.5745 19.0194 44.3292 19.4901C44.0906 19.9541 43.9679 20.5142 43.9613 21.1705ZM67.2134 30H62.5998L69.6296 9.63636H75.1779L82.1978 30H77.5842L72.4833 14.2898H72.3242L67.2134 30ZM66.9251 21.9957H77.8228V25.3565H66.9251V21.9957ZM84.5692 30V14.7273H88.6758V17.392H88.8349C89.1133 16.4441 89.5806 15.7282 90.2369 15.2443C90.8931 14.7538 91.6488 14.5085 92.5039 14.5085C92.716 14.5085 92.9447 14.5218 93.19 14.5483C93.4353 14.5748 93.6507 14.6113 93.8363 14.6577V18.4162C93.6374 18.3565 93.3623 18.3035 93.011 18.2571C92.6597 18.2107 92.3382 18.1875 92.0465 18.1875C91.4234 18.1875 90.8666 18.3234 90.3761 18.5952C89.8922 18.8603 89.5077 19.2315 89.2227 19.7088C88.9442 20.1861 88.805 20.7363 88.805 21.3594V30H84.5692ZM104.915 14.7273V17.9091H95.718V14.7273H104.915ZM97.8061 11.0682H102.042V25.3068C102.042 25.6979 102.102 26.0028 102.221 26.2216C102.34 26.4337 102.506 26.5829 102.718 26.669C102.937 26.7552 103.189 26.7983 103.474 26.7983C103.673 26.7983 103.871 26.7817 104.07 26.7486C104.269 26.7088 104.422 26.679 104.528 26.6591L105.194 29.8111C104.982 29.8774 104.683 29.9536 104.299 30.0398C103.915 30.1326 103.447 30.1889 102.897 30.2088C101.876 30.2486 100.981 30.1127 100.212 29.8011C99.45 29.4896 98.8568 29.0057 98.4325 28.3494C98.0083 27.6932 97.7995 26.8646 97.8061 25.8636V11.0682ZM107.675 30V14.7273H111.911V30H107.675ZM109.803 12.7585C109.173 12.7585 108.633 12.5497 108.182 12.1321C107.738 11.7079 107.516 11.2008 107.516 10.6108C107.516 10.0275 107.738 9.52699 108.182 9.10938C108.633 8.68513 109.173 8.47301 109.803 8.47301C110.432 8.47301 110.969 8.68513 111.413 9.10938C111.864 9.52699 112.089 10.0275 112.089 10.6108C112.089 11.2008 111.864 11.7079 111.413 12.1321C110.969 12.5497 110.432 12.7585 109.803 12.7585ZM123.517 14.7273V17.9091H114.091V14.7273H123.517ZM116.248 30V13.6236C116.248 12.5166 116.464 11.5985 116.895 10.8693C117.332 10.1402 117.929 9.59328 118.684 9.22869C119.44 8.86411 120.298 8.68182 121.26 8.68182C121.909 8.68182 122.502 8.73153 123.039 8.83097C123.583 8.9304 123.987 9.01989 124.252 9.09943L123.497 12.2812C123.331 12.2282 123.126 12.1785 122.88 12.1321C122.642 12.0857 122.396 12.0625 122.145 12.0625C121.521 12.0625 121.087 12.2083 120.842 12.5C120.597 12.785 120.474 13.1861 120.474 13.7031V30H116.248ZM128.719 35.7273C128.183 35.7273 127.679 35.6842 127.208 35.598C126.744 35.5185 126.36 35.4157 126.055 35.2898L127.009 32.1278C127.506 32.2803 127.954 32.3632 128.352 32.3764C128.756 32.3897 129.104 32.2969 129.396 32.098C129.694 31.8991 129.936 31.5611 130.121 31.0838L130.37 30.4375L124.891 14.7273H129.346L132.508 25.9432H132.667L135.859 14.7273H140.343L134.407 31.6506C134.122 32.4725 133.734 33.1884 133.244 33.7983C132.76 34.4148 132.147 34.8887 131.404 35.2202C130.662 35.5582 129.767 35.7273 128.719 35.7273Z" fill="#202020"/>
<circle cx="84.9014" cy="3" r="3" fill="#202020"/>
<circle cx="35.5303" cy="3" r="3" fill="#202020"/>
</svg>
