<svg width="24" height="24" viewBox="0 0 24 24" fill="none" xmlns="http://www.w3.org/2000/svg">
<g id="Property 1=Maps">
<g id="Component 7">
<g id="Iconly/Bold/Location">
<g id="Location">
<path id="Location_2" fill-rule="evenodd" clip-rule="evenodd" d="M6.33337 9.87842C6.33337 6.81185 8.89596 4.33325 11.9957 4.33325C15.1041 4.33325 17.6667 6.81185 17.6667 9.87842C17.6667 11.4237 17.1047 12.8583 16.1797 14.0743C15.1592 15.4156 13.9015 16.5842 12.4857 17.5015C12.1617 17.7135 11.8693 17.7295 11.5137 17.5015C10.0899 16.5842 8.8321 15.4156 7.82037 14.0743C6.8947 12.8583 6.33337 11.4237 6.33337 9.87842ZM10.1295 10.0511C10.1295 11.0784 10.9678 11.8864 11.9957 11.8864C13.0242 11.8864 13.8706 11.0784 13.8706 10.0511C13.8706 9.03178 13.0242 8.18447 11.9957 8.18447C10.9678 8.18447 10.1295 9.03178 10.1295 10.0511Z" fill="#FB5C59"/>
</g>
</g>
</g>
</g>
</svg>
