<svg width="311" height="345" viewBox="0 0 311 345" fill="none" xmlns="http://www.w3.org/2000/svg">
<mask id="mask0_1_5" style="mask-type:alpha" maskUnits="userSpaceOnUse" x="0" y="0" width="311" height="345">
<rect width="311" height="345" rx="24" fill="#F9FAFF"/>
</mask>
<g mask="url(#mask0_1_5)">
<path d="M111.948 276.038C50.2614 251.886 19.8335 182.3 43.9855 120.613" stroke="#F9FAFF" stroke-width="5" stroke-linecap="round"/>
<path d="M533.942 312.387C452.169 521.245 216.565 624.267 7.7074 542.493" stroke="#F9FAFF" stroke-width="5" stroke-linecap="round"/>
<path d="M310.434 274.08C371.103 188.614 351.002 70.1482 265.536 9.47881C180.07 -51.1906 61.6046 -31.0892 0.935252 54.3765" stroke="#F9FAFF" stroke-width="5" stroke-linecap="round"/>
<path d="M-180.531 263.599C-235.333 77.9894 -129.292 -116.903 56.3176 -171.705" stroke="#F9FAFF" stroke-width="5" stroke-linecap="round"/>
<path d="M47.8447 -95.5134C-95.6785 -35.9269 -163.723 128.726 -104.136 272.249C-44.5496 415.772 120.103 483.817 263.626 424.23" stroke="#F9FAFF" stroke-width="5" stroke-linecap="round"/>
<path d="M234.678 128.311C229.607 117.072 222.204 107.038 212.961 98.8779C203.717 90.7173 192.843 84.6158 181.061 80.9782C169.279 77.3407 156.859 76.2502 144.623 77.7792" stroke="#F9FAFF" stroke-width="5" stroke-linecap="round"/>
<path d="M187.099 132.924C178.931 124.614 167.827 119.844 156.177 119.642C144.527 119.441 133.263 123.823 124.813 131.845" stroke="#F9FAFF" stroke-width="5" stroke-linecap="round"/>
<circle cx="155.679" cy="164.344" r="11.4497" stroke="#F9FAFF" stroke-width="5" stroke-linecap="round"/>
<path d="M474.4 348.358C372.772 524.383 147.691 584.693 -28.3343 483.065C-204.359 381.437 -264.67 156.355 -163.042 -19.6695" stroke="#F9FAFF" stroke-width="5" stroke-linecap="round"/>
<path d="M479.544 164.344C479.544 343.209 334.545 488.208 155.68 488.208C-23.1857 488.208 -168.185 343.209 -168.185 164.344" stroke="#F9FAFF" stroke-width="5" stroke-linecap="round"/>
<path d="M532.479 381.889C652.625 173.789 581.325 -92.3081 373.225 -212.455C165.124 -332.602 -100.973 -261.301 -221.12 -53.2009" stroke="#F9FAFF" stroke-width="5" stroke-linecap="round"/>
<path d="M532.43 164.344C532.43 -43.7297 363.753 -212.407 155.679 -212.407" stroke="#F9FAFF" stroke-width="5" stroke-linecap="round"/>
<path d="M547.697 164.344C547.697 380.849 372.185 556.362 155.679 556.362C-60.8258 556.362 -236.338 380.849 -236.338 164.344" stroke="#F9FAFF" stroke-width="5" stroke-linecap="round"/>
<path d="M371.23 37.1938C301.007 -81.8516 147.575 -121.43 28.5291 -51.2066C-90.5163 19.0166 -130.095 172.449 -59.8714 291.495" stroke="#F9FAFF" stroke-width="5" stroke-linecap="round"/>
<path d="M336.595 471.04C167.211 570.957 -51.0994 514.643 -151.016 345.26C-250.933 175.876 -194.619 -42.4346 -25.236 -142.351" stroke="#F9FAFF" stroke-width="5" stroke-linecap="round"/>
<path d="M258.304 338.318C162.221 394.996 38.3836 363.052 -18.2945 266.969C-74.9726 170.886 -43.0285 47.0483 53.0547 -9.6298" stroke="#F9FAFF" stroke-width="5" stroke-linecap="round"/>
<path d="M506.39 401.313C375.515 595.005 112.402 645.929 -81.2899 515.054C-274.982 384.18 -325.905 121.067 -195.031 -72.6252" stroke="#F9FAFF" stroke-width="5" stroke-linecap="round"/>
<path d="M401.763 19.2228C481.962 155.18 436.761 330.408 300.805 410.607" stroke="#F9FAFF" stroke-width="7.07495" stroke-linecap="round"/>
<path d="M241.025 114C268.829 161.135 253.159 221.885 206.024 249.69C158.889 277.494 98.1384 261.823 70.3341 214.688" stroke="#F9FAFF" stroke-width="5" stroke-linecap="round"/>
<path d="M269.793 97.0304C306.969 160.053 286.016 241.281 222.993 278.457C159.97 315.634 78.7425 294.681 41.5662 231.658" stroke="#F9FAFF" stroke-width="5" stroke-linecap="round"/>
<path d="M236.477 301.316C160.83 345.939 63.3313 320.789 18.7082 245.142C-25.915 169.495 -0.765108 71.9962 74.882 27.373" stroke="#F9FAFF" stroke-width="5" stroke-linecap="round"/>
<circle cx="155.679" cy="164.344" r="458.535" stroke="#F9FAFF" stroke-width="5" stroke-linecap="round"/>
<path d="M547.697 164.344C547.697 -52.161 372.185 -227.673 155.679 -227.673C-60.8258 -227.673 -236.338 -52.161 -236.338 164.344" stroke="#F9FAFF" stroke-width="5" stroke-linecap="round"/>
<path d="M155.679 472.942C-14.7544 472.942 -152.918 334.778 -152.918 164.344C-152.918 -6.08974 -14.7544 -144.254 155.679 -144.254" stroke="#F9FAFF" stroke-width="5" stroke-linecap="round"/>
<path d="M155.679 632.693C-102.983 632.693 -312.669 423.006 -312.669 164.344C-312.669 -94.3178 -102.983 -304.005 155.679 -304.005" stroke="#F9FAFF" stroke-width="5" stroke-linecap="round"/>
<path d="M236.961 -139.005C404.497 -94.114 503.919 78.0912 459.028 245.626C414.137 413.161 241.932 512.584 74.3972 467.693" stroke="#F9FAFF" stroke-width="5" stroke-linecap="round"/>
<path d="M236.961 -139.005C404.497 -94.114 503.919 78.0912 459.028 245.626C414.137 413.161 241.932 512.584 74.3972 467.693" stroke="#F9FAFF" stroke-width="5" stroke-linecap="round"/>
<path d="M573.868 164.344C573.868 -66.6148 386.638 -253.844 155.679 -253.844C-75.2795 -253.844 -262.509 -66.6148 -262.509 164.344" stroke="#F9FAFF" stroke-width="5" stroke-linecap="round"/>
<path d="M573.868 164.344C573.868 -66.6148 386.638 -253.844 155.679 -253.844C-75.2795 -253.844 -262.509 -66.6148 -262.509 164.344" stroke="#F9FAFF" stroke-width="5" stroke-linecap="round"/>
<path d="M-111.474 39.6566C-42.7947 -107.751 132.378 -171.574 279.786 -102.895C427.194 -34.2158 491.017 140.957 422.338 288.365" stroke="#F9FAFF" stroke-width="5" stroke-linecap="round"/>
<path d="M229.694 292.341C300.234 251.615 324.403 161.415 283.677 90.8751C242.95 20.3348 152.751 -3.83412 82.2103 36.8923" stroke="#F9FAFF" stroke-width="5" stroke-linecap="round"/>
<path d="M379.767 164.617C379.767 288.227 279.562 388.432 155.952 388.432C32.3424 388.432 -67.863 288.227 -67.863 164.617" stroke="#F9FAFF" stroke-width="5" stroke-linecap="round"/>
<path d="M289.289 454.933C128.678 528.772 -61.3808 458.43 -135.22 297.819" stroke="#F9FAFF" stroke-width="5" stroke-linecap="round"/>
<path d="M-143.475 -129.291C18.8039 -294.617 284.38 -297.087 449.706 -134.808" stroke="#F9FAFF" stroke-width="5" stroke-linecap="round"/>
<path d="M229.919 325.82C140.778 366.802 35.2924 327.761 -5.68946 238.62C-46.6713 149.478 -7.63036 43.9927 81.511 3.01086" stroke="#F9FAFF" stroke-width="5" stroke-linecap="round"/>
<path d="M108.994 63.1174C164.89 37.4199 231.034 61.9003 256.731 117.796" stroke="#F9FAFF" stroke-width="5" stroke-linecap="round"/>
<path d="M169.163 193.44C185.123 186.103 192.112 167.217 184.775 151.258" stroke="#F9FAFF" stroke-width="5" stroke-linecap="round"/>
<path d="M155.441 227.045C120.662 227.064 92.4523 198.885 92.4333 164.106" stroke="#F9FAFF" stroke-width="5" stroke-linecap="round"/>
<path d="M150.226 182.978C139.846 180.197 133.687 169.528 136.468 159.148C139.249 148.769 149.918 142.609 160.298 145.39" stroke="#F9FAFF" stroke-width="5" stroke-linecap="round"/>
<path d="M-62.6046 64.7163C-7.51929 -55.8081 134.841 -108.857 255.365 -53.7716C375.889 1.31374 428.938 143.674 373.853 264.198" stroke="#F9FAFF" stroke-width="5" stroke-linecap="round"/>
<path d="M62.0638 -159.772C241.069 -211.362 428.003 -108.071 479.593 70.9342C531.182 249.939 427.891 436.873 248.886 488.463" stroke="#F9FAFF" stroke-width="5" stroke-linecap="round"/>
<path d="M141.815 116.389C115.107 124.087 99.6958 151.978 107.393 178.686C115.09 205.394 142.981 220.805 169.69 213.108" stroke="#F9FAFF" stroke-width="5" stroke-linecap="round"/>
<path d="M155.665 540.855C363.694 540.89 532.364 372.277 532.399 164.247" stroke="#F9FAFF" stroke-width="5" stroke-linecap="round"/>
<path d="M155.532 427.761C10.0594 427.736 -107.85 309.787 -107.826 164.314C-107.801 18.8408 10.148 -99.0687 155.621 -99.0442" stroke="#F9FAFF" stroke-width="5" stroke-linecap="round"/>
<path d="M260.946 91.6C300.43 149.049 285.228 228.067 226.992 268.092" stroke="#F9FAFF" stroke-width="5" stroke-linecap="round"/>
<path d="M358.446 -238.353C577.821 -127.782 664.796 142.129 552.71 364.509C440.624 586.89 171.921 677.529 -47.4543 566.957" stroke="#F9FAFF" stroke-width="5" stroke-linecap="round"/>
<path d="M329.447 44.5484C394.53 139.244 369.473 269.493 273.481 335.467C177.488 401.442 46.9103 378.159 -18.1729 283.464" stroke="#F9FAFF" stroke-width="5" stroke-linecap="round"/>
<path d="M447.374 96.0208C409.997 -62.8975 249.103 -161.011 88.0081 -123.122" stroke="#F9FAFF" stroke-width="5" stroke-linecap="round"/>
<path d="M247.823 164.344C247.823 145.298 241.921 126.72 230.929 111.166C219.937 95.6119 204.395 83.8462 186.442 77.4877C168.488 71.1291 149.006 70.4902 130.674 75.6588C112.343 80.8274 96.0636 91.5495 84.0762 106.35" stroke="#F9FAFF" stroke-width="5" stroke-linecap="round"/>
</g>
</svg>
