<svg width="24" height="24" viewBox="0 0 24 24" fill="none" xmlns="http://www.w3.org/2000/svg">
<g id="Property 1=Metion">
<g id="online">
<path id="Icon color" fill-rule="evenodd" clip-rule="evenodd" d="M2 12C2 6.47715 6.47715 2 12 2C14.6522 2 17.1957 3.05357 19.0711 4.92893C20.9464 6.8043 22 9.34784 22 12C22 14.12 20.45 17.27 17.12 17.3C15.8182 17.3772 14.6013 16.6518 14.05 15.47C13.1674 16.3776 11.9655 16.905 10.7 16.94C9.16463 16.9939 7.76698 16.0594 7.23 14.62C7.0027 13.9788 6.94753 13.2892 7.07 12.62L7.32 11.16C7.72133 8.801 9.73779 7.05704 12.13 7C13.017 6.98523 13.8797 7.29054 14.56 7.86L14.64 7.41C14.6833 7.17319 14.8893 7.00088 15.13 7H16.13C16.2868 6.99774 16.4356 7.06918 16.5319 7.19298C16.6282 7.31677 16.6608 7.47857 16.62 7.63L15.62 13.14C15.39 14.39 15.91 15.1 16.73 15.27C16.8598 15.2798 16.9902 15.2798 17.12 15.27C19.28 15.27 20 13 20 12C20 7.58172 16.4183 4 12 4C7.58172 4 4 7.58172 4 12C4 16.4183 7.58172 20 12 20C13.3171 19.9558 14.6123 19.6499 15.81 19.1C15.985 19.1009 16.1473 19.1915 16.24 19.34L16.74 20.21C16.7877 20.2882 16.812 20.3784 16.81 20.47C16.81 21.22 13.91 22 12 22C6.47715 22 2 17.5228 2 12ZM8.99976 13C8.98706 13.1297 8.98706 13.2603 8.99976 13.39C9.00667 13.8618 9.20817 14.3097 9.55658 14.6278C9.90499 14.9459 10.3693 15.1059 10.8398 15.07C10.9996 15.0799 11.1599 15.0799 11.3198 15.07C12.3653 14.8985 13.2245 14.1516 13.5398 13.14L13.9998 10.64C14.1598 9.73002 13.2698 9.02002 12.2698 9.02002C10.8027 9.0529 9.55539 10.1006 9.26976 11.54L8.99976 13Z" fill="black"/>
</g>
</g>
</svg>
