<svg width="42" height="42" viewBox="0 0 42 42" fill="none" xmlns="http://www.w3.org/2000/svg">
<circle cx="21" cy="21" r="21" fill="#FEA623"/>
<path d="M18.1348 29.7733V26.7156C18.1348 25.9351 18.7722 25.3023 19.5584 25.3023H22.4326C22.8102 25.3023 23.1723 25.4512 23.4393 25.7163C23.7063 25.9813 23.8563 26.3408 23.8563 26.7156V29.7733C23.8539 30.0978 23.9821 30.4099 24.2124 30.6402C24.4427 30.8705 24.7561 31 25.0829 31H27.0438C27.9596 31.0023 28.8388 30.6428 29.4872 30.0008C30.1356 29.3588 30.5 28.487 30.5 27.5778V18.8669C30.5 18.1325 30.1721 17.4358 29.6046 16.9647L22.934 11.6759C21.7737 10.7486 20.1111 10.7785 18.9854 11.747L12.467 16.9647C11.8727 17.422 11.5176 18.1206 11.5 18.8669V27.5689C11.5 29.4639 13.0474 31 14.9562 31H16.8723C17.5512 31 18.103 30.4562 18.1079 29.7822L18.1348 29.7733Z" fill="white"/>
</svg>
