<svg width="23" height="23" viewBox="0 0 23 23" fill="none" xmlns="http://www.w3.org/2000/svg">
<g id="Camera">
<path id="Stroke 2" fill-rule="evenodd" clip-rule="evenodd" d="M15.0111 12.5811C15.0111 10.5548 13.368 8.91162 11.3417 8.91162C9.31534 8.91162 7.67218 10.5548 7.67218 12.5811C7.67218 14.6074 9.31534 16.2506 11.3417 16.2506C13.368 16.2506 15.0111 14.6074 15.0111 12.5811Z" stroke="#626262" stroke-width="1.5" stroke-linecap="round" stroke-linejoin="round"/>
<path id="Stroke 4" fill-rule="evenodd" clip-rule="evenodd" d="M11.3413 21.5667C20.7274 21.5667 21.845 18.7544 21.845 12.6608C21.845 8.38953 21.28 6.1041 17.7223 5.12164C17.3957 5.01848 17.0334 4.82199 16.7399 4.49901C16.2658 3.97953 15.9195 2.38427 14.775 1.90164C13.6304 1.42024 9.03373 1.44234 7.90759 1.90164C6.78267 2.36217 6.41671 3.97953 5.94267 4.49901C5.64916 4.82199 5.28811 5.01848 4.96022 5.12164C1.4025 6.1041 0.837585 8.38953 0.837585 12.6608C0.837585 18.7544 1.95513 21.5667 11.3413 21.5667Z" stroke="#626262" stroke-width="1.5" stroke-linecap="round" stroke-linejoin="round"/>
<path id="Stroke 11" d="M17.0719 8.49984H17.0824" stroke="#626262" stroke-width="1.5" stroke-linecap="round" stroke-linejoin="round"/>
</g>
</svg>
