<svg width="25" height="26" viewBox="0 0 25 26" fill="none" xmlns="http://www.w3.org/2000/svg">
<g id="Home">
<mask id="mask0_33448_154" style="mask-type:luminance" maskUnits="userSpaceOnUse" x="0" y="0" width="25" height="26">
<path id="Clip 2" fill-rule="evenodd" clip-rule="evenodd" d="M0.333313 0.166992H24.2497V25.2562H0.333313V0.166992Z" fill="white"/>
</mask>
<g mask="url(#mask0_33448_154)">
<path id="Fill 1" fill-rule="evenodd" clip-rule="evenodd" d="M14.0029 16.8399C15.4076 16.8399 16.5509 17.975 16.5509 19.3704V22.959C16.5509 23.2589 16.7912 23.4992 17.0992 23.5062H19.3229C21.0752 23.5062 22.4997 22.0992 22.4997 20.3702V10.1922C22.4916 9.59721 22.2081 9.03721 21.7216 8.66504L14.0297 2.53071C12.9972 1.71287 11.5529 1.71287 10.5169 2.53304L2.87757 8.66271C2.3724 9.04654 2.0889 9.60654 2.08307 10.212V20.3702C2.08307 22.0992 3.50757 23.5062 5.2599 23.5062H7.50457C7.82074 23.5062 8.0774 23.2554 8.0774 22.9474C8.0774 22.8797 8.08557 22.812 8.09957 22.7479V19.3704C8.09957 17.9832 9.2359 16.8492 10.6301 16.8399H14.0029ZM19.3229 25.2562H17.0782C15.7926 25.2259 14.8009 24.2167 14.8009 22.959V19.3704C14.8009 18.9399 14.4427 18.5899 14.0029 18.5899H10.6359C10.2054 18.5922 9.84957 18.9434 9.84957 19.3704V22.9474C9.84957 23.0349 9.8379 23.1189 9.8134 23.1982C9.6874 24.3532 8.7004 25.2562 7.50457 25.2562H5.2599C2.54274 25.2562 0.333069 23.064 0.333069 20.3702V10.2039C0.344736 9.04421 0.879069 7.98254 1.8019 7.28371L9.42607 1.16454C11.1049 -0.16546 13.4441 -0.16546 15.1194 1.16221L22.7984 7.28721C23.7002 7.97437 24.2346 9.03371 24.2497 10.1794V20.3702C24.2497 23.064 22.0401 25.2562 19.3229 25.2562Z" fill="#626262"/>
</g>
</g>
</svg>
