<svg width="18" height="25" viewBox="0 0 18 25" fill="none" xmlns="http://www.w3.org/2000/svg">
<g id="Profile">
<path id="Stroke 1" fill-rule="evenodd" clip-rule="evenodd" d="M8.81862 23.2723C4.51149 23.2723 0.833313 22.602 0.833313 19.9178C0.833313 17.2335 4.48816 14.7556 8.81862 14.7556C13.1257 14.7556 16.8039 17.2095 16.8039 19.8938C16.8039 22.5769 13.1491 23.2723 8.81862 23.2723Z" stroke="#626262" stroke-width="1.5" stroke-linecap="round" stroke-linejoin="round"/>
<path id="Stroke 3" fill-rule="evenodd" clip-rule="evenodd" d="M8.81041 11.036C11.6369 11.036 13.9278 8.74505 13.9278 5.91853C13.9278 3.09202 11.6369 0.800049 8.81041 0.800049C5.98389 0.800049 3.69192 3.09202 3.69192 5.91853C3.68238 8.7355 5.95738 11.0264 8.77435 11.036C8.78708 11.036 8.79874 11.036 8.81041 11.036Z" stroke="#626262" stroke-width="1.5" stroke-linecap="round" stroke-linejoin="round"/>
</g>
</svg>
