<svg width="20" height="18" viewBox="0 0 20 18" fill="none" xmlns="http://www.w3.org/2000/svg">
<g id="Camera">
<path id="Camera_2" fill-rule="evenodd" clip-rule="evenodd" d="M15.44 3.2364C15.48 3.30633 15.55 3.35627 15.64 3.35627C18.04 3.35627 20 5.3141 20 7.71143V13.6448C20 16.0422 18.04 18 15.64 18H4.36C1.95 18 0 16.0422 0 13.6448V7.71143C0 5.3141 1.95 3.35627 4.36 3.35627C4.44 3.35627 4.52 3.31632 4.55 3.2364L4.61 3.11654C4.64448 3.04397 4.67987 2.96943 4.71579 2.89376C4.97161 2.35492 5.25463 1.75879 5.43 1.40844C5.89 0.509434 6.67 0.0099889 7.64 0H12.35C13.32 0.0099889 14.11 0.509434 14.57 1.40844C14.7275 1.72308 14.9674 2.2299 15.1987 2.71839C15.2464 2.81921 15.2938 2.91924 15.34 3.01665L15.44 3.2364ZM14.71 7.07214C14.71 7.57159 15.11 7.97114 15.61 7.97114C16.11 7.97114 16.52 7.57159 16.52 7.07214C16.52 6.5727 16.11 6.16315 15.61 6.16315C15.11 6.16315 14.71 6.5727 14.71 7.07214ZM8.27 8.62042C8.74 8.15094 9.35 7.90122 10 7.90122C10.65 7.90122 11.26 8.15094 11.72 8.61043C12.18 9.06992 12.43 9.67924 12.43 10.3285C12.42 11.667 11.34 12.7558 10 12.7558C9.35 12.7558 8.74 12.5061 8.28 12.0466C7.82 11.5871 7.57 10.9778 7.57 10.3285V10.3185C7.56 9.68923 7.81 9.07991 8.27 8.62042ZM12.77 13.1054C12.06 13.8147 11.08 14.2542 10 14.2542C8.95 14.2542 7.97 13.8446 7.22 13.1054C6.48 12.3563 6.07 11.3774 6.07 10.3285C6.06 9.28968 6.47 8.31077 7.21 7.5616C7.96 6.81243 8.95 6.40289 10 6.40289C11.05 6.40289 12.04 6.81243 12.78 7.55161C13.52 8.30078 13.93 9.28968 13.93 10.3285C13.92 11.4173 13.48 12.3962 12.77 13.1054Z" fill="white"/>
</g>
</svg>
