<svg width="42" height="42" viewBox="0 0 42 42" fill="none" xmlns="http://www.w3.org/2000/svg">
<circle cx="21" cy="21" r="21" fill="#FEA623"/>
<path fill-rule="evenodd" clip-rule="evenodd" d="M26.44 15.2364C26.48 15.3063 26.55 15.3563 26.64 15.3563C29.04 15.3563 31 17.3141 31 19.7114V25.6448C31 28.0422 29.04 30 26.64 30H15.36C12.95 30 11 28.0422 11 25.6448V19.7114C11 17.3141 12.95 15.3563 15.36 15.3563C15.44 15.3563 15.52 15.3163 15.55 15.2364L15.61 15.1165C15.6445 15.044 15.6799 14.9694 15.7158 14.8938C15.9716 14.3549 16.2546 13.7588 16.43 13.4084C16.89 12.5094 17.67 12.01 18.64 12H23.35C24.32 12.01 25.11 12.5094 25.57 13.4084C25.7275 13.7231 25.9674 14.2299 26.1987 14.7184C26.2464 14.8192 26.2938 14.9192 26.34 15.0166L26.44 15.2364ZM25.71 19.0721C25.71 19.5716 26.11 19.9711 26.61 19.9711C27.11 19.9711 27.52 19.5716 27.52 19.0721C27.52 18.5727 27.11 18.1632 26.61 18.1632C26.11 18.1632 25.71 18.5727 25.71 19.0721ZM19.27 20.6204C19.74 20.1509 20.35 19.9012 21 19.9012C21.65 19.9012 22.26 20.1509 22.72 20.6104C23.18 21.0699 23.43 21.6792 23.43 22.3285C23.42 23.667 22.34 24.7558 21 24.7558C20.35 24.7558 19.74 24.5061 19.28 24.0466C18.82 23.5871 18.57 22.9778 18.57 22.3285V22.3185C18.56 21.6892 18.81 21.0799 19.27 20.6204ZM23.77 25.1054C23.06 25.8147 22.08 26.2542 21 26.2542C19.95 26.2542 18.97 25.8446 18.22 25.1054C17.48 24.3563 17.07 23.3774 17.07 22.3285C17.06 21.2897 17.47 20.3108 18.21 19.5616C18.96 18.8124 19.95 18.4029 21 18.4029C22.05 18.4029 23.04 18.8124 23.78 19.5516C24.52 20.3008 24.93 21.2897 24.93 22.3285C24.92 23.4173 24.48 24.3962 23.77 25.1054Z" fill="white"/>
</svg>
