<svg width="24.000000" height="24.000000" viewBox="0 0 24 24" fill="none" xmlns="http://www.w3.org/2000/svg" xmlns:xlink="http://www.w3.org/1999/xlink">
	<desc>
			Created with Pixso.
	</desc>
	<defs/>
	<path d="M12 6.43L12 9.77" stroke="#292D32" stroke-opacity="1.000000" stroke-width="1.500000" stroke-linecap="round"/>
	<path d="M5.36 8.66L5.36 10.75C5.36 11.43 5.08 12.46 4.72 13.04L3.45 15.16C2.67 16.47 3.21 17.93 4.66 18.41C9.43 20 14.61 20 19.38 18.41C20.74 17.95 21.32 16.37 20.58 15.16L19.32 13.04C18.96 12.46 18.68 11.43 18.68 10.75L18.68 8.66C18.67 5 15.67 2 12.01 2C8.33 2 5.36 4.97 5.36 8.66Z" stroke="#292D32" stroke-opacity="1.000000" stroke-width="1.500000"/>
	<path d="M15.33 18.81C15.33 20.64 13.83 22.14 12 22.14C11.08 22.14 10.25 21.77 9.65 21.16C9.04 20.56 8.66 19.73 8.66 18.81" stroke="#292D32" stroke-opacity="1.000000" stroke-width="1.500000"/>
	<g opacity="0.000000"/>
</svg>
