<svg width="24.000000" height="24.000000" viewBox="0 0 24 24" fill="none" xmlns="http://www.w3.org/2000/svg" xmlns:xlink="http://www.w3.org/1999/xlink">
	<desc>
			Created with Pixso.
	</desc>
	<defs/>
	<path id="Vector" d="M6.02 8.91L6.02 11.8C6.02 12.41 5.76 13.34 5.45 13.86L4.3 15.77C3.59 16.95 4.08 18.26 5.38 18.7C9.69 20.14 14.34 20.14 18.65 18.7C19.86 18.3 20.39 16.87 19.73 15.77L18.58 13.86C18.28 13.34 18.02 12.41 18.02 11.8L18.02 8.91C18.02 5.61 15.32 2.91 12.02 2.91C8.71 2.91 6.02 5.6 6.02 8.91Z" stroke="#717171" stroke-opacity="1.000000" stroke-width="1.500000"/>
	<path id="Vector" d="M12.9 3C11.95 2.87 11.03 2.94 10.16 3.19C10.46 2.45 11.17 1.93 12.02 1.93C12.85 1.93 13.57 2.45 13.86 3.19C13.55 3.1 13.24 3.04 12.9 3Z" stroke="#717171" stroke-opacity="1.000000" stroke-width="1.500000" stroke-linejoin="round"/>
	<path id="Vector" d="M15.02 19.06C15.02 20.71 13.66 22.06 12.02 22.06C11.2 22.06 10.43 21.72 9.89 21.18C9.36 20.64 9.02 19.87 9.02 19.06" stroke="#717171" stroke-opacity="1.000000" stroke-width="1.500000"/>
	<g opacity="0.000000"/>
</svg>
