<svg width="24.000000" height="24.000000" viewBox="0 0 24 24" fill="none" xmlns="http://www.w3.org/2000/svg" xmlns:xlink="http://www.w3.org/1999/xlink">
	<desc>
			Created with Pixso.
	</desc>
	<defs/>
	<rect id="Property 1=bold" width="24.000000" height="24.000000" fill="#FFFFFF" fill-opacity="0"/>
	<path id="Vector" d="M20.19 14.05L19.06 12.17C18.81 11.77 18.58 10.98 18.58 10.5L18.58 8.62C18.58 5 15.64 2.04 12.02 2.04C8.39 2.05 5.44 5 5.44 8.62L5.44 10.48C5.44 10.96 5.21 11.75 4.98 12.16L3.85 14.04C3.41 14.77 3.32 15.6 3.58 16.32C3.86 17.05 4.46 17.63 5.27 17.89C6.35 18.25 7.44 18.52 8.54 18.7C8.66 18.73 8.77 18.73 8.87 18.75C9.02 18.77 9.16 18.79 9.32 18.81C9.58 18.85 9.83 18.88 10.11 18.9C10.74 18.96 11.37 19 12.02 19C12.65 19 13.28 18.96 13.9 18.9C14.12 18.88 14.36 18.86 14.58 18.83C14.75 18.81 14.94 18.79 15.12 18.77C15.23 18.75 15.33 18.73 15.45 18.71C16.57 18.54 17.68 18.25 18.75 17.89C19.53 17.63 20.12 17.05 20.4 16.31C20.68 15.56 20.6 14.75 20.19 14.05ZM12.75 10C12.75 10.41 12.41 10.75 11.99 10.75C11.57 10.75 11.23 10.41 11.23 10L11.23 6.89C11.23 6.47 11.57 6.13 11.99 6.13C12.41 6.13 12.75 6.47 12.75 6.89L12.75 10Z" fill="#292D32" fill-opacity="1.000000" fill-rule="nonzero"/>
	<path id="Vector" d="M14.83 20C14.41 21.16 13.29 22 12 22C11.21 22 10.42 21.68 9.87 21.1C9.55 20.81 9.31 20.41 9.17 20C9.3 20.02 9.43 20.02 9.58 20.04C9.8 20.08 10.04 20.1 10.29 20.12C10.85 20.18 11.43 20.2 12.01 20.2C12.58 20.2 13.16 20.18 13.71 20.12C13.92 20.1 14.13 20.1 14.33 20.06C14.5 20.04 14.66 20.02 14.83 20Z" fill="#292D32" fill-opacity="1.000000" fill-rule="nonzero"/>
	<g opacity="0.000000"/>
</svg>
