<svg width="24" height="24" viewBox="0 0 24 24" fill="none" xmlns="http://www.w3.org/2000/svg">
<g id="Property 1=Off">
<g id="Component 12">
<path id="Icon color" fill-rule="evenodd" clip-rule="evenodd" d="M11 3.4994V13.4875C11 13.7633 11.2239 13.9869 11.5 13.9869H12.5C12.7762 13.9869 13 13.7633 13 13.4875V3.4994C13 3.22359 12.7762 3 12.5 3H11.5C11.2239 3 11 3.22359 11 3.4994ZM17.64 7.55456C17.7776 7.56228 17.9067 7.62318 18 7.72436C20.8365 10.9368 20.6325 15.8117 17.5375 18.7764C14.4425 21.7412 9.55754 21.7412 6.46257 18.7764C3.3676 15.8117 3.16358 10.9368 6.00004 7.72436C6.09582 7.62081 6.22899 7.55969 6.37004 7.55456C6.50863 7.5522 6.64221 7.60629 6.74004 7.70438L7.45004 8.41353C7.6232 8.6069 7.6232 8.89936 7.45004 9.09272C6.51073 10.1732 5.99555 11.5572 6.00004 12.9881C6.00004 16.2978 8.68633 18.9809 12 18.9809C15.3137 18.9809 18 16.2978 18 12.9881C18.0073 11.5584 17.4957 10.1746 16.56 9.09272C16.3869 8.89936 16.3869 8.6069 16.56 8.41353L17.27 7.70438C17.3679 7.60629 17.5014 7.5522 17.64 7.55456Z" fill="#626262"/>
</g>
</g>
</svg>
