<svg width="24.000000" height="24.000000" viewBox="0 0 24 24" fill="none" xmlns="http://www.w3.org/2000/svg" xmlns:xlink="http://www.w3.org/1999/xlink">
	<desc>
			Created with Pixso.
	</desc>
	<defs/>
	<path id="Vector" d="M11.83 10.87C9.44 10.79 7.56 8.83 7.56 6.43C7.56 3.99 9.54 2 12 2C14.45 2 16.43 3.99 16.43 6.43C16.43 8.83 14.54 10.79 12.16 10.87C12.06 10.85 11.93 10.85 11.83 10.87Z" stroke="#717171" stroke-opacity="1.000000" stroke-width="1.500000" stroke-linejoin="round"/>
	<path id="Vector" d="M7.15 20.43C9.9 22.27 14.41 22.27 17.16 20.43C19.59 18.81 19.59 16.16 17.16 14.56C14.42 12.73 9.91 12.73 7.15 14.56C4.73 16.18 4.73 18.81 7.15 20.43Z" stroke="#717171" stroke-opacity="1.000000" stroke-width="1.500000" stroke-linejoin="round"/>
	<g opacity="0.000000"/>
</svg>
