<svg width="24.000000" height="24.000000" viewBox="0 0 24 24" fill="none" xmlns="http://www.w3.org/2000/svg" xmlns:xlink="http://www.w3.org/1999/xlink">
	<desc>
			Created with Pixso.
	</desc>
	<defs/>
	<path id="Vector" d="M12 2C9.37 2 7.25 4.12 7.25 6.75C7.25 9.31 9.26 11.39 11.87 11.49C11.96 11.48 12.04 11.48 12.1 11.49C12.12 11.49 12.12 11.49 12.14 11.49C12.15 11.49 12.15 11.49 12.16 11.49C14.73 11.39 16.74 9.31 16.75 6.75C16.75 4.12 14.62 2 12 2Z" fill="#0F9565" fill-opacity="1.000000" fill-rule="nonzero"/>
	<path id="Vector" d="M17.08 14.14C14.29 12.29 9.73 12.29 6.92 14.14C5.65 15 4.95 16.14 4.95 17.37C4.95 18.6 5.65 19.75 6.91 20.58C8.32 21.52 10.15 22 12 22C13.83 22 15.67 21.52 17.08 20.58C18.33 19.73 19.04 18.6 19.04 17.35C19.03 16.12 18.33 14.98 17.08 14.14Z" fill="#0F9565" fill-opacity="1.000000" fill-rule="nonzero"/>
	<g opacity="0.000000"/>
</svg>
