<svg width="24" height="24" viewBox="0 0 24 24" fill="none" xmlns="http://www.w3.org/2000/svg">
<g id="Property 1=qr_code">
<g id="qr_code">
<path id="Icon color" fill-rule="evenodd" clip-rule="evenodd" d="M4 9H8C8.55228 9 9 8.55228 9 8V4C9 3.44772 8.55228 3 8 3H4C3.44772 3 3 3.44772 3 4V8C3 8.55228 3.44772 9 4 9ZM5 5H7V7H5V5ZM5 12.5C5 12.7761 4.77614 13 4.5 13H3.5C3.22386 13 3 12.7761 3 12.5V11.5C3 11.2239 3.22386 11 3.5 11H4.5C4.77614 11 5 11.2239 5 11.5V12.5ZM8 15H4C3.44772 15 3 15.4477 3 16V20C3 20.5523 3.44772 21 4 21H8C8.55228 21 9 20.5523 9 20V16C9 15.4477 8.55228 15 8 15ZM5 19H7V17H5V19ZM20.5 21C20.7761 21 21 20.7761 21 20.5V17.5C21 17.2239 20.7761 17 20.5 17H19.5C19.2239 17 19 17.2239 19 17.5V19H17V17H15V13H17V14.5C17 14.7761 17.2239 15 17.5 15H18.5C18.7761 15 19 14.7761 19 14.5V13H20.5C20.7761 13 21 12.7761 21 12.5V11.5C21 11.2239 20.7761 11 20.5 11H15.5C15.2239 11 15 11.2239 15 11.5V13H11V11H12.5C12.7761 11 13 10.7761 13 10.5V9.5C13 9.22386 12.7761 9 12.5 9H11.5C11.2239 9 11 9.22386 11 9.5V11H7.5C7.22386 11 7 11.2239 7 11.5V12.5C7 12.7761 7.22386 13 7.5 13H11V14.5C11 14.7761 11.2239 15 11.5 15H13V16.5C13 16.7761 13.2239 17 13.5 17H15V19H11.5C11.2239 19 11 19.2239 11 19.5V20.5C11 20.7761 11.2239 21 11.5 21H14.5C14.7761 21 15 20.7761 15 20.5V19H17V20.5C17 20.7761 17.2239 21 17.5 21H20.5ZM16 3H20C20.5523 3 21 3.44772 21 4V8C21 8.55228 20.5523 9 20 9H16C15.4477 9 15 8.55228 15 8V4C15 3.44772 15.4477 3 16 3ZM19 7H17V5H19V7ZM11.5 7H12.5C12.7761 7 13 6.77614 13 6.5V3.5C13 3.22386 12.7761 3 12.5 3H11.5C11.2239 3 11 3.22386 11 3.5V6.5C11 6.77614 11.2239 7 11.5 7Z" fill="#626262"/>
</g>
</g>
</svg>
