<svg width="24.000000" height="24.000000" viewBox="0 0 24 24" fill="none" xmlns="http://www.w3.org/2000/svg" xmlns:xlink="http://www.w3.org/1999/xlink">
	<desc>
			Created with Pixso.
	</desc>
	<defs/>
	<path id="Vector" d="M12.51 21.92C12.18 22.02 11.82 22.02 11.49 21.92C6.64 20.58 3.09 16 3.09 11.11L3.09 6.72C3.09 5.9 3.71 4.97 4.47 4.66L10.05 2.38C11.3 1.87 12.71 1.87 13.96 2.38L19.53 4.66C20.29 4.97 20.92 5.9 20.92 6.72L20.91 11.11C20.91 16 17.36 20.58 12.51 21.92Z" stroke="#717171" stroke-opacity="1.000000" stroke-width="1.500000" stroke-linejoin="round"/>
	<path id="Vector" d="M12 12.5C10.89 12.5 10 11.6 10 10.5C10 9.39 10.89 8.5 12 8.5C13.1 8.5 14 9.39 14 10.5C14 11.6 13.1 12.5 12 12.5Z" stroke="#717171" stroke-opacity="1.000000" stroke-width="1.500000" stroke-linejoin="round"/>
	<path id="Vector" d="M12 12.5L12 15.5" stroke="#717171" stroke-opacity="1.000000" stroke-width="1.500000" stroke-linejoin="round" stroke-linecap="round"/>
	<g opacity="0.000000"/>
</svg>
