<svg width="34" height="34" viewBox="0 0 34 34" fill="none" xmlns="http://www.w3.org/2000/svg">
<g id="Property 1=Sent">
<g id="Iconly/Bold/Send">
<g id="Send">
<path id="Send_2" d="M30.3021 16.9828C30.3114 16.2661 29.9232 15.6073 29.2927 15.2616L14.6008 7.18946C13.9428 6.81755 13.167 6.86324 12.547 7.28666C11.9155 7.71722 11.5923 8.74216 11.7688 9.48242L13.1404 15.2287C13.2812 15.8179 13.8085 16.2328 14.4152 16.2302L22.5912 16.2049C23.0099 16.1965 23.3495 16.536 23.3411 16.9547C23.3398 17.3663 23.0052 17.7008 22.5866 17.7092L14.4028 17.7282C13.7961 17.7294 13.2661 18.1461 13.1217 18.7363L11.7016 24.5054C11.5292 25.1871 11.7258 25.8677 12.2068 26.3488C12.2634 26.4053 12.3271 26.469 12.3908 26.5185C13.0137 26.9991 13.8296 27.0604 14.5261 26.6893L29.2678 18.6961C29.9004 18.3606 30.2927 17.6995 30.3021 16.9828Z" fill="#626262"/>
</g>
</g>
</g>
</svg>
