<svg width="24.000000" height="24.000000" viewBox="0 0 24 24" fill="none" xmlns="http://www.w3.org/2000/svg" xmlns:xlink="http://www.w3.org/1999/xlink">
	<desc>
			Created with Pixso.
	</desc>
	<defs/>
	<rect id="vuesax/linear/tag" width="24.000000" height="24.000000" fill="#FFFFFF" fill-opacity="0"/>
	<path id="Vector" d="M8.69 19.82C10.55 21.68 13.57 21.68 15.44 19.82L19.83 15.43C21.69 13.57 21.69 10.55 19.83 8.68L15.29 4.16C14.34 3.21 13.03 2.7 11.69 2.77L6.69 3.02C4.69 3.1 3.1 4.69 3 6.68L2.76 11.68C2.7 13.04 3.21 14.34 4.16 15.29L8.69 19.82Z" stroke="#B8B8B8" stroke-opacity="1.000000" stroke-width="1.500000" stroke-linejoin="round"/>
	<path id="Vector" d="M9.49 12C8.11 12 6.99 10.88 6.99 9.5C6.99 8.11 8.11 7 9.49 7C10.88 7 11.99 8.11 11.99 9.5C11.99 10.88 10.88 12 9.49 12Z" stroke="#B8B8B8" stroke-opacity="1.000000" stroke-width="1.500000"/>
	<g opacity="0.000000"/>
</svg>
