<svg width="24.000000" height="24.000000" viewBox="0 0 24 24" fill="none" xmlns="http://www.w3.org/2000/svg" xmlns:xlink="http://www.w3.org/1999/xlink">
	<desc>
			Created with Pixso.
	</desc>
	<defs/>
	<path id="Vector" d="M19.83 8.69L15.29 4.16C14.35 3.21 13.03 2.7 11.7 2.77L6.69 3.02C4.69 3.1 3.1 4.69 3.01 6.68L2.77 11.68C2.7 13.02 3.2 14.33 4.16 15.29L8.68 19.81C10.54 21.67 13.56 21.67 15.43 19.81L19.83 15.42C21.7 13.57 21.7 10.55 19.83 8.69ZM9.5 12.37C7.91 12.37 6.62 11.08 6.62 9.5C6.62 7.9 7.91 6.61 9.5 6.61C11.09 6.61 12.38 7.9 12.38 9.5C12.38 11.08 11.09 12.37 9.5 12.37Z" fill="#0F9565" fill-opacity="1.000000" fill-rule="nonzero"/>
	<g opacity="0.000000"/>
</svg>
