<svg width="24" height="24" viewBox="0 0 24 24" fill="none" xmlns="http://www.w3.org/2000/svg">
<g id="Property 1=Tick Square">
<g id="Tick Square">
<path id="Tick Square_2" fill-rule="evenodd" clip-rule="evenodd" d="M7.67 2H16.34C19.73 2 22 4.38 22 7.92V16.091C22 19.62 19.73 22 16.34 22H7.67C4.28 22 2 19.62 2 16.091V7.92C2 4.38 4.28 2 7.67 2ZM11.4304 14.9901L16.1804 10.2401C16.5204 9.90012 16.5204 9.35012 16.1804 9.00012C15.8404 8.66012 15.2804 8.66012 14.9404 9.00012L10.8104 13.1301L9.06043 11.3801C8.72043 11.0401 8.16043 11.0401 7.82043 11.3801C7.48043 11.7201 7.48043 12.2701 7.82043 12.6201L10.2004 14.9901C10.3704 15.1601 10.5904 15.2401 10.8104 15.2401C11.0404 15.2401 11.2604 15.1601 11.4304 14.9901Z" fill="#626262"/>
</g>
</g>
</svg>
