<svg width="24.000000" height="24.000000" viewBox="0 0 24 24" fill="none" xmlns="http://www.w3.org/2000/svg" xmlns:xlink="http://www.w3.org/1999/xlink">
	<desc>
			Created with Pixso.
	</desc>
	<defs/>
	<path id="Vector" d="M2.47 13.13C1.85 12.52 1.85 11.5 2.47 10.87L3.98 9.35C4.25 9.09 4.45 8.58 4.45 8.22L4.45 6.07C4.45 5.19 5.18 4.47 6.06 4.47L8.2 4.47C8.56 4.47 9.08 4.27 9.34 4.01L10.86 2.48C11.48 1.86 12.5 1.86 13.12 2.48L14.64 4.01C14.9 4.27 15.41 4.47 15.77 4.47L17.92 4.47C18.79 4.47 19.52 5.19 19.52 6.07L19.52 8.22C19.52 8.58 19.73 9.09 19.99 9.35L21.51 10.87C22.13 11.5 22.13 12.52 21.51 13.13L19.99 14.65C19.73 14.91 19.52 15.42 19.52 15.79L19.52 17.93C19.52 18.81 18.79 19.54 17.92 19.54L15.77 19.54C15.41 19.54 14.9 19.75 14.64 20.01L13.12 21.53C12.5 22.14 11.48 22.14 10.86 21.53L9.34 20.01C9.08 19.75 8.56 19.54 8.2 19.54L6.06 19.54C5.18 19.54 4.45 18.81 4.45 17.93L4.45 15.79C4.45 15.41 4.25 14.9 3.98 14.65L2.47 13.13Z" stroke="#131313" stroke-opacity="1.000000" stroke-width="1.500000" stroke-linejoin="round"/>
	<path id="Vector" d="M9 15L15 9" stroke="#0F9565" stroke-opacity="1.000000" stroke-width="1.500000" stroke-linejoin="round" stroke-linecap="round"/>
	<g opacity="0.000000"/>
	<path id="Vector" d="M14.49 14.5L14.5 14.5" stroke="#0F9565" stroke-opacity="1.000000" stroke-width="2.000000" stroke-linejoin="round" stroke-linecap="round"/>
	<path id="Vector" d="M9.49 9.5L9.5 9.5" stroke="#0F9565" stroke-opacity="1.000000" stroke-width="2.000000" stroke-linejoin="round" stroke-linecap="round"/>
</svg>
