<svg width="24.000000" height="24.000000" viewBox="0 0 24 24" fill="none" xmlns="http://www.w3.org/2000/svg" xmlns:xlink="http://www.w3.org/1999/xlink">
	<desc>
			Created with Pixso.
	</desc>
	<defs/>
	<path id="Vector" d="M2.5 12.41L2.5 7.84C2.5 6.65 3.23 5.59 4.34 5.17L12.28 2.17C13.52 1.69 14.85 2.62 14.85 3.95L14.85 7.75" stroke="#0F9565" stroke-opacity="1.000000" stroke-width="1.500000" stroke-linejoin="round" stroke-linecap="round"/>
	<path id="Vector" d="M7 12L14 12" stroke="#0F9565" stroke-opacity="1.000000" stroke-width="1.500000" stroke-linejoin="round" stroke-linecap="round"/>
	<path id="Vector" d="M17.44 15.17C17.53 16.26 18.52 17.04 19.6 17.04L21.5 17.04L21.5 18.24C21.5 20.31 19.81 22 17.74 22L7.63 22C7.94 21.74 8.2 21.41 8.42 21.06C8.78 20.45 9 19.75 9 19C9 16.79 7.21 15 5 15C4.06 15 3.19 15.33 2.5 15.87L2.5 11.51C2.5 9.43 4.18 7.75 6.25 7.75L17.74 7.75C19.81 7.75 21.5 9.43 21.5 11.51L21.5 12.95L19.48 12.95C18.92 12.95 18.41 13.16 18.04 13.55C17.62 13.96 17.37 14.55 17.44 15.17Z" stroke="#131313" stroke-opacity="1.000000" stroke-width="1.500000" stroke-linejoin="round"/>
	<path id="Vector" d="M22.56 16.03C22.56 16.58 22.12 17.03 21.56 17.04L19.6 17.04C18.52 17.04 17.53 16.26 17.44 15.17C17.37 14.55 17.62 13.96 18.04 13.54C18.41 13.16 18.92 12.95 19.48 12.95L21.56 12.95C22.12 12.97 22.56 13.41 22.56 13.97L22.56 16.03Z" stroke="#131313" stroke-opacity="1.000000" stroke-width="1.500000" stroke-linejoin="round"/>
	<path id="Vector" d="M8.42 21.06C8.2 21.41 7.94 21.74 7.63 22C6.93 22.62 6 23 5 23C3.53 23 2.27 22.22 1.58 21.06C1.21 20.45 1 19.75 1 19C1 17.74 1.58 16.61 2.5 15.87C3.19 15.33 4.06 15 5 15C7.21 15 9 16.79 9 19C9 19.75 8.78 20.45 8.42 21.06Z" stroke="#131313" stroke-opacity="1.000000" stroke-width="1.500000" stroke-linejoin="round"/>
	<path id="Vector" d="M3.44 19L4.42 19.99L6.56 18.02" stroke="#131313" stroke-opacity="1.000000" stroke-width="1.500000" stroke-linejoin="round" stroke-linecap="round"/>
	<g opacity="0.000000"/>
</svg>
