<svg width="24.000000" height="24.000000" viewBox="0 0 24 24" fill="none" xmlns="http://www.w3.org/2000/svg" xmlns:xlink="http://www.w3.org/1999/xlink">
	<desc>
			Created with Pixso.
	</desc>
	<defs/>
	<path id="Vector" d="M17 7L7 7C6.72 7 6.45 7.02 6.19 7.06C6.33 6.78 6.53 6.52 6.77 6.28L10.02 3.02C11.39 1.65 13.61 1.65 14.98 3.02L16.73 4.79C17.37 5.41 17.7 6.21 17.75 7.05C17.51 7.01 17.26 7 17 7Z" stroke="#0F9565" stroke-opacity="1.000000" stroke-width="1.500000" stroke-linejoin="round"/>
	<path id="Vector" d="M22 12.5L19 12.5C17.9 12.5 17 13.39 17 14.5C17 15.6 17.9 16.5 19 16.5L22 16.5" stroke="#0F9565" stroke-opacity="1.000000" stroke-width="1.500000" stroke-linejoin="round" stroke-linecap="round"/>
	<path id="Vector" d="M8.42 21.06C7.73 22.22 6.46 23 5 23C3.54 23 2.27 22.22 1.58 21.06C1.21 20.45 1 19.75 1 19C1 16.79 2.79 15 5 15C7.21 15 9 16.79 9 19C9 19.75 8.79 20.45 8.42 21.06Z" stroke="#131313" stroke-opacity="1.000000" stroke-width="1.500000" stroke-linejoin="round"/>
	<path id="Vector" d="M6.49 18.98L3.51 18.98" stroke="#131313" stroke-opacity="1.000000" stroke-width="1.500000" stroke-linejoin="round" stroke-linecap="round"/>
	<path id="Vector" d="M5 17.52L5 20.51" stroke="#131313" stroke-opacity="1.000000" stroke-width="1.500000" stroke-linejoin="round" stroke-linecap="round"/>
	<g opacity="0.000000"/>
	<path id="Vector" d="M22 17C22 20 20 22 17 22L7.63 22C7.94 21.74 8.21 21.41 8.42 21.06C8.79 20.45 9 19.75 9 19C9 16.79 7.21 15 5 15C3.8 15 2.73 15.53 2 16.35L2 12C2 9.28 3.64 7.37 6.19 7.06C6.45 7.02 6.72 7 7 7L17 7C17.26 7 17.51 7.01 17.75 7.05C20.33 7.35 22 9.26 22 12L22 17Z" stroke="#131313" stroke-opacity="1.000000" stroke-width="1.500000" stroke-linejoin="round"/>
</svg>
