<svg width="24" height="24" viewBox="0 0 24 24" fill="none" xmlns="http://www.w3.org/2000/svg">
<path fill-rule="evenodd" clip-rule="evenodd" d="M19.2137 11.135C18.996 11.6946 18.996 12.3154 19.2137 12.875L19.3413 13.2425C19.8059 14.4559 19.2432 15.821 18.0584 16.355L17.7208 16.505C17.167 16.7436 16.719 17.1755 16.4603 17.72L16.3103 18.0575C15.7761 19.242 14.4106 19.8045 13.1968 19.34L12.8517 19.2125C12.2919 18.9949 11.6709 18.9949 11.1111 19.2125L10.766 19.34C9.55219 19.8045 8.18666 19.242 7.6525 18.0575L7.50245 17.72C7.26378 17.1664 6.83178 16.7186 6.28706 16.46L5.94945 16.31C4.76459 15.776 4.20193 14.4109 4.66653 13.1975L4.79407 12.8525C5.0118 12.2929 5.0118 11.6721 4.79407 11.1125L4.66653 10.7675C4.20193 9.5541 4.76459 8.18901 5.94945 7.65502L6.28706 7.50502C6.82395 7.25756 7.25491 6.82674 7.50245 6.29002L7.675 5.95252C8.20975 4.75616 9.59081 4.19136 10.811 4.67002L11.1561 4.79752C11.7159 5.01517 12.3369 5.01517 12.8967 4.79752L13.2418 4.67002C14.4556 4.20557 15.8212 4.76805 16.3553 5.95252L16.5054 6.29002C16.7529 6.82674 17.1839 7.25756 17.7208 7.50502L18.0584 7.67752C19.2432 8.21151 19.8059 9.5766 19.3413 10.79L19.2137 11.135ZM11.0506 14.5175L15.267 10.3025C15.4051 10.1576 15.4051 9.92983 15.267 9.78497L14.8693 9.38747C14.7235 9.24454 14.49 9.24454 14.3442 9.38747L10.788 12.9425L9.66266 11.825C9.59459 11.7525 9.49955 11.7113 9.40008 11.7113C9.30061 11.7113 9.20557 11.7525 9.1375 11.825L8.73987 12.2225C8.66885 12.2929 8.62891 12.3887 8.62891 12.4887C8.62891 12.5887 8.66885 12.6846 8.73987 12.755L10.5254 14.5175C10.5935 14.59 10.6886 14.6311 10.788 14.6311C10.8875 14.6311 10.9825 14.59 11.0506 14.5175Z" fill="#0098DA"/>
</svg>
