<svg width="24" height="24" viewBox="0 0 24 24" fill="none" xmlns="http://www.w3.org/2000/svg">
<g id="ic24-visibility-off">
<path id="Icon" fill-rule="evenodd" clip-rule="evenodd" d="M5.63604 5.56529L10.6072 10.5356C10.9673 10.1877 11.4585 9.97347 12 9.97347C13.1046 9.97347 14 10.8649 14 11.9646C14 12.5071 13.7821 12.9989 13.4287 13.3581L18.364 18.2932C18.7545 18.6837 18.7545 19.3169 18.364 19.7074C17.9734 20.0979 17.3403 20.0979 16.9497 19.7074L16.0498 18.8084C14.7649 19.5525 13.4151 19.9292 12 19.9292C8.41439 19.9292 5.2486 17.5106 2.49391 12.8261L2.28282 12.4613L2 11.9646L2.28282 11.4679C3.12423 9.99032 4.00457 8.72699 4.92408 7.68241L4.22183 6.9795C3.8313 6.58897 3.8313 5.95581 4.22183 5.56529C4.61235 5.17476 5.24551 5.17476 5.63604 5.56529ZM4.54508 11.5687L4.30469 11.9644L4.51273 12.3076C6.87454 16.1382 9.37352 17.9378 11.9994 17.9378C12.8722 17.9378 13.7307 17.7393 14.5744 17.3341L10.7957 13.5547C10.6446 13.4412 10.5102 13.3068 10.3968 13.1558L6.33686 9.09375C5.73119 9.79511 5.13388 10.6189 4.54508 11.5687ZM11.9978 4C15.5834 4 18.7492 6.41863 21.5039 11.1031L21.715 11.4679L21.9978 11.9646L21.5091 12.8173C20.7403 14.1258 19.9394 15.2576 19.1064 16.2096L17.6943 14.7975C18.3713 14.0081 19.0374 13.0654 19.6926 11.9648C17.2696 7.89826 14.7009 5.99116 11.9978 5.99116C11.1415 5.99116 10.2987 6.18253 9.46978 6.5733L7.99219 5.09542C9.26384 4.36816 10.5989 4 11.9978 4Z" fill="#C4C4C4"/>
</g>
</svg>
